<?xml version="1.0" encoding="UTF-8"?><svg id="Layer_1" xmlns="http://www.w3.org/2000/svg" width="1024" height="1536" viewBox="0 0 1024 1536"><defs><style>.cls-1{fill:#4c8525;}.cls-2{fill:#be7f12;}.cls-3{fill:#f4f4f4;}.cls-4{fill:#631a1f;}.cls-5{fill:#c6e6ff;}.cls-6{fill:#8ab23d;}.cls-7{fill:#204b38;}.cls-8{fill:#151557;}.cls-9{fill:#fff;}.cls-10{fill:#163526;}.cls-11{fill:#f5d0e4;}.cls-12{fill:#771d23;}.cls-13{fill:#875a35;}.cls-14{fill:#1d442f;}.cls-15{fill:#701b1e;}</style></defs><path class="cls-5" d="M46,229l1.42,3.28c2.55,29.72,6.73,59.36,11.6,88.85-1.23,7.08-.71,7.8,1.53,2.16,22.37-20.37,42.63-42.87,62.56-65.54l3.89-2.75c14.09.85,28.39,4.65,41,11l2.52,5.57c3.06,28.71,11.19,56.51,19.55,84.04,19.92-21.26,39.46-43.19,55.24-67.78l4.69-3.83c14.74-.34,30.27,2.63,44,8l2.99,5.37c2.61,14.26,6.94,28.07,11.31,41.86,2.03,6.39,11.78,36.92,14.07,38.97.73.66,10.38-13.53,11.87-15.74,12.59-18.7,24.73-37.5,35.94-57l2.82-2.46c13.2-1.74,28.35-.16,41,4l2.56,3.68c10.2,27.57,21.4,54.83,34.22,81.31,15.43-25.43,29.86-51.51,42.67-78.31l2.55-2.68c11.26-2.83,23.75-2.88,35,0l2.51,2.58c11.07,25.59,24.02,50.18,38.87,73.75l1.92,5.31c12.46-26.96,24.14-54.29,35.05-82.01l2.66-3.63c12.55-4.1,26.91-5.7,40-4l2.85,2.45c14.56,25.3,30.87,49.42,48.92,72.36.8,4.52,1.23,4,1.29-1.57,11.13-25.68,19.81-52.1,26.04-79.26l2.9-4.97c13.12-5.25,28.88-7.53,43-7l4.08,3.25c15.08,25.13,33.87,47.92,53.52,69.12,8.44-28.28,15.53-56.91,21.26-85.9l2.13-4.48c12.61-6.34,26.91-10.15,41-11l3.36,2.07c19.06,22.69,39.57,43.97,61.54,63.86,1.71,4.66,2.08,3.95,1.11-2.15,5.47-27.38,8.8-54.98,9.99-82.81l2-5.96c.86-.84,1.73-1.65,2.69-2.36,4.94-3.63,34.84-14.69,40.72-14.87,1.19-.04,2.39.07,3.59.22v540c-.22,8.55-.72,17.08-1.5,25.58-.53,3.63-5.12,3.69-3.5.42-2.27-2.46-1.1-6.84,2-8,.56-5.99.88-12.01,0-18l-2.51-1.41c-10.14-22.44-19.87-44.8-29.2-67.09-2.24-3.52-6.07-4.89-11.48-4.1l-28.6.59-2.21-1.99c-14.27,2.68-28.74,2.71-43,0-1.61,1.95-3.39,1.95-5,0-10.71,6.2-27.16,14.15-48.41,18.42-11.44,2.3-27.26,4.1-63.44.1-22.19-2.45-52.17-7.11-87.39-16.64-.59-.63-1.17-1.25-1.76-1.88-.19.89-.52.86-1,0-14.6,2.72-29.4,2.67-44,0l-1.42,2c-12.66-.85-25.21-.64-37.65.64l-2.45,2.13c-8.98,21.73-18.02,43.65-27.12,65.75-10.15,24.79,8.77,51.61,34.26,35.54l2.39.95c1.55,1.76,1.76,4.56.63,8.4.43,30.23.75,60.56.96,90.99-.8,2.7-2.61,3.28-3.59.61l-1.99,1.47c-11.99-3.1-19.55,4.45-21.74,15.74l-2.26.79c-.84,2.14-3.49,2.81-7.96,2-4.73.79-8.07.12-10.04-2l-2.19-.95c-3.37-21.13-29-23.15-30.71-.29l-2.11,1.24-1.12,2h-18.47l-1.41-2-2.19-1.03c-1.77-22.83-25.8-21.22-28.7.2l-2.12.84-1.15,2h-17.42l-1.43-2-2.16-.98c-2.22-22.17-28.91-21.5-30.68.74l-2.16,1.24c-.51,2.88-13.3,2.63-15.6,2l-1.4-2-2.19-1.34c-1.18-9.77-7.13-18.16-17.85-16.88l-1.96-1.78c-4.68,1.36-3.28-3.34,1.64-4.14,11.75-1.92,21.74,9.43,23.62,20.19l10.64-.12c5.49-26.97,35.65-25.59,42.27-.03l12.23.14c4.81-25.24,36.86-27.88,39.5-.17l13.53.18c5.28-25,36.25-28.16,41.64-1.3,4.62.45,9.28.49,13.96.12,1.16-9.46,8.69-17.17,18.1-18.67,3.22-.51,9.56-1.11,9.88,2.8l-2-1.21c-.1-30.66-.04-61.3.2-91.92l1.8-1.87c-3.73,7.95-18.33,7.02-25.7,3.92-21.02-8.85-20.7-34.56-11.68-52.37,9.2-19.21,17.67-39.42,25.05-59.66.32-.87-7.4-17.12-9.28-3.17-3.26,2.06-7.17,3.29-11.73,3.69-.73,6.88-5.54,10.62-9.11,2.96,7.09-7.59.64-7.66-4.85-3.1-4.24,1.12-8.3,2.61-12.19,4.47,1.23,6.75-7.67,12.74-12.87,6.46-2.9,4.05-6.46,6.05-10.69,6-1.86,5.17-5.62,5.75-10.05,3.07-2.27,2.1-5.14,3.03-8.63,2.8-2.8,7.04-8.5,8.5-14.14,3.19-4.37,3.2-6.61,2.21-7.86-2.86-5.14.67-8.17-1.81-4.2-6.06l-2.96-1.14c-2.3-4.58-4.23-2.19-5.79,7.19-1.68,2.58-4.34,1.9-7.96-2.05-.2,6.24-10.67,10.36-10.41,2.02-4.63,2.93-10.97,6.63-10.8-1.6l-2.92,1.21c-.86,6.89-12.43,9.51-11.1.62l-3.46-1.19c-8.43,14.23-11.42.73-7.15-8.42-3.88-1.59-8.07-2-12.57-1.24l-1.32-1.02c2.49-3-6.56-8.23-7.15-8.12-4.26,3.46-8.77,1.91-9.45-3.6-2.54.13-4.78-.33-6.9-1.76-5.06,1.5-8.13-.81-6.77-6.08-5.22.71-8.61-2.19-10.2-8.72-6.05-.98-9.91-6.57-6.77-12.31-2.36-1.26-3.66.83-3.89,6.25,14.22,29.93,28.29,59.97,41.45,90.37,1.68,10.21-1.6,32.96-11.14,38.4-2.57,1.47-5.44,3.02-4.83-1.13l.37-2.82c9.53-8.07,11.69-21.12,10.47-33l-42.72-92.13c-6.33-10.16-18.48-12.43-29.66-12.61l-23.69.57-1.76-2c-16.71,2.94-34.3,3.09-51,0-18.15,1.63-36.85,1.62-55,0-16.34,3.19-34.66,3.15-51,0-8.06,1.64-17.45,1.65-25.5,0-.09.56-.18.99-.3,1-5.7.31-13.93.46-18.7-1-2.37,1.57-8.48,1.69-10.5,0-16.57,3.21-34.42,3.17-51,0-7.6,3.09-18.65,3.22-27.23,3.12-4.67.83-8.59.13-11.77-2.12V212c15.84,2.17,32.34,8.69,46,17Z"/><path class="cls-13" d="M1024,204v10c-15.85,5.1-31.28,11.56-47,17-20.7,10.62-44.44,17.43-67,23.87-1.74.5-3.57.71-5.41.9s-3.72.23-5.59.23c-13.51,3.88-27.37,7.56-41,11-1.33.87-2.67,1.7-4.08,2.4s-2.8,1.37-4.27,1.74c-20.9,5.32-42.14,10.04-63.33,14.08-1.49.28-3.04.27-4.61.23s-3.14-.22-4.71-.45c-14.25,2.74-28.66,4.74-43,7-2.18.87-4.38,1.7-6.61,2.38s-4.45,1.33-6.72,1.7c-18.1,2.98-36.48,5.46-54.72,7.37-2.29.24-4.61.2-6.94.12s-4.68-.3-7.01-.57c-13.29,1.43-26.67,2.97-40,4-1.87.66-3.74,1.29-5.66,1.76s-3.8.92-5.72,1.08c-19.25,1.58-38.73,2.57-58.05,2.91-1.92.03-3.85-.23-5.79-.53s-3.87-.74-5.78-1.23c-11.61.18-23.39.24-35,0-1.57.48-3.16.93-4.77,1.23s-3.2.57-4.78.54c-20.97-.34-42.12-1.46-63.03-3.08-1.59-.12-3.16-.55-4.75-1.01s-3.14-1.05-4.67-1.69c-13.43-1.03-27.48-2.53-41-4-2.08.29-4.16.55-6.25.65s-4.14.16-6.18-.05c-22.19-2.34-45.41-4.98-66.57-11.59-14.76-2.37-29.34-5.2-44-8-2.06.13-4.12.22-6.17.17s-4.06-.14-6.03-.5c-19.6-3.66-39.25-7.95-58.58-12.82-1.94-.49-3.81-1.27-5.68-2.08s-3.71-1.77-5.52-2.76c-13.78-3.49-27.34-7.09-41-11-23.91-3.44-48.01-12.07-70.91-20.31-1.78-.64-3.47-1.56-5.16-2.51s-3.33-2.05-4.94-3.17c-15.38-5.51-30.57-11.63-46-17v-10c194.51,75.37,406.39,111.13,615.49,94.99,140.12-10.81,277.58-43.43,408.51-92.99Z"/><path class="cls-5" d="M1024,1028c-1.37,3.25-8.71,8.18-12.12,6.33-4.09-8.17-12.47-15.59-21.75-16.2l-1.13-2.13c-.64-15.8-.8-31.66-.48-47.57-2.36-.97-2.54-8.76.48-9.43l1.21-1.98c5.44.07,7.84-.5,8.79-6.07,3.07-17.99-2.49-17.87-18.4-16.93l-1.59-2.02-2-.7c-.18-49.19-.36-98.38-.55-147.57.85.76,1.7,1.52,2.55,2.27l2.67-.34c11.87,9.53,26.6,6.06,34.88-6.14l2.45.47c.08-.01.47.84.89.96,5.22-8.38,1.54-18.05,4.11-26.96v274Z"/><path class="cls-8" d="M127,255c-20.79,26.39-43.92,50.65-68.99,73-4.7-32.89-11.28-65.67-12.01-99,26.91,9.65,53.5,18.12,81,26Z"/><path class="cls-7" d="M250,284c-16.15,27.16-37.86,50.26-58.71,73.72-.59.67.06,1.92-2.28,1.28-9.18-30.35-18.5-61.18-21.01-93,27.28,6.92,54.34,12.71,82,18Z"/><path class="cls-11" d="M858,267c-5.39,31.43-12.44,62.6-22.01,93-1.75.35-2.46-.91-3.5-1.98-9.82-10.15-20.7-23.37-29.44-34.56-9.42-12.05-18.84-24.95-26.04-38.46,26.64-5.11,54.7-11.36,81-18Z"/><path class="cls-7" d="M977,231c.38,31.97-5.78,63.61-11.01,95-24.82-20.68-46.93-44.74-66.99-70,26.05-7.48,52.38-16.13,78-25Z"/><path class="cls-8" d="M734,292c-4.99,31.28-17.75,60.62-29.01,90-20.56-23.95-37.92-51.14-52.99-79,27.46-2.95,54.75-6.7,82-11Z"/><path class="cls-15" d="M496,311c-11.75,28.9-27.81,55.75-43.92,82.37l-2.07.63c-14.27-28.02-26.64-56.92-36.02-87,26.94,2.06,55.28,3.45,82,4Z"/><path class="cls-7" d="M612,307c-10.15,29.9-22.43,59.25-37.5,86.98-17.98-25.65-31.61-54.07-43.5-82.98,26.81-.41,54.2-1.93,81-4Z"/><path class="cls-11" d="M373,303c-13.07,24.74-28.32,49.86-45.61,71.89-.98,1.25-4.88,7.45-6.38,6.11-10.44-29.16-21.91-58.25-27.01-89,26.23,4.22,52.57,8.14,79,11Z"/><path class="cls-5" d="M0,202V0h1024v204c-4.05,2.57-8.16,5.11-12.65,6.86-19.87,7.75-40.33,14.41-60.63,20.97-279.28,90.25-559.57,94.46-840.6,10.1-32.69-9.81-66.3-20.49-97.98-33.14-4.32-1.73-8.27-4.24-12.14-6.78Z"/><path class="cls-9" d="M288.01,97c23.28-18.86,56.19-2.6,55,27,15.58-5.85,43.18,1.76,46.54,19.95,2.14,11.58-4.1,16.15-15.05,16.14-48.53-.04-98.18-.11-146.95-.04-54.48.07-109.17.28-163.53-.56-9.33-7.88-3.2-20.88,4.66-27.31,14.18-11.61,36.12-13.65,52.32-5.18-3.01-34.1,33.76-54.55,60-31,2.66-32.61,27.27-59.96,62.06-54.55,24.56,3.82,44.96,31.19,44.96,55.55Z"/><path class="cls-9" d="M71.25,485.49c23.28-18.86,56.19-2.6,55,27,15.58-5.85,43.18,1.76,46.54,19.95,2.14,11.58-4.1,16.15-15.05,16.14-48.53-.04-98.18-.11-146.95-.04-54.48.07-109.17.28-163.53-.56-9.33-7.88-3.2-20.88,4.66-27.31,14.18-11.61,36.12-13.65,52.32-5.18-3.01-34.1,33.76-54.55,60-31,2.66-32.61,27.27-59.96,62.06-54.55,24.56,3.82,44.96,31.19,44.96,55.55Z"/><path class="cls-9" d="M693,92c-2.32-1.53-3.25-15.37-3.03-18.54,3.04-45.25,65.9-50.61,99.57-39.5,8.97,2.96,16.85,8.35,25.46,12.03,2.24-45.78,58.55-52.7,77.03-13,17.49-13.44,43.72-3.19,54.17,14.31,1.35,2.26,4.42,11.22,4.94,11.56,1.01.65,7-.09,9.28.22,12.09,1.69,23.65,15.83,21.34,28.17-.2,1.09-1.35,4.74-2.25,4.74h-286.5Z"/><path class="cls-9" d="M805.26,531.42c-2.32-1.53-3.25-15.37-3.03-18.54,3.04-45.25,65.9-50.61,99.57-39.5,8.97,2.96,16.85,8.35,25.46,12.03,2.24-45.78,58.55-52.7,77.03-13,17.49-13.44,43.72-3.19,54.17,14.31,1.35,2.26,4.42,11.22,4.94,11.56,1.01.65,7-.09,9.28.22,12.09,1.69,23.65,15.83,21.34,28.17-.2,1.09-1.35,4.74-2.25,4.74h-286.5Z"/><path class="cls-5" d="M389,787c.09-.05.7,1.16,1.91.56,10.76-5.27,13.75-27.45,12.03-38-13.49-30.13-27.32-59.93-41.3-89.79.45-1.47,1.05-8.45,1.36-8.77.4-.41,6.92-.21,6.97,1.49.04,1.35-4.08,3.84.12,8.91,1.78,2.15,3.94,1.2,5.42,2.57,3.25,3.01.33,11.31,11.47,7.03.24,2.3-2.35,6.01,0,7.55,1.16.77,2.91-.63,4.29-.36,1.17.22,2.21,1.27,3.46,1.57,1.69.41,3.93-.11,5.36.69,1.02.58-.06,2.41.42,3.48,1.6,3.53,9.08.22,5.48-3.93,4.52-.91,2.11,1.62,3.93,4.55,2.17,3.5,8.55,2.24,6.07,8.44,2.45.82,5.67-1.04,7.56-.9,1.55.11,2.59,1.89,3.95,1.91,1.25.02,4.34-3.13,5.49-2,1.67,1.64-2.76,4-3.36,6.11-.46,1.61-1.63,10.09-.62,10.88,2.5.06,5.07-7.04,5.52-7.03.33,0,6.13,1.88,6.35,2.14.61.71-.13,3.64.12,4.9,2.42.92,7.17-1.02,6.98-3.51-.13-1.67-9.02-1.62-2.48-6.47,1.45.52,2.31,3.93,3.13,4.06,3.43.55,8.42-6.83,6.37,3.91.79.88,11.2-4.36,11.5-6.99,1.31,1.63-1.63,6.78-.5,7.99.58.62,4.84-.82,5.51-1.98.93-1.62.24-4.75.49-5.02,1.34-1.47,7.41,2.84,7.49,5,2.5-1.08,1.13-12.76,7.01-12.08,2.14.25,1.91,2.07,2.82,2.75s2.62.55,3.22,1.27c1.78,2.11-1.5,4.15-1.53,4.57-.14,2.05,4,0,5.56,1.38s1.27,3.97,1.43,4.12c1.24,1.14,4.11-2.03,5.31-1.85,1.57.23,3.79,3.69,6.76,3.35,4.8-.54,4.21-5.47,6.6-6.33,1.42-.51,3.55-.04,5.37-.62,1.36-.43,2.55-2.18,3.62-2.37,1.84-.32,3.68,2.82,6.32,1.37,1.42-.78,1.83-3.26,3.04-4.07.73-.49,3.25.18,5.65-1.25,2.63-1.57,4.13-6.21,7.26-4.77,1.5.69,2.19,3.56,5.39,2.44.29-.1,4.35-3.85,4.5-4.12.58-1.03-.55-2.34-.46-3.3.24-2.63,11.16-5.08,13.55-6.06,3.85-1.57,5.03-5.73,10.66-1.46.64,3.2-.95,5.15-3.57,6.53,6.25,6.28,3.97-2.72,6.39-4.59,2.15-1.67,8.78-1.22,11-2.79,1.04-.74.22-3.28,2.03-5.17,6.07-6.34,9.11,4.76,11.1,9.13-5.86,13.7-10.71,27.81-16.36,41.6-6.68,16.3-16.28,28.11-14.1,46.74,2.34,19.91,23.78,30.01,40.92,19.58v95c-12.23-4.37-25.94,4.8-26.04,17.95-3.32-.47-15.88,1.23-17.48-.93-.7-.94-1.22-5.22-2.44-7.56-10.14-19.44-33.78-9.94-35.61,9.59l-17.43-.05c-.53-27.45-32.52-25.88-35.61.06l-16.26-.19c-4.37-25.71-34.98-26.93-38.23.03l-14.29.16c-2.04-5.94-3.18-12.56-8.68-16.49-3.1-2.22-13.35-5.59-15.93-2.55-.58.68,1.01.92,1,.99-.11.61-7.64,5.06-9.42,8.08-2.36,3.98-2.07,7.77-2.58,11.92-.09.78-.35,1.95-.91,2-3.27.29-24.74.59-26.62,0l-1.47-2-2-.69v-116.1l2-1.21,2.83-.55c10.39,6.74,22.24,4.07,32.53-1.36l2.63.91Z"/><path class="cls-5" d="M575.93,682.07c.17.11,1.33,3.67,1.07,3.92-.14.13-2.03-.14-2.96.51-2.17,1.53-.55,6.23-4.04,5.5-.34-2.71,2.65-12.05,5.93-9.93Z"/><path class="cls-5" d="M533.74,704.26c2.95,3.2.03,5.56-3.74,4.73l.46-5.03c.76-1.35,2.69-.34,3.28.3Z"/><path class="cls-5" d="M567,690.02c.16.19-.06,1.36,0,1.98h-5s.01-2.99.01-2.99c.29-.31,4.8.78,4.99,1.01Z"/><path class="cls-5" d="M551.99,696c.37,1.62-.07,5.54-2.48,4.99-2.97-.67.49-4.15,2.48-4.99Z"/><path class="cls-6" d="M414,1036c66.46-28.36,124.94-16.92,158.49-9.86,50.12,10.54,56.01,24.92,57.28,28.64,6.4,18.67-10.55,39.76-15.43,45.49,89.32-40.6,152.52-40.37,195.06-31.26,28.96,6.2,89.88,25.41,124.32-3,7-5.77,13.71-14.17,28.01-20.18,22.43-9.42,45.68-5.46,62.27-.38-.02,163.49-.04,326.99-.06,490.48-341.25,0-682.51,0-1023.76,0-.05-148.06-.11-296.13-.16-444.19,42.44,10.21,79.19,12.05,108.48,10.79,34.07-1.46,64.67-7.4,72.29-8.92,57.65-11.54,72.97-25.55,106.33-19.59,7.51,1.34,19.3,4.3,36.09,2.95,16.7-1.34,29.97-6.27,38.35-10.07,11.43-8.88,29.02-20.91,52.46-30.91Z"/><path class="cls-1" d="M989,1016c.99.32,3.1-.13,4.99.49,7.41,2.41,16.54,8.98,19.05,16.48,2.01,1.41,7.83-5.52,10.96-4.97v61c-7.42-.54-13.61-.39-18.16-.11-6.72.41-19.45,1.19-20.03,4.75-.15.91.54,1.8,1.19,2.44v-78.87l2-1.2Z"/><path class="cls-9" d="M466,905c4.27,6.98,4.16,20.43,1,28,1.08,4.14,1.98,8.35,2.15,12.64.84,20.82.7,42.85-2.15,63.36.78.21,1.91.53,2,1.15.49,3.55.58,20.1,0,23.41l-2,1.44,2,1.45v29.1l-2,1.45c-11.38.02-23.6,0-35,0-2.28-8.99-3.88-21.95,0-31-3.36-7.58-4.07-18.28-1-26-3.21-6.68-2.24-18.8,1-25.5-.78-.09-1.94-.33-2-.9-.67-6.39-.87-24.51,0-30.64l2-1.46c-3.21-3.4-4.13-14.88-1-18.5l-2.04-2.67c-.6-4.27-1.06-17.96-.17-21.68.28-1.15,1.31-1.96,2.21-2.64,1.24-12.72,8.6-23.45,22.83-19.33,8.55,2.48,11.13,10.56,12.17,18.33Z"/><path class="cls-9" d="M575,905l2.18,1.43c.29,7.94.23,15.88-.18,23.83l-2,1.74c1.06,3.87,1.94,7.81,2.11,11.84.89,21.37.71,44.13-2.11,65.16,3.01,8.26,2.93,17.72,0,26,2.95,10.43,2.87,21.55,0,32-11.84.21-23.42.06-35,0-2.49-10.67-2.46-21.32,0-32-3.07-8.07-3.05-17.93,0-26-1.07-4.22-1.75-8.51-1.93-12.86-.87-20.91.3-43.48,2.93-64.14-3.04-4.3-3.1-13.07-3.06-18.75-.78-3.63-.09-6.38,2.06-8.25.55-7.69,2.09-14.14,9.63-17.87,13.19-6.54,23.61,5.48,25.37,17.87Z"/><path class="cls-9" d="M414.9,905.74c1.53,6.58,1.43,13.44,1.33,20.2-.63,45.64-.24,91.29.02,136.94,0,1.65-.13,3.59-1.53,4.47-1.03.65-2.21.56-2.61.51-3.05-.33-14.73-.6-31.12-.87-1.24-.78-2.9-2.09-4.05-4.17-3.01-5.47.48-12.12.65-14.69.72-10.92,1.07-21.86,1.07-32.81-.02-37.13-4.21-74.4.02-111.29.55-4.77,1.35-9.8,4.44-13.47,4.58-5.45,13.26-6.14,19.51-2.75,6.25,3.39,10.22,10.03,12.01,16.91.09.33.17.67.25,1.01Z"/><path class="cls-9" d="M519,905l2.36,2.69c.59,7.11.8,14.23.62,21.37l-1.98,2.95,1.38,4.53c1.01,21.04.35,42.37-.33,63.48-.05,1.5-.36,3-.71,4.5s-.83,3.01-1.35,4.49c3.24,6.89,4.09,19.07,1,26,3.08,10.32,2.94,21.66,0,32-10.66.06-22.39-.04-33,0l-1.38-2.49c-.26-9.4-.68-18.69-1.27-27.88l1.65-1.63c-3.26-7.8-3.06-18.13,0-26-1.03-3.61-1.89-7.28-2.01-11.04-.73-21.56.04-44.75,3.01-65.96l-2.02-1.85c-.6-7.85-.97-15.7-1.1-23.56l2.12-1.59c.64-6.43,4.52-16.01,11.27-18.23,15.05-4.95,19.93,5.91,21.73,18.23Z"/><path class="cls-9" d="M619,887c.47-.06.92-.08,1.33.05,1.79.56,1.56,33.06,1.49,37.1.8,4.04.19,6.66-1.83,7.85l-1.44,1.99c-4.77-.56-9.44-.26-14.01.9-2.14,1.03-3.78,20.28,1.19,20.39,3.12.14,5.21,1.05,6.26,2.72,3.13.57,2.99,9.16,0,10,0,32.98-.29,66.03,0,99h-15c-.57-.51-1.1-1.04-1.53-1.65-2.42-3.47-2.13-25.63.53-30.35-3.37-7.75-3.94-18.06-1-26-3.19-25.57-3.52-51.35-1-77l-2.03-1.66c-.5-7.95-.84-15.91-1.02-23.86l2.05-1.47c.05-.93,3.05-9.39,3.79-10.71,4.36-7.8,13.98-10.21,22.21-7.29Z"/><path class="cls-5" d="M596,1035c.34,10.69-.3,21.35,1,32-7.31,0-14.69-.13-22,0-.05-10.65.06-21.35,0-32l1.12-2h18.47l1.41,2Z"/><path class="cls-5" d="M486,1035c.02.73.99,2.55,1.04,4.43.25,9.17-.27,18.41-.04,27.57-6.36.02-13.71-.01-20,0v-32l2-1.45c5.06.85,10.15.73,15.28-.36l1.73,1.81Z"/><path class="cls-5" d="M540,1035c.03,10.65-.02,21.35,0,32-6.6-.04-13.35-.04-20,0-.08-10.65.1-21.35,0-32l1.15-2h17.42l1.43,2Z"/><path class="cls-5" d="M376,1036c0-2.93,3.34-2.8,4,0,.01,5.11-.18,10.37-.16,15.6.02,4.55.08,8.85.99,14.44.07.41.12.74.16.97-1.08.37-2.2.99-3.46,1-5.51.02-11.04,0-16.54,0-1.51-9.7-1.96-20.49,0-30,.03-.66-.05-1.34,0-2,4.99,0,10.02,0,15.01,0Z"/><path class="cls-5" d="M432,1036c.18,6.49-.3,13.06-.04,19.54.15,3.84,2.41,7.69.04,11.46-5.45,0-12.06,1-18,1v-32c.1-.77.31-1.89.89-2,1.21-.22,14.79-.26,15.68,0l1.43,2Z"/><path class="cls-3" d="M540,905c-.65,9,1.03,18.33,1,27-.21.78-.52,1.93-1.12,2-1.84.21-17.66.45-18.47,0-.76-.42-1.15-1.2-1.41-2-.13-9.41.36-17.7-1-27h21Z"/><path class="cls-3" d="M486,905c-.73,7.31,1.06,18.69,1,27l-1.52,2.08c-5.54-.41-11.04-.27-16.49.41l-2-1.49c-.16-9.36.25-18.7-1-28h20Z"/><path class="cls-3" d="M593,905c-.37,6.99.92,18.96,1,27-.1.77-.32,1.93-.88,2-1.54.19-16.04.49-16.72,0s-1.21-1.12-1.41-2c-.1-7.91,1.03-19.75,0-27h18Z"/><path class="cls-3" d="M431,906c-.84,8.62-.07,18.54,0,27-.51,2.88-13.3,2.63-15.6,2l-1.4-2c.06-4.45.17-8.97.32-13.57.15-4.64.35-9.2.58-13.69,5.37.09,10.73.17,16.1.26Z"/><path class="cls-3" d="M380,1010c0,8.65-.02,17.35,0,26h-4c-2.11-2.43-14.11-.1-15.01-.99-.02-7.65.04-15.35,0-23.01,0-.67,0-1.33,0-2,.1-.77.32-1.92.88-2,1.49-.21,15.95-.34,16.72,0s1.11,1.21,1.41,2Z"/><path class="cls-5" d="M379,933c.18,25.32.98,51.36,1,77h-19c-.06-16.65.04-33.35,0-50,8.54-.28,11.93,1.76,12.99-8.52.53-5.11,1.56-16.4-4.99-17.48-3.04-4.16,6.55-3.97,10-1Z"/><path class="cls-3" d="M378.47,906c.29,4.3.5,8.79.59,13.47.09,4.7.06,9.21-.07,13.53-2.83-.02-5.68-.02-8.52.03-1.56.03-1.39.97-1.48.97-5.16,0-12.07-.94-18-1v-27h27.47Z"/><path class="cls-5" d="M487,932c-.18,25.67-1.19,51.22-1,77-.09.78-.32,1.94-.88,2-3.55.4-13.13.4-16.72,0l-1.41-2c0-25.29.44-50.72,0-76,6.22-2.15,13.48-.5,20-1Z"/><path class="cls-3" d="M486,1009c.06,8.64-.2,17.36,0,26-6.13.66-12.96,2.28-19,0v-26h19Z"/><path class="cls-3" d="M431,1010c.05,8.67.75,17.32,1,26h-18v-26l1.12-2c2.93-.67,14.63-.84,15.88,2Z"/><path class="cls-5" d="M541,932c-.08,25.6-.99,51.32-1,77-.21.78-.52,1.93-1.12,2-1.84.21-17.66.45-18.47,0-.76-.42-1.15-1.2-1.41-2,0-25.49,1.37-51.33,1-77h21Z"/><path class="cls-5" d="M594,932c.24,25.62.55,51.31,1,77-.21.78-.54,1.93-1.15,2-2.36.26-17.22.26-18.19-.67-.34-.32-.52-.81-.66-1.33-.04-25.29.33-51.4,0-77h19Z"/><path class="cls-3" d="M595,1009c.15,8.73.72,17.32,1,26h-21c-.05-8.68.01-17.46,0-26h20Z"/><path class="cls-3" d="M540,1009c0,8.79-.02,17.23,0,26h-20c-.08-8.64-1-17.81-1-26h21Z"/><path class="cls-5" d="M431,933c.05,6.1,1,13.21,1,18.5v33c0,8.08-1.04,17.04-1,25.5h-17c0-25.64.33-51.37,0-77h17Z"/><rect class="cls-5" x="415" y="934" width="15" height="74"/><path class="cls-9" d="M859.02,680.48c3.55,10.46,6.97,22.4,9.75,35.7,2.6,12.44,4.21,24.01,5.17,34.43l-.93,3.39c-.07.79-.32,1.98-.88,2.02-11.77.79-30.79,1.89-42.09.88-2.75.64-4.43,0-5.03-1.9-.53-1.06-1.02-2.13-1.38-3.24-.35-1.08-.67-2.16-.74-3.24-1.29-20.62-2.12-41.32-2.87-61.97.03-.71.15-1.67.51-2.77.37-1.11.87-1.97,1.27-2.56-.14.27-.29.53-.46.78-5.99,8.82-29.05,2.97-39.15,0-.18.64-.35,1.28-.53,1.92.44-1.05.88-2.1,1.32-3.15-1.31,29.36-2.61,58.73-3.92,88.11l-2.05,1.12c-4.76,1.77-4.04-13.15-1-15,.05.47.06.93-.08,1.33-.64,1.91-35.83.96-39.93.67-3.3.65-5.3-.02-6-2,3.08.88,2.53,14.75,1.33,16.52l-2.33.48v-2l-2.33-2.2c-.75-10.08.69-20.01,4.33-29.8-.3-1.21-.56-2.43-.67-3.66-.11-1.22-.21-2.42.01-3.54,3.3-16.69,6.86-33.56,11.45-49.85,39.07-.15,78.15-.3,117.22-.46Z"/><path class="cls-7" d="M869,680c5-.03,10.03-.04,15.08-.04,5,0,9.97.01,14.92.04,1.67,0,3.33,0,5,0l2.03.45c6.31,24.24,12.52,48.54,18.61,72.89l-1.64,1.66c.86,1.84,1.87,4.46,2.4,7.72.27,1.62,2.74,18.44-9.34,27.4-9.68,7.17-21.35,3.86-22.61,3.48-9.9-2.99-17.37-11.72-19.47-22.59l-.98-1.01c-1.62-1.76-2.05-4.45-1.26-8.09-.93-3.69-.51-6.33,1.26-7.91-2.87-24.67-8.99-49.23-13.98-73.52,3.17-.92,6.71-.46,9.98-.48Z"/><path class="cls-7" d="M1022,759.37s.6,6.73-1.35,14.84c-.53,2.2-1.16,3.92-2.15,5.58-.76,1.27-1.71,2.42-2.68,3.54-1.84,2.14-3.78,4.24-6.09,5.87-5.67,4-13.25,4.77-19.93,2.88-2.28-.65-8.36-2.09-13.16-7.53-3.12-3.54-5.04-7.97-5.36-10.39-.04-.28-.21-1.66-.57-3.54-.33-1.67-.66-2.85-.7-3.1-.66-3.97-.03-8.14,1.79-11.73-2.39-1.49-3.43-4.38-4.31-7.06-7.34-22.32-14.67-44.65-22.01-66.97.37-1.29,2.03-1.6,3.37-1.67,11.01-.58,22.05-.77,33.08-.56,1.77.03,3.61.09,5.19.89,1.95.97,3.21,2.9,4.26,4.81,4.03,7.34,6.18,15.53,9.31,23.3,3,7.45,2.38,3.76,15.23,31.57,3.07,6.65,5.43,12.01,6.08,19.29Z"/><path class="cls-7" d="M653,680l1.62,1.5c-7.72,24.33-15.54,48.64-23.46,72.92l-2.16.58-.3,9.42c2.16.97,2.23,6.19-.7,6.58,2.25,5.56-2.06,14.43-7,16-5.16,2.9-10.27,5.95-16.51,6.08-11.19.23-22.17-9.07-24.05-20.02-3.66-21.26,11.04-43.62,19.02-63.09,2.54-6.18,7.13-22.92,10.49-26.51.84-.9,2.2-2.26,3.3-2.7,5.38-2.17,31.78-.71,39.74-.76Z"/><path class="cls-9" d="M697,680c.36.94.67,1.9.84,2.87s.3,1.88.15,2.75c-3.21,17.87-9.43,39.18-14.86,56.67-.57,1.82-1.88,3.31-3.13,4.71-.06,3.36-.73,6.03-2,8l-.92,2c-15.13-.19-30.2-.07-45.2.35.09,2.84-.09,10.97-3.21,6.6-.55-.78.08-7.37.32-8.96l24-75c14.65-.09,29.35-.02,44,0Z"/><path class="cls-7" d="M731,680c3.99.03,8.01-.03,12,0-3.3,19.39-8.49,38.68-12,57.99-1.71,5.82-3.12,11.71-4.22,17.65-16,1.2-31.92,1.37-47.73.53l.96-9.18c4.89-22.46,13.11-44.26,17-67,.33,0,.67,0,1,0h33Z"/><path class="cls-9" d="M947,680l25,76c-2.34.68-5.19.58-8.53-.3-12.7,1.59-25.66,1.55-38.58.5l-1.89-1.19-19-75c14.32-.04,28.68-.07,43,0Z"/><path class="cls-7" d="M777,770c1.32-29.74,2.64-59.48,3.97-89.21,13.79-.05,27.58-.11,41.37-.16.21,12.1.53,24.39.98,36.87.45,12.71,1.02,25.21,1.69,37.51,3.19,2.35,3.53,12.93,0,15-1.66,15.78-15.22,25.2-30.81,21.31-10.58-2.63-15.27-11.48-17.19-21.31Z"/><path class="cls-7" d="M731,738c-2.13,11.7-3.89,19.93-2,32-3.57,9.01-7.1,17.11-17.03,20.47-16.32,5.52-29.96-3.42-33.97-19.47-1.57-1.35-2.03-3.49-1.4-6.4-1.1-4.55-.63-7.74,1.4-9.6,0-2.76,1.41-5.3,2-8v8s46.32-.98,46.32-.98l3.63-16.58,1.05.56Z"/><path class="cls-9" d="M873,754c.79,6.77,1.17,8.89,0,16-5.06,30.6-42.38,28.53-48,0,.47-4.47.05-10.33,0-15l48-1Z"/><path class="cls-9" d="M729,772c2.27-4.86.42-11.58,1-17h46c.42,3.97-.57,8.78-.06,12.61.2,1.5,1.02,2.2,1.06,2.39-4.1,27.9-41.8,30.4-48,2Z"/><path class="cls-9" d="M972,756c.19,1.71.39,4.15.42,7.08.03,3.43.05,5.47-.42,7.92-.92,4.72-3.08,8.02-4.5,10.09-1.41,2.06-3.98,5.79-7.5,7.91-9.39,5.65-26.59.35-31.61-9.45-.71-1.39-1.79-6.68-3.95-17.26-.62-3.05-1.11-5.58-1.44-7.28,1.73-1.32,3.25-.91,5.17-.75,6.89.56,13.44.88,20.37.79,7.06-.09,16.96-3.54,23.46.96Z"/><path class="cls-9" d="M678,755c-.01,5.58,1.36,9.52,0,16-3.76,17.92-23.31,28-39,17-5.79-4.06-8.29-10.85-11-17,.47-5.18-1.18-11.38,1-16l.5,10.01.49-10.02h48.01Z"/><path class="cls-7" d="M621,968c.45,5.54,5.56,1.57,8.45,1.96,2.15.29,3.29,2.82,4.03,2.81.49,0,1.7-1.57,3.05-1.73,10.52-1.24,5.9,1.23,7.59,3.82.46.7,5.57.92,5.73,2.6-.51,3.06-6.22,9.09-9.3,8.49s1.3-6.72-.56-8.96c-3.3-.9-9.61,5.43-6.99,8,.18.18,3.32-.23,4.98.52s2.61,3.54,5.73,4.28,7.63-.11,10.61,1.42c1.48.76,1.43,2.6,2.38,2.82.3.07,5.96.11,6.22-.07.88-.6.22-6.03,2.56-4.96,4.59,5.71-7.82,15.55,5.52,12.99,3.23,8.35,3.12,18.61,0,27-6.69-4.96-1.25,3.79-4.74,7.03s-6.98.68-7.25.96c-.13.13.45,1.79-.68,3.05-2.7,3-4.43,0-5.33.38-4.4,1.91-.87,12.08,4.71,13.36,2.62.6,8.08-1.25,7.29,2.21-5.34-1.68-5.36,2.53-6.02,3-1.95,1.38-3.07-3.43-4.65-3.91-2.76-.84-6.56,3.45-7.33-4.08l3.99-1.49c-1.28-4.91-9.53.46-9.92,2.09-.29,1.2,5.7,8.31,1.45,7.38s-4.15-14.03-10-12.99c-4.54.82.33,4.42.47,4.69.98,1.87,3.88,6.56,4.27,7.6,2.85,7.52-5.7,3.34-7.27,4.16-1.24.65-1.61,2.72-2.56,3.54-1.06.91-2.56.8-3.14,1.3-1.23,1.05-1.04,4.65-4.21,5.29-1.39.28-5.33-2.44-8.08-.57-.02-1.67.01-3.33,0-5-3.43-32.76-3.18-66.22,0-99,.48-3.1,8.26-2.96,9,0Z"/><path class="cls-14" d="M620,931.59c122.85-.26,245.71-.52,368.56-.78,2.5,0,5.11.02,7.33,1.17,5.56,2.89,5.63,10.68,4.92,16.9-.43,3.77-1.18,8.06-4.41,10.03-1.95,1.2-4.38,1.23-6.67,1.23-122.91-.08-245.83-.16-368.74-.24-5.4,0-11.42-.11-16.18-3.01-3.22-1.96-3.49-3.38-3.57-7.01-.09-3.87-.18-7.75-.27-11.62-.04-1.71-.02-3.58,1.06-4.89,1.34-1.62,3.73-1.75,5.83-1.76,4.05,0,8.09-.02,12.14-.03Z"/><path class="cls-7" d="M989,959v57c-2.28-.75-.34-42.62-.99-48.01-122.29,1.84-244.59,3.67-366.88,5.51-3.04-1.84-6.08-3.67-9.13-5.51v-10c125.52,1.56,251.81-2.53,377,1Z"/><path class="cls-7" d="M617.13,968c2.68.01,6.05.03,8.93.04,51.36.23,89.95.02,101.56-.04,28.54-.15,96.1-.45,260.86-1.07.04,68.4.64,117.06.69,124.78.02,2.72-.09,5.76-2.03,7.68-1.9,1.89-4.88,2-7.56,2-119.42-.13-238.85-.26-358.27-.39-3.46,0-7.95-.94-8.11-5-.11-2.93-.75-5.91-.99-8.84-.26-3.04-.42-6.09-.49-9.14-.06-2.51.02-5.24,1.61-7.18,1.59-1.94,5.26-2.2,6.29.08,3.08-5.75,9.06-9.85,15.53-10.64.99-2.65-1.17-5.31-3.12-7.84-.35-.46-1.61-5.01-1.84-7.09-.94-8.36,13.22-17.09,21.43-22.03,6.1-3.68,21.77-13.13,24.9-9.58,3.04,3.46-7.59,17.21-3.43,28.12,0,0,0,0,0,0,.02.04,4.22,7.02,11.46,12.06,22.67,15.75,180.95-72.32,220.97-36.4,13.56,12.17,11.29,36.56,13.68,36.12,3.61-.66-.97-54.69-7.94-55-3.01-.13-6.69,9.78-6.57,9.85.08.05,3.53-3.4,3.28-6.02-1.11-11.94-79.79-13.95-106.59-14.63-20.17-.51-30.24-.33-40.92-.2-8.97.11-17.94.37-26.9.77-4.97-.14-9.95-.28-14.92-.41-10.05-.28-12.85-2.11-16.32-.45-3.04,1.45-6.6,5.18-8.14,15.58-11.55-6.03-17.75-5.23-21.3-3.29-2.96,1.62-5.27,4.59-7.22,3.93-2.88-.97-4.1-5.32-1.78-7.28-8.32-1.49-16.49-3.8-24.35-6.9-3.71-1.46-7.9-3.82-8.21-7.8-.27-3.45,3.33-6.62,6.71-5.92,3.38.7,5.43,5.04,3.82,8.09,1.71-1.59,3.41-3.18,5.12-4.78-5.26-4.99-9.61-6.13-12.86-6.03-5.86.18-9.34,4.44-12.92,2.83-2.62-1.18-3.64-4.76-4.07-7.98Z"/><path class="cls-10" d="M677.93,985.76c81.23.62,162.46,1.23,243.7,1.85.12.81.78,4.64,4.29,7.34,3.08,2.37,6.4,2.36,7.33,2.33-.14,18.32-.27,36.63-.41,54.95-.8.18-6.57,1.59-9.14,7.07-1.38,2.95-1.2,5.71-1.02,7.01-81.56.6-163.12,1.2-244.68,1.8.24-.68,1.39-4.21-.45-7.75-1.72-3.33-5.4-5.36-9.42-5.23l2.22-57.73c.56.05,3.75.31,6.15-1.94,2.44-2.29,3.07-6.22,1.42-9.69Z"/><path class="cls-7" d="M641,790.55v41.28l-2,1.17.36,28.29c3.05,23.44,2.12,47.22-.36,70.71-5.79,2.99-13.13,2.87-19,0l-1-45c-.09-3.57-.17-9.25,0-16.22.13-5.09.35-8.83.41-9.74.4-7.06.93-26.4,1.59-74.05,1.9-2.32,4.3-5.87,5.82-10.67.61-1.93.97-3.73,1.18-5.33-.04-2.44-.07-4.87-.11-7.31,1.18,5.18,3.42,11.61,7.82,17.98.96,1.39,1.94,2.66,2.93,3.83.79,1.68,1.58,3.36,2.36,5.05Z"/><path class="cls-7" d="M976.83,786.35c.27,1.96.96,6.45,1.32,9.86,1.38,13.13,1.32,26.37,1.25,39.58-.17,32.06-.34,64.13-.51,96.19-6.82-.02-13.63-.04-20.45-.06-9.29-73.42-12.01-127.36-9.02-133.44.81-1.65,6.92-9.73,9.61-11.29.05-.03.4-.3.96-.56,1.64-.75,2.99-1.63,4.12-2.55,10.36-8.43,8.29-25.27,7.9-28.08,1.25,7.02,3.02,17.46,4.83,30.35Z"/><path class="cls-10" d="M923,755s.31,1.45.31,1.45c1,5.05,2.48,12.91,2.82,14.51.18.84,2.56,11.6,11.51,16.43,9.58,5.17,18.87,1.13,19.9.66.81-.47,1.62-.95,2.44-1.42,0,2.79.02,5.58.02,8.37-.74,19.14-.91,38.51-.51,58.11l-2.67-.78c.06-9.87-5.71-11.63-11.81-4.56l-5.28.62c-4.22,5.12-7.57,6.16-10.05,3.14-2.62,3.47-4.54,4.16-7.72.86-3.21.06,4.05,9.19,5.2,9.61,1.9,2.67,2.99,6.83-1.17,7l-2.17-.74c-2.12-4.57-5.71-8.44-10.78-11.59,0-6.91-.08-13.79-.27-20.64-.56-.34-9.02-.24-9.75.09-2.41,1.08-1.97,13.8-.79,16.46.27,3.81-2.54,6.46-8.44,7.93-1.89,2.98-3.83,4.48-5.81,4.5-3.3.67-2.77-2.48-1.75-4.99,4.76-6.42,1.34-7.8-5.44-6.67-2.02,9.14-12.28,8.71-14.78,0,2.71,8.16-3.23,8.9-5.75,1.2-7.11-4.7-8.69-5.43-7.3,3.9-1.33,4.66-5.57,3.44-7.34-.5-5.51,4.93-9.03,3.83-14.65.48-7.94,3.92-12.33,2.83-13.14-3.29-2.17,2.42-3.73,3.16-6.77,1.93-2.45,7.01-15.89,14.97-13.2,1.32l-1.37-1.09c-.61,9.69-20.04,12.98-21,1.35-4.47.08-8.91-.03-13.32-.32-2.22,3.4-6.13,4.59-11.75,3.58-1.27,3.58-4.37,3.72-7.64,2.7-1.64,1.69-3.09,3-5.46,1.93-6.94-5.23-12.78-3.7-20.41-1.55-4.22-2.47-8.62-3.38-13.19-2.75-1.71,4.72-5.67,4.68-11.87-.13-3.66,8.32-7.82,6.19-13.69,2.26-5.33-3.75-8.44-5.54-13.76-.94-3.57-1.21-5.3-.31-5.19,2.69-4.18.69-8.67.75-13.46.18-.29,3.66-2.42,12.32-6.24,7.79l-.53-41.09c-.12-15.83-.24-31.66-.36-47.5.99.67,11.57,7.56,23.62,2.94,9.25-3.55,15.66-12.45,16.34-22.73h0c.74,9.93,6.12,18.66,14.11,22.03,11.46,4.83,27.5-1.7,33.83-16.95.57-2.7,1.15-5.4,1.72-8.1.25,2.44.5,4.88.75,7.32.65,2.77,3.19,12.09,11.36,16.39,12.68,6.68,30.81-3.04,35.56-15.3,1.02-2.62,1.3-5.07,1.35-6.94.17,2.3.35,4.59.52,6.89,3.5,11.74,13.38,19.5,23.15,19.19,13.85-.44,21.03-16.88,21.85-18.77,1.25-2.86,1.88-5.44,2.22-7.36.35,2.06,1.02,4.66,2.4,7.41,5.22,10.45,19.6,21.19,32.12,16.14,7.9-3.19,13.15-11.9,14.06-21.86.1,2.22.5,5.52,1.91,9.22.93,2.43,3.81,9.93,11,13.83,9.16,4.97,20.58,1.53,27.17-3.83,5.69-4.64,7.92-10.6,8.6-12.54.67-1.89,2.26-6.56,1.6-12.26-.24-2.05-.88-5.21-.85-5.21Z"/><path class="cls-10" d="M639,833l1.01,41c5.2-1.55,1.68-7.94,5.02-9.55,2.11-1.03,12.48,1.07,12.97.56.38-.39-.86-5.04,1.5-5.99,4.39,6.35,8.48-1.08,9.05-1.08.38,0,6.85,2.15,7.17,2.35,2.94,1.84,1.93,1.84,6.51,3.79.99.42.54,2.07,2.23,2.03,5.26-.12,5.4-6.07,6.07-6.15,3.55-.43,8.14,5.24,10.34,3.92.37-.22.71-2.76,2.05-3.37.34-.16,7.16-.53,7.54-.5,2.44.2,3.68,3.45,7.94,2.99,2.1-.23,4.16-2.33,6.59-2.01.65-.62-8.28-3.87,1.99-4.99v5.99c4.4-3.33,10.37,3.53,12.46,2.99,1.15-.3,1.27-2.59,1.66-2.87.25-.18,3.94,1.52,6.19.93,1.03-.27.96-2.43,2.31-2.89,2.47-.84,7.42.69,9.8-1.05,1.12-.82.38-2.88.59-3.09.5-.51,4.12,1.03,5.49,1.01,2.75-.04,8.51-1.92,11.3.18,1.58,1.19.06,7.45,7.72,6.9.5-.04,8.18-2.28,8.55-2.54,1.56-1.09.35-6.14,2.47-6.56.99-.2,4.07,1.52,4.38,2.66.37,1.36-2.86,7.53,2.5,6.24,1.04-.25,1.18-2.01,1.93-2.55.85-.61,2.28-.48,3.13-1.34,1.11-1.13,1.32-3.8,2.53-4.57,2.76-1.76,4.24,3.65,6.5-3.4.68,1.18,4.3,1.78,4.48,2.04.7.99-2.05,3.8.56,4.93,3.22-1.17,8.7-.88,9.96-3.99,5.34,6.31,9.59,5.87,14-.98,1.18-.05,2.76,7.63,5.5,4.97.45-.43-2.85-10.13,3.42-9.98.71.02,6.97,3.85,7.34,4.23,1.14,1.15,1.56,6.32,4.24,4.27-4.18-2.9-1.35-8.05,1.85-5.34,1.26,1.06-.05,6.13,6.36,5.61,5.35-.43,2.97-2.13,4.3-4.74,1.59-3.13,5.85-1.55,6.43-2.11.53-.51.83-11.42,7.06-2.95l-4.98,3.52,4.01,2.02c.41,3.43-5.2,7.99-3.03,11.48,3.34-.18,2.34,3.27.03,4.83,1.29,3.58.94,5.96-1.03,7.17-.85,5.95-.84,12.05,0,18,1.96,5.31,1.96,10.69,0,16l2,1.12v18.47l-2,1.41c-.33,0-.67,0-1,0-4.72-.43-9.38-.76-14-1-2.52-1.2-3.54-3.84-3.07-7.92,2.19-6.35-3.2-43.36-7.17-46.87-.92-.81-15.98-.49-16.42.54-6.28,15.04-7.87,34.71-7.61,50.92l-1.73,4.32c-2.99,0-6.01,0-9,0-17.81.09-35.47-.25-53-1l-1.87-1.14c-.26-3.05-.89-24.79-.19-25.89s1.37-1.94,2.77-2.07c8.53,4.37,7.39-11.37,5.6-12.85-1.5-1.24-16.15-1.43-18.09-1.42-31.15.93-62.52,1.45-93.29.66-4.95-.48-3.3,11.57-1.93,13.32,4.39-.03,7.03,1.17,7.92,3.61l.32,23.8,63.6.94,1.16,2.02c-33.65.04-67.36-.24-101,0,.15-32.97,0-66,0-99Z"/><path class="cls-10" d="M740,932l-67-1c.95-9.06-.39-17.94,0-26.99-6.69.43-8.45.37-9.05-6.46-.76-8.77-.43-11.28,8.51-11.59,8.5-.3,19.08,1.09,27.99,1.09,23.4,0,49.4-2.19,72.05-1.14,1.36.06,9.07,1.2,9.56,1.53,1.47.99,1.37,12.67.44,14.56-1.65,3.39-7.96,1.46-8.51,1.99-.97.94.74,23.49,0,27,.87.28.86.62,0,1-11.32,0-22.68-.01-34,0Z"/><path class="cls-10" d="M960,932c-11.32-.08-22.68.03-34,0-.78-.21-1.94-.53-2-1.12-.44-4.26-.43-14.21,0-18.47l2-1.41c-3.13-10.04-2.86-22.88,0-33-3.01-.87-2.75-7.92,0-9,4.45-7.09-11-10.32-5.32-18.06,2.91-1.96,3.98,2.03,4.82,2.05.71.02,3.23-4.44,4.99-3.99,1.2.31,1.26,3.3,2.01,3,1.3-.52,4.86-4.81,6.53-5.47,2.12-.83,4.52-.08,5.76-.76.57-.31.71-2.52,3.14-3.34,2.78-.94,8.17-1.33,9.34,1.8l1.73,8.76c.17-17.49-.19-35.01,0-52.51.02-1.69-.64-4.45,1.02-5.49v137Z"/><path class="cls-10" d="M836,932c-1.56-19.91,1.35-37.24,7.52-55.98,1.14-3.29,19.01-2.26,19.59-1.43,4.77,6.77,3.84,14.41,7.76,29.03,2.35,8.77,6.95,18.48,15.58,28.38-3.97,0-28.99,0-32.95,0-1.15,0-16.33,0-17.5,0Z"/><path class="cls-10" d="M827,932c-17.65-.01-35.35-.01-53,0v-1l53,1Z"/><path class="cls-10" d="M926,911v21c-12.98-.04-26.02.02-39,0v-21c0-.78.19-1.97.67-2,5.36-.29,33.48-.98,36.52,0,.98.32,1.46.69,1.8,2Z"/><path class="cls-10" d="M888,865c1.38-2.66,2.52-4.65,5.07-6.43,2.02-1.41,6.57-2.41,6.81-2.68,1.37-1.57-.89-9.11-.88-11.39.01-3.09,1.88-6.95.99-10.51,3.12.58,12.01-.99,14.07.44,2.44,1.69-.05,18.01.89,21.9.21.85,9.91,4.15,11.04,12.67.36,2.69-.09,6.13,0,9,0,.78-.19,1.97-.67,2-4.64.28-35.1.76-37.15,0l-1.18-2v-1c-.03-2.6-1.2-7.17-1.04-8.36.09-.67,1.71-.57,2.02-1.35s-.16-1.95.02-2.29Z"/><path class="cls-10" d="M926,878c.34,10.94,0,22.04,0,33h-39c0-5.32,0-10.68,0-16-.79-5.66-.88-11.36,0-17h39Z"/><path class="cls-2" d="M887,878c.02,5.65,0,11.35,0,17-1.68-5.08-1.67-12.99,0-18,0,.33,0,.67,0,1Z"/><path class="cls-10" d="M911.95,906.09v21c-12.98-.04-26.02.02-39,0v-21c0-.78.19-1.97.67-2,5.36-.29,33.48-.98,36.52,0,.98.32,1.46.69,1.8,2Z"/><path class="cls-10" d="M873.95,860.09c1.38-2.66,2.52-4.65,5.07-6.43,2.02-1.41,6.57-2.41,6.81-2.68,1.37-1.57-.89-9.11-.88-11.39.01-3.09,1.88-6.95.99-10.51,3.12.58,12.01-.99,14.07.44,2.44,1.69-.05,18.01.89,21.9.21.85,9.91,4.15,11.04,12.67.36,2.69-.09,6.13,0,9,0,.78-.19,1.97-.67,2-4.64.28-35.1.76-37.15,0l-1.18-2v-1c-.03-2.6-1.2-7.17-1.04-8.36.09-.67,1.71-.57,2.02-1.35s-.16-1.95.02-2.29Z"/><path class="cls-10" d="M911.95,873.09c.34,10.94,0,22.04,0,33h-39c0-5.32,0-10.68,0-16-.79-5.66-.88-11.36,0-17h39Z"/><path class="cls-15" d="M9,788c2.06-2.08,4.12-4.16,6.19-6.23,2.98,3.78,5.53,7.62,7.7,11.46,28.84,51.09-.92,116.78-11.89,138.55-.67.41-1.33.82-2,1.23H0v-141c2.09-1.8,7.26-2.8,9-4Z"/><path class="cls-4" d="M22.6,765.49c3.65,10.49,12.83,19.2,23.84,21.23,15.21,2.8,31.68-7.56,35.75-22.48,3.91,13.94,16.3,23.76,30.33,24.26,15.21.53,29.13-10.01,32.92-25.32,3.11,14.94,15.43,26.11,30.04,27.55,16.09,1.58,31.58-8.99,36.23-25.26,4.45,13.41,16.39,22.68,29.64,23.25,15.66.67,30.35-10.93,33.65-27.65.93,12.92,9.62,24.04,21.91,28.05,12.2,3.97,25.67.19,34.05-9.56-.32,51.15-.64,102.3-.97,153.45-4.61.35-9.87.48-15.65.15-5.33-.3-10.16-.94-14.43-1.71-.47-13.94-.94-27.89-1.41-41.83-.16-4.65-.49-9.74-3.66-13.15-3.25-3.5-5-7-5.19-6.86-.71.54,42.09,41.24,34.16,59.74-5.12,11.94-32.45,17.12-107.06,4.29-48.65-.08-97.28-.31-145.91-.68-20.16-.15-40.32-.3-60.47-.45-3.19-60.16-6.24-121.69,10.66-179.52-.42,4.25.17,8.5,1.56,12.5Z"/><path class="cls-15" d="M351,788c1.2,39.07,1.88,78.71,2,118.9.02,8.24.02,16.46,0,24.65l-2,1.45c-6.99-.07-14.02.05-21.01,0v-149.01c.09-.64-.12-1.41,0-2-2.89-2.29,2.74-11.26,6-12,.23-.8.98-2.84,1-3,2.28,8.32,6.81,16.05,14,21Z"/><path class="cls-15" d="M39,645l1.85,1.02-17.74,101.81c-1.84,5.03-2.27,10.87-1.3,17.52l-.81.65-.8.1c-1.17-6.82-1.45-9.32-1.31-9.34.09-.02,1.74,16.25,2.1,16.22.11-.01.09-1.48-.11-4.97-1.62,12.43-7.48,21.99-15.41,23.88-1.46.35-3.28.5-5.47.12v-146c13.03.78,26.01-1.03,39-1Z"/><path class="cls-15" d="M389,787c-4.22,2.44-13.51,6.99-25.57,6.19-5.01-.33-9.23-1.5-12.43-2.71-1.61-.96-3.7-2.42-5.82-4.56-2.16-2.17-3.39-4.11-4.4-5.63-2.86-4.3-4.84-8.02-3.77-13.3-.07-5.73-.53-11.42-1.39-17.09-12.79-33.86-24.66-68.17-35.6-102.94l1.98-1.97c19.57.18,47.02-5.47,57.8,14.7l41.96,91.04c1.5,13.44-1.32,27.98-12.77,36.26Z"/><path class="cls-9" d="M196,645l1.7,1.38c1.19,8.53,1.96,17.07,2.3,25.62,4.85,25.08,9.07,51.49,10,77,1.29,4.99,1.29,9.33,0,13,2.58,1.1,2.59,1.89,0,3,.65,3.96-.01,6.3-2,7-.54.7-1.58,1.22-2,.69-.63-.81.59-17.73,1.13-20.14l1.87-2.55-.92,2h-59.88l-1.2-2c.78.06,1.95.24,2.04.79.3,1.94,1.33,18.81.9,19.69-.38.78-1.14,1.22-1.93,1.52-.67-2-1.33-4-2-6h0c-2.34-39.36-2.67-79.69-1-121,16.65-.06,34.04.03,51,0Z"/><path class="cls-9" d="M302,645c-.26,1.97.43,3.69.97,5.52,9.82,33.14,23.68,65.28,33.58,98.43.29,5.46,1.17,12.76.45,18.05-5.17,10.07-7.35,14.8-7,15,.34.19,3.43-3.58,5.12-8.31,3.62-10.12.22-22.98-4.16-23.69-1.76-.29-4.43,1.26-8.51,8.78-2.86,1.11-5.97,2.51-9.23,4.26-5.27,2.84-9.62,5.93-13.08,8.77-4.8-5.04-17.5-17.75-22.77-14.66-1.23.72-2.46,2.53-2.38,7.36.49-.17.96-.27,1.36-.15,1.1.32,5.62,13.56,6.07,15.66l-1.43,1.99c-2.19-3.69-4.29-7.99-6-12.9-.37-1.05-.7-2.08-1-3.1l-2.13-1.77c.8-11.81,1.08-21.39-2.65-33.11l-.22-5.12c-1.54-2.86-3.08-5.78-3.85-8.96-4.12-17.01-8.14-34.18-11.9-51.28-.34-1.55-.41-3.17-.45-4.81-.04-1.65.06-3.3.21-4.96-.92-3.34-1.94-6.63-3.06-9.86l1.06-1.14c16.98.03,34.02-.15,51,0Z"/><path class="cls-9" d="M90.13,644.99c.48,2.22.36,4.96-.38,8.24l-3.35,51.62-1.27,3.14.9,2.42-3.02,38.85c.89,4.23,2.1,11.38-.88,14.73,0,.89,0,1.77,0,2.66-.35,2-1.04,4.68-2.44,7.63-1.39,2.92-3.02,5.13-4.33,6.66-.32-.28-1.14-1.08-1.34-2.35-.07-.44-.05-.84,0-1.14,3.97-8.2,5.81-15.98,5.14-25.22l1.98-2.23-.91,2H23.31l-1.18-2,1.88,2.39c-.54,7.58.97,15,3.03,22.21-.07.36-.2.86-.5,1.39-.54.95-1.3,1.46-1.69,1.68-.77-1.42-1.5-2.97-2.15-4.65-3.83-9.97-2.77-19.45-1.44-25.39l17.87-102.63h51Z"/><path class="cls-15" d="M145,645c.44,26.48-.57,53.05-.04,79.54.23,11.67-.37,30.81,1.04,41.46-.08.26-.16.52-.24.78-.4,1.26-.86,2.44-1.35,3.52-.91-1.7-2.69-5.62-2.24-10.71.25-2.85,1.11-5.11,1.83-6.59-2.71-35.3-2.77-70.71,0-106l-.91,2h-50.91l-1.18-2c.38,1.52.72,3.05.93,4.6.21,1.52.38,3.04.3,4.54-.72,14.96-1.59,30.04-2.68,44.98-.11,1.5-.51,2.97-.93,4.46-.43,1.5-1,2.97-1.62,4.42-.86,1.58-1.53.91-2-2,.73-11.79,2.22-23.71,2.99-35.51.59-9.05,0-18.54,2.01-27.49,3.41-.02,7.36,0,10.5,0h19c8.21,0,16.96.03,25.5,0Z"/><path class="cls-15" d="M251,645c1.1,3.56,1.16,7.39,2,11,.24,2.17.34,3.63-1.87,2.55-1.24-.61-4.04-10.75-1.13-11.55-.09.79-.36,1.97-.91,2-13.44.62-28.95.43-42.46,0-4.34.74-7.21.07-8.62-2,1,.52,2.07,1.16,2.55,2.24,1.76,3.98,2.65,17.9.45,21.76.66,1.27.33,1.7-1,1-1.19-9-1.81-18.16-4-27,18.26-.03,36.91-.04,55,0Z"/><path class="cls-15" d="M201,671c1.47-1.26,2.59-.68,2.83,1.15,2.63,19.4,5.22,38.82,7.56,58.26.39,3.23.52,6.49.62,9.76.1,3.28.06,6.56-.01,9.84l.92-2h56.38l1.2,2c1.47-.73,1.4-.76-.22-.11-1.28-2.54-4.41-20.51-3.72-23.31.15-.6,1.53-.65,2.44-.59,1.74,5.74,3.85,14.17,4.9,24.6.72,7.18,1.06,10.86.1,15.4-.59,2.79-3.86,16.45-17.12,23.33-1.21.63-17.29,8.62-32.02-1.1-14.24-9.41-13.83-26.56-13.79-27.47l-1.08-11.76c-1.35-24.62-6.73-52.24-10-77l1-1Z"/><path class="cls-9" d="M148,772l-1-22h62c.55,7.13-.48,13.6-1.82,20.52-.12.64.84,1.39.82,1.48-1.11,5.58-8.22,13.44-13.08,16.42-17.75,10.86-39.78,2.8-46.92-16.42Z"/><path class="cls-15" d="M201,671c-1.06-7.97-1.04-16.15-3-24h52c1,2.78,2.3,15.27,3,9,5.4,23.25,11.44,46.57,16,70-3.16,4.1,4.83,22.45,2.99,25-.78.22-1.2-1-1.49-1h-58.5c-3.54-25.76-6.67-51.6-10.09-77.39-.11-.84-.88-1.41-.91-1.61Z"/><path class="cls-9" d="M336,770c-1.13,3.88-5.36,8.93-6,12-13.28,14.46-36.61,16.48-49,0l-6-17.5v-14.5h59.5c.56,0,1.53,1.68,1.5,2.5v17.5Z"/><path class="cls-15" d="M87,710c.93,1.85,1.46,3.8,1.57,5.87l-2.35,32.14,54.76-.07c1.67.38,2.68,2.07,3.02,5.07,0,4.58,1.01,9.14,1,13-.01,10.74-11.78,22.91-21.79,25.71-20.19,5.64-39.05-7.04-41.21-27.71-1.54-14.79,2.01-40.04,3-56l2,2Z"/><path class="cls-9" d="M24,776c-.74-3.87-1.36-8.22-1.73-12.99-.36-4.73-.41-9.1-.27-13.01h59c.06,6.23.19,12.98-1.46,19.04-1.01,3.7-4.71,7.53-3.54,10.96-12.91,19.46-42.22,16.88-52-4Z"/><path class="cls-15" d="M87,710c1.38-20.98,2.07-42.06,4-63h53c-.04,35.32.05,70.68,0,106l-2.44-3.08-57.57.09c.41-13.36,2.13-26.69,3-40Z"/><path class="cls-12" d="M330.41,784.66c.44-.23.95-.31,1.52-.2.04,48.85.07,97.7.11,146.56,12.15-.04,26.9-2.74,37.71,4.26,6.17,4,10,12.52,6.47,18.96-3.84,6.99-13.36,7.85-21.33,7.85-116.52-.03-233.03-.06-349.55-.1-1.58,0-3.36-.08-4.43-1.25-.98-1.06-1.02-2.66-1.01-4.1.06-6.24.11-12.47.17-18.71.02-1.73.1-3.65,1.3-4.9,1.28-1.34,3.35-1.43,5.21-1.43,106.79-.03,213.59-.05,320.38-.08.34-46.98.69-93.97,1.03-140.95.02-2.2.76-5.05,2.42-5.9Z"/><path class="cls-4" d="M43,986c.76-2.31,2.88-1.83,4,0,2.99-.08,6.01.04,9,0,1.66-1.83,3.98-1.27,6,0,.33,0,.67,0,1,0,2.28-1.97,4.71-1.95,7,0,1.98-.01,4,.01,6,0,2.96-1.97,6.03-1.96,9,0,1.67,0,3.33,0,5,0,3.54-2.1,7.24-1.41,11,0,1,0,2,0,3,0,1.61-1.95,3.39-1.95,5,0,1,0,2,0,3,0,1.61-1.95,3.39-1.95,5,0,.33,0,.67,0,1,0,6.97-1.97,14.03-1.96,21,0,.33,0,.67,0,1,0,4.71-1.51,9.43-2.07,14,0,1.67,0,3.33,0,5,0,1.95-1.96,4.05-1.96,6,0,1.33,0,2.67,0,4,0,3.3-1.96,6.7-1.96,10,0,.33,0,.67,0,1,0,5.68-1.68,11.4-2.03,17,0h2c5.47-1.4,12.56-2.61,18.13-1.12,4.16-1.33,6.78-.95,7.87,1.12h5c7.7-2.51,20.63-2.78,29.2-1.57,1.94-.77,3.11-.64,3.8,1.57h43c.94,6.35-.5,7.2,5,12,1.57-.57,3.64.03,3,2,1.79.78,7,1.64,7,2v53.5c-1.44,2.25-3.4.51-5.77,1.13-6.07,1.61-8.72,7.83-9.81,13.42H35.66c-2.52-7.44-6.52-15.21-15.66-14.05.12-18.01-.42-35.92.11-53.91,7.49-.95,13.91-3.75,14.9-12.1-1.82-.67-1.97-2.34,0-3,2.39-.21,5.7-.91,8-1Z"/><path class="cls-15" d="M-.04,969.8c0-3.26,0-6.52,0-9.78,83.13-2.64,166.38-1.26,249.38,4.13,17.89,1.16,36.09,2.58,52.72,9.27,2.86,1.15,5.77,2.54,7.65,4.98,1.88,2.44,2.38,6.21.34,8.51-1.93,2.18-5.22,2.32-8.12,2.3-88.98-.63-177.96-1.27-266.95-1.9,1.11,7.73-5.55,15.65-13.35,15.89.17,16.82.34,33.65.51,50.47,5.18,1.18,9.82,4.52,12.58,9.06.89,1.47,1.65,3.12,3.04,4.12,1.63,1.17,3.79,1.21,5.79,1.21,86.6-.01,173.19-.02,259.79-.03,1.75-7.29,8.63-13.02,16.11-13.44.05-17.57.1-35.13.14-52.7-6.94.68-13.71-5.66-13.5-12.63-47.62-9.75-95.24-19.5-142.86-29.25,65.87.01,131.74.02,197.62.03.06,68.89,0,118.97.23,129.36.05,2.08.4,8.76-3.68,11.39-1.96,1.27-4.44,1.31-6.77,1.32-55.49,0-110.98.25-166.47.37-55.03.12-110.04-.12-165.07-.42-6.37-.03-12.75-.07-19.12-.1,0-44.05-.01-88.11-.02-132.16Z"/></svg>