<svg width="32" height="34" viewBox="0 0 32 34" fill="none" xmlns="http://www.w3.org/2000/svg">
<path d="M4.4 13.5322V16.4385M10.2 32.9072H6.33333C5.26558 32.9072 4.4 32.0398 4.4 30.9697V16.4385M10.2 32.9072V22C10.2 21.4477 10.6477 21 11.2 21H20.8C21.3523 21 21.8 21.4477 21.8 22V32.9072M10.2 32.9072C13.68 32.9072 21.8 32.9072 21.8 32.9072M21.8 32.9072H25.6667C26.7344 32.9072 27.6 32.0398 27.6 30.9697V16.4385M27.6 13.5322V16.4385M27.6 16.4385H30.5L16 1.90723L1.5 16.4385H4.4" stroke="black" stroke-width="2" stroke-linecap="round" stroke-linejoin="round"/>
</svg>
