<svg width="900" height="751" viewBox="0 0 900 751" fill="none" xmlns="http://www.w3.org/2000/svg">
<path d="M179.115 650.459C176.835 648.999 175.985 652.259 175.445 652.409C161.165 656.219 134.635 654.609 119.805 652.289C24.2952 637.38 -39.9547 527.17 28.6353 446.43C30.6753 444.03 38.3451 437.77 38.9451 435.74C39.8351 432.76 38.8051 428.289 39.1651 424.96C50.5751 319.579 133.685 308.01 215.675 279.47C316.575 244.35 384.635 199.72 458.185 122.98C503.475 75.7195 550.415 7.31952 625.485 14.8395C632.525 15.5495 644.495 18.0095 651.675 20.4395C659.895 23.2195 667.345 27.6095 674.515 32.3795C719.455 -7.91048 800.875 -13.2505 844.675 31.4495C883.305 70.8695 887.985 134.82 863.435 182.98C885.095 203.45 897.365 232.2 899.205 261.92C907.185 390.7 798.505 519.789 703.625 594.419C599.975 675.949 429.355 766.85 293.805 748.32C245.395 741.7 198.165 713.049 182.445 664.68C181.675 662.31 179.745 650.87 179.125 650.479V650.459H179.115ZM580.145 155.45H605.645C614.315 155.45 632.895 148.2 639.185 141.99C647.255 134.02 642.665 130.67 642.095 121C639.155 70.5195 697.105 53.4295 719.655 94.4395C741.865 134.83 712.505 192.02 675.805 213.63C637.255 236.33 614.595 225.88 574.645 228.47C559.815 229.43 548.525 230.16 547.155 246.98C544.845 275.22 549.925 293.16 537.315 321.14C512.285 376.68 452.995 387.3 397.645 382.46C383.665 381.24 368.305 377.08 354.685 376.43C329.755 375.24 331.895 390.79 326.855 408.68C311.305 463.93 254.965 492.14 199.895 481.2C169.785 475.22 144.915 446.32 166.305 417.13C187.205 388.6 213.845 413.36 237.075 400.9C249.485 394.24 253.985 380.68 259.135 368.47C208.755 386.78 154.395 394.96 105.455 417.28C54.3851 440.57 10.4951 484.729 25.4151 545.669C41.3551 610.74 114.015 641.349 175.995 630.31C172.515 572.21 210.055 525.529 257.835 497.65C294.145 476.46 335.155 468.27 374.385 454.2C479.435 416.52 567.895 360.52 642.645 277.46C686.865 228.33 749.085 126.97 827.485 160.59C831.735 162.41 839.985 168.17 843.105 169.06C846.865 170.14 849.515 161.08 850.405 158.23C866.695 106.42 847.475 39.8795 790.885 24.1895C708.005 1.19951 645.705 85.2595 596.635 137.46C592.155 142.22 585.375 147.53 581.615 152.44C580.845 153.45 579.685 153.7 580.125 155.45H580.145ZM646.145 54.4495C647.365 53.2695 658.995 44.6095 658.145 43.4595C608.175 19.6795 559.695 47.1495 523.625 81.4195C490.705 112.69 461.435 150.36 428.165 181.96C366.625 240.39 289.415 277.46 209.385 303.18C158.825 319.43 101.105 330.88 73.6253 381.42C69.1853 389.58 63.2851 403.86 62.1651 412.98C61.7651 416.26 68.2953 411.35 70.1453 410.44C130.575 380.57 191.315 370.48 253.945 348.74C257.635 347.46 267.685 343.99 270.425 342.22C273.095 340.49 274.915 335.53 277.165 332.96C295.915 311.5 325.235 300.91 353.435 303.23C382.345 287.3 410.655 270.54 437.465 251.26C447.465 244.07 470.265 228.62 477.675 220.47C480.025 217.89 480.635 212.52 482.295 209.09C491.405 190.32 506.855 172.38 526.475 164.27C532.845 161.64 544.575 160.17 549.215 157.01C555.265 152.88 568.785 137.62 574.675 131.47C598.655 106.39 621.165 78.5595 646.165 54.4595H646.145V54.4495ZM667.145 94.4495C660.045 100.41 660.205 104.83 659.145 113.45C657.335 128.18 661.425 140.48 650.165 152.97C638.585 165.82 619.765 170.78 603.145 171.45C595.515 171.76 587.785 171.26 580.145 171.45C532.695 172.63 496.725 187.26 490.145 239.45C489.725 242.75 489.395 246.13 489.145 249.45C489.075 250.44 489.205 251.46 489.145 252.45C488.835 257.79 487.545 263.01 488.145 268.45C488.715 280.04 485.165 292.53 479.145 302.45C471.955 310.7 464.805 316.16 454.385 320.19C424.115 331.9 378.055 316.48 344.145 318.45C343.485 318.49 342.805 318.4 342.145 318.45C326.795 319.61 308.375 325.63 297.145 336.45C280.995 348.58 276.125 375.62 266.145 393.45C253.325 416.36 238.565 421.67 212.595 420.5C206.845 420.24 194.865 417.4 190.145 418.45C186.565 419.25 177.555 427.04 175.745 430.55C163.905 453.48 193.205 462.34 210.145 464.45C218.215 465.46 222.125 465.34 230.145 464.45C261.395 460.99 288.835 448.28 303.525 419.33C317.965 390.88 312.605 360.49 355.645 361.46C378.735 361.98 406.935 368 432.685 366.49C471.525 364.21 508.595 347.3 523.625 309.43C535.925 278.46 518.585 228.86 556.885 214.69C573.295 208.62 597.715 213.42 615.635 212.44C663.505 209.81 712.905 173.46 709.125 120.97C707.595 99.6595 686.855 77.8995 667.145 94.4495ZM873.145 246.45C865.985 209.85 839.165 176.98 799.635 174.46C747.255 171.12 693.055 252.12 660.665 287.46C641.825 308.02 621.455 328.48 601.195 346.99C532.165 410.05 447.795 451.71 359.675 481.47C336.955 489.14 313.485 494.5 291.475 504.27C235.335 529.21 190.675 576.92 199.155 642.45C199.155 644.83 199.815 646.34 200.155 648.45C204.805 676.83 227.335 700.28 252.275 712.83C305.325 739.52 372.925 731.06 427.925 714.719C550.445 678.299 664.625 610.859 755.185 520.979C813.985 462.62 882.365 356.35 877.155 270.45C876.675 262.58 874.655 254.1 873.155 246.45H873.145ZM473.145 251.45L391.155 305.43C413.905 306.57 452.565 314.97 466.345 291.13C472.825 279.92 472.615 264.13 473.145 251.44V251.45Z" fill="#412E12"/>
<path d="M872.145 245.449C870.565 252.269 870.935 259.639 869.865 266.669C867.145 284.649 859.445 306.619 852.885 323.689C833.715 373.619 805.205 420.009 768.135 458.439C759.475 443.189 746.465 457.939 749.625 466.449C750.155 467.879 754.815 473.809 756.135 474.439C710.535 517.499 662.835 560.309 610.855 595.659C571.885 622.169 533.155 639.159 489.465 656.279C488.075 656.819 486.885 656.419 486.135 658.439C485.645 648.879 465.095 643.919 463.295 654.179C462.875 656.569 464.655 662.519 466.135 664.439C454.695 669.289 442.715 673.819 430.905 677.709C381.165 694.119 331.945 701.469 279.915 690.159C251.945 684.079 220.765 667.539 203.635 644.439L200.135 648.439C199.795 646.329 199.135 644.819 199.135 642.439C199.135 642.349 200.025 642.549 200.105 640.959C200.255 638.119 200.075 635.279 200.145 632.449C202.765 634.089 203.315 638.659 203.135 641.439C204.035 641.549 204.425 641.589 205.145 640.959C206.215 640.029 210.565 625.889 211.955 622.769C231.945 578.019 271.995 547.229 315.775 527.589C322.405 524.609 326.085 523.729 332.405 520.139C337.245 517.389 339.605 519.559 343.405 519.239C370.455 516.979 445.215 482.569 472.805 469.619C556.595 430.299 629.895 374.059 693.645 307.459C726.305 273.329 758.365 223.919 806.375 211.189C837.655 202.889 864.685 212.259 872.135 245.449H872.145ZM783.835 341.139C785.395 339.419 787.535 333.139 787.885 330.689C791.725 304.089 764.955 313.959 767.365 330.689C768.265 336.939 777.645 347.949 783.835 341.139ZM700.865 420.739C686.055 408.379 677.705 448.209 696.525 446.399C708.765 445.219 707.365 426.169 700.865 420.739ZM596.885 458.669C596.645 458.259 595.245 458.079 594.785 457.349C592.305 453.479 591.155 450.259 585.565 449.489C568.725 447.149 575.125 473.939 590.585 471.389C595.315 470.609 599.055 462.299 596.885 458.669ZM543.915 553.659C535.835 555.649 536.255 569.429 537.095 575.999C537.775 581.329 543.655 583.729 548.095 580.889C557.855 574.649 556.185 550.629 543.915 553.649V553.659ZM420.905 556.629C408.625 558.949 405.045 583.619 418.725 584.429C430.185 585.099 439.955 553.039 420.905 556.629ZM324.895 625.599C319.385 626.569 318.515 633.329 319.215 637.879C320.995 649.399 344.425 659.259 341.075 637.999C340.155 632.179 330.225 624.659 324.885 625.589L324.895 625.599Z" fill="#FEAD33"/>
<path d="M580.145 155.45C579.705 153.7 580.865 153.45 581.635 152.44C585.395 147.53 592.175 142.22 596.655 137.46C645.725 85.2495 708.025 1.19952 790.905 24.1895C847.495 39.8895 866.725 106.43 850.425 158.23C849.525 161.08 846.885 170.14 843.125 169.06C840.005 168.16 831.755 162.41 827.505 160.59C749.105 126.97 686.875 228.33 642.665 277.46C567.915 360.52 479.445 416.52 374.405 454.2C335.175 468.27 294.165 476.46 257.855 497.65C210.075 525.53 172.535 572.21 176.015 630.31C114.045 641.349 41.375 610.729 25.435 545.669C10.505 484.729 54.405 440.57 105.475 417.28C154.405 394.96 208.775 386.78 259.155 368.47C254.005 380.68 249.505 394.24 237.095 400.9C213.865 413.37 187.235 388.61 166.325 417.13C144.935 446.32 169.805 475.22 199.915 481.2C254.975 492.14 311.325 463.92 326.875 408.68C331.905 390.79 329.775 375.24 354.705 376.43C368.325 377.08 383.685 381.24 397.665 382.46C453.015 387.3 512.305 376.68 537.335 321.14C549.945 293.16 544.865 275.22 547.175 246.98C548.555 230.16 559.845 229.44 574.665 228.47C614.625 225.88 637.285 236.33 675.825 213.63C712.515 192.02 741.885 134.83 719.675 94.4395C697.115 53.4295 639.175 70.5295 642.115 121C642.675 130.68 647.275 134.02 639.205 141.99C632.915 148.2 614.335 155.45 605.665 155.45H580.145ZM125.905 444.69C122.395 441.67 95.7252 444.94 92.3752 447.68C91.6652 448.27 91.805 450.17 90.425 451.5C86.985 454.82 78.7351 455.17 78.2551 455.61C77.9051 455.94 78.5451 457.61 77.5251 458.52C76.6051 459.35 72.5651 460.4 70.8151 461.61C66.0151 464.94 59.5152 472.21 62.6452 478.45C63.6652 480.5 74.815 483.02 77.445 482.4C78.145 482.24 78.1151 480.78 79.5151 480.27C82.1451 479.31 85.025 479.84 87.405 479.19C96.885 476.6 119.665 468 124.995 459.78C127.085 456.56 128.695 447.08 125.915 444.69H125.905Z" fill="#D61212"/>
<path d="M873.145 246.45H872.145C872.075 246.13 872.215 245.77 872.145 245.45C864.695 212.26 837.665 202.89 806.385 211.19C787.635 215.96 775.105 226.5 770.325 230.61C719.785 274.05 699.265 306.02 699.265 306.03C647.085 387.37 531.505 452.54 465.965 477.32C373.795 512.17 347.685 521.34 347.685 521.34C318.415 531.62 314.385 532.58 304.865 537.98C263.665 561.37 225.835 607.84 219.795 622.39C219.795 622.39 214.785 634.46 205.165 640.98C204.765 641.25 204.355 641.47 204.355 641.47C202.465 642.47 200.555 642.57 199.145 642.47C190.675 576.94 235.335 529.23 291.465 504.29C313.475 494.51 336.935 489.16 359.665 481.49C447.785 451.73 532.155 410.07 601.185 347.01C621.445 328.5 641.815 308.04 660.655 287.48C693.045 252.14 747.245 171.14 799.625 174.48C839.155 177 865.985 209.87 873.135 246.47V246.45H873.145Z" fill="#F9AE53"/>
<path d="M872.495 243.329C874.045 249.389 876.115 258.799 877.155 270.439C881.905 323.739 860.615 367.709 840.175 406.029C821.265 441.469 798.895 476.819 755.185 520.969C718.765 557.759 589.175 685.459 394.585 724.839C365.505 730.729 300.775 741.559 252.275 712.819C240.125 705.619 204.305 684.399 199.655 649.719C199.245 646.689 199.155 644.149 199.155 642.439C200.295 642.339 201.435 642.24 202.565 642.139C223.635 659.829 255.275 680.279 297.035 689.199C354.505 701.469 403.945 686.099 430.925 677.709C445.825 673.079 457.865 668.129 466.155 664.439C472.125 672.199 486.635 667.739 486.155 658.439C486.905 656.419 488.095 656.819 489.485 656.279C533.175 639.159 571.905 622.169 610.875 595.659C662.855 560.309 710.555 517.499 756.155 474.439C765.905 479.139 773.905 468.569 768.155 458.439C815.635 401.329 843.695 350.699 852.905 323.689C862.655 295.079 871.115 273.179 869.105 262.669C868.715 260.629 866.255 250.139 871.805 244.029C872.085 243.719 872.335 243.479 872.505 243.319L872.495 243.329Z" fill="#F79F2B"/>
<path d="M667.145 94.4495C669.795 92.2895 674.775 88.9394 681.365 88.6094C694.945 87.9294 704.365 100.639 705.575 102.269C719.365 120.889 710.845 157.629 690.925 180.009C665.335 208.749 622.895 211.909 615.645 212.439C586.865 214.549 564.115 205.989 547.125 221.849C542.965 225.729 540.945 229.409 538.295 234.209C524.465 259.309 535.375 277.799 523.645 309.429C522.185 313.349 520.365 318.389 516.765 324.229C499.095 352.929 459.855 370.479 424.215 368.659C410.305 367.949 377.415 363.289 355.665 361.459C352.895 361.229 346.005 360.719 338.275 363.759C338.275 363.759 332.285 366.109 327.115 370.749C314.405 382.169 312.315 407.319 301.875 425.649C285.755 453.959 250.055 465.599 227.965 466.079C220.635 466.239 214.495 465.339 210.165 464.449C193.225 462.339 163.925 453.479 175.765 430.549C177.575 427.039 186.585 419.249 190.165 418.449C191.385 418.499 200.025 418.909 200.155 420.459C200.275 421.949 192.505 423.709 191.215 423.999C180.695 433.539 203.205 436.949 209.625 437.479C238.735 439.909 256.715 434.549 275.135 411.919C294.545 388.089 286.185 357.199 318.475 344.259C357.235 328.739 391.325 342.389 429.645 339.429C449.155 337.919 482.325 327.619 488.735 306.519C489.145 305.169 490.165 303.039 487.665 303.449C470.785 321.549 450.055 332.019 424.665 330.429C411.855 329.629 399.115 324.819 387.545 323.549C352.195 319.649 302.525 321.859 285.295 358.089C279.105 371.109 275.195 385.249 267.135 397.439L266.145 393.449C266.755 390.179 274.485 350.889 294.095 336.569C295.955 335.209 301.735 331.289 309.475 327.449C320.405 322.019 328.335 320.159 330.405 319.699C335.085 318.659 338.945 318.299 339.885 318.219C342.425 317.999 344.295 317.969 347.845 317.959C365.525 317.929 370.785 318.509 374.275 319.019C376.105 319.289 377.475 319.529 377.705 319.569H377.735C433.175 329.369 454.385 320.189 454.385 320.189C461.235 317.219 474.255 311.589 480.375 298.879C483.145 293.119 484.875 281.069 488.485 256.999C488.775 255.069 489.005 253.479 489.145 252.449C489.145 252.079 489.135 251.569 489.145 250.949C489.145 250.949 489.165 249.579 489.265 247.999C489.365 246.449 489.655 243.409 490.155 239.449C496.735 187.259 532.705 172.629 580.155 171.449C583.965 171.419 587.795 171.409 591.655 171.409C595.515 171.409 599.345 171.429 603.155 171.449C619.775 170.779 638.595 165.819 650.175 152.969C661.435 140.479 657.345 128.179 659.155 113.449L661.145 114.439C660.975 117.319 662.895 129.659 664.415 131.199C664.665 131.449 670.285 134.539 670.625 134.449C675.805 133.179 673.635 117.979 674.125 113.919C674.425 111.449 675.795 109.929 676.095 107.899C677.365 99.3095 675.985 95.6895 667.155 94.4495H667.145ZM636.155 173.439C648.815 172.899 665.725 158.929 667.725 146.489C668.235 143.299 668.705 140.619 664.605 142.389C656.425 145.939 650.295 160.499 640.505 166.309C636.545 168.659 635.295 165.649 636.155 173.439ZM620.145 177.449C619.695 177.019 609.825 177.569 607.655 177.429C586.815 176.109 562.305 175.009 541.935 180.729C521.225 186.539 495.185 214.209 493.265 236.059C492.965 239.469 492.465 249.949 497.565 249.449C504.305 248.799 504.005 236.219 505.945 230.749C516.115 202.139 555.085 188.259 582.645 186.449C592.765 185.789 596.135 186.479 606.305 184.109C607.525 183.819 624.395 181.529 620.135 177.449H620.145Z" fill="#FFB923"/>
<path d="M70.1453 410.449C68.2953 411.359 61.7651 416.269 62.1651 412.989C63.2851 403.869 69.1853 389.589 73.6253 381.429C101.105 330.889 158.825 319.439 209.385 303.189C289.405 277.469 366.625 240.399 428.165 181.969C461.435 150.369 490.705 112.699 523.625 81.4295C559.705 47.1595 608.175 19.6795 658.145 43.4695C658.995 44.6195 647.365 53.2795 646.145 54.4595C645.135 52.8595 642.285 53.3095 640.665 53.4595C581.225 58.8795 555.555 96.9795 518.175 135.989C484.335 171.299 454.595 201.709 414.465 230.279C352.635 274.299 285.965 305.619 214.665 331.479C158.515 351.849 112.035 358.919 71.1153 406.959C70.0653 408.189 68.5853 408.599 70.1453 410.459V410.449Z" fill="#FEAD33"/>
<path d="M646.145 54.4494C621.155 78.5494 598.635 106.379 574.655 131.459C568.775 137.609 555.245 152.879 549.195 156.999C544.565 160.159 532.825 161.629 526.455 164.259C506.835 172.369 491.395 190.319 482.275 209.079C480.615 212.509 480.005 217.879 477.655 220.459C470.245 228.609 447.445 244.069 437.445 251.249C410.635 270.529 382.325 287.299 353.415 303.219C325.215 300.899 295.895 311.489 277.145 332.949C274.895 335.519 273.075 340.479 270.405 342.209C267.665 343.979 257.625 347.449 253.925 348.729C191.295 370.459 130.555 380.559 70.1253 410.429C68.5553 408.569 70.0453 408.159 71.0953 406.929C112.025 358.889 158.495 351.819 214.645 331.449C285.945 305.589 352.615 274.259 414.445 230.249C454.575 201.679 484.325 171.269 518.155 135.959C555.535 96.9494 581.215 58.8494 640.645 53.4294C642.265 53.2794 645.115 52.8294 646.125 54.4294L646.145 54.4494Z" fill="#F79F2B"/>
<path d="M266.145 393.449L267.135 397.439C275.195 385.249 279.095 371.109 285.295 358.089C302.525 321.859 352.195 319.649 387.545 323.549C399.115 324.829 411.855 329.629 424.665 330.429C450.055 332.019 470.785 321.549 487.665 303.449C490.155 303.029 489.135 305.169 488.735 306.519C482.325 327.619 449.155 337.919 429.645 339.429C391.335 342.389 357.235 328.739 318.475 344.259C286.185 357.189 294.535 388.089 275.135 411.919C266.925 421.999 258.805 428.649 249.755 432.719C235.335 439.189 222.775 438.409 209.625 437.479C202.155 436.949 189.955 435.979 188.505 430.609C187.935 428.489 189.075 425.889 190.415 424.329C193.805 420.399 200.125 421.229 200.155 420.449C200.165 420.069 198.575 419.449 190.165 418.439C194.885 417.389 206.875 420.229 212.615 420.489C238.575 421.659 253.345 416.349 266.165 393.439H266.145V393.449Z" fill="#F9AA00"/>
<path d="M473.145 251.449C472.615 264.129 472.825 279.919 466.345 291.139C452.565 314.969 413.905 306.579 391.155 305.439L473.145 251.459V251.449Z" fill="#D61212"/>
<path d="M667.145 94.4495C675.975 95.6895 677.355 99.3095 676.085 107.899C675.785 109.929 674.405 111.449 674.115 113.919C673.625 117.979 675.795 133.189 670.615 134.449C670.275 134.529 664.655 131.449 664.405 131.199C662.885 129.659 660.975 117.319 661.135 114.439L659.145 113.449C660.205 104.829 660.045 100.409 667.145 94.4495Z" fill="#F9AA00"/>
<path d="M783.835 341.139C777.655 347.949 768.265 336.939 767.365 330.689C764.955 313.959 791.725 304.089 787.885 330.689C787.535 333.139 785.395 339.419 783.835 341.139Z" fill="#412E12"/>
<path d="M420.905 556.629C439.965 553.039 430.185 585.099 418.725 584.429C405.045 583.619 408.625 558.949 420.905 556.629Z" fill="#412E12"/>
<path d="M700.865 420.74C707.365 426.16 708.765 445.209 696.525 446.399C677.715 448.219 686.055 408.38 700.865 420.74Z" fill="#412E12"/>
<path d="M324.895 625.599C330.235 624.659 340.165 632.179 341.085 638.009C344.435 659.269 321.005 649.409 319.225 637.889C318.515 633.339 319.395 626.569 324.905 625.609L324.895 625.599Z" fill="#412E12"/>
<path d="M543.915 553.66C556.175 550.64 557.855 574.66 548.095 580.9C543.665 583.73 537.785 581.34 537.095 576.01C536.255 569.44 535.835 555.66 543.915 553.67V553.66Z" fill="#412E12"/>
<path d="M768.145 458.449C773.895 468.579 765.895 479.149 756.145 474.449C754.825 473.809 750.165 467.889 749.635 466.459C746.475 457.959 759.485 443.199 768.145 458.449Z" fill="#412E12"/>
<path d="M596.885 458.669C598.285 464.069 594.515 470.74 590.585 471.39C575.125 473.94 568.715 447.149 585.565 449.489C587.585 449.769 588.995 450.52 589.895 451.02C591.405 451.85 595.735 454.239 596.885 458.669Z" fill="#412E12"/>
<path d="M486.145 658.45C486.625 667.75 472.115 672.21 466.145 664.45C464.665 662.53 462.885 656.58 463.305 654.19C465.105 643.93 485.655 648.89 486.145 658.45Z" fill="#412E12"/>
<path d="M125.905 444.69C129.525 449.29 125.875 457.729 124.985 459.779C118.045 475.819 97.2252 480 89.4652 481.56C88.5152 481.75 83.7452 482.68 77.4452 482.41C70.2752 482.099 64.8954 481.879 62.6454 478.459C59.7554 474.059 63.1552 466.05 67.4152 461.56C70.1852 458.64 71.9551 458.64 84.4051 452.04C90.3851 448.87 90.1354 448.78 92.3754 447.68C102.435 442.73 120.615 437.97 125.905 444.69Z" fill="#C11111"/>
<path d="M620.145 177.449C624.405 181.529 607.535 183.829 606.315 184.109C596.155 186.479 592.785 185.789 582.655 186.449C555.095 188.259 516.135 202.139 505.955 230.749C504.015 236.209 504.315 248.789 497.575 249.449C492.465 249.949 492.975 239.469 493.275 236.059C495.195 214.209 521.235 186.549 541.945 180.729C562.315 175.009 586.815 176.109 607.665 177.429C609.835 177.569 619.695 177.009 620.155 177.449H620.145Z" fill="#F9AA00"/>
<path d="M636.155 173.439C635.295 165.649 636.545 168.659 640.505 166.309C650.295 160.499 656.425 145.939 664.605 142.389C668.705 140.609 668.235 143.299 667.725 146.489C665.725 158.929 648.815 172.899 636.155 173.439Z" fill="#F9AA00"/>
</svg>
