<svg width="34" height="31" viewBox="0 0 34 31" fill="none" xmlns="http://www.w3.org/2000/svg">
<path d="M28.2 13.9706C29.0576 13.0356 30.6 11.7587 32.1402 9.75727C33.1773 8.40952 33.2621 6.50574 32.4709 4.99479C31.0152 2.21543 27.3606 2.01521 25.2571 4.29711C24.7494 4.84777 24.223 5.39128 23.6784 5.9264M8.89323 25.8808C7.72987 26.2323 6.57764 26.5215 5.44294 26.749C3.86561 27.0653 2.32755 26.1945 1.53622 24.6836C0.0805881 21.9042 1.75057 18.3151 4.595 17.4477C5.2814 17.2385 5.9716 17.0076 6.66432 16.7551" stroke="black" stroke-width="2" stroke-linecap="round" stroke-linejoin="round"/>
<path d="M25.0097 4.43582C24.8064 3.47703 23.9738 1.74939 22.2352 1.40051C19.7954 0.910924 18.7483 1.21921 15.8205 3.66719C13.4783 5.62557 8.50115 7.86955 6.30535 8.74675C4.26898 9.56025 1.95297 11.7029 2.7282 14.244C3.50839 16.8013 4.95819 16.8278 5.52533 17.0835" stroke="black" stroke-width="2" stroke-linecap="round" stroke-linejoin="round"/>
<path d="M28.6353 14.2559C30.374 14.6047 31.2066 16.3324 31.4099 17.2912C31.667 19.167 29.9358 20.9467 29.038 21.6021C27.555 22.6442 23.3982 25.554 19.4048 27.7173C15.3039 29.9388 12.8969 30.1429 11.9255 29.9388C11.3583 29.6832 9.90853 29.6567 9.12835 27.0993C8.35311 24.5582 10.6691 22.4156 12.7055 21.6021C14.9013 20.7249 19.8785 18.4809 22.2207 16.5225C25.1484 14.0746 26.1955 13.7663 28.6353 14.2559Z" stroke="black" stroke-width="2" stroke-linecap="round" stroke-linejoin="round"/>
<path d="M11.15 15.2645C11.5392 14.8089 11.8457 13.9081 12.0799 12.8798C12.2868 11.9714 13.5221 12.2349 14.6479 12.6913C14.9003 12.7936 15.1928 12.7065 15.3364 12.4751L17.2463 9.39714C17.3642 9.20707 17.587 9.10867 17.8007 9.17481C18.5975 9.42148 19.7128 9.94921 20.3176 9.64581" stroke="black" stroke-width="2" stroke-linecap="round" stroke-linejoin="round"/>
</svg>
