<svg width="26" height="26" viewBox="0 0 26 26" fill="none" xmlns="http://www.w3.org/2000/svg">
<path d="M9.70533 10.3173C9.7391 9.43328 10.1227 8.59885 10.7717 7.99761C11.4207 7.39636 12.2819 7.07756 13.166 7.11133C14.0501 7.1451 14.8845 7.52868 15.4857 8.17768C16.087 8.82668 16.4058 9.68795 16.372 10.572C16.3659 11.0053 16.2733 11.433 16.0995 11.83C15.9258 12.227 15.6745 12.5852 15.3604 12.8837C15.0462 13.1822 14.6756 13.4149 14.2703 13.5681C13.8649 13.7214 13.433 13.792 13 13.776V15.6667M12.9867 19.6771H13M25 13C25 19.6274 19.6274 25 13 25C6.37258 25 1 19.6274 1 13C1 6.37258 6.37258 1 13 1C19.6274 1 25 6.37258 25 13Z" stroke="black" stroke-width="2" stroke-linecap="round" stroke-linejoin="round"/>
</svg>
