<svg width="660" height="912" viewBox="0 0 660 912" fill="none" xmlns="http://www.w3.org/2000/svg">
<path d="M651.272 612.187C650.952 611.617 650.633 611.047 650.323 610.487L651.272 612.187Z" fill="#412E12"/>
<path d="M496.303 741.367C493.273 755.637 493.562 769.177 498.012 783.117C499.892 789.007 505.183 796.847 506.063 802.047C508.603 817.027 501.083 841.487 496.803 856.257C491.883 873.197 486.323 899.817 468.303 906.707C451.903 912.987 404.523 913.367 388.323 906.687C373.083 900.397 371.423 886.457 376.533 871.967C383.003 853.597 400.883 844.037 419.183 841.147L424.213 820.967C413.693 813.477 401.623 807.847 391.843 799.287C383.013 791.557 372.052 779.367 365.502 769.657C360.182 761.777 355.983 753.127 351.333 744.857C345.443 745.697 336.453 741.397 331.583 741.577C330.653 741.607 330.503 741.587 329.833 742.337C327.953 744.447 321.722 755.567 320.142 758.687C310.072 778.557 319.753 776.117 321.313 791.817C322.813 806.897 302.623 841.937 294.483 855.937C288.403 866.407 277.803 886.117 266.993 891.407C258.573 895.527 237.793 896.847 227.863 897.267C210.273 898.027 163.993 899.217 161.313 874.747C158.613 850.077 178.503 832.197 201.073 827.547C205.203 826.697 219.983 826.627 221.333 825.807C223.373 824.567 231.913 804.717 234.323 801.337C233.103 801.297 232.022 800.787 231.002 800.157C219.282 792.947 204.303 778.397 197.943 766.227C183.423 738.447 186.833 704.037 202.313 677.447C130.533 644.307 127.803 546.917 155.313 482.637C110.193 475.017 77.2925 447.737 59.1425 406.377C55.0925 397.147 52.8625 386.417 47.5425 378.007C32.1425 353.647 -4.21749 348.357 0.402507 313.377C1.26251 306.877 6.25254 298.437 11.3125 294.307C13.1925 292.767 17.7325 290.897 18.0525 290.557C18.5125 290.077 20.0525 284.927 21.1325 283.137C32.4825 264.327 58.7826 264.807 76.3426 274.317C114.333 294.887 112.833 340.447 144.403 364.167C155.433 372.457 168.773 378.147 182.313 380.737C183.773 369.937 187.973 359.867 191.853 349.797L209.303 313.827C186.833 299.777 168.423 278.817 160.353 253.267C146.233 256.287 129.623 254.757 120.493 242.187C108.643 225.867 122.953 214.937 127.793 200.877C135.303 179.067 122.643 152.577 124.283 129.437C127.213 87.8372 171.063 58.5372 202.603 36.8472C223.483 22.4872 249.153 3.45718 275.813 6.10718C280.303 6.55718 285.383 9.24718 289.683 9.03718C296.653 8.69718 310.203 3.49718 318.963 2.25718C365.583 -4.39282 413.743 3.69718 454.993 25.9172C458.643 27.8772 464.453 33.1972 468.073 33.8772C473.693 34.9472 483.033 31.2472 490.743 32.1572C523.513 36.0272 566.023 82.3572 586.843 106.987C617.003 142.657 644.503 179.277 614.353 225.417C600.063 247.287 582.703 255.127 563.413 270.427C550.043 281.027 551.303 284.427 544.153 298.137C529.783 325.687 497.033 319.957 479.823 298.837C474.673 304.337 469.953 310.247 464.333 315.307C458.713 320.367 451.892 324.117 447.262 329.307C450.032 338.797 450.052 347.947 447.632 357.477C446.842 360.607 443.553 366.887 443.463 369.187C443.283 373.947 446.493 391.037 447.443 397.107C447.593 398.087 448.073 401.537 448.933 401.777C464.333 402.637 476.603 397.977 487.843 387.757C504.953 372.197 518.213 351.897 539.293 340.257C570.103 323.247 610.563 330.987 619.203 368.357C619.673 370.377 619.013 372.837 619.513 375.047C620.033 377.377 622.503 379.337 623.083 382.477C626.873 403.317 611.643 422.617 590.803 424.697C579.593 425.817 567.653 421.627 559.323 432.207C553.533 439.557 548.483 448.687 542.293 456.147C535.793 463.987 528.403 470.877 521.473 478.297C528.193 487.707 526.963 505.887 531.893 514.547C534.883 519.797 545.352 523.207 550.633 526.797C564.083 535.957 569.263 549.877 563.803 565.547C561.153 573.157 549.993 585.497 541.323 585.557C543.453 588.297 543.963 592.997 545.843 595.517C547.083 597.187 551.273 599.937 553.353 602.007C555.293 603.937 557.263 609.107 560.273 608.057C563.083 607.077 572.213 599.897 574.863 597.557C596.703 578.307 608.113 549.307 612.213 520.977C613.663 510.947 611.253 489.517 624.303 487.057C638.893 484.307 646.093 506.537 649.063 517.387C655.943 542.547 654.893 571.597 647.343 596.517C648.613 597.567 652.753 591.277 657.673 594.457C662.163 597.347 657.223 620.327 655.623 625.287C643.333 663.457 606.182 690.697 567.503 697.587C562.352 712.787 550.573 728.357 536.013 735.567C533.093 737.017 521.463 741.387 518.833 741.387H496.333L496.303 741.367ZM461.303 48.0472C460.723 45.4172 460.113 45.2872 458.213 43.6372C422.583 12.6372 331.473 4.21718 289.623 23.8972C241.293 46.6272 229.693 89.2772 213.762 134.927C206.143 156.777 198.363 162.397 185.343 179.467C157.863 215.487 167.793 261.657 199.283 291.327C202.983 294.817 218.062 307.267 222.023 308.567C222.812 308.827 223.483 308.877 224.293 308.787L222.293 293.807C224.333 296.967 229.603 300.937 231.023 304.567C234.043 312.307 232.203 324.417 235.343 333.217C240.443 347.517 258.403 357.847 272.873 359.657C313.363 364.727 330.833 336.117 362.293 318.777C362.753 326.757 354.433 333.337 349.293 338.757C348.753 339.327 342.113 344.037 346.793 343.767L395.293 335.757C395.613 335.697 395.973 335.817 396.293 335.757C409.433 333.357 423.553 327.247 435.293 320.767C449.933 312.687 462.303 301.547 471.813 287.787C465.923 275.847 463.823 271.057 463.363 269.497C463.233 269.037 462.902 267.697 462.293 265.827C462.083 265.197 461.903 264.667 461.703 263.837C461.493 262.957 461.523 262.797 461.293 261.837C461.083 260.957 460.973 260.827 460.733 259.837C460.473 258.757 460.312 257.937 460.293 257.837C459.833 255.527 459.383 255.157 458.953 252.767C458.723 251.507 458.473 249.837 458.293 247.847C458.273 247.177 458.293 246.517 458.293 245.847C458.203 236.887 458.122 227.827 458.293 218.877C458.312 217.877 458.273 216.877 458.293 215.877C458.353 213.557 458.193 211.207 458.293 208.887C458.303 208.557 458.273 208.217 458.293 207.887L463.293 178.917C468.263 158.467 473.413 138.887 472.283 117.487C471.763 107.567 470.183 96.5872 469.293 87.0072C477.973 81.5372 480.163 90.1572 481.803 96.9872C496.383 157.807 448.723 222.957 483.123 281.487C492.243 297.007 516.913 315.847 531.133 295.137C539.352 283.167 538.463 274.247 551.823 262.867C580.053 238.827 620.393 222.677 614.033 175.677C610.273 147.877 556.622 89.8972 534.763 71.0472C517.453 56.1072 503.533 43.3672 478.783 46.0372C472.073 46.7672 467.592 52.4172 461.293 48.0372H461.303V48.0472ZM275.293 19.0872C252.543 15.2472 230.803 32.9472 212.983 45.2372C190.073 61.0372 149.273 88.7372 140.273 115.457C130.203 145.357 150.583 174.927 140.043 205.147C136.463 215.407 121.163 230.747 134.943 238.727C142.463 243.077 150.353 241.757 158.303 239.867C154.503 218.797 159.133 199.197 169.873 181.017C178.693 166.087 192.253 154.447 199.153 138.337C204.713 125.357 207.293 110.147 212.533 96.7572C222.203 72.0472 240.703 41.2772 262.983 26.2772L275.293 19.1072V19.0872ZM61.3025 280.827C44.4225 276.337 22.8925 285.597 31.8025 305.797C32.9625 308.437 44.5025 323.237 33.8125 322.667C24.6625 322.177 19.2225 304.837 17.8025 304.817C-0.567469 329.157 29.6325 341.837 44.3125 355.237C65.7525 374.787 65.5526 394.987 79.1226 418.357C95.9326 447.307 125.203 465.247 158.293 469.637C160.263 455.077 163.433 439.557 169.113 425.997C173.963 414.417 182.383 406.877 179.163 392.847C155.713 388.547 134.253 375.627 119.873 356.667C105.493 337.707 100.923 312.917 83.8025 294.797C78.9425 289.657 74.9626 284.427 68.3526 289.377C57.3226 297.637 70.9625 310.397 67.7925 316.787C64.9925 322.427 58.1426 315.697 56.1026 312.487C48.9726 301.287 51.3325 289.107 61.2925 280.837L61.3025 280.827ZM436.303 350.257C436.943 345.517 435.833 339.657 436.303 334.777C413.563 345.107 386.883 353.057 361.793 354.747C352.983 355.337 339.663 353.287 331.823 354.777C329.883 355.147 325.303 359.957 322.603 361.547C292.463 379.367 247.452 374.557 227.893 343.677L217.823 323.787C200.953 353.717 187.003 386.737 192.583 421.907C195.903 442.827 209.063 465.857 222.333 482.097C225.303 485.737 234.003 496.837 238.553 496.427C286.913 480.447 330.753 453.507 371.223 423.097C391.053 408.197 432.863 375.717 436.313 350.257H436.303ZM555.303 345.757C510.193 359.797 498.893 424.897 439.103 412.397C433.663 411.257 423.513 409.077 425.303 401.707C426.913 398.687 434.893 400.127 435.303 399.717C436.503 398.517 433.783 385.957 434.303 383.227C432.223 381.167 432.293 384.167 431.323 385.197C403.063 415.577 366.403 443.307 331.293 465.637C314.453 476.347 293.883 487.277 275.652 495.467C268.293 498.767 242.603 509.927 236.023 509.377C232.033 509.047 229.783 505.577 226.293 504.597C215.713 492.517 203.253 479.717 195.293 465.637C188.993 454.497 185.003 440.717 180.793 428.667C172.983 446.877 170.703 466.747 167.313 486.137C172.063 484.947 176.083 481.177 181.283 481.627L180.243 513.137L182.283 538.567C181.893 585.797 209.712 654.227 244.752 686.447C251.702 692.837 271.793 707.837 280.283 710.397C294.543 718.637 312.233 725.577 328.283 729.377C330.802 729.977 346.413 732.997 347.283 732.367L344.283 720.387C344.633 714.987 343.083 708.617 350.863 712.317C358.843 730.337 365.482 749.077 376.652 765.467C386.962 780.597 399.173 790.797 414.373 800.717C423.353 806.577 439.943 810.407 436.033 823.527C433.533 828.237 431.132 847.457 428.772 850.237C426.193 853.267 415.242 853.847 410.752 855.207C397.952 859.077 387.382 868.737 386.262 882.677C385.602 890.857 386.993 894.167 395.293 896.207C394.043 888.217 397.252 870.437 406.252 867.657C418.082 864.007 407.012 881.327 406.382 885.807C405.752 890.287 406.483 894.817 407.293 899.207H432.293C428.913 892.127 432.962 870.807 441.012 868.407C453.342 864.737 442.832 884.607 442.402 888.817C442.212 890.657 442.083 897.217 443.433 898.057C445.603 899.407 462.293 896.157 465.303 894.717C474.303 890.427 477.603 876.727 480.553 867.997C485.033 854.727 497.542 815.157 493.772 803.297C491.163 795.087 485.823 786.467 483.283 777.317C482.453 768.357 481.522 758.337 482.283 749.347C482.283 749.257 483.133 748.757 483.223 747.807C483.533 744.637 483.913 741.507 484.283 738.357C461.932 733.627 439.433 722.337 420.553 709.607C414.663 705.627 409.042 699.437 402.272 697.397C402.112 697.187 402.422 696.637 402.272 696.397C401.452 695.087 400.902 695.077 400.272 694.397C394.182 687.847 386.082 682.467 379.762 675.427C341.502 632.857 335.552 560.837 374.272 516.567C379.422 510.687 387.862 504.117 395.262 501.567L383.923 494.427L381.262 490.587C381.632 489.987 380.903 488.107 382.693 486.537C388.303 481.607 400.022 489.237 406.283 491.067C409.573 492.027 413.852 492.907 417.262 493.587C418.432 493.817 420.022 493.397 421.262 493.587C421.392 493.607 422.082 494.437 423.262 494.587C438.542 496.587 454.192 495.977 469.262 492.587C493.142 487.217 509.533 474.187 525.773 456.637C537.173 444.327 550.953 420.467 565.263 413.667L572.263 412.667C573.593 412.677 574.932 412.667 576.263 412.667C582.543 412.677 588.182 413.177 594.263 411.667C595.172 411.437 595.643 410.937 596.263 410.667C598.043 409.907 600.403 410.137 601.263 407.667C608.552 403.417 610.503 397.157 612.243 389.177C608.733 390.857 606.693 394.217 603.203 396.117C599.003 398.397 587.883 401.577 588.263 394.277C588.513 389.507 597.193 387.157 600.763 383.687C614.093 370.717 604.143 356.287 591.763 347.757C596.422 359.257 581.813 384.897 568.293 379.177C559.173 375.317 571.523 368.937 574.273 365.717C580.593 363.227 582.453 349.297 578.253 345.247C574.662 341.787 560.143 344.217 555.273 345.727L555.303 345.757ZM534.373 575.507C549.493 575.697 558.593 555.427 550.733 543.627C544.433 534.177 529.943 532.707 522.863 522.517C516.033 512.687 519.053 496.717 511.813 486.647C504.163 491.857 496.293 496.787 487.473 499.767C486.133 516.177 487.473 530.897 498.793 543.567C510.113 556.237 529.513 558.487 534.373 575.497V575.507ZM184.303 651.457C191.203 657.817 202.673 667.117 212.293 665.947C197.773 641.807 188.643 620.657 182.893 605.147C181.283 600.807 169.813 569.537 170.953 557.197C171.523 551.007 169.853 544.767 170.303 538.567C170.323 538.337 170.413 537.357 169.903 536.387C169.643 535.897 169.333 535.597 169.303 535.567C168.633 534.877 168.453 524.687 169.303 496.607C167.813 497.527 165.693 497.407 164.353 498.147C161.833 499.537 155.943 520.547 154.973 524.737C145.263 566.707 151.243 620.987 184.313 651.457H184.303ZM623.303 525.577C617.593 562.817 599.083 598.247 566.233 618.167C567.373 624.097 570.623 629.347 572.053 635.227C574.163 643.927 574.603 653.517 574.303 662.447C574.053 670.067 573.343 677.017 571.303 684.417C603.453 677.097 631.223 655.847 643.063 624.747C644.463 621.077 646.823 614.657 647.273 610.957C647.723 607.257 644.373 611.007 643.293 611.497C641.213 612.427 629.153 618.157 628.293 617.477C634.373 600.707 640.233 581.467 641.293 563.537C641.683 556.937 641.723 548.137 641.293 541.557C640.653 531.577 638.193 520.777 634.293 511.587C634.533 508.937 628.482 495.317 625.763 499.567C625.093 508.227 624.613 516.987 623.293 525.577H623.303ZM477.293 503.607C470.083 504.797 462.933 506.517 455.673 507.467C454.103 507.677 446.313 506.627 447.313 509.077C447.803 510.297 461.613 521.597 463.953 523.927C472.683 532.587 480.603 542.287 489.813 550.527C487.123 545.637 483.663 541.097 481.443 535.917C477.213 526.027 474.902 514.237 477.293 503.597V503.607ZM382.303 660.447C407.553 693.527 484.303 742.467 526.563 726.147C551.413 716.547 559.693 691.637 562.303 667.447C562.343 667.117 562.273 666.777 562.303 666.447C562.313 666.287 563.183 665.607 563.303 663.447C566.233 609.357 522.203 595.897 488.293 565.057C472.753 550.927 460.043 533.287 443.303 520.587C423.313 505.427 409.992 502.507 389.772 519.557C349.772 553.297 352.133 620.917 382.303 660.447ZM492.793 552.577L492.323 553.047L495.813 556.537L496.283 556.067L492.793 552.577ZM500.733 559.737C500.633 559.637 500.043 559.057 499.163 558.367C498.432 557.797 497.783 557.367 497.272 557.057C497.422 557.377 497.702 557.897 498.142 558.457C499.652 560.347 501.402 560.367 503.002 561.847C503.792 562.567 504.123 564.117 505.223 565.097C510.173 569.507 516.213 574.437 522.263 577.057C507.523 565.407 501.653 560.657 500.723 559.747L500.733 559.737ZM221.303 678.437C220.493 677.517 218.843 672.767 217.313 674.447C217.203 674.567 217.573 676.097 216.943 677.037C205.383 694.267 198.623 714.237 201.303 735.387C203.433 752.177 210.903 769.057 223.833 780.317C228.283 784.187 247.053 794.537 248.113 798.047C248.483 799.267 248.453 800.497 248.293 801.747C248.003 803.857 238.383 820.727 236.483 823.977C234.813 826.837 228.633 837.967 226.703 839.177C222.203 842.017 216.543 838.577 211.783 838.297C197.793 837.477 179.903 846.787 174.823 860.287C172.143 867.427 170.863 880.067 181.303 880.247C178.883 872.957 185.543 849.007 195.613 851.427C202.693 853.127 194.363 863.607 193.403 866.857C192.603 869.577 191.433 881.507 192.743 883.317C200.223 886.347 208.453 884.957 216.303 885.247C212.583 877.337 217.863 853.957 227.813 853.387C233.083 853.087 231.693 857.487 231.313 860.277C226.223 867.507 225.883 875.637 226.303 884.257C227.363 885.317 252.163 882.877 255.783 882.227C257.533 881.907 259.273 882.117 260.313 880.257C260.633 880.177 261.013 880.347 261.313 880.257C264.153 879.387 266.743 876.737 268.313 874.267C268.653 873.947 269.013 873.627 269.313 873.267C269.853 872.637 270.403 872.237 270.313 871.267C270.613 870.917 271.043 870.637 271.313 870.267C272.483 868.647 273.703 867.227 274.313 865.267C281.773 855.597 305.683 812.277 307.873 801.387C310.633 787.697 302.322 782.057 303.272 769.807C303.712 764.087 306.673 758.347 309.313 753.367C310.423 751.277 318.893 739.177 318.313 738.397C314.773 737.577 311.223 736.657 307.803 735.407C289.893 728.847 271.793 721.267 256.323 710.417C243.873 701.687 231.323 689.857 221.323 678.447H221.303V678.437Z" fill="#442809"/>
<path d="M461.302 48.0472C462.702 54.3272 462.362 62.2172 463.762 69.0572C464.832 74.2472 468.902 82.7272 469.302 87.0072C470.193 96.5872 471.772 107.567 472.292 117.487C473.422 138.887 468.272 158.467 463.302 178.917C460.652 189.807 458.872 196.347 458.302 207.887C458.283 208.217 458.312 208.557 458.302 208.887C456.652 210.147 456.652 214.617 458.302 215.877C458.283 216.877 458.322 217.877 458.302 218.877C455.272 218.317 456.382 220.407 456.302 222.327C456.003 230.027 455.892 238.497 458.302 245.847C458.272 246.467 458.262 247.137 458.302 247.847C458.392 249.517 458.692 250.967 459.032 252.157C459.122 252.717 459.212 253.277 459.302 253.847C459.802 255.497 460.212 256.907 460.522 257.997C461.012 259.727 461.272 260.617 461.522 261.707C461.912 263.367 462.152 264.787 462.302 265.827C464.622 273.117 468.713 280.777 471.823 287.787C462.303 301.547 449.932 312.687 435.302 320.767L396.302 335.757C395.982 335.817 395.622 335.697 395.302 335.757C383.042 337.987 364.872 341.147 352.752 340.747C350.832 340.687 348.742 341.777 349.302 338.757C354.442 333.337 362.762 326.757 362.302 318.777C380.472 308.757 404.493 263.437 397.583 242.077C392.283 225.677 357.413 206.757 341.973 198.727C335.983 195.607 329.872 192.637 323.302 190.907C314.802 179.477 289.972 173.037 276.302 171.917C277.522 171.107 281.882 166.017 282.302 165.937C282.372 165.927 282.652 167.547 283.292 166.937C283.712 166.537 288.363 157.607 288.613 156.757C292.313 144.457 291.042 129.237 281.302 119.987C248.812 89.1172 205.122 144.807 235.302 169.937C237.292 171.597 239.372 173.197 241.302 174.937C232.852 177.827 228.692 187.517 223.302 191.917C217.052 197.027 213.772 197.897 207.302 204.907C198.262 214.697 194.712 220.857 196.412 235.267C197.582 245.237 202.772 249.827 206.302 257.857C211.522 269.717 215.162 282.757 222.302 293.817L224.302 308.797C223.492 308.897 222.822 308.837 222.032 308.577C218.072 307.267 202.992 294.827 199.292 291.337C167.802 261.667 157.873 215.487 185.353 179.477C198.373 162.417 206.152 156.787 213.772 134.937C229.702 89.2972 241.302 46.6472 289.632 23.9072C331.472 4.22721 422.593 12.6372 458.223 43.6472C460.123 45.2972 460.723 45.4372 461.312 48.0572H461.302V48.0472ZM268.062 69.2872C262.482 70.1072 255.552 73.9072 252.302 78.5172C248.532 83.8672 250.733 89.8272 257.583 87.7972C260.513 86.9272 263.572 82.1972 269.032 81.2572C275.432 80.1572 285.593 85.1072 288.353 80.5772C294.543 70.4172 274.572 68.3372 268.052 69.2872H268.062ZM395.012 86.2272C390.732 87.1772 388.223 92.3372 391.713 95.0972C393.753 96.7072 403.072 97.2772 407.642 100.157C412.212 103.037 417.563 113.527 422.573 112.817C430.003 111.747 424.842 100.527 422.142 96.6672C416.902 89.1872 403.932 84.2372 395.022 86.2272H395.012ZM369.302 191.907C376.692 198.017 383.542 201.467 393.302 201.897C429.862 203.527 440.113 154.317 412.233 135.527C376.243 111.267 338.352 166.327 369.302 191.907Z" fill="#D88D41"/>
<path d="M555.302 345.757C559.332 347.687 564.193 344.647 568.802 344.677C576.042 344.717 579.473 346.197 579.233 354.097C579.093 358.717 577.193 362.357 574.302 365.737C571.552 368.957 559.203 375.337 568.323 379.197C581.842 384.917 596.442 359.277 591.792 347.777C604.172 356.307 614.122 370.747 600.792 383.707C597.232 387.177 588.542 389.527 588.292 394.297C587.912 401.597 599.033 398.417 603.233 396.137C606.723 394.237 608.772 390.877 612.272 389.197C610.532 397.177 608.582 403.437 601.292 407.687C599.622 408.667 597.542 409.017 596.292 410.687C595.672 410.957 595.202 411.457 594.292 411.687L581.772 411.667L576.292 412.687C574.962 412.687 573.622 412.697 572.292 412.687C572.162 412.687 571.423 411.667 569.943 411.697C567.793 411.757 566.802 412.957 565.292 413.677C550.982 420.477 537.202 444.337 525.802 456.647C509.552 474.197 493.172 487.227 469.292 492.597L423.292 494.597C422.902 494.677 422.272 494.757 421.522 494.647C420.672 494.517 420.282 494.227 419.292 493.937C418.372 493.677 417.702 493.677 417.292 493.597C413.882 492.917 409.602 492.037 406.312 491.077C400.053 489.247 388.333 481.627 382.723 486.547C380.933 488.117 381.672 489.997 381.292 490.597C377.032 497.387 375.383 503.197 373.733 511.527C373.433 513.057 372.452 515.607 374.292 516.567C335.562 560.837 341.522 632.847 379.782 675.427C386.102 682.457 394.202 687.847 400.292 694.397C400.052 696.517 400.172 696.637 402.292 696.397C402.442 696.637 402.132 697.187 402.292 697.397C411.602 709.597 424.263 721.047 436.963 730.197C450.163 739.717 465.402 748.387 481.292 752.347C480.792 761.187 480.942 768.837 483.292 777.327C485.832 786.477 491.172 795.097 493.782 803.307C497.552 815.167 485.043 854.737 480.562 868.007C477.613 876.737 474.312 890.447 465.312 894.727C462.303 896.157 445.603 899.417 443.443 898.067C442.092 897.227 442.222 890.667 442.412 888.827C442.842 884.617 453.342 864.737 441.022 868.417C432.972 870.817 428.932 892.127 432.302 899.217H407.302C406.492 894.827 405.762 890.317 406.392 885.817C407.022 881.337 418.092 864.017 406.262 867.667C397.252 870.447 394.052 888.227 395.302 896.217C387.002 894.177 385.612 890.867 386.272 882.687C387.392 868.747 397.962 859.087 410.762 855.217C415.252 853.857 426.212 853.277 428.782 850.247C431.142 847.467 433.542 828.247 436.042 823.537C439.952 810.417 423.362 806.587 414.382 800.727C399.182 790.807 386.972 780.607 376.662 765.477C365.492 749.087 358.853 730.337 350.873 712.327C343.093 708.627 344.642 714.997 344.292 720.397C344.292 720.527 343.222 720.547 343.252 722.837C343.272 725.237 344.502 728.107 345.292 730.377C342.552 732.357 331.662 726.517 328.292 729.387C312.242 725.587 294.552 718.647 280.292 710.407C306.772 718.387 335.692 714.117 346.062 685.707C355.473 659.937 341.273 617.557 337.453 589.857C332.283 552.407 332.372 515.357 331.282 477.637C310.872 487.677 291.552 500.357 270.642 509.457C256.952 515.417 242.772 523.237 230.392 510.987C228.372 508.987 227.332 505.807 226.282 504.597C229.782 505.577 232.022 509.037 236.012 509.377C242.592 509.927 268.282 498.777 275.642 495.467C293.872 487.277 314.442 476.347 331.282 465.637L331.772 476.617C366.062 455.807 396.362 429.277 425.282 401.697C423.492 409.067 433.633 411.247 439.083 412.387C498.873 424.897 510.172 359.787 555.282 345.747H555.302V345.757Z" fill="#D88D41"/>
<path d="M226.302 504.607C227.352 505.807 228.392 508.987 230.412 510.997C242.782 523.247 256.962 515.427 270.662 509.467C291.562 500.367 310.892 487.687 331.302 477.647C332.392 515.367 332.313 552.417 337.473 589.867C341.293 617.557 355.482 659.947 346.083 685.717C335.713 714.127 306.792 718.397 280.312 710.417C271.822 707.857 251.732 692.857 244.782 686.467C209.742 654.247 181.912 585.817 182.312 538.587C182.512 514.237 186.592 488.347 195.312 465.657C203.272 479.737 215.732 492.537 226.312 504.617L226.302 504.607Z" fill="#FDC380"/>
<path d="M469.302 87.0072C468.902 82.7372 464.832 74.2472 463.762 69.0571C462.352 62.2171 462.692 54.3272 461.302 48.0472C467.602 52.4272 472.082 46.7672 478.792 46.0472C503.542 43.3672 517.462 56.1172 534.772 71.0571C556.622 89.9172 610.272 147.897 614.042 175.687C620.402 222.677 580.063 238.827 551.833 262.877C538.463 274.257 539.352 283.177 531.142 295.147C516.932 315.857 492.262 297.017 483.132 281.497C448.732 222.967 496.393 157.817 481.812 96.9972C480.173 90.1672 477.982 81.5471 469.302 87.0171V87.0072Z" fill="#A8602F"/>
<path d="M443.302 520.587C460.042 533.287 472.742 550.927 488.292 565.057C522.202 595.897 566.232 609.357 563.302 663.447L562.302 666.447C562.272 666.777 562.342 667.117 562.302 667.447L548.812 688.437C507.752 730.737 449.862 707.157 408.392 678.847L382.302 658.457C375.422 628.137 367.372 605.117 375.582 573.327C381.492 550.447 399.882 515.507 427.692 518.697C432.992 519.307 437.752 522.717 443.302 520.587ZM426.032 564.717C419.102 565.717 421.832 580.967 430.592 578.337C436.283 576.627 432.432 563.797 426.032 564.717ZM481.822 616.887C471.852 616.437 477.562 633.027 486.592 630.287C492.832 628.387 486.272 617.097 481.822 616.887ZM420.012 628.697C413.452 630.257 412.653 640.157 423.743 638.407C432.343 637.047 431.502 625.957 420.012 628.697ZM529.002 642.667C522.012 644.797 530.462 656.367 535.322 655.057C543.772 652.787 536.702 640.317 529.002 642.667ZM496.002 678.627C490.812 680.187 492.572 694.697 500.592 692.257C506.253 690.537 504.912 675.957 496.002 678.627Z" fill="#FEAC35"/>
<path d="M436.303 350.257C432.863 375.717 391.053 408.197 371.213 423.097C330.753 453.507 286.903 480.437 238.543 496.427C233.993 496.837 225.293 485.737 222.323 482.097C209.053 465.857 195.893 442.827 192.573 421.907C186.983 386.737 200.943 353.717 217.813 323.787L227.882 343.677C247.442 374.557 292.463 379.377 322.593 361.547C325.293 359.947 329.873 355.147 331.813 354.777C339.653 353.287 352.973 355.337 361.783 354.747C386.872 353.057 413.553 345.107 436.293 334.777C435.823 339.667 436.933 345.527 436.293 350.257H436.303ZM219.303 394.707C218.693 390.487 218.573 377.797 216.803 374.727C215.433 372.357 210.203 372.207 208.293 374.227C206.183 376.457 197.412 411.467 198.262 415.027C198.592 416.407 204.503 417.227 205.233 416.617C206.123 415.857 208.753 397.957 211.813 395.717C212.453 408.497 218.083 409.177 226.293 400.707C226.293 404.787 218.742 422.557 221.892 424.797C223.482 425.927 228.442 426.517 229.142 424.017C230.432 415.467 242.063 391.497 240.353 384.387C239.913 382.567 234.153 382.397 232.333 383.237C230.733 383.977 220.713 396.337 219.323 394.707H219.303ZM252.022 387.947C241.562 390.107 235.973 414.267 237.363 423.117C239.433 436.287 260.453 436.487 266.323 423.197C272.793 408.547 276.592 382.857 252.022 387.937V387.947ZM325.363 392.767C323.083 395.397 332.862 413.527 333.262 418.307C333.732 423.897 326.183 440.807 338.913 434.777C343.493 432.607 342.223 421.277 343.843 416.727C345.303 412.637 360.603 393.747 360.213 391.347C352.183 382.787 343.873 399.077 341.293 405.687C338.193 403.477 338.343 396.177 335.983 393.957C335.713 393.697 334.513 393.737 333.733 393.287C333.303 393.037 333.302 391.897 332.652 391.777C332.292 391.707 325.613 392.497 325.363 392.767ZM282.333 427.647C281.133 426.267 288.103 402.397 288.333 398.167C288.813 389.407 280.002 390.027 277.772 395.687C275.792 400.727 271.893 420.597 271.413 426.307C271.213 428.727 270.833 433.147 272.983 434.737C275.363 436.497 291.842 438.397 293.892 436.757C295.692 435.327 296.093 430.467 294.323 429.087C293.843 428.717 284.213 428.927 282.333 427.637V427.647ZM310.303 427.667L316.363 398.167C316.883 391.477 308.092 390.917 305.783 396.687C304.052 401.007 300.763 422.007 300.443 427.307C300.213 431.027 299.003 436.727 303.833 437.647C306.903 438.227 320.553 437.267 322.363 435.247C323.713 433.737 324.952 428.207 322.642 427.647C320.472 427.117 311.003 428.307 310.313 427.687V427.667H310.303Z" fill="#F48F3B"/>
<path d="M221.303 678.437C231.303 689.847 243.853 701.677 256.303 710.407C259.233 717.877 267.703 724.117 273.833 729.367C284.333 738.347 296.613 747.997 309.303 753.367C306.673 758.337 303.702 764.087 303.262 769.807C302.312 782.057 310.623 787.697 307.863 801.387C305.673 812.277 281.753 855.597 274.303 865.267C273.243 866.637 271.093 867.437 271.303 870.267C271.033 870.637 270.603 870.917 270.303 871.267C269.763 871.897 269.213 872.277 269.303 873.267C269.003 873.617 268.643 873.947 268.303 874.267C266.083 876.337 263.173 877.787 261.303 880.257C261.003 880.347 260.623 880.177 260.303 880.257C250.713 882.597 238.383 881.727 228.443 883.117C225.323 875.557 230.283 867.717 231.303 860.277C231.683 857.487 233.073 853.087 227.803 853.387C217.853 853.957 212.572 877.337 216.292 885.247C208.443 884.967 200.213 886.357 192.733 883.317C191.433 881.507 192.602 869.577 193.392 866.857C194.342 863.607 202.673 853.127 195.603 851.427C185.533 849.007 178.872 872.957 181.292 880.247C170.852 880.067 172.133 867.417 174.813 860.287C179.883 846.787 197.782 837.477 211.772 838.297C216.542 838.577 222.193 842.017 226.693 839.177C228.623 837.957 234.793 826.837 236.473 823.977C238.373 820.727 248.002 803.857 248.282 801.747C248.452 800.497 248.473 799.277 248.103 798.047C247.053 794.537 228.283 784.197 223.823 780.317C210.893 769.057 203.422 752.177 201.292 735.387L203.583 712.197C204.703 704.797 211.403 683.147 216.813 678.437C218.533 676.937 219.592 677.317 221.292 678.437H221.303Z" fill="#D88D41"/>
<path d="M61.3025 280.827C51.3325 289.097 48.9826 301.277 56.1126 312.477C58.1526 315.687 65.0025 322.427 67.8025 316.777C70.9725 310.387 57.3326 297.627 68.3626 289.367C74.9726 284.417 78.9525 289.647 83.8125 294.787C100.933 312.907 105.162 337.247 119.882 356.657C134.602 376.067 155.723 388.537 179.173 392.837C182.402 406.867 173.973 414.407 169.123 425.987C163.443 439.547 160.263 455.077 158.303 469.627C125.223 465.237 95.9425 447.297 79.1325 418.347C65.5525 394.967 65.7625 374.777 44.3225 355.227C29.6325 341.837 -0.557482 329.147 17.8125 304.807C19.2225 304.837 24.6625 322.177 33.8225 322.657C44.5125 323.227 32.9725 308.427 31.8125 305.787C22.9025 285.597 44.4325 276.327 61.3125 280.817L61.3025 280.827Z" fill="#D88D41"/>
<path d="M362.302 318.787C330.842 336.127 313.372 364.737 272.882 359.667C258.402 357.857 240.453 347.527 235.353 333.227C232.213 324.427 234.052 312.317 231.032 304.577C229.612 300.947 224.342 296.967 222.302 293.817C215.162 282.757 211.522 269.707 206.302 257.857C215.182 265.907 224.913 272.537 237.123 274.017C238.543 282.177 241.202 290.187 242.172 298.437C242.702 302.987 241.902 307.637 242.402 312.187C245.112 336.677 266.543 353.627 291.073 347.037C324.593 338.027 333.203 299.467 350.853 274.887C354.003 270.507 360.002 266.077 363.802 261.847C365.692 259.747 368.403 253.357 370.373 255.477C372.163 257.407 374.682 262.967 378.812 258.857C387.212 250.517 365.602 233.777 356.292 238.357C349.802 241.547 358.293 245.907 358.373 246.437C358.973 250.487 344.413 263.247 340.613 265.647C319.053 279.277 279.562 277.377 267.792 251.837C262.842 241.097 266.502 243.837 273.672 242.727C285.802 240.847 301.632 236.127 311.302 228.377C321.582 220.127 332.712 203.587 323.292 190.897C329.862 192.627 335.973 195.597 341.963 198.717C357.393 206.747 392.263 225.677 397.573 242.067C404.483 263.427 380.472 308.757 362.292 318.767V318.787H362.302Z" fill="#FDC586"/>
<path d="M275.293 19.0872L262.983 26.2572C240.703 41.2572 222.193 72.0272 212.533 96.7372C207.293 110.137 204.713 125.337 199.153 138.317C192.253 154.427 178.693 166.067 169.873 180.997C159.133 199.177 154.493 218.787 158.303 239.847C150.353 241.737 142.463 243.057 134.943 238.707C121.153 230.727 136.463 215.397 140.043 205.127C150.583 174.907 130.193 145.337 140.273 115.437C149.273 88.7172 190.073 61.0172 212.983 45.2172C230.803 32.9272 252.543 15.2272 275.293 19.0672V19.0872Z" fill="#A8602F"/>
<path d="M623.302 525.577C626.532 526.137 624.972 523.947 625.262 522.087C625.812 518.557 626.602 501.417 627.302 500.597C628.742 498.927 629.082 501.207 629.532 501.897C630.712 503.667 633.502 509.737 634.292 511.597C638.192 520.787 640.652 531.597 641.292 541.567C639.622 548.007 639.622 557.107 641.292 563.547C640.232 581.477 634.372 600.717 628.292 617.487C629.152 618.167 641.212 612.437 643.292 611.507C639.392 616.947 637.712 622.527 633.262 627.957C620.212 643.897 593.952 657.057 574.292 662.457C574.592 653.527 574.152 643.937 572.042 635.237C570.612 629.357 567.373 624.117 566.223 618.177C599.073 598.257 617.582 562.827 623.292 525.587H623.302V525.577Z" fill="#DD8E32"/>
<path d="M534.373 575.507C529.513 558.497 509.632 555.707 498.792 543.577C487.952 531.447 486.133 516.177 487.473 499.777C496.293 496.797 504.162 491.867 511.812 486.657C519.062 496.727 516.033 512.697 522.863 522.527C529.943 532.717 544.433 534.187 550.733 543.637C558.593 555.437 549.493 575.697 534.373 575.517V575.507Z" fill="#C11111"/>
<path d="M562.302 667.447C559.692 691.637 551.413 716.547 526.562 726.147C484.303 742.467 407.552 693.537 382.302 660.447L383.042 659.967C383.082 659.347 382.392 658.857 382.302 658.457L408.392 678.847C449.862 707.167 507.753 730.747 548.812 688.437L562.302 667.447Z" fill="#DD8E32"/>
<path d="M443.302 520.587C437.752 522.707 432.993 519.297 427.692 518.697C399.882 515.507 381.493 550.447 375.583 573.327C367.373 605.117 375.412 628.137 382.302 658.457C382.392 658.857 383.082 659.347 383.042 659.967L382.302 660.447C352.142 620.917 349.772 553.297 389.772 519.557C409.982 502.507 423.312 505.417 443.302 520.587Z" fill="#FDC586"/>
<path d="M169.302 535.567C169.582 535.867 170.152 536.547 170.302 537.567C170.362 537.957 170.342 538.297 170.302 538.567L168.302 535.117L168.322 528.227C177.462 612.107 182.042 645.587 183.702 647.547C183.842 647.707 185.673 649.707 185.123 650.847C185.003 651.097 184.742 651.307 184.292 651.447C151.222 620.987 145.242 566.697 154.952 524.727C155.922 520.527 161.812 499.527 164.332 498.137C165.672 497.397 167.792 497.517 169.282 496.597C169.812 509.497 168.602 522.687 169.282 535.557H169.302V535.567Z" fill="#FEAC35"/>
<path d="M184.303 651.457C184.753 651.317 185.012 651.107 185.132 650.857C185.672 649.757 183.953 647.837 183.713 647.557C180.843 644.147 156.773 592.927 164.193 543.767C165.553 534.747 168.283 523.817 169.093 523.937C169.453 523.987 169.212 526.237 169.772 532.657C169.772 532.657 169.873 533.987 170.293 538.567C175.273 592.237 199.252 641.837 199.252 641.837C202.072 647.677 206.373 656.087 212.293 665.947C210.583 666.077 208.122 666.117 205.252 665.567C200.472 664.657 197.223 662.647 194.843 661.157C190.173 658.227 186.743 654.677 184.293 651.457H184.303Z" fill="#E28E2E"/>
<path d="M643.302 611.497C644.382 611.017 647.712 607.447 647.282 610.957C646.832 614.657 644.463 621.077 643.073 624.747C631.223 655.847 603.463 677.097 571.312 684.417C573.342 677.017 574.053 670.067 574.312 662.447C593.972 657.047 620.232 643.887 633.282 627.947C637.732 622.507 639.412 616.937 643.312 611.497H643.302Z" fill="#B56019"/>
<path d="M331.302 465.637C366.412 443.307 403.073 415.577 431.333 385.197C432.293 384.157 432.232 381.157 434.312 383.227C433.793 385.957 436.512 398.517 435.312 399.717C434.893 400.137 426.912 398.697 425.312 401.707C396.393 429.287 366.102 455.817 331.802 476.627L331.312 465.647H331.302V465.637Z" fill="#B56019"/>
<path d="M402.302 697.417C409.072 699.447 414.693 705.647 420.583 709.627C439.463 722.367 461.952 733.657 484.312 738.377C483.942 741.527 483.562 744.657 483.252 747.827C483.162 748.777 482.312 749.277 482.312 749.367C481.162 750.177 481.382 751.177 481.312 752.367C465.423 748.407 450.183 739.737 436.983 730.217C424.283 721.067 411.623 709.617 402.312 697.417H402.302Z" fill="#B56019"/>
<path d="M256.302 710.397C271.772 721.247 289.872 728.837 307.782 735.387C311.202 736.637 314.752 737.567 318.292 738.377C318.872 739.157 310.402 751.257 309.292 753.347C296.592 747.967 284.313 738.327 273.823 729.347C267.693 724.107 259.222 717.857 256.292 710.387H256.302V710.397Z" fill="#B56019"/>
<path d="M477.293 503.607C476.403 509.357 475.283 522.077 481.443 535.927C484.843 543.587 489.353 549.067 492.792 552.577C494.062 554.307 495.323 556.037 496.593 557.767C494.473 555.647 491.203 552.427 487.113 548.597C472.993 535.397 465.923 528.797 461.563 525.667C461.563 525.667 450.853 517.997 447.303 509.077C447.253 508.957 447.162 508.707 447.252 508.447C447.782 506.817 454.253 507.647 455.673 507.467C462.943 506.517 470.083 504.797 477.293 503.607Z" fill="#B56019"/>
<path d="M381.303 490.617L383.963 494.457L395.303 501.597C387.903 504.147 379.453 510.717 374.313 516.597C372.463 515.637 373.442 513.087 373.752 511.557C375.402 503.217 377.053 497.417 381.313 490.627H381.303V490.617Z" fill="#B56019"/>
<path d="M395.302 335.767L346.802 343.777C342.122 344.037 348.762 339.337 349.302 338.767C348.742 341.787 350.832 340.697 352.752 340.757C364.872 341.157 383.042 337.997 395.302 335.767Z" fill="#D88D41"/>
<path d="M231.302 860.257C230.282 867.687 225.322 875.537 228.442 883.097C238.382 881.707 250.722 882.577 260.302 880.237C259.272 882.097 257.522 881.897 255.772 882.207C252.152 882.857 227.352 885.297 226.292 884.237C225.862 875.617 226.212 867.477 231.302 860.257Z" fill="#FEAC35"/>
<path d="M500.882 558.967C504.522 561.377 510.002 564.597 512.882 566.547C516.822 569.217 520.332 572.377 522.282 577.037C519.262 575.727 516.233 573.837 513.353 571.727C512.513 571.117 508.493 568.277 505.243 565.077C504.863 564.707 504.112 563.957 503.002 563.007C501.122 561.397 500.572 561.257 499.032 560.007C496.762 558.157 494.533 555.677 494.863 555.237C494.913 555.167 495.053 555.117 495.463 555.237C495.973 555.597 496.693 556.117 497.563 556.717C497.563 556.717 499.212 557.857 500.892 558.977H500.882V558.967Z" fill="#B56019"/>
<path d="M469.302 492.617C454.232 496.007 438.582 496.617 423.302 494.617L469.302 492.617Z" fill="#D88D41"/>
<path d="M201.303 735.377C198.623 714.227 205.383 694.257 216.943 677.027C217.573 676.087 217.193 674.567 217.313 674.437C218.843 672.767 220.493 677.507 221.303 678.427C219.603 677.307 218.543 676.937 216.823 678.427C211.423 683.127 204.723 704.787 203.593 712.187L201.303 735.377Z" fill="#FEAC35"/>
<path d="M574.302 365.737C577.192 362.357 579.093 358.707 579.233 354.097C579.473 346.207 576.032 344.717 568.802 344.677C564.202 344.657 559.332 347.697 555.302 345.757C560.182 344.237 574.702 341.807 578.282 345.277C582.482 349.327 580.622 363.257 574.302 365.747V365.737Z" fill="#D88D41"/>
<path d="M458.303 218.877C458.133 227.827 458.213 236.897 458.303 245.847C455.893 238.497 456.003 230.017 456.303 222.327C456.383 220.407 455.273 218.317 458.303 218.877Z" fill="#D88D41"/>
<path d="M634.302 511.597C633.512 509.737 630.722 503.677 629.542 501.897C629.082 501.217 628.753 498.927 627.312 500.597C626.602 501.417 625.822 518.567 625.272 522.087C624.982 523.947 626.543 526.137 623.312 525.577C624.633 516.997 625.112 508.237 625.782 499.567C628.502 495.317 634.552 508.937 634.312 511.587H634.302V511.597Z" fill="#FEAC35"/>
<path d="M344.302 720.387L347.302 732.367C346.432 732.997 330.822 729.977 328.302 729.377C331.672 726.507 342.562 732.347 345.302 730.367C344.502 728.097 343.282 725.227 343.262 722.827C343.242 720.427 344.292 720.517 344.302 720.387Z" fill="#FEAC35"/>
<path d="M458.302 207.887C458.872 196.347 460.652 189.807 463.302 178.917L458.302 207.887Z" fill="#D88D41"/>
<path d="M483.302 777.337C480.952 768.857 480.802 761.207 481.302 752.357C481.372 751.177 481.152 750.167 482.302 749.357C481.542 758.347 482.472 768.377 483.302 777.327V777.337Z" fill="#FEAC35"/>
<path d="M641.303 563.547C639.633 557.107 639.633 548.007 641.303 541.567C641.733 548.147 641.693 556.947 641.303 563.547Z" fill="#FEAC35"/>
<path d="M594.302 411.697C588.222 413.207 582.582 412.707 576.302 412.697L581.782 411.677L594.302 411.697Z" fill="#FEAC35"/>
<path d="M435.302 320.777C423.562 327.257 409.442 333.357 396.302 335.767L435.302 320.777Z" fill="#D88D41"/>
<path d="M572.302 412.687L565.302 413.687C566.822 412.967 567.803 411.757 569.953 411.707C571.423 411.667 572.172 412.687 572.302 412.697V412.687Z" fill="#FEAC35"/>
<path d="M458.302 215.887C456.652 214.627 456.652 210.157 458.302 208.897C458.202 211.217 458.362 213.567 458.302 215.887Z" fill="#D88D41"/>
<path d="M458.213 250.637C458.243 249.707 458.272 248.777 458.302 247.857L458.213 250.637Z" fill="#FEAC35"/>
<path d="M460.302 257.847L459.302 253.847C459.462 254.697 460.012 256.457 460.302 257.847Z" fill="#FEAC35"/>
<path d="M562.302 666.447L563.302 663.447C563.182 665.597 562.312 666.287 562.302 666.447Z" fill="#DD8E32"/>
<path d="M402.302 696.417C400.172 696.657 400.062 696.537 400.302 694.417C400.932 695.087 401.482 695.107 402.302 696.417Z" fill="#B56019"/>
<path d="M596.302 410.697C597.552 409.027 599.632 408.677 601.302 407.697C600.442 410.167 598.082 409.937 596.302 410.697Z" fill="#FEAC35"/>
<path d="M271.303 870.247C271.093 867.417 273.243 866.627 274.303 865.247C273.693 867.207 272.473 868.627 271.303 870.247Z" fill="#FEAC35"/>
<path d="M269.302 873.247C269.212 872.257 269.762 871.887 270.302 871.247C270.392 872.207 269.842 872.607 269.302 873.247Z" fill="#FEAC35"/>
<path d="M261.302 880.237C263.172 877.767 266.082 876.317 268.302 874.247C266.732 876.717 264.142 879.367 261.302 880.237Z" fill="#FEAC35"/>
<path d="M492.75 552.504L492.284 552.971L495.772 556.456L496.238 555.989L492.75 552.504Z" fill="#B56019"/>
<path d="M195.302 465.637C186.582 488.327 182.502 514.217 182.302 538.567L180.262 513.137L181.302 481.627C176.092 481.177 172.083 484.947 167.333 486.137C170.723 466.757 173.003 446.877 180.812 428.667C185.022 440.727 189.013 454.497 195.312 465.637H195.302Z" fill="#DD8E32"/>
<path d="M281.302 119.977C291.072 134.247 292.092 151.297 282.302 165.937C281.882 166.017 277.522 171.107 276.302 171.917C289.972 173.037 314.802 179.477 323.302 190.907C332.732 203.587 321.592 220.137 311.312 228.387C301.642 236.147 285.812 240.857 273.682 242.737C266.512 243.847 262.852 241.107 267.802 251.847C279.572 277.387 319.063 279.287 340.623 265.657C344.423 263.257 358.982 250.497 358.382 246.447C358.302 245.917 349.812 241.557 356.302 238.367C365.622 233.777 387.233 250.527 378.823 258.867C374.693 262.977 372.172 257.417 370.382 255.487C368.412 253.367 365.702 259.757 363.812 261.857C360.012 266.087 354.013 270.517 350.863 274.897C333.203 299.467 324.593 338.037 291.083 347.047C266.553 353.637 245.112 336.687 242.412 312.197C241.912 307.647 242.712 302.997 242.182 298.447C241.212 290.187 238.552 282.177 237.132 274.027C224.922 272.547 215.192 265.907 206.312 257.867C202.772 249.837 197.592 245.247 196.422 235.277C194.732 220.867 198.272 214.707 207.312 204.917C202.712 219.587 203.092 236.937 213.802 248.887C221.772 257.787 236.883 264.617 248.703 261.747C251.763 261.007 258.962 257.857 259.312 254.357C259.372 253.727 257.193 242.387 256.853 241.847C256.513 241.307 247.752 238.207 245.652 237.057C230.162 228.597 218.603 209.887 223.323 191.937C228.713 187.537 232.873 177.847 241.323 174.957C243.743 174.127 248.613 174.137 251.323 173.947C241.793 164.177 240.753 150.747 248.123 139.297C253.703 130.627 266.633 124.037 274.833 132.977C268.783 115.697 249.922 118.197 239.912 131.087C230.882 142.717 229.503 156.517 235.323 169.967C205.143 144.827 248.833 89.1472 281.323 120.017L281.302 119.977ZM263.552 146.697C267.882 151.067 274.542 142.557 269.892 138.867C264.502 134.587 259.842 142.967 263.552 146.697ZM287.292 283.827C243.292 280.527 243.132 348.567 289.502 336.477C311.132 330.837 320.702 302.477 331.272 285.297C331.512 283.637 331.362 283.697 329.792 283.807C326.312 284.047 322.282 285.587 318.772 285.807C313.312 286.147 306.972 285.177 301.762 285.807C293.962 286.737 285.253 298.327 282.093 305.117C281.113 307.237 281.222 313.267 277.792 311.797C272.822 309.667 279.292 293.987 281.442 290.487C282.972 288.007 285.482 286.057 287.272 283.837H287.292V283.827Z" fill="#442809"/>
<path d="M393.303 201.897C377.923 193.947 371.442 177.377 380.502 161.637C385.602 152.767 394.803 145.387 405.603 147.157C407.133 147.407 413.973 151.517 409.363 145.387C402.543 136.317 385.632 137.797 377.282 144.427C364.132 154.867 360.063 177.857 369.303 191.907C338.363 166.327 376.253 111.277 412.233 135.527C440.113 154.317 429.863 203.527 393.303 201.897ZM412.292 150.947C413.013 149.547 411.663 148.277 411.313 148.957C410.593 150.357 411.943 151.627 412.292 150.947ZM402.012 157.117C398.052 158.287 398.052 167.597 402.012 168.767C411.392 171.537 411.392 154.357 402.012 157.117Z" fill="#442809"/>
<path d="M207.302 204.897C213.772 197.887 217.052 197.017 223.302 191.907C218.582 209.867 230.152 228.567 245.632 237.027C247.732 238.177 256.502 241.307 256.832 241.817C257.162 242.327 259.362 253.687 259.292 254.327C258.942 257.827 251.742 260.977 248.682 261.717C236.862 264.587 221.752 257.757 213.782 248.857C203.072 236.907 202.692 219.557 207.292 204.887H207.302V204.897Z" fill="#FDC586"/>
<path d="M369.303 191.907C360.063 177.857 364.133 154.877 377.283 144.427C385.633 137.797 402.553 136.317 409.363 145.387C413.963 151.517 407.133 147.407 405.603 147.157C394.803 145.377 385.602 152.767 380.502 161.637C371.442 177.377 377.923 193.937 393.303 201.897C383.543 201.467 376.693 198.017 369.303 191.907Z" fill="#FEFEFE"/>
<path d="M395.012 86.2271C403.922 84.2471 416.892 89.1871 422.132 96.6671C424.832 100.527 430.002 111.747 422.562 112.817C417.552 113.537 412.422 103.187 407.632 100.157C402.842 97.1271 393.742 96.7071 391.702 95.0971C388.212 92.3371 390.722 87.1771 395.002 86.2271H395.012Z" fill="#442809"/>
<path d="M268.062 69.2872C274.582 68.3372 294.553 70.4172 288.363 80.5772C285.603 85.1072 275.442 80.1572 269.042 81.2572C263.582 82.1972 260.522 86.9272 257.592 87.7972C250.742 89.8172 248.542 83.8672 252.312 78.5172C255.552 73.9072 262.492 70.1072 268.072 69.2872H268.062Z" fill="#442809"/>
<path d="M281.302 119.977C291.042 129.227 292.313 144.447 288.613 156.747C288.353 157.597 283.702 166.527 283.292 166.927C282.652 167.537 282.372 165.917 282.302 165.927C292.092 151.287 291.072 134.237 281.302 119.967V119.977Z" fill="#FEAC35"/>
<path d="M481.822 616.887C486.272 617.087 492.833 628.387 486.593 630.287C477.553 633.027 471.852 616.437 481.822 616.887Z" fill="#442809"/>
<path d="M496.002 678.627C504.922 675.957 506.263 690.527 500.593 692.257C492.563 694.697 490.812 680.187 496.002 678.627Z" fill="#442809"/>
<path d="M426.032 564.717C432.442 563.787 436.283 576.617 430.593 578.337C421.833 580.977 419.092 565.727 426.032 564.717Z" fill="#442809"/>
<path d="M529.002 642.667C536.702 640.317 543.773 652.787 535.323 655.057C530.463 656.367 522.012 644.797 529.002 642.667Z" fill="#442809"/>
<path d="M420.012 628.697C431.502 625.957 432.353 637.057 423.743 638.407C412.653 640.157 413.452 630.257 420.012 628.697Z" fill="#442809"/>
<path d="M219.302 394.707C220.692 396.337 230.722 383.977 232.312 383.237C234.142 382.397 239.902 382.567 240.332 384.387C242.042 391.497 230.413 415.467 229.123 424.017C228.423 426.517 223.463 425.927 221.873 424.797C218.733 422.557 226.272 404.787 226.272 400.707C218.062 409.177 212.422 408.497 211.792 395.717C208.742 397.957 206.112 415.857 205.212 416.617C204.492 417.237 198.573 416.407 198.243 415.027C197.393 411.467 206.162 376.457 208.272 374.227C210.182 372.207 215.422 372.357 216.782 374.727C218.552 377.797 218.672 390.477 219.282 394.707H219.302Z" fill="#442809"/>
<path d="M252.022 387.947C276.592 382.857 272.793 408.557 266.323 423.207C260.453 436.497 239.443 436.297 237.363 423.127C235.973 414.277 241.562 390.117 252.022 387.957V387.947ZM248.443 423.537C254.283 424.777 255.792 422.467 257.782 417.667C259.772 412.867 265.683 391.637 254.303 397.197C250.793 398.917 245.023 421.407 248.453 423.537H248.443Z" fill="#442809"/>
<path d="M325.363 392.767C326.913 391.017 330.392 391.007 332.652 391.777C334.432 392.387 335.543 393.517 335.983 393.967C337.273 395.297 337.713 396.577 338.583 398.867C339.163 400.407 340.073 402.747 341.293 405.697C344.673 395.177 350.652 388.507 355.882 388.947C356.072 388.967 359.133 389.257 360.213 391.357C362.443 395.697 354.772 405.017 349.772 409.737C347.162 412.197 345.153 413.527 343.843 416.737C342.963 418.897 343.292 419.727 342.652 425.157C341.542 434.557 340.123 435.687 339.543 436.067C337.573 437.347 334.403 437.097 332.743 435.557C330.533 433.507 331.243 429.377 332.093 424.447C332.743 420.687 333.342 420.417 333.262 418.317C333.122 414.727 331.243 412.857 329.223 409.457C326.803 405.387 322.393 396.117 325.363 392.777V392.767Z" fill="#442809"/>
<path d="M282.333 427.647C284.223 428.937 293.852 428.727 294.322 429.097C296.102 430.477 295.692 435.337 293.892 436.767C291.842 438.397 275.353 436.497 272.983 434.747C270.833 433.157 271.202 428.737 271.412 426.317C271.892 420.607 275.792 400.737 277.772 395.697C279.992 390.037 288.803 389.417 288.333 398.177C288.103 402.407 281.133 426.277 282.333 427.657V427.647Z" fill="#442809"/>
<path d="M310.302 427.667C310.992 428.287 320.462 427.097 322.632 427.627C324.942 428.187 323.713 433.727 322.353 435.227C320.543 437.247 306.892 438.207 303.822 437.627C298.982 436.717 300.202 431.017 300.432 427.287C300.762 421.987 304.042 400.987 305.772 396.667C308.082 390.897 316.873 391.457 316.353 398.147L310.292 427.647V427.667H310.302Z" fill="#442809"/>
<path d="M287.293 283.827C285.503 286.047 282.983 287.987 281.463 290.477C279.313 293.977 272.833 309.647 277.813 311.787C281.253 313.257 281.133 307.227 282.113 305.107C285.263 298.317 293.973 286.727 301.783 285.797C306.993 285.177 313.333 286.137 318.793 285.797C322.293 285.577 326.333 284.047 329.813 283.797C331.373 283.687 331.523 283.627 331.293 285.287C320.723 302.477 311.153 330.827 289.523 336.467C243.153 348.567 243.313 280.517 287.313 283.817H287.293V283.827Z" fill="#E28966"/>
<path d="M263.552 146.697C259.852 142.967 264.512 134.587 269.892 138.867C274.542 142.567 267.882 151.067 263.552 146.697Z" fill="#FEFEFE"/>
<path d="M235.302 169.927C229.472 156.477 230.862 142.687 239.892 131.047C249.902 118.157 268.763 115.657 274.813 132.937C266.613 123.987 253.693 130.587 248.103 139.257C240.733 150.707 241.773 164.137 251.302 173.907C248.592 174.097 243.722 174.087 241.302 174.917C239.372 173.177 237.292 171.587 235.302 169.917V169.927Z" fill="#FEFEFE"/>
<path d="M402.012 157.117C411.392 154.347 411.392 171.537 402.012 168.767C398.052 167.597 398.052 158.287 402.012 157.117Z" fill="#FEFEFE"/>
<path d="M412.293 150.947C411.943 151.627 410.593 150.367 411.313 148.957C411.663 148.277 413.013 149.537 412.293 150.947Z" fill="#FEFEFE"/>
<path d="M248.442 423.537C245.022 421.417 250.792 398.917 254.292 397.197C265.672 391.627 259.772 412.847 257.772 417.667C255.772 422.487 254.272 424.777 248.432 423.537H248.442Z" fill="#F48F3B"/>
<path d="M274.303 865.247C273.093 869.917 270.433 876.827 264.163 880.527C260.143 882.897 256.612 882.777 248.012 883.377C242.612 883.757 234.883 884.437 225.423 885.787C224.263 880.517 224.602 876.467 225.142 873.717C225.702 870.847 227.062 866.357 229.012 861.717C230.792 857.467 232.063 855.487 231.233 854.527C230.123 853.237 226.113 854.777 224.433 855.687C215.283 860.657 215.913 879.147 216.303 885.217C212.393 886.237 205.903 887.287 198.493 885.367C196.323 884.807 194.393 884.067 192.733 883.287C190.793 875.377 191.972 870.147 193.392 866.827C195.632 861.627 199.812 858.087 198.392 854.247C198.352 854.147 197.513 851.927 195.593 851.397C192.793 850.627 189.783 853.807 188.313 855.367C181.723 862.347 181.233 874.737 181.293 880.207C178.863 881.057 175.903 881.597 173.833 880.177C168.733 876.667 170.723 862.387 177.363 853.107C184.243 843.507 195.023 840.777 200.483 839.407C207.033 837.757 212.683 837.657 226.683 839.137C266.553 843.377 270.943 847.247 272.783 850.337C274.223 852.757 275.963 857.297 274.293 865.217V865.247H274.303Z" fill="#FDC380"/>
<path d="M437.453 352.227C436.713 355.447 434.752 361.697 428.892 368.377C430.362 366.107 433.843 359.987 432.603 352.497C432.533 352.077 431.873 348.267 430.483 346.437C424.563 338.657 394.473 352.587 374.293 360.277C347.203 370.597 314.603 383.017 279.233 377.597C279.233 377.597 240.752 371.697 220.882 343.717C219.212 341.367 214.683 334.987 216.063 327.687C216.133 327.337 217.203 321.937 219.333 321.767C222.273 321.537 222.763 331.537 230.343 343.077C232.573 346.467 238.283 354.937 248.573 360.187C251.763 361.807 254.612 362.727 258.882 364.107C261.812 365.047 268.283 367.117 275.953 368.207C280.973 368.917 296.953 371.017 312.923 364.947C319.193 362.567 322.333 361.367 325.213 358.797C327.743 356.537 329.463 354.027 333.343 352.757C335.353 352.097 336.853 352.137 339.413 352.127C343.883 352.107 348.353 351.667 352.823 351.747C354.713 351.787 369.183 352.067 381.823 350.437C390.673 349.297 396.813 347.447 407.623 344.187C420.523 340.297 429.763 336.307 431.543 335.447C432.683 334.897 433.862 334.417 435.012 333.877C437.282 332.817 437.533 332.617 437.902 332.757C438.973 333.157 439.113 335.747 438.533 342.537C438.072 347.887 437.853 350.567 437.463 352.237L437.453 352.227Z" fill="#D87C3D"/>
<path d="M477.542 880.697C475.862 884.687 472.083 894.107 461.963 898.067C453.592 901.347 445.882 898.947 443.432 898.067C441.902 893.397 442.043 889.827 442.493 887.377C443.143 883.807 444.552 881.907 445.632 875.847C446.382 871.647 446.142 870.057 445.172 869.217C443.712 867.937 441.092 868.797 440.792 868.897C436.182 870.507 434.552 876.797 433.382 881.267C432.372 885.177 431.322 891.337 432.282 899.207C426.862 900.317 420.082 900.987 412.432 900.057C410.622 899.837 408.912 899.547 407.282 899.207C404.532 889.157 406.002 883.127 408.002 879.397C409.432 876.737 412.782 872.217 411.162 869.427C410.652 868.547 409.812 868.117 409.562 868.007C406.982 866.807 403.652 869.107 402.252 870.067C395.072 875.027 395.242 894.457 395.272 896.197C392.552 895.907 389.812 895.017 387.882 892.937C382.422 887.067 386.312 874.757 391.302 867.807C398.352 857.997 410.322 855.137 414.422 854.107C421.012 852.447 423.863 853.107 440.623 853.837C469.453 855.097 475.263 853.787 478.863 858.627C480.373 860.657 483.502 866.477 477.522 880.677L477.542 880.697Z" fill="#FDC380"/>
</svg>
