<svg width="136" height="130" viewBox="0 0 136 130" fill="none" xmlns="http://www.w3.org/2000/svg">
<path d="M133.88 87.3058C133.834 87.2245 133.789 87.1432 133.745 87.0634Z" fill="#412E12"/>
<path d="M111.779 105.729C111.347 107.764 111.388 109.695 112.023 111.683C112.291 112.523 113.046 113.641 113.171 114.382C113.533 116.519 112.461 120.007 111.85 122.113C111.149 124.529 110.356 128.326 107.786 129.308C105.447 130.204 98.6902 130.258 96.3798 129.305C94.2064 128.408 93.9697 126.42 94.6984 124.354C95.6211 121.734 98.171 120.371 100.781 119.958L101.498 117.081C99.9979 116.012 98.2766 115.209 96.8818 113.989C95.6226 112.886 94.0595 111.148 93.1254 109.763C92.3667 108.639 91.7677 107.406 91.1046 106.226C90.2646 106.346 88.9825 105.733 88.288 105.759C88.1553 105.763 88.1339 105.76 88.0384 105.867C87.7703 106.168 86.8818 107.754 86.6565 108.199C85.2204 111.032 86.6009 110.684 86.8233 112.923C87.0373 115.074 84.1579 120.071 82.997 122.068C82.1299 123.561 80.6182 126.372 79.0766 127.126C77.8758 127.714 74.9123 127.902 73.4962 127.962C70.9876 128.07 64.3875 128.24 64.0053 124.75C63.6202 121.232 66.4568 118.682 69.6756 118.019C70.2645 117.898 72.3724 117.888 72.5649 117.771C72.8558 117.594 74.0737 114.763 74.4174 114.281C74.2434 114.275 74.0894 114.203 73.9439 114.113C72.2725 113.085 70.1362 111.01 69.2292 109.274C67.1584 105.312 67.6447 100.405 69.8524 96.6128C59.6156 91.8866 59.2263 77.9975 63.1496 68.8303C56.7149 67.7436 52.0229 63.8531 49.4345 57.9547C48.8569 56.6383 48.5389 55.1081 47.7802 53.9087C45.5839 50.4347 40.3985 49.6803 41.0574 44.6917C41.18 43.7647 41.8917 42.561 42.6133 41.972C42.8814 41.7524 43.5289 41.4857 43.5745 41.4372C43.6401 41.3688 43.8597 40.6343 44.0138 40.379C45.6324 37.6965 49.3832 37.7649 51.8874 39.1212C57.3053 42.0547 57.0914 48.5522 61.5937 51.935C63.1667 53.1172 65.0692 53.9287 67.0001 54.2981C67.2083 52.7578 67.8073 51.3217 68.3607 49.8856L70.8493 44.7558C67.6447 42.7521 65.0192 39.7629 63.8684 36.1192C61.8547 36.5499 59.4859 36.3317 58.1838 34.539C56.4938 32.2116 58.5346 30.6528 59.2249 28.6477C60.2959 25.5373 58.4904 21.7595 58.7243 18.4594C59.1422 12.5267 65.3957 8.34816 69.8938 5.25488C72.8715 3.20696 76.5324 0.493038 80.3344 0.870963C80.9748 0.935139 81.6992 1.31877 82.3125 1.28882C83.3065 1.24033 85.2389 0.498743 86.4882 0.321903C93.1368 -0.626473 100.005 0.527266 105.888 3.69613C106.408 3.97565 107.237 4.73435 107.753 4.83132C108.555 4.98392 109.887 4.45625 110.986 4.58603C115.66 5.13794 121.722 11.7452 124.691 15.2578C128.993 20.3448 132.914 25.5672 128.615 32.1474C126.577 35.2664 124.101 36.3844 121.35 38.5664C119.443 40.0781 119.623 40.563 118.603 42.5182C116.554 46.4472 111.883 45.63 109.429 42.6181C108.694 43.4024 108.021 44.2453 107.22 44.9669C106.418 45.6885 105.446 46.2233 104.785 46.9635C105.18 48.3169 105.183 49.6218 104.838 50.9809C104.726 51.4273 104.256 52.3229 104.244 52.6509C104.218 53.3297 104.676 55.767 104.811 56.6326C104.832 56.7724 104.901 57.2644 105.024 57.2986C107.22 57.4213 108.97 56.7567 110.573 55.2992C113.013 53.0801 114.904 50.1851 117.91 48.5251C122.304 46.0992 128.074 47.2031 129.306 52.5325C129.373 52.8206 129.279 53.1714 129.351 53.4866C129.425 53.8189 129.777 54.0984 129.86 54.5462C130.4 57.5183 128.228 60.2707 125.256 60.5673C123.657 60.7271 121.955 60.1295 120.767 61.6383C119.941 62.6866 119.221 63.9886 118.338 65.0525C117.411 66.1706 116.357 67.1532 115.369 68.2114C116.327 69.5534 116.152 72.1461 116.855 73.3811C117.281 74.1298 118.774 74.6161 119.527 75.1281C121.445 76.4344 122.184 78.4196 121.406 80.6544C121.028 81.7396 119.436 83.4995 118.2 83.508C118.503 83.8988 118.576 84.5691 118.844 84.9285C119.021 85.1666 119.619 85.5588 119.915 85.854C120.192 86.1293 120.473 86.8666 120.902 86.7168C121.303 86.5771 122.605 85.5531 122.983 85.2194C126.098 82.4741 127.725 78.3383 128.309 74.2981C128.516 72.8677 128.173 69.8115 130.034 69.4607C132.114 69.0685 133.141 72.2388 133.565 73.7861C134.546 77.3743 134.396 81.5172 133.319 85.0711C133.501 85.2208 134.091 84.3238 134.793 84.7773C135.433 85.1895 134.728 88.4667 134.5 89.1741C132.748 94.6176 127.449 98.5024 121.933 99.485C121.199 101.653 119.519 103.873 117.442 104.901C117.026 105.108 115.367 105.731 114.992 105.731H111.783L111.779 105.729ZM106.788 6.85215C106.705 6.47708 106.618 6.45854 106.347 6.22323C101.266 1.80223 88.2723 0.601424 82.3039 3.40805C75.4115 6.64964 73.7571 12.7321 71.4853 19.2424C70.3986 22.3585 69.2891 23.1599 67.4323 25.5943C63.5132 30.7313 64.9294 37.3157 69.4203 41.547C69.9479 42.0448 72.0985 43.8203 72.6633 44.0057C72.776 44.0428 72.8715 44.0499 72.987 44.0371L72.7018 41.9007C72.9927 42.3514 73.7443 42.9175 73.9468 43.4352C74.3775 44.5391 74.1151 46.2661 74.5629 47.5211C75.2902 49.5605 77.8516 51.0336 79.9152 51.2918C85.6896 52.0148 88.181 47.9347 92.6676 45.4618C92.7332 46.5998 91.5467 47.5382 90.8136 48.3112C90.7366 48.3925 89.7897 49.0642 90.4571 49.0257L97.3738 47.8833C97.4195 47.8748 97.4708 47.8919 97.5164 47.8833C99.3904 47.5411 101.404 46.6697 103.078 45.7456C105.166 44.5932 106.93 43.0045 108.287 41.0422C107.447 39.3394 107.147 38.6563 107.082 38.4338C107.063 38.3682 107.016 38.1771 106.929 37.9104C106.899 37.8206 106.873 37.745 106.845 37.6266C106.815 37.5011 106.819 37.4783 106.786 37.3414C106.756 37.2159 106.741 37.1973 106.706 37.0562C106.669 36.9021 106.647 36.7852 106.644 36.7709C106.578 36.4415 106.514 36.3887 106.453 36.0479C106.42 35.8682 106.384 35.63 106.358 35.3462C106.356 35.2507 106.358 35.1565 106.358 35.061C106.346 33.7832 106.334 32.4911 106.358 31.2147C106.361 31.0721 106.356 30.9295 106.358 30.7869C106.367 30.456 106.344 30.1209 106.358 29.79C106.36 29.743 106.356 29.6945 106.358 29.6474L107.072 25.5159C107.78 22.5995 108.515 19.8071 108.354 16.7552C108.279 15.3405 108.054 13.7746 107.927 12.4084C109.165 11.6283 109.477 12.8576 109.711 13.8316C111.791 22.5053 104.994 31.7966 109.9 40.1437C111.2 42.3571 114.718 45.0439 116.746 42.0904C117.919 40.3833 117.792 39.1112 119.697 37.4883C123.723 34.0599 129.476 31.7567 128.569 25.0538C128.033 21.0892 120.382 12.8205 117.264 10.1322C114.795 8.00161 112.81 6.18472 109.281 6.5655C108.324 6.66961 107.685 7.47537 106.786 6.85072H106.788V6.85215ZM80.2603 2.72208C77.0158 2.17445 73.9154 4.69869 71.3741 6.45141C68.1068 8.70469 62.2882 12.6551 61.0047 16.4657C59.5686 20.7298 62.475 24.9469 60.9719 29.2566C60.4613 30.7199 58.2794 32.9075 60.2446 34.0456C61.317 34.666 62.4422 34.4777 63.576 34.2082C63.0341 31.2033 63.6944 28.4081 65.226 25.8154C66.4839 23.6862 68.4177 22.0262 69.4017 19.7287C70.1947 17.8776 70.5626 15.7084 71.3099 13.7988C72.689 10.2749 75.3273 5.88666 78.5047 3.74747L80.2603 2.72493V2.72208ZM49.7425 40.0496C47.3352 39.4093 44.2648 40.7299 45.5355 43.6106C45.7009 43.9871 47.3466 46.0978 45.8221 46.0165C44.5172 45.9466 43.7414 43.4737 43.5389 43.4709C40.9191 46.9421 45.226 48.7504 47.3195 50.6614C50.3772 53.4495 50.3487 56.3303 52.2839 59.6632C54.6812 63.7918 58.8555 66.3503 63.5746 66.9764C63.8555 64.8999 64.3076 62.6866 65.1176 60.7527C65.8093 59.1013 67.0101 58.026 66.5509 56.0251C63.2066 55.4119 60.1462 53.5693 58.0954 50.8654C56.0446 48.1614 55.3929 44.626 52.9513 42.0419C52.2582 41.3089 51.6906 40.563 50.748 41.2689C49.1749 42.4469 51.1202 44.2667 50.6681 45.178C50.2688 45.9823 49.2919 45.0225 49.001 44.5647C47.9841 42.9675 48.3207 41.2304 49.7411 40.051L49.7425 40.0496ZM103.222 49.9512C103.314 49.2752 103.155 48.4395 103.222 47.7436C99.9794 49.2168 96.1745 50.3505 92.5963 50.5915C91.3399 50.6757 89.4403 50.3833 88.3222 50.5958C88.0455 50.6486 87.3924 51.3346 87.0073 51.5613C82.709 54.1027 76.2899 53.4167 73.5004 49.0128L72.0643 46.1763C69.6584 50.4447 67.669 55.1537 68.4648 60.1694C68.9382 63.1529 70.815 66.4373 72.7075 68.7533C73.1311 69.2724 74.3718 70.8554 75.0207 70.797C81.9174 68.518 88.1696 64.676 93.9412 60.3391C96.7692 58.2142 102.732 53.5821 103.224 49.9512H103.222ZM120.193 49.3095C113.76 51.3117 112.149 60.5958 103.622 58.8132C102.846 58.6506 101.398 58.3397 101.654 57.2887C101.883 56.858 103.021 57.0633 103.08 57.0049C103.251 56.8337 102.863 55.0425 102.937 54.6532C102.641 54.3594 102.651 54.7872 102.512 54.9341C98.4819 59.2667 93.2537 63.2214 88.2466 66.4059C85.845 67.9333 82.9115 69.492 80.3116 70.66C79.262 71.1307 75.5983 72.7222 74.6599 72.6438C74.0908 72.5967 73.77 72.1019 73.2722 71.9621C71.7634 70.2393 69.9864 68.4139 68.8512 66.4059C67.9528 64.8172 67.3838 62.852 66.7834 61.1335C65.6696 63.7305 65.3444 66.5642 64.8609 69.3295C65.5383 69.1598 66.1116 68.6221 66.8532 68.6863L66.7049 73.18L66.9958 76.8067C66.9402 83.5423 70.9077 93.3013 75.9049 97.8963C76.896 98.8076 79.7611 100.947 80.9719 101.312C83.0056 102.487 85.5284 103.477 87.8173 104.019C88.1767 104.104 90.4029 104.535 90.527 104.445L90.0991 102.737C90.1491 101.966 89.928 101.058 91.0376 101.586C92.1756 104.156 93.1225 106.828 94.7155 109.166C96.1859 111.323 97.9272 112.778 100.095 114.193C101.376 115.028 103.742 115.575 103.184 117.446C102.827 118.117 102.485 120.858 102.149 121.255C101.781 121.687 100.219 121.77 99.5786 121.964C97.7532 122.516 96.2458 123.893 96.086 125.881C95.9919 127.048 96.1901 127.52 97.3738 127.811C97.1956 126.671 97.6534 124.136 98.9369 123.739C100.624 123.219 99.0453 125.689 98.9554 126.328C98.8656 126.966 98.9697 127.613 99.0852 128.239H102.651C102.168 127.229 102.746 124.188 103.894 123.846C105.653 123.323 104.154 126.156 104.092 126.757C104.065 127.019 104.047 127.955 104.239 128.075C104.549 128.267 106.929 127.804 107.358 127.598C108.642 126.986 109.112 125.033 109.533 123.788C110.172 121.895 111.956 116.252 111.418 114.561C111.046 113.39 110.285 112.16 109.922 110.856C109.804 109.578 109.671 108.149 109.78 106.867C109.78 106.854 109.901 106.782 109.914 106.647C109.958 106.195 110.012 105.749 110.065 105.299C106.878 104.625 103.669 103.015 100.976 101.199C100.136 100.632 99.3348 99.7488 98.3693 99.4579C98.3465 99.4279 98.3907 99.3495 98.3693 99.3153C98.2523 99.1284 98.1739 99.127 98.084 99.03C97.2155 98.0959 96.0604 97.3287 95.1591 96.3247C89.7027 90.2536 88.8541 79.9827 94.3761 73.6692C95.1106 72.8306 96.3142 71.8936 97.3696 71.53L95.7523 70.5117L95.373 69.9641C95.4257 69.8785 95.3216 69.6104 95.5769 69.3865C96.377 68.6834 98.0484 69.7716 98.9412 70.0325C99.4103 70.1695 100.021 70.295 100.507 70.3919C100.674 70.4247 100.901 70.3648 101.077 70.3919C101.096 70.3948 101.194 70.5132 101.363 70.5345C103.542 70.8198 105.774 70.7328 107.923 70.2493C111.329 69.4835 113.666 67.6252 115.982 65.1224C117.608 63.3668 119.573 59.9641 121.614 58.9943L122.612 58.8517C122.802 58.8531 122.993 58.8517 123.183 58.8517C124.078 58.8531 124.882 58.9244 125.75 58.7091C125.879 58.6763 125.946 58.605 126.035 58.5665C126.289 58.4581 126.625 58.4909 126.748 58.1386C127.787 57.5325 128.066 56.6398 128.314 55.5017C127.813 55.7413 127.522 56.2205 127.025 56.4914C126.426 56.8166 124.84 57.2701 124.894 56.229C124.93 55.5488 126.167 55.2136 126.677 54.7188C128.578 52.8691 127.159 50.8112 125.393 49.5947C126.058 51.2347 123.974 54.8913 122.046 54.0756C120.745 53.5251 122.507 52.6152 122.899 52.156C123.8 51.8009 124.065 49.8143 123.466 49.2367C122.954 48.7433 120.884 49.0898 120.189 49.3052L120.193 49.3095ZM117.208 82.0748C119.365 82.1019 120.663 79.2111 119.542 77.5283C118.643 76.1806 116.577 75.971 115.567 74.5177C114.593 73.1158 115.024 70.8383 113.991 69.4022C112.9 70.1452 111.778 70.8483 110.52 71.2733C110.329 73.6136 110.52 75.7128 112.134 77.5197C113.749 79.3266 116.515 79.6475 117.208 82.0734V82.0748ZM67.2839 92.9062C68.268 93.8133 69.9037 95.1396 71.2757 94.9727C69.2049 91.53 67.9029 88.5138 67.0828 86.3018C66.8532 85.6829 65.2175 81.2234 65.3801 79.4635C65.4613 78.5808 65.2232 77.6909 65.2873 76.8067C65.2902 76.7739 65.303 76.6341 65.2303 76.4958C65.1932 76.4259 65.149 76.3831 65.1447 76.3788C65.0492 76.2804 65.0235 74.8272 65.1447 70.8226C64.9322 70.9538 64.6299 70.9367 64.4388 71.0422C64.0794 71.2405 63.2394 74.2368 63.1011 74.8343C61.7163 80.8198 62.5691 88.5608 67.2854 92.9062H67.2839ZM129.891 74.9541C129.077 80.265 126.437 85.3178 121.752 88.1587C121.915 89.0043 122.378 89.7531 122.582 90.5916C122.883 91.8324 122.946 93.2 122.903 94.4736C122.867 95.5603 122.766 96.5514 122.475 97.6068C127.06 96.5628 131.021 93.5323 132.709 89.097C132.909 88.5737 133.245 87.6581 133.309 87.1304C133.374 86.6028 132.896 87.1375 132.742 87.2074C132.445 87.3401 130.725 88.1572 130.603 88.0602C131.47 85.6686 132.305 82.9248 132.457 80.3677C132.512 79.4265 132.518 78.1715 132.457 77.2331C132.365 75.8098 132.015 74.2696 131.458 72.959C131.493 72.581 130.63 70.6387 130.242 71.2448C130.146 72.4798 130.078 73.7291 129.89 74.9541H129.891ZM109.068 71.8209C108.04 71.9906 107.02 72.2359 105.985 72.3714C105.761 72.4013 104.65 72.2516 104.793 72.601C104.862 72.775 106.832 74.3865 107.166 74.7188C108.411 75.9538 109.54 77.3372 110.854 78.5123C110.47 77.8149 109.977 77.1675 109.66 76.4287C109.057 75.0183 108.727 73.3369 109.068 71.8195V71.8209ZM95.5213 94.1883C99.1223 98.906 110.068 105.885 116.095 103.558C119.639 102.189 120.819 98.6364 121.192 95.1866C121.197 95.1396 121.187 95.0911 121.192 95.044C121.193 95.0212 121.317 94.9242 121.334 94.6162C121.752 86.9022 115.473 84.9827 110.637 80.5845C108.421 78.5694 106.608 76.0537 104.221 74.2425C101.37 72.0805 99.4702 71.664 96.5866 74.0956C90.8821 78.9074 91.2187 88.5508 95.5213 94.1883ZM111.279 78.8047L111.212 78.8717L111.709 79.3694L111.776 79.3024L111.279 78.8047ZM112.411 79.8258C112.397 79.8115 112.313 79.7288 112.187 79.6304C112.083 79.5491 111.99 79.4878 111.918 79.4436C111.939 79.4892 111.979 79.5634 112.042 79.6432C112.257 79.9128 112.506 79.9156 112.735 80.1267C112.847 80.2294 112.894 80.4504 113.051 80.5902C113.757 81.2191 114.619 81.9222 115.481 82.2958C113.379 80.6344 112.542 79.957 112.41 79.8272L112.411 79.8258ZM72.5606 96.7539C72.4451 96.6227 72.2098 95.9453 71.9916 96.1849C71.9759 96.202 72.0287 96.4202 71.9388 96.5543C70.2902 99.0115 69.3261 101.859 69.7084 104.876C70.0121 107.27 71.0774 109.678 72.9214 111.283C73.5561 111.835 76.2329 113.311 76.3841 113.812C76.4368 113.986 76.4326 114.161 76.4097 114.34C76.3684 114.64 74.9964 117.046 74.7255 117.51C74.4873 117.918 73.606 119.505 73.3307 119.678C72.689 120.083 71.8818 119.592 71.2029 119.552C69.2078 119.435 66.6564 120.763 65.932 122.688C65.5498 123.706 65.3672 125.509 66.8561 125.535C66.511 124.495 67.4608 121.079 68.8969 121.425C69.9066 121.667 68.7186 123.162 68.5817 123.625C68.4676 124.013 68.3008 125.714 68.4876 125.972C69.5543 126.405 70.728 126.206 71.8475 126.248C71.317 125.12 72.07 121.785 73.489 121.704C74.2406 121.661 74.0424 122.289 73.9882 122.687C73.2623 123.718 73.2138 124.877 73.2737 126.107C73.4248 126.258 76.9616 125.91 77.4779 125.817C77.7275 125.771 77.9756 125.801 78.1239 125.536C78.1696 125.525 78.2238 125.549 78.2666 125.536C78.6716 125.412 79.0409 125.034 79.2648 124.682C79.3133 124.636 79.3647 124.591 79.4075 124.539C79.4845 124.449 79.5629 124.392 79.5501 124.254C79.5929 124.204 79.6542 124.164 79.6927 124.111C79.8595 123.88 80.0335 123.678 80.1205 123.398C81.1844 122.019 84.5943 115.841 84.9066 114.288C85.3002 112.336 84.1151 111.531 84.2506 109.784C84.3133 108.969 84.7355 108.15 85.112 107.44C85.2703 107.142 86.4782 105.416 86.3955 105.305C85.8906 105.188 85.3844 105.057 84.8966 104.879C82.3424 103.943 79.7611 102.862 77.5549 101.315C75.7794 100.07 73.9896 98.3826 72.5635 96.7554H72.5606V96.7539Z" fill="#442809"/>
<path d="M106.788 6.85215C106.987 7.74776 106.939 8.87297 107.139 9.84845C107.291 10.5886 107.872 11.798 107.929 12.4083C108.056 13.7746 108.281 15.3405 108.355 16.7552C108.516 19.8071 107.782 22.5995 107.073 25.5159C106.695 27.069 106.441 28.0016 106.36 29.6474C106.357 29.6945 106.361 29.743 106.36 29.79C106.125 29.9697 106.125 30.6072 106.36 30.7869C106.357 30.9295 106.363 31.0721 106.36 31.2147C105.928 31.1349 106.086 31.4329 106.075 31.7067C106.032 32.8049 106.016 34.0128 106.36 35.061C106.356 35.1494 106.354 35.245 106.36 35.3462C106.373 35.5844 106.415 35.7912 106.464 35.9609C106.477 36.0407 106.49 36.1206 106.502 36.2019C106.574 36.4372 106.632 36.6383 106.676 36.7937C106.746 37.0405 106.783 37.1674 106.819 37.3228C106.875 37.5596 106.909 37.7621 106.93 37.9104C107.261 38.95 107.844 40.0425 108.288 41.0422C106.93 43.0045 105.166 44.5932 103.08 45.7456L97.5179 47.8833C97.4722 47.8919 97.4209 47.8748 97.3752 47.8833C95.6268 48.2014 93.0355 48.652 91.3071 48.595C91.0332 48.5864 90.7352 48.7419 90.815 48.3112C91.5481 47.5382 92.7346 46.5998 92.669 45.4618C95.2603 44.0328 98.6859 37.5696 97.7004 34.5233C96.9446 32.1845 91.9716 29.4862 89.7697 28.3411C88.9155 27.8961 88.0441 27.4726 87.1071 27.2258C85.8949 25.5958 82.3538 24.6773 80.4043 24.5176C80.5783 24.4021 81.2001 23.6762 81.26 23.6648C81.27 23.6634 81.3099 23.8944 81.4012 23.8074C81.4611 23.7504 82.1242 22.4768 82.1599 22.3556C82.6875 20.6015 82.5064 18.4309 81.1174 17.1117C76.4839 12.7093 70.2531 20.6514 74.5572 24.2352C74.841 24.472 75.1376 24.7002 75.4128 24.9483C74.2078 25.3605 73.6145 26.7424 72.8458 27.3699C71.9545 28.0986 71.4867 28.2227 70.564 29.2224C69.2748 30.6186 68.7685 31.4971 69.011 33.5521C69.1778 34.974 69.918 35.6286 70.4214 36.7738C71.1658 38.4652 71.6849 40.3248 72.7032 41.9021L72.9884 44.0385C72.8729 44.0527 72.7774 44.0442 72.6647 44.0071C72.0999 43.8203 69.9493 42.0462 69.4217 41.5485C64.9308 37.3171 63.5147 30.7313 67.4337 25.5958C69.2905 23.1628 70.4 22.3599 71.4867 19.2438C73.7585 12.7349 75.4128 6.65249 82.3053 3.40947C88.2723 0.602849 101.267 1.80222 106.348 6.22465C106.619 6.45996 106.705 6.47993 106.789 6.85357H106.788V6.85215ZM79.2292 9.88125C78.4334 9.99819 77.4451 10.5401 76.9816 11.1976C76.4439 11.9605 76.7577 12.8105 77.7346 12.521C78.1524 12.3969 78.5888 11.7224 79.3675 11.5883C80.2802 11.4315 81.7292 12.1374 82.1228 11.4913C83.0056 10.0424 80.1576 9.74577 79.2277 9.88125H79.2292ZM97.3339 12.2971C96.7235 12.4326 96.3655 13.1685 96.8633 13.5621C97.1542 13.7917 98.4833 13.873 99.1351 14.2837C99.7868 14.6944 100.55 16.1904 101.264 16.0892C102.324 15.9366 101.588 14.3365 101.203 13.786C100.456 12.7192 98.606 12.0133 97.3353 12.2971H97.3339ZM93.6673 27.3684C94.7212 28.2398 95.6981 28.7318 97.09 28.7931C102.304 29.0256 103.766 22.0076 99.7897 19.3279C94.657 15.8681 89.2534 23.7204 93.6673 27.3684Z" fill="#D88D41"/>
<path d="M120.193 49.3095C120.768 49.5847 121.461 49.1511 122.119 49.1554C123.151 49.1611 123.64 49.3722 123.606 50.4988C123.586 51.1577 123.315 51.6768 122.903 52.1589C122.511 52.6181 120.749 53.5279 122.05 54.0784C123.978 54.8942 126.06 51.2376 125.397 49.5975C127.163 50.814 128.582 52.8733 126.681 54.7216C126.173 55.2165 124.934 55.5516 124.898 56.2319C124.844 57.273 126.43 56.8195 127.029 56.4943C127.526 56.2233 127.819 55.7441 128.318 55.5046C128.07 56.6426 127.792 57.5354 126.752 58.1415C126.514 58.2812 126.217 58.3311 126.039 58.5693C125.951 58.6078 125.884 58.6791 125.754 58.7119L123.968 58.7091L123.187 58.8545C122.997 58.8545 122.806 58.856 122.616 58.8545C122.598 58.8545 122.492 58.7091 122.281 58.7133C121.975 58.7219 121.833 58.893 121.618 58.9957C119.577 59.9655 117.612 63.3682 115.986 65.1238C113.669 67.6267 111.333 69.4849 107.927 70.2507L101.367 70.536C101.311 70.5474 101.221 70.5588 101.115 70.5431C100.993 70.5246 100.938 70.4832 100.796 70.4418C100.665 70.4048 100.57 70.4048 100.511 70.3933C100.025 70.2964 99.4146 70.1709 98.9454 70.034C98.0526 69.773 96.3812 68.6863 95.5811 69.3879C95.3259 69.6118 95.4314 69.8799 95.3772 69.9655C94.7697 70.9339 94.5344 71.7624 94.299 72.9504C94.2563 73.1686 94.1165 73.5323 94.3789 73.6692C88.8555 79.9826 89.7055 90.2522 95.1618 96.3247C96.0632 97.3272 97.2183 98.0959 98.0868 99.03C98.0526 99.3324 98.0697 99.3495 98.3721 99.3153C98.3935 99.3495 98.3492 99.4279 98.3721 99.4579C99.6998 101.198 101.505 102.831 103.316 104.136C105.199 105.493 107.372 106.73 109.638 107.294C109.567 108.555 109.589 109.646 109.924 110.857C110.286 112.162 111.047 113.391 111.42 114.562C111.957 116.253 110.173 121.897 109.534 123.789C109.114 125.034 108.643 126.989 107.36 127.6C106.93 127.804 104.549 128.269 104.241 128.076C104.048 127.956 104.067 127.021 104.094 126.758C104.155 126.158 105.652 123.323 103.895 123.848C102.747 124.19 102.171 127.229 102.652 128.24H99.0866C98.971 127.614 98.8669 126.971 98.9568 126.329C99.0466 125.69 100.625 123.22 98.9382 123.741C97.6533 124.137 97.1969 126.673 97.3752 127.812C96.1915 127.521 95.9933 127.049 96.0874 125.883C96.2471 123.895 97.7545 122.517 99.58 121.965C100.22 121.771 101.783 121.688 102.15 121.256C102.486 120.86 102.829 118.119 103.185 117.447C103.743 115.576 101.377 115.03 100.096 114.194C97.9285 112.779 96.1872 111.325 94.7169 109.167C93.1239 106.83 92.177 104.156 91.0389 101.587C89.9294 101.059 90.1504 101.968 90.1005 102.738C90.1005 102.757 89.9479 102.759 89.9522 103.086C89.955 103.428 90.1305 103.838 90.2431 104.161C89.8524 104.444 88.2993 103.611 87.8187 104.02C85.5298 103.478 83.0069 102.488 80.9733 101.313C84.7497 102.451 88.874 101.842 90.3529 97.7907C91.6949 94.1156 89.6698 88.0716 89.125 84.1213C88.3877 78.7804 88.4006 73.4966 88.2451 68.1172C85.3344 69.5491 82.5791 71.3574 79.5971 72.6552C77.6447 73.5052 75.6224 74.6204 73.8569 72.8734C73.5688 72.5882 73.4205 72.1347 73.2708 71.9621C73.7699 72.1019 74.0893 72.5953 74.6584 72.6438C75.5968 72.7222 79.2605 71.1321 80.3101 70.66C82.91 69.492 85.8435 67.9333 88.2451 66.4059L88.315 67.9718C93.2052 65.004 97.5264 61.2205 101.651 57.2872C101.395 58.3383 102.842 58.6492 103.619 58.8118C112.146 60.5958 113.757 51.3103 120.19 49.308H120.193V49.3095Z" fill="#D88D41"/>
<path d="M73.2737 71.9635C73.4234 72.1346 73.5717 72.5882 73.8598 72.8748C75.6239 74.6218 77.6462 73.5066 79.6 72.6566C82.5806 71.3588 85.3373 69.5505 88.248 68.1187C88.4035 73.498 88.3921 78.7818 89.128 84.1227C89.6727 88.0716 91.6964 94.117 90.3558 97.7921C88.877 101.844 84.7526 102.453 80.9762 101.315C79.7654 100.95 76.9003 98.8104 75.9091 97.8991C70.912 93.3041 66.9431 83.5451 67.0001 76.8095C67.0286 73.3369 67.6105 69.6446 68.8541 66.4087C69.9893 68.4167 71.7662 70.2422 73.2751 71.9649L73.2737 71.9635Z" fill="#FDC380"/>
<path d="M107.929 12.4083C107.872 11.7994 107.291 10.5886 107.138 9.84844C106.937 8.87297 106.986 7.74775 106.788 6.85214C107.686 7.47679 108.325 6.6696 109.282 6.56692C112.812 6.18471 114.797 8.00303 117.265 10.1337C120.382 12.8233 128.033 21.092 128.57 25.0553C129.477 31.7566 123.724 34.0598 119.698 37.4897C117.792 39.1126 117.919 40.3847 116.748 42.0918C114.721 45.0453 111.203 42.3585 109.901 40.1451C104.995 31.798 111.792 22.5068 109.713 13.833C109.479 12.859 109.166 11.6297 107.929 12.4098V12.4083Z" fill="#A8602F"/>
<path d="M104.221 74.2425C106.608 76.0536 108.419 78.5693 110.637 80.5845C115.473 84.9826 121.752 86.9022 121.334 94.6162L121.192 95.044C121.187 95.0911 121.197 95.1395 121.192 95.1866L119.268 98.18C113.412 104.213 105.156 100.85 99.2421 96.8124L95.5213 93.9045C94.5401 89.5805 93.3921 86.2975 94.563 81.7639C95.4058 78.5009 98.0285 73.518 101.995 73.9729C102.75 74.0599 103.429 74.5462 104.221 74.2425ZM101.758 80.536C100.769 80.6786 101.159 82.8534 102.408 82.4784C103.22 82.2345 102.671 80.4048 101.758 80.536ZM109.714 87.9761C108.292 87.9119 109.107 90.2779 110.394 89.8871C111.284 89.6161 110.349 88.006 109.714 87.9761ZM100.899 89.6604C99.9637 89.8828 99.8496 91.2947 101.431 91.0451C102.658 90.8512 102.538 89.2696 100.899 89.6604ZM116.443 91.6526C115.446 91.9564 116.651 93.6064 117.344 93.4196C118.549 93.0959 117.541 91.3175 116.443 91.6526ZM111.736 96.781C110.996 97.0035 111.247 99.0728 112.391 98.7248C113.198 98.4795 113.007 96.4002 111.736 96.781Z" fill="#FEAC35"/>
<path d="M103.222 49.9512C102.732 53.5821 96.7692 58.2142 93.9397 60.3391C88.1696 64.676 81.916 68.5166 75.0193 70.7969C74.3704 70.8554 73.1296 69.2724 72.7061 68.7533C70.8136 66.4373 68.9368 63.1529 68.4633 60.1694C67.6661 55.1537 69.657 50.4446 72.0629 46.1762L73.499 49.0128C76.2885 53.4167 82.709 54.1041 87.0059 51.5613C87.3909 51.3331 88.0441 50.6486 88.3208 50.5958C89.4389 50.3833 91.3385 50.6757 92.5949 50.5915C96.173 50.3505 99.978 49.2167 103.221 47.7436C103.154 48.4409 103.312 49.2766 103.221 49.9512H103.222ZM72.2754 56.2903C72.1884 55.6885 72.1713 53.8788 71.9189 53.4409C71.7235 53.103 70.9776 53.0816 70.7052 53.3696C70.4043 53.6877 69.1536 58.6805 69.2748 59.1882C69.3219 59.3851 70.1647 59.502 70.2688 59.415C70.3958 59.3066 70.7708 56.7538 71.2072 56.4344C71.2985 58.257 72.1014 58.354 73.2723 57.146C73.2723 57.7279 72.1955 60.2621 72.6448 60.5816C72.8715 60.7427 73.5789 60.8269 73.6787 60.4703C73.8627 59.251 75.5213 55.8326 75.2774 54.8186C75.2146 54.559 74.3932 54.5348 74.1336 54.6546C73.9055 54.7601 72.4765 56.5228 72.2782 56.2903H72.2754ZM76.9417 55.3263C75.4499 55.6343 74.6528 59.0799 74.851 60.342C75.1462 62.2202 78.1439 62.2487 78.9811 60.3534C79.9038 58.2641 80.4457 54.6004 76.9417 55.3249V55.3263ZM87.4009 56.0137C87.0758 56.3888 88.4705 58.9743 88.5276 59.656C88.5946 60.4532 87.5179 62.8648 89.3333 62.0049C89.9865 61.6954 89.8054 60.0796 90.0364 59.4307C90.2446 58.8474 92.4266 56.1534 92.371 55.8112C91.2258 54.5904 90.0407 56.9136 89.6727 57.8562C89.2306 57.5411 89.252 56.5 88.9155 56.1834C88.877 56.1463 88.7058 56.152 88.5946 56.0878C88.5333 56.0522 88.5333 55.8896 88.4406 55.8725C88.3892 55.8625 87.4366 55.9752 87.4009 56.0137ZM81.2643 60.988C81.0932 60.7912 82.0872 57.387 82.12 56.7838C82.1884 55.5345 80.932 55.6229 80.614 56.4301C80.3316 57.1489 79.7754 59.9826 79.7069 60.7969C79.6784 61.142 79.6242 61.7724 79.9309 61.9991C80.2703 62.2501 82.6205 62.5211 82.9129 62.2872C83.1696 62.0833 83.2266 61.3902 82.9742 61.1934C82.9058 61.1406 81.5324 61.1706 81.2643 60.9866V60.988ZM85.2532 60.9909L86.1174 56.7838C86.1916 55.8297 84.938 55.7498 84.6086 56.5727C84.3618 57.1888 83.8926 60.1837 83.847 60.9395C83.8142 61.4701 83.6416 62.2829 84.3305 62.4141C84.7683 62.4969 86.715 62.36 86.9731 62.0719C87.1656 61.8565 87.3424 61.0679 87.013 60.988C86.7035 60.9124 85.353 61.0821 85.2546 60.9937V60.9909H85.2532Z" fill="#F48F3B"/>
<path d="M72.5606 96.7539C73.9867 98.3811 75.7765 100.068 77.552 101.313C77.9699 102.379 79.1778 103.268 80.0521 104.017C81.5495 105.298 83.3008 106.674 85.1105 107.44C84.7355 108.149 84.3119 108.969 84.2491 109.784C84.1137 111.531 85.2988 112.336 84.9052 114.288C84.5929 115.841 81.1815 122.019 80.1191 123.398C79.9679 123.594 79.6613 123.708 79.6912 124.111C79.6527 124.164 79.5914 124.204 79.5486 124.254C79.4716 124.344 79.3932 124.398 79.406 124.539C79.3632 124.589 79.3119 124.636 79.2634 124.682C78.9468 124.977 78.5318 125.184 78.2651 125.536C78.2223 125.549 78.1681 125.525 78.1225 125.536C76.7548 125.87 74.9964 125.746 73.5789 125.944C73.1339 124.866 73.8413 123.748 73.9867 122.687C74.0409 122.289 74.2392 121.661 73.4876 121.704C72.0686 121.785 71.3156 125.12 71.8461 126.248C70.7266 126.208 69.5529 126.406 68.4862 125.972C68.3008 125.714 68.4676 124.013 68.5803 123.625C68.7157 123.162 69.9037 121.667 68.8954 121.425C67.4593 121.079 66.5095 124.495 66.8546 125.535C65.3658 125.509 65.5483 123.705 65.9305 122.688C66.6536 120.763 69.2063 119.435 71.2015 119.552C71.8818 119.592 72.6875 120.083 73.3293 119.678C73.6045 119.504 74.4845 117.918 74.724 117.51C74.995 117.046 76.3684 114.64 76.4083 114.34C76.4325 114.161 76.4354 113.987 76.3826 113.812C76.2329 113.311 73.556 111.837 72.92 111.283C71.076 109.678 70.0107 107.27 69.7069 104.876L70.0335 101.569C70.1932 100.513 71.1487 97.4256 71.9203 96.7539C72.1656 96.54 72.3167 96.5942 72.5592 96.7539H72.5606Z" fill="#D88D41"/>
<path d="M49.7425 40.0496C48.3207 41.229 47.9856 42.966 49.0024 44.5633C49.2933 45.0211 50.2702 45.9823 50.6695 45.1765C51.1216 44.2652 49.1764 42.4455 50.7494 41.2675C51.6921 40.5616 52.2597 41.3075 52.9528 42.0405C55.3943 44.6246 55.9975 48.0958 58.0968 50.8639C60.1961 53.6321 63.2081 55.4104 66.5523 56.0237C67.013 58.0245 65.8108 59.0998 65.1191 60.7513C64.309 62.6851 63.8555 64.8999 63.576 66.9749C58.8584 66.3489 54.6827 63.7904 52.2853 59.6617C50.3486 56.3274 50.3786 53.4481 47.321 50.66C45.226 48.7504 40.9205 46.9407 43.5403 43.4695C43.7414 43.4737 44.5172 45.9466 45.8235 46.0151C47.3481 46.0964 45.7023 43.9857 45.5369 43.6092C44.2662 40.7299 47.3367 39.4078 49.744 40.0482L49.7425 40.0496Z" fill="#D88D41"/>
<path d="M92.669 45.4632C88.1824 47.9361 85.691 52.0163 79.9166 51.2932C77.8515 51.0351 75.2916 49.5619 74.5643 47.5225C74.1165 46.2675 74.3789 44.5405 73.9482 43.4367C73.7457 42.919 72.9941 42.3514 72.7032 41.9021C71.6849 40.3248 71.1658 38.4637 70.4214 36.7738C71.6878 37.9218 73.0754 38.8673 74.8167 39.0784C75.0192 40.2421 75.3986 41.3845 75.5369 42.561C75.6125 43.2099 75.4984 43.8731 75.5697 44.5219C75.9562 48.0145 79.0124 50.4318 82.5107 49.492C87.2911 48.2071 88.519 42.7079 91.0361 39.2025C91.4853 38.5778 92.341 37.9461 92.8829 37.3428C93.1525 37.0433 93.539 36.132 93.8199 36.4344C94.0752 36.7096 94.4346 37.5025 95.0236 36.9164C96.2215 35.727 93.1396 33.3397 91.8119 33.9928C90.8863 34.4478 92.0971 35.0696 92.1086 35.1451C92.1941 35.7227 90.1177 37.5425 89.5757 37.8847C86.501 39.8286 80.8692 39.5576 79.1907 35.9153C78.4847 34.3836 79.0067 34.7743 80.0292 34.616C81.7591 34.3479 84.0167 33.6748 85.3957 32.5696C86.8618 31.393 88.4491 29.0342 87.1057 27.2244C88.0426 27.4711 88.914 27.8947 89.7683 28.3397C91.9688 29.4848 96.9417 32.1845 97.699 34.5219C98.6844 37.5681 95.2603 44.0328 92.6676 45.4603V45.4632H92.669Z" fill="#FDC586"/>
<path d="M80.2603 2.72207L78.5047 3.7446C75.3273 5.88379 72.6875 10.272 71.3099 13.796C70.5626 15.707 70.1946 17.8747 69.4017 19.7258C68.4177 22.0233 66.4839 23.6833 65.226 25.8125C63.6944 28.4052 63.0326 31.2019 63.576 34.2053C62.4422 34.4748 61.317 34.6631 60.2445 34.0427C58.2779 32.9047 60.4613 30.7184 60.9719 29.2538C62.475 24.944 59.5671 20.727 61.0047 16.4628C62.2882 12.6522 68.1068 8.70183 71.3741 6.44854C73.9154 4.69583 77.0158 2.17158 80.2603 2.71921V2.72207Z" fill="#A8602F"/>
<path d="M129.891 74.9541C130.352 75.034 130.129 74.7217 130.171 74.4564C130.249 73.953 130.362 71.5086 130.461 71.3916C130.667 71.1535 130.715 71.4786 130.779 71.577C130.948 71.8295 131.346 72.6951 131.458 72.9604C132.015 74.271 132.365 75.8126 132.457 77.2345C132.218 78.1529 132.218 79.4507 132.457 80.3691C132.305 82.9262 131.47 85.6701 130.603 88.0617C130.725 88.1587 132.445 87.3415 132.742 87.2089C132.186 87.9847 131.946 88.7804 131.311 89.5548C129.45 91.8281 125.705 93.7049 122.902 94.475C122.944 93.2015 122.882 91.8338 122.581 90.5931C122.377 89.7545 121.915 89.0072 121.751 88.1601C126.436 85.3192 129.075 80.2665 129.89 74.9555H129.891V74.9541Z" fill="#DD8E32"/>
<path d="M117.209 82.0748C116.515 79.6489 113.68 79.2511 112.134 77.5212C110.588 75.7913 110.329 73.6136 110.52 71.2747C111.778 70.8497 112.9 70.1466 113.991 69.4036C115.025 70.8397 114.593 73.1173 115.567 74.5192C116.577 75.9724 118.643 76.182 119.542 77.5297C120.663 79.2125 119.365 82.1019 117.209 82.0762V82.0748Z" fill="#C11111"/>
<path d="M121.192 95.1866C120.819 98.6364 119.639 102.189 116.095 103.558C110.068 105.885 99.1223 98.9074 95.5214 94.1883L95.6269 94.1198C95.6326 94.0314 95.5342 93.9616 95.5214 93.9045L99.2421 96.8124C105.156 100.851 113.412 104.214 119.268 98.18L121.192 95.1866Z" fill="#DD8E32"/>
<path d="M104.221 74.2425C103.429 74.5448 102.75 74.0585 101.995 73.9729C98.0285 73.518 95.4058 78.5009 94.563 81.7639C93.3921 86.2976 94.5387 89.5805 95.5213 93.9045C95.5342 93.9616 95.6326 94.0314 95.6269 94.1199L95.5213 94.1883C91.2201 88.5508 90.8821 78.9073 96.5866 74.0956C99.4689 71.664 101.37 72.079 104.221 74.2425Z" fill="#FDC586"/>
<path d="M65.1447 76.3788C65.1846 76.4216 65.2659 76.5186 65.2873 76.6641C65.2959 76.7197 65.293 76.7682 65.2873 76.8067L65.0021 76.3146L65.0049 75.332C66.3084 87.2944 66.9616 92.0691 67.1983 92.3486C67.2183 92.3714 67.4793 92.6567 67.4008 92.8192C67.3837 92.8549 67.3466 92.8849 67.2824 92.9048C62.5662 88.5608 61.7134 80.8184 63.0982 74.8329C63.2365 74.2339 64.0765 71.2391 64.4359 71.0408C64.627 70.9353 64.9293 70.9524 65.1418 70.8212C65.2174 72.6609 65.0449 74.542 65.1418 76.3774H65.1447V76.3788Z" fill="#FEAC35"/>
<path d="M67.2839 92.9062C67.3481 92.8863 67.3852 92.8563 67.4023 92.8207C67.4793 92.6638 67.234 92.39 67.1998 92.35C66.7905 91.8637 63.3578 84.5591 64.416 77.5482C64.61 76.2619 64.9993 74.7031 65.1148 74.7202C65.1661 74.7274 65.1319 75.0482 65.2118 75.9638C65.2118 75.9638 65.226 76.1535 65.2859 76.8067C65.9961 84.4607 69.416 91.5343 69.416 91.5343C69.8182 92.3672 70.4314 93.5665 71.2757 94.9727C71.0318 94.9912 70.681 94.9969 70.2717 94.9185C69.59 94.7887 69.1265 94.5021 68.7871 94.2896C68.1211 93.8717 67.6319 93.3655 67.2825 92.9062H67.2839Z" fill="#E28E2E"/>
<path d="M132.743 87.2074C132.897 87.139 133.372 86.6298 133.311 87.1304C133.247 87.6581 132.909 88.5737 132.711 89.097C131.021 93.5323 127.062 96.5628 122.477 97.6068C122.766 96.5514 122.867 95.5603 122.904 94.4736C125.708 93.7034 129.453 91.8267 131.314 89.5534C131.949 88.7776 132.189 87.9832 132.745 87.2074H132.743Z" fill="#B56019"/>
<path d="M88.248 66.4059C93.2551 63.2214 98.4833 59.2667 102.514 54.9341C102.65 54.7858 102.642 54.358 102.939 54.6532C102.864 55.0425 103.252 56.8337 103.081 57.0049C103.021 57.0648 101.883 56.8594 101.655 57.2887C97.5307 61.2219 93.2109 65.0054 88.3193 67.9732L88.2494 66.4073H88.248V66.4059Z" fill="#B56019"/>
<path d="M98.3736 99.4607C99.3391 99.7502 100.141 100.634 100.981 101.202C103.673 103.019 106.88 104.629 110.069 105.302C110.017 105.751 109.962 106.198 109.918 106.65C109.905 106.785 109.784 106.857 109.784 106.869C109.62 106.985 109.651 107.128 109.641 107.297C107.375 106.733 105.202 105.496 103.319 104.138C101.508 102.834 99.7028 101.201 98.375 99.4607H98.3736Z" fill="#B56019"/>
<path d="M77.552 101.312C79.7582 102.859 82.3395 103.942 84.8937 104.876C85.3815 105.054 85.8878 105.187 86.3926 105.302C86.4753 105.413 85.2674 107.139 85.1091 107.437C83.2979 106.67 81.5466 105.295 80.0506 104.014C79.1764 103.267 77.9685 102.376 77.5506 101.31H77.552V101.312Z" fill="#B56019"/>
<path d="M109.068 71.8209C108.941 72.6409 108.781 74.455 109.66 76.4302C110.145 77.5226 110.788 78.3041 111.279 78.8047C111.46 79.0514 111.639 79.2981 111.821 79.5448C111.518 79.2425 111.052 78.7833 110.469 78.2371C108.455 76.3546 107.447 75.4133 106.825 74.967C106.825 74.967 105.297 73.8731 104.791 72.601C104.784 72.5839 104.771 72.5483 104.784 72.5112C104.86 72.2787 105.782 72.3971 105.985 72.3714C107.022 72.2359 108.04 71.9906 109.068 71.8209Z" fill="#B56019"/>
<path d="M95.3787 69.9683L95.7581 70.516L97.3753 71.5342C96.3199 71.8979 95.1149 72.8348 94.3818 73.6734C94.118 73.5365 94.2578 73.1728 94.302 72.9546C94.5373 71.7652 94.7726 70.9381 95.3801 69.9698H95.3787V69.9683Z" fill="#B56019"/>
<path d="M97.3753 47.8848L90.4586 49.0271C89.7911 49.0642 90.7381 48.3939 90.8151 48.3126C90.7352 48.7433 91.0333 48.5878 91.3071 48.5964C93.0356 48.6534 95.6268 48.2028 97.3753 47.8848Z" fill="#D88D41"/>
<path d="M73.9868 122.684C73.8413 123.743 73.1339 124.863 73.5789 125.941C74.9965 125.743 76.7563 125.867 78.1225 125.533C77.9757 125.798 77.7261 125.77 77.4765 125.814C76.9602 125.907 73.4234 126.255 73.2723 126.104C73.211 124.874 73.2609 123.713 73.9868 122.684Z" fill="#FEAC35"/>
<path d="M112.432 79.716C112.951 80.0597 113.733 80.5189 114.144 80.797C114.706 81.1778 115.206 81.6284 115.484 82.293C115.054 82.1062 114.622 81.8366 114.211 81.5357C114.091 81.4487 113.518 81.0437 113.054 80.5873C113 80.5346 112.893 80.4276 112.735 80.2921C112.467 80.0625 112.388 80.0426 112.169 79.8643C111.845 79.6005 111.527 79.2468 111.574 79.184C111.581 79.174 111.601 79.1669 111.659 79.184C111.732 79.2354 111.835 79.3095 111.959 79.3951C111.959 79.3951 112.194 79.5577 112.434 79.7174H112.432V79.716Z" fill="#B56019"/>
<path d="M107.929 70.2536C105.779 70.7371 103.548 70.8241 101.368 70.5388L107.929 70.2536Z" fill="#D88D41"/>
<path d="M69.7083 104.874C69.3261 101.858 70.2902 99.0101 71.9388 96.5528C72.0286 96.4188 71.9744 96.202 71.9916 96.1835C72.2098 95.9453 72.4451 96.6213 72.5606 96.7525C72.3181 96.5928 72.167 96.54 71.9217 96.7525C71.1516 97.4228 70.1961 100.512 70.0349 101.567L69.7083 104.874Z" fill="#FEAC35"/>
<path d="M122.903 52.1589C123.315 51.6768 123.586 51.1563 123.606 50.4989C123.64 49.3736 123.15 49.1611 122.119 49.1554C121.463 49.1526 120.768 49.5861 120.193 49.3095C120.889 49.0927 122.96 48.7461 123.471 49.241C124.07 49.8186 123.804 51.8052 122.903 52.1603V52.1589Z" fill="#D88D41"/>
<path d="M106.36 31.2147C106.336 32.4911 106.347 33.7846 106.36 35.061C106.016 34.0128 106.032 32.8034 106.075 31.7067C106.086 31.4329 105.928 31.1349 106.36 31.2147Z" fill="#D88D41"/>
<path d="M131.46 72.9604C131.347 72.6951 130.949 71.8309 130.781 71.577C130.715 71.4801 130.668 71.1535 130.463 71.3916C130.362 71.5086 130.25 73.9544 130.172 74.4564C130.131 74.7217 130.353 75.034 129.893 74.9541C130.081 73.7305 130.149 72.4812 130.245 71.2448C130.633 70.6386 131.495 72.581 131.461 72.959H131.46V72.9604Z" fill="#FEAC35"/>
<path d="M90.1019 102.737L90.5298 104.445C90.4057 104.535 88.1795 104.104 87.8201 104.019C88.3007 103.609 89.8538 104.442 90.2445 104.16C90.1305 103.836 89.9565 103.427 89.9536 103.085C89.9508 102.742 90.1005 102.755 90.1019 102.737Z" fill="#FEAC35"/>
<path d="M106.36 29.6474C106.441 28.0016 106.695 27.069 107.073 25.5159L106.36 29.6474Z" fill="#D88D41"/>
<path d="M109.925 110.858C109.59 109.649 109.569 108.558 109.64 107.296C109.65 107.128 109.619 106.984 109.783 106.868C109.674 108.15 109.807 109.581 109.925 110.857V110.858Z" fill="#FEAC35"/>
<path d="M132.458 80.3691C132.22 79.4507 132.22 78.1529 132.458 77.2345C132.519 78.1729 132.514 79.4279 132.458 80.3691Z" fill="#FEAC35"/>
<path d="M125.755 58.7133C124.888 58.9287 124.084 58.8574 123.188 58.8559L123.97 58.7105L125.755 58.7133Z" fill="#FEAC35"/>
<path d="M103.08 45.747C101.406 46.6711 99.3918 47.541 97.5179 47.8847L103.08 45.747Z" fill="#D88D41"/>
<path d="M122.618 58.8545L121.619 58.9971C121.836 58.8945 121.976 58.7219 122.283 58.7148C122.492 58.7091 122.599 58.8545 122.618 58.856V58.8545Z" fill="#FEAC35"/>
<path d="M106.36 30.7883C106.125 30.6086 106.125 29.9711 106.36 29.7915C106.346 30.1223 106.368 30.4575 106.36 30.7883Z" fill="#D88D41"/>
<path d="M106.347 35.7441C106.351 35.6115 106.356 35.4788 106.36 35.3476Z" fill="#FEAC35"/>
<path d="M106.645 36.7723L106.502 36.2019C106.525 36.3231 106.604 36.5741 106.645 36.7723Z" fill="#FEAC35"/>
<path d="M121.192 95.044L121.334 94.6162C121.317 94.9228 121.193 95.0212 121.192 95.044Z" fill="#DD8E32"/>
<path d="M98.3735 99.3181C98.0697 99.3524 98.054 99.3352 98.0882 99.0329C98.1781 99.1284 98.2565 99.1313 98.3735 99.3181Z" fill="#B56019"/>
<path d="M126.041 58.5707C126.219 58.3326 126.515 58.2826 126.754 58.1429C126.631 58.4951 126.294 58.4623 126.041 58.5707Z" fill="#FEAC35"/>
<path d="M79.6913 124.109C79.6613 123.705 79.9679 123.592 80.1191 123.395C80.0321 123.675 79.8581 123.878 79.6913 124.109Z" fill="#FEAC35"/>
<path d="M79.406 124.536C79.3932 124.395 79.4716 124.342 79.5486 124.251C79.5614 124.388 79.483 124.445 79.406 124.536Z" fill="#FEAC35"/>
<path d="M78.2651 125.533C78.5318 125.181 78.9468 124.974 79.2634 124.679C79.0395 125.031 78.6702 125.409 78.2651 125.533Z" fill="#FEAC35"/>
<path d="M111.273 78.7943L111.206 78.8609L111.703 79.3578L111.77 79.2912L111.273 78.7943Z" fill="#B56019"/>
<path d="M68.8526 66.4059C67.6091 69.6418 67.0272 73.334 66.9987 76.8067L66.7077 73.18L66.8561 68.6863C66.1131 68.6221 65.5412 69.1598 64.8638 69.3295C65.3472 66.5656 65.6724 63.7305 66.7862 61.1335C67.3866 62.8534 67.9556 64.8172 68.8541 66.4059H68.8526Z" fill="#DD8E32"/>
<path d="M81.1174 17.1103C82.5107 19.1454 82.6562 21.5769 81.26 23.6648C81.2001 23.6762 80.5783 24.4021 80.4043 24.5176C82.3539 24.6773 85.8949 25.5958 87.1071 27.2258C88.452 29.0342 86.8633 31.3944 85.3972 32.571C84.0182 33.6776 81.7606 34.3494 80.0307 34.6175C79.0082 34.7758 78.4862 34.385 79.1921 35.9167C80.8707 39.559 86.5025 39.83 89.5772 37.8862C90.1191 37.5439 92.1956 35.7241 92.11 35.1466C92.0986 35.071 90.8878 34.4492 91.8134 33.9942C93.1425 33.3397 96.2244 35.7284 95.025 36.9178C94.436 37.504 94.0766 36.711 93.8214 36.4358C93.5404 36.1334 93.1539 37.0447 92.8844 37.3442C92.3425 37.9475 91.4868 38.5793 91.0376 39.2039C88.519 42.7079 87.2911 48.2085 82.5122 49.4934C79.0139 50.4332 75.9562 48.016 75.5712 44.5234C75.4999 43.8745 75.614 43.2113 75.5384 42.5624C75.4 41.3845 75.0207 40.2421 74.8182 39.0798C73.0769 38.8688 71.6893 37.9218 70.4229 36.7752C69.918 35.63 69.1793 34.9754 69.0124 33.5536C68.7714 31.4985 69.2762 30.62 70.5655 29.2238C69.9094 31.316 69.9636 33.7903 71.491 35.4945C72.6277 36.7638 74.7825 37.7378 76.4682 37.3285C76.9046 37.223 77.9314 36.7738 77.9813 36.2746C77.9899 36.1848 77.679 34.5676 77.6305 34.4905C77.582 34.4135 76.3327 33.9714 76.0332 33.8074C73.8242 32.6009 72.1756 29.9326 72.8487 27.3727C73.6174 26.7452 74.2107 25.3633 75.4157 24.9512C75.7609 24.8328 76.4554 24.8342 76.8419 24.8071C75.4828 23.4138 75.3345 21.4985 76.3855 19.8656C77.1813 18.6291 79.0253 17.6893 80.1947 18.9643C79.3319 16.4999 76.6422 16.8564 75.2146 18.6947C73.9269 20.3533 73.7301 22.3214 74.5601 24.2395C70.256 20.6542 76.4868 12.7135 81.1203 17.116L81.1174 17.1103ZM78.586 20.9209C79.2035 21.5441 80.1533 20.3305 79.4902 19.8043C78.7215 19.1939 78.0569 20.389 78.586 20.9209ZM81.9717 40.4774C75.6967 40.0068 75.6739 49.7102 82.2868 47.986C85.3715 47.1817 86.7364 43.1372 88.2438 40.6871C88.278 40.4503 88.2566 40.4589 88.0327 40.4746C87.5364 40.5088 86.9617 40.7284 86.4611 40.7598C85.6824 40.8083 84.7783 40.67 84.0353 40.7598C82.9229 40.8924 81.6807 42.5453 81.2301 43.5137C81.0903 43.816 81.106 44.676 80.6168 44.4663C79.908 44.1625 80.8308 41.9264 81.1374 41.4272C81.3556 41.0736 81.7135 40.7955 81.9688 40.4789H81.9717V40.4774Z" fill="#442809"/>
<path d="M97.09 28.7931C94.8966 27.6594 93.9725 25.2963 95.2645 23.0515C95.9919 21.7866 97.3039 20.7341 98.8441 20.9865C99.0623 21.0222 100.038 21.6083 99.3804 20.7341C98.4077 19.4406 95.9961 19.6517 94.8053 20.5972C92.93 22.0861 92.3495 25.3647 93.6673 27.3684C89.2548 23.7204 94.6584 15.8696 99.7897 19.3279C103.766 22.0076 102.304 29.0256 97.09 28.7931ZM99.7982 21.527C99.9009 21.3274 99.7084 21.1462 99.6584 21.2432C99.5558 21.4429 99.7483 21.624 99.7982 21.527ZM98.3321 22.4069C97.7674 22.5738 97.7674 23.9015 98.3321 24.0684C99.6699 24.4634 99.6699 22.0133 98.3321 22.4069Z" fill="#442809"/>
<path d="M70.564 29.221C71.4867 28.2213 71.9545 28.0972 72.8458 27.3685C72.1727 29.9298 73.8227 32.5966 76.0304 33.8031C76.3299 33.9672 77.5806 34.4135 77.6277 34.4863C77.6747 34.559 77.9885 36.1791 77.9785 36.2704C77.9286 36.7695 76.9018 37.2187 76.4654 37.3243C74.7797 37.7336 72.6248 36.7595 71.4882 35.4903C69.9608 33.786 69.9066 31.3117 70.5626 29.2196H70.564V29.221Z" fill="#FDC586"/>
<path d="M93.6674 27.3685C92.3496 25.3647 92.93 22.0875 94.8054 20.5972C95.9962 19.6517 98.4092 19.4406 99.3804 20.7341C100.036 21.6083 99.0624 21.0222 98.8442 20.9865C97.304 20.7327 95.9919 21.7866 95.2646 23.0516C93.9725 25.2963 94.8967 27.658 97.0901 28.7932C95.6982 28.7318 94.7213 28.2398 93.6674 27.3685Z" fill="#FEFEFE"/>
<path d="M97.3339 12.2971C98.6046 12.0147 100.454 12.7192 101.202 13.786C101.587 14.3365 102.324 15.9366 101.263 16.0892C100.548 16.1919 99.8168 14.7158 99.1337 14.2837C98.4506 13.8516 97.1528 13.7917 96.8619 13.5621C96.3642 13.1685 96.7221 12.4326 97.3325 12.2971H97.3339Z" fill="#442809"/>
<path d="M79.2292 9.88124C80.159 9.74576 83.007 10.0424 82.1242 11.4913C81.7306 12.1374 80.2816 11.4314 79.3689 11.5883C78.5903 11.7224 78.1539 12.3969 77.736 12.521C76.7591 12.8091 76.4454 11.9605 76.983 11.1976C77.4451 10.5401 78.4348 9.99818 79.2306 9.88124H79.2292Z" fill="#442809"/>
<path d="M81.1174 17.1103C82.5064 18.4295 82.6875 20.6 82.1599 22.3542C82.1228 22.4754 81.4596 23.7489 81.4012 23.806C81.3099 23.893 81.27 23.6619 81.26 23.6634C82.6562 21.5755 82.5107 19.144 81.1174 17.1089V17.1103Z" fill="#FEAC35"/>
<path d="M109.714 87.9761C110.349 88.0046 111.284 89.6162 110.394 89.8871C109.105 90.2779 108.292 87.9119 109.714 87.9761Z" fill="#442809"/>
<path d="M111.736 96.781C113.008 96.4003 113.2 98.4781 112.391 98.7248C111.246 99.0728 110.996 97.0035 111.736 96.781Z" fill="#442809"/>
<path d="M101.758 80.536C102.672 80.4034 103.22 82.2331 102.408 82.4784C101.159 82.8549 100.768 80.68 101.758 80.536Z" fill="#442809"/>
<path d="M116.443 91.6527C117.541 91.3175 118.549 93.0959 117.344 93.4196C116.651 93.6065 115.446 91.9564 116.443 91.6527Z" fill="#442809"/>
<path d="M100.899 89.6604C102.538 89.2696 102.659 90.8526 101.431 91.0452C99.8496 91.2947 99.9636 89.8829 100.899 89.6604Z" fill="#442809"/>
<path d="M72.2753 56.2903C72.4736 56.5228 73.904 54.7601 74.1307 54.6546C74.3917 54.5348 75.2132 54.559 75.2745 54.8186C75.5184 55.8326 73.8598 59.251 73.6758 60.4703C73.576 60.8269 72.8686 60.7427 72.6419 60.5816C72.1941 60.2621 73.2693 57.7279 73.2693 57.146C72.0985 58.354 71.2942 58.257 71.2043 56.4344C70.7693 56.7538 70.3943 59.3066 70.2659 59.415C70.1632 59.5034 69.319 59.385 69.2719 59.1882C69.1507 58.6805 70.4014 53.6877 70.7023 53.3696C70.9747 53.0816 71.722 53.1029 71.9159 53.4409C72.1684 53.8788 72.1855 55.6871 72.2725 56.2903H72.2753Z" fill="#442809"/>
<path d="M76.9418 55.3263C80.4458 54.6004 79.9039 58.2655 78.9811 60.3548C78.144 62.2502 75.1477 62.2216 74.8511 60.3434C74.6528 59.0813 75.45 55.6358 76.9418 55.3277V55.3263ZM76.4312 60.4019C77.2641 60.5787 77.4794 60.2493 77.7632 59.5648C78.047 58.8802 78.8899 55.8525 77.2669 56.6455C76.7664 56.8908 75.9435 60.0981 76.4327 60.4019H76.4312Z" fill="#442809"/>
<path d="M87.401 56.0137C87.622 55.7641 88.1183 55.7627 88.4406 55.8725C88.6945 55.9595 88.8528 56.1206 88.9155 56.1848C89.0995 56.3745 89.1623 56.557 89.2863 56.8836C89.369 57.1032 89.4988 57.4369 89.6728 57.8577C90.1548 56.3574 91.0077 55.4061 91.7535 55.4689C91.7806 55.4717 92.217 55.5131 92.371 55.8126C92.6891 56.4315 91.5952 57.7607 90.8822 58.4338C90.5099 58.7846 90.2233 58.9743 90.0365 59.4321C89.911 59.7401 89.958 59.8585 89.8668 60.6329C89.7085 61.9735 89.5059 62.1346 89.4232 62.1888C89.1423 62.3713 88.6902 62.3357 88.4535 62.1161C88.1383 61.8237 88.2396 61.2347 88.3608 60.5316C88.4535 59.9954 88.539 59.9569 88.5276 59.6574C88.5077 59.1454 88.2396 58.8788 87.9515 58.3939C87.6063 57.8134 86.9774 56.4914 87.401 56.0151V56.0137Z" fill="#442809"/>
<path d="M81.2643 60.988C81.5338 61.172 82.9072 61.142 82.9742 61.1948C83.228 61.3916 83.1696 62.0847 82.9129 62.2886C82.6205 62.5211 80.2688 62.2501 79.9308 62.0006C79.6242 61.7738 79.677 61.1435 79.7069 60.7983C79.7754 59.984 80.3316 57.1503 80.6139 56.4315C80.9305 55.6243 82.187 55.5359 82.1199 56.7852C82.0871 57.3885 81.0931 60.7926 81.2643 60.9894V60.988Z" fill="#442809"/>
<path d="M85.2531 60.9909C85.3515 61.0793 86.7021 60.9096 87.0115 60.9852C87.341 61.065 87.1656 61.8551 86.9716 62.069C86.7135 62.3571 84.7668 62.494 84.329 62.4113C83.6387 62.2815 83.8127 61.4686 83.8455 60.9367C83.8926 60.1808 84.3604 57.186 84.6071 56.5699C84.9365 55.747 86.1901 55.8269 86.1159 56.7809L85.2517 60.988V60.9909H85.2531Z" fill="#442809"/>
<path d="M81.9717 40.4774C81.7164 40.794 81.357 41.0707 81.1403 41.4258C80.8336 41.925 79.9095 44.1597 80.6197 44.4649C81.1103 44.6745 81.0932 43.8146 81.233 43.5122C81.6822 42.5439 82.9243 40.891 84.0381 40.7584C84.7812 40.67 85.6853 40.8069 86.464 40.7584C86.9631 40.727 87.5393 40.5088 88.0356 40.4732C88.2581 40.4575 88.2795 40.4489 88.2466 40.6857C86.7392 43.1372 85.3744 47.1802 82.2897 47.9846C75.6767 49.7102 75.6996 40.0054 81.9745 40.476H81.9717V40.4774Z" fill="#E28966"/>
<path d="M78.586 20.9209C78.0583 20.389 78.7229 19.1939 79.4901 19.8042C80.1533 20.3319 79.2035 21.5441 78.586 20.9209Z" fill="#FEFEFE"/>
<path d="M74.5571 24.2338C73.7257 22.3157 73.9239 20.349 75.2117 18.689C76.6393 16.8507 79.329 16.4942 80.1918 18.9586C79.0224 17.6822 77.1798 18.6234 76.3826 19.8599C75.3315 21.4928 75.4799 23.4081 76.839 24.8014C76.4525 24.8285 75.7579 24.8271 75.4128 24.9454C75.1376 24.6973 74.8409 24.4705 74.5571 24.2324V24.2338Z" fill="#FEFEFE"/>
<path d="M98.3321 22.4069C99.6698 22.0119 99.6698 24.4634 98.3321 24.0684C97.7674 23.9015 97.7674 22.5738 98.3321 22.4069Z" fill="#FEFEFE"/>
<path d="M99.7983 21.527C99.7484 21.624 99.5559 21.4443 99.6585 21.2432C99.7085 21.1463 99.901 21.3259 99.7983 21.527Z" fill="#FEFEFE"/>
<path d="M76.4312 60.4019C75.9435 60.0995 76.7663 56.8907 77.2655 56.6455C78.8884 55.8511 78.047 58.8773 77.7618 59.5647C77.4765 60.2521 77.2626 60.5787 76.4298 60.4019H76.4312Z" fill="#F48F3B"/>
<path d="M80.1191 123.395C79.9465 124.061 79.5672 125.047 78.673 125.575C78.0997 125.913 77.5963 125.895 76.3698 125.981C75.5997 126.035 74.4973 126.132 73.1482 126.325C72.9828 125.573 73.0312 124.996 73.1083 124.603C73.1881 124.194 73.3821 123.554 73.6602 122.892C73.914 122.286 74.0951 122.004 73.9768 121.867C73.8185 121.683 73.2466 121.902 73.007 122.032C71.7021 122.741 71.7919 125.378 71.8476 126.243C71.2899 126.389 70.3644 126.539 69.3076 126.265C68.9982 126.185 68.7229 126.079 68.4862 125.968C68.2095 124.84 68.3778 124.094 68.5803 123.621C68.8997 122.879 69.4959 122.374 69.2934 121.827C69.2876 121.812 69.1679 121.496 68.894 121.42C68.4947 121.31 68.0655 121.764 67.8558 121.986C66.916 122.982 66.8461 124.749 66.8547 125.529C66.5081 125.65 66.086 125.727 65.7908 125.525C65.0635 125.024 65.3473 122.988 66.2942 121.664C67.2754 120.295 68.8128 119.906 69.5914 119.71C70.5255 119.475 71.3313 119.461 73.3279 119.672C79.0139 120.276 79.6399 120.828 79.9023 121.269C80.1077 121.614 80.3558 122.262 80.1177 123.391V123.395H80.1191Z" fill="#FDC380"/>
<path d="M103.386 50.2322C103.281 50.6914 103.001 51.5827 102.166 52.5354C102.375 52.2116 102.872 51.3388 102.695 50.2707C102.685 50.2108 102.591 49.6674 102.392 49.4064C101.548 48.2969 97.2569 50.2835 94.379 51.3802C90.5156 52.852 85.8664 54.6232 80.8222 53.8503C80.8222 53.8503 75.3344 53.0088 72.5007 49.0185C72.2625 48.6834 71.6165 47.7735 71.8133 46.7324C71.8233 46.6825 71.9759 45.9124 72.2797 45.8882C72.699 45.8554 72.7688 47.2815 73.8498 48.9273C74.1679 49.4107 74.9822 50.6186 76.4497 51.3674C76.9046 51.5984 77.311 51.7296 77.92 51.9264C78.3379 52.0605 79.2606 52.3557 80.3544 52.5111C81.0703 52.6124 83.3493 52.9119 85.6268 52.0462C86.521 51.7068 86.9688 51.5356 87.3795 51.1691C87.7403 50.8468 87.9856 50.4889 88.539 50.3078C88.8256 50.2136 89.0395 50.2193 89.4046 50.2179C90.0421 50.2151 90.6796 50.1523 91.3171 50.1637C91.5866 50.1694 93.6502 50.2093 95.4528 49.9769C96.715 49.8143 97.5906 49.5505 99.1323 49.0856C100.972 48.5308 102.29 47.9618 102.544 47.8391C102.706 47.7607 102.874 47.6922 103.038 47.6152C103.362 47.464 103.398 47.4355 103.451 47.4555C103.603 47.5125 103.623 47.8819 103.54 48.8502C103.475 49.6132 103.443 49.9954 103.388 50.2336L103.386 50.2322Z" fill="#D87C3D"/>
<path d="M109.104 125.599C108.864 126.168 108.325 127.511 106.882 128.076C105.688 128.544 104.589 128.201 104.239 128.076C104.021 127.41 104.041 126.901 104.105 126.551C104.198 126.042 104.399 125.771 104.553 124.907C104.66 124.308 104.626 124.081 104.487 123.962C104.279 123.779 103.906 123.902 103.863 123.916C103.205 124.146 102.973 125.043 102.806 125.68C102.662 126.238 102.512 127.116 102.649 128.239C101.876 128.397 100.909 128.492 99.8182 128.36C99.5601 128.328 99.3162 128.287 99.0838 128.239C98.6916 126.805 98.9012 125.945 99.1864 125.413C99.3904 125.034 99.8681 124.389 99.6371 123.992C99.5644 123.866 99.4446 123.805 99.4089 123.789C99.041 123.618 98.5661 123.946 98.3664 124.083C97.3425 124.79 97.3667 127.561 97.371 127.809C96.9831 127.768 96.5923 127.641 96.3171 127.344C95.5384 126.507 96.0932 124.752 96.8048 123.761C97.8102 122.361 99.5173 121.954 100.102 121.807C101.042 121.57 101.448 121.664 103.838 121.768C107.95 121.948 108.779 121.761 109.292 122.451C109.507 122.741 109.954 123.571 109.101 125.596L109.104 125.599Z" fill="#FDC380"/>
<path d="M24.2707 59.9477C24.1161 59.9156 24.1376 60.1109 24.1113 60.1303C23.4129 60.6349 21.9345 61.0991 21.0786 61.2813C15.5667 62.4564 9.7746 57.7908 11.8304 51.9665C11.8916 51.7934 12.179 51.2929 12.1695 51.1698C12.1559 50.989 12.0069 50.767 11.9572 50.5781C10.3862 44.6015 14.6718 42.2423 18.5434 38.9822C23.308 34.9703 26.0862 31.1236 28.4953 25.414C29.9787 21.8979 31.1121 17.1961 35.357 16.0438C35.7552 15.936 36.4583 15.821 36.8999 15.804C37.4054 15.7843 37.9025 15.8684 38.3922 15.979C40.0015 12.8498 44.3247 10.865 47.6401 12.3883C50.5641 13.7315 52.1495 17.117 51.8144 20.2506C53.4199 20.9148 54.6863 22.2253 55.4048 23.8057C58.5187 30.6533 55.2854 39.9449 51.6707 45.9833C47.7219 52.5801 40.3207 61.0804 32.5529 62.8913C29.7786 63.5379 26.6103 62.9602 24.7478 60.6529C24.6566 60.5398 24.3135 59.9569 24.2716 59.9486L24.2712 59.9475L24.2707 59.9477ZM35.813 24.6451L37.2018 24.1145C37.674 23.9342 38.5351 23.1528 38.7484 22.6837C39.0221 22.0817 38.7025 21.9948 38.4702 21.48C37.2599 18.7919 40.0604 16.6555 42.1417 18.4198C44.1917 20.1575 43.7825 23.883 42.2333 25.8235C40.6061 27.8618 39.1545 27.7641 37.0327 28.7363C36.245 29.0971 35.6453 29.3718 35.9206 30.3163C36.3823 31.9024 37.0322 32.7738 36.9276 34.56C36.7199 38.1055 33.7118 39.9174 30.5966 40.8054C29.8098 41.0298 28.8867 41.1228 28.1314 41.3708C26.7489 41.8246 27.189 42.627 27.2867 43.7062C27.5893 47.0387 25.1078 49.7472 21.881 50.2971C20.1167 50.5979 18.161 49.5413 18.7186 47.5066C19.2633 45.5179 21.2293 46.3122 22.2352 45.1503C22.7726 44.5294 22.7355 43.6973 22.762 42.9251C20.3991 44.9705 17.6087 46.5469 15.4077 48.7807C13.1109 51.1116 11.6393 54.4298 13.7197 57.4383C15.9416 60.6506 20.5356 60.806 23.6815 58.9152C22.2832 55.8234 23.3566 52.5001 25.3787 49.9876C26.9154 48.0781 28.9785 46.7789 30.8223 45.1964C35.7597 40.9587 39.4123 36.0685 41.7553 29.9897C43.1415 26.394 44.4214 19.5792 49.3906 19.7791C49.66 19.7898 50.2291 19.9319 50.4176 19.9155C50.6448 19.896 50.6006 19.3475 50.5898 19.1738C50.3991 16.0132 47.968 12.7891 44.5596 13.1119C39.5674 13.5842 37.9233 19.4584 36.3368 23.3222C36.1919 23.6747 35.9331 24.1049 35.8305 24.4505C35.8096 24.5216 35.7516 24.5593 35.812 24.6455L35.813 24.6451ZM37.3063 17.7713C37.3482 17.6816 37.8014 16.968 37.7312 16.9231C34.515 16.6676 32.4461 19.1723 31.1947 21.7891C30.0523 24.177 29.2419 26.8376 28.0874 29.2508C25.9514 33.7133 22.5176 37.3386 18.6941 40.4043C16.2786 42.3412 13.3733 44.1657 12.9281 47.4899C12.8561 48.0267 12.8318 48.9272 12.9606 49.4472C13.007 49.6341 13.2605 49.2309 13.3423 49.1428C16.0121 46.2588 19.1102 44.4456 22.0688 41.9586C22.2432 41.8121 22.7183 41.414 22.8307 41.2606C22.9401 41.1109 22.9361 40.8029 23.0051 40.6161C23.5798 39.0572 24.9563 37.8705 26.5404 37.4101C27.7835 35.9411 28.9767 34.4393 30.0357 32.8315C30.4307 32.2319 31.351 30.9161 31.585 30.3181C31.6593 30.1287 31.5808 29.8235 31.5999 29.6022C31.7055 28.3904 32.1737 27.0919 33.0735 26.242C33.3658 25.9662 33.974 25.6421 34.161 25.3735C34.4045 25.0227 34.8234 23.9103 35.0162 23.4529C35.8004 21.588 36.4474 19.604 37.3075 17.7714L37.3065 17.7718L37.3063 17.7713ZM39.2822 19.5128C39.0195 19.9852 39.1201 20.2225 39.2418 20.7141C39.4496 21.5539 39.9283 22.1387 39.5749 23.0532C39.2115 23.994 38.2898 24.6557 37.3985 25.0379C36.9895 25.2136 36.5581 25.3472 36.1459 25.5164C33.5862 26.5679 31.9316 28.113 32.6591 31.0923C32.7048 31.2808 32.7572 31.4717 32.8126 31.6577C32.8294 31.7131 32.8577 31.766 32.8751 31.8211C32.9693 32.1184 33.0076 32.4295 33.1535 32.7133C33.4256 33.3327 33.4921 34.0868 33.3707 34.7523C33.1507 35.3512 32.8749 35.7973 32.3913 36.2336C30.9863 37.5011 28.157 37.6195 26.3512 38.4323C26.316 38.4482 26.2771 38.4575 26.2422 38.4739C25.4304 38.8565 24.5524 39.5675 24.1659 40.3905C23.5387 41.3871 23.836 42.9611 23.6635 44.1398C23.4419 45.6542 22.7485 46.2505 21.3098 46.7271C20.9912 46.8325 20.2797 46.9271 20.0445 47.0825C19.8661 47.2005 19.5375 47.8122 19.5119 48.0411C19.3441 49.5362 21.1242 49.4092 22.0907 49.1716C22.5512 49.0588 22.7617 48.9709 23.18 48.7555C24.8099 47.917 26.0399 46.6539 26.2377 44.7716C26.4322 42.9217 25.508 41.3781 27.8723 40.5355C29.1406 40.0834 30.8017 39.8246 32.1727 39.2066C34.2406 38.2744 35.9077 36.5822 35.9384 34.207C35.9639 32.2644 33.9876 29.9239 35.7787 28.3553C36.5462 27.6833 37.976 27.4367 38.9316 27.0105C41.484 25.8713 43.4181 22.8639 42.1202 20.0838C41.5935 18.955 40.0113 18.2014 39.2822 19.5128ZM53.6637 23.5053C52.5123 21.661 50.3678 20.4288 48.1624 21.1139C45.2402 22.0218 43.9736 27.5608 42.9448 30.1594C42.3464 31.6711 41.6627 33.2092 40.9444 34.6388C38.4968 39.5093 34.7686 43.5335 30.5885 46.9876C29.5107 47.8781 28.344 48.6583 27.3486 49.6483C24.8099 52.1745 23.3702 55.7021 25.1954 59.0946C25.2449 59.2242 25.3123 59.2927 25.3747 59.4005C26.2184 60.8494 27.9333 61.6578 29.5527 61.8225C32.9972 62.1724 36.5028 60.3052 39.1583 58.271C45.0733 53.7385 49.8887 47.6901 52.9509 40.9109C54.9391 36.5092 56.4523 29.2989 54.3814 24.729C54.1915 24.3103 53.9051 23.8905 53.6642 23.5051L53.6637 23.5053ZM31.9829 32.0995L28.6405 36.7452C29.9033 36.334 32.1835 35.9871 32.438 34.4021C32.5577 33.6567 32.2178 32.8011 31.9826 32.099L31.9829 32.0995Z" fill="#412E12"/>
<path d="M53.5884 23.4716C53.6443 23.8759 53.8177 24.2696 53.9057 24.6748C54.1317 25.7106 54.1694 27.0673 54.1672 28.1335C54.162 31.2516 53.5744 34.3712 52.355 37.2354C51.5661 36.5851 51.1644 37.6591 51.5136 38.0568C51.5722 38.1236 51.9494 38.3497 52.0344 38.3565C50.4467 41.6503 48.7395 44.9743 46.644 47.9809C45.0732 50.2355 43.3173 51.9666 41.2941 53.8079C41.2296 53.8662 41.1565 53.8692 41.1576 53.9948C40.9321 53.4844 39.7097 53.6418 39.8251 54.238C39.8519 54.3769 40.0727 54.6639 40.1932 54.7377C39.6711 55.2399 39.1129 55.7358 38.5506 56.1934C36.183 58.1219 33.6553 59.5462 30.5864 60.0127C28.9366 60.2635 26.8943 60.0114 25.4808 59.1097L25.3734 59.4004C25.311 59.2925 25.2436 59.224 25.1941 59.0944C25.1922 59.0895 25.2449 59.0819 25.2162 58.9936C25.1652 58.8358 25.0963 58.6849 25.0413 58.5293C25.2181 58.5641 25.3431 58.8016 25.3912 58.9567C25.4425 58.944 25.4645 58.9381 25.4906 58.8888C25.5296 58.8159 25.4723 57.9553 25.4831 57.7564C25.6408 54.9034 27.1814 52.3932 29.1572 50.4128C29.4562 50.1125 29.6383 49.988 29.9079 49.661C30.1142 49.4106 30.2879 49.4797 30.4882 49.3832C31.9144 48.6973 35.2701 45.2679 36.5033 43.9886C40.2486 40.1039 43.0707 35.516 45.157 30.5625C46.2257 28.0242 46.9438 24.6662 49.2937 22.9741C50.8246 21.8713 52.4916 21.8192 53.5879 23.4718L53.5884 23.4716ZM50.7697 30.5204C50.8189 30.3943 50.8047 30.0077 50.7728 29.867C50.4286 28.3384 49.176 29.4329 49.6553 30.2939C49.8343 30.6156 50.5742 31.0201 50.7697 30.5204ZM47.907 36.5818C46.8433 36.2167 47.2172 38.5597 48.2045 38.0696C48.8466 37.7506 48.374 36.7423 47.907 36.5818ZM43.0332 40.8108C43.0116 40.7935 42.9316 40.8128 42.8913 40.7826C42.6757 40.6234 42.5461 40.472 42.2257 40.5463C41.2598 40.7693 42.1657 42.0951 42.9547 41.6346C43.1961 41.4937 43.2269 40.9633 43.0332 40.8108ZM42.1245 47.0862C41.7259 47.3627 42.0355 48.1044 42.2179 48.4448C42.3658 48.7209 42.736 48.7293 42.9187 48.4822C43.3204 47.9393 42.7297 46.6659 42.1243 47.0856L42.1245 47.0862ZM35.4869 49.8071C34.8664 50.189 35.1847 51.607 35.9466 51.3665C36.5847 51.1646 36.4497 49.2153 35.4869 49.8071ZM31.6929 55.5609C31.413 55.7283 31.5063 56.1146 31.6391 56.3478C31.9757 56.9382 33.4569 56.9877 32.8321 55.8996C32.6609 55.6017 31.9637 55.3988 31.6922 55.5605L31.6929 55.5609Z" fill="#FEAD33"/>
<path d="M35.813 24.645C35.7526 24.5589 35.8106 24.5211 35.8315 24.4501C35.9341 24.1045 36.1929 23.6742 36.3378 23.3218C37.9241 19.4574 39.5684 13.5837 44.5606 13.1115C47.9692 12.7892 50.4009 16.0131 50.5908 19.1733C50.6011 19.3473 50.6458 19.8956 50.4186 19.915C50.2299 19.9309 49.661 19.7894 49.3917 19.7787C44.4224 19.5788 43.1419 26.3938 41.7563 29.9893C39.4133 36.0681 35.7601 40.9585 30.8233 45.196C28.9795 46.7785 26.9164 48.0777 25.3797 49.9872C23.3576 52.4996 22.2842 55.823 23.6825 58.9148C20.5372 60.8053 15.9424 60.6496 13.7207 57.4379C11.6397 54.4296 13.1119 51.1112 15.4087 48.7803C17.6092 46.5467 20.4001 44.9701 22.763 42.9247C22.7365 43.6968 22.7736 44.529 22.2362 45.1499C21.2305 46.3123 19.2651 45.5179 18.7196 47.5062C18.162 49.5409 20.1177 50.5975 21.882 50.2967C25.1082 49.747 27.5901 47.0377 27.2877 43.7057C27.1895 42.6268 26.7499 41.8242 28.1324 41.3703C28.8877 41.1224 29.8108 41.0294 30.5976 40.805C33.7128 39.917 36.7209 38.1051 36.9286 34.5595C37.0332 32.7733 36.3833 31.902 35.9216 30.3159C35.6468 29.3711 36.2467 29.097 37.0337 28.7359C39.1561 27.7635 40.6076 27.8612 42.2343 25.8231C43.7829 23.8828 44.1927 20.1571 42.1428 18.4194C40.0609 16.6553 37.2611 18.792 38.4713 21.4796C38.7031 21.9951 39.0231 22.0813 38.7494 22.6833C38.5361 23.1523 37.675 23.9337 37.2028 24.1141L35.813 24.645ZM17.0916 49.8481C16.8376 49.7566 15.4532 50.4896 15.3277 50.7085C15.3013 50.7554 15.3485 50.856 15.301 50.9571C15.1827 51.2095 14.7407 51.4002 14.7237 51.4341C14.7115 51.4594 14.7811 51.537 14.7445 51.6078C14.7116 51.6722 14.5135 51.8134 14.4433 51.9157C14.2512 52.1969 14.0484 52.7281 14.3487 53.0028C14.4469 53.0932 15.1066 52.9985 15.2369 52.91C15.2717 52.8868 15.2397 52.8079 15.3054 52.751C15.4286 52.644 15.5965 52.6129 15.7126 52.528C16.175 52.1897 17.2367 51.2474 17.356 50.6888C17.4028 50.47 17.2933 49.9202 17.0922 49.8479L17.0916 49.8481Z" fill="#D61212"/>
<path d="M53.6637 23.5053L53.6092 23.5261C53.5987 23.5101 53.5989 23.4876 53.5884 23.4716C52.4922 21.819 50.8251 21.871 49.2942 22.9739C48.3723 23.6237 47.9091 24.4584 47.7343 24.7817C45.8856 28.199 45.4331 30.3671 45.4333 30.3677C44.2838 35.8832 39.3449 41.8371 36.291 44.5502C31.9962 48.3658 30.765 49.4085 30.765 49.4085C29.3848 50.5773 29.1853 50.7134 28.7791 51.2056C27.0219 53.3366 25.9284 56.6545 25.9022 57.5726C25.9022 57.5726 25.8804 58.3342 25.4921 58.8894C25.476 58.9124 25.4582 58.933 25.4582 58.933C25.3761 59.0267 25.2741 59.0719 25.1953 59.0958C23.3706 55.7031 24.8103 52.1756 27.3484 49.6495C28.3436 48.659 29.51 47.8795 30.5884 46.9889C34.7684 43.5348 38.4967 39.5106 40.9443 34.6401C41.6626 33.2105 42.3463 31.6724 42.9446 30.1607C43.9734 27.5621 45.2401 22.023 48.1623 21.1152C50.3676 20.43 52.5127 21.662 53.6635 23.5066L53.6631 23.5055L53.6637 23.5053Z" fill="#F9AE53"/>
<path d="M53.5633 23.3489C53.7738 23.6467 54.0823 24.1161 54.3811 24.7284C55.7487 27.5324 55.5039 30.3701 55.188 32.8823C54.8954 35.2059 54.4125 37.5965 52.9505 40.9104C51.7324 43.6718 47.3315 53.3227 37.553 59.5158C36.0917 60.4416 32.7917 62.3781 29.5524 61.8219C28.7409 61.6825 26.3485 61.2721 25.3738 59.4801C25.2884 59.3236 25.2307 59.1871 25.1951 59.094C25.2551 59.0648 25.3151 59.0357 25.3746 59.0067C26.8901 59.5318 29.0388 59.9873 31.4987 59.6043C34.8839 59.0769 37.2567 57.2112 38.5516 56.1929C39.2667 55.6308 39.8195 55.1107 40.1942 54.7373C40.6808 55.0357 41.3782 54.4909 41.1586 53.9944C41.1574 53.8688 41.2306 53.8658 41.295 53.8075C43.3183 51.9661 45.0742 50.2351 46.645 47.9805C48.7405 44.9738 50.4477 41.6499 52.0353 38.3561C52.6641 38.4092 52.8799 37.6671 52.356 37.235C53.7537 33.1369 54.2286 29.7957 54.1682 28.133C54.104 26.372 54.1091 25.0033 53.781 24.4727C53.7173 24.3697 53.3651 23.8496 53.5402 23.4014C53.549 23.3787 53.5577 23.3604 53.5636 23.3481L53.5633 23.3489Z" fill="#F79F2B"/>
<path d="M39.2821 19.5128C39.3815 19.3401 39.583 19.054 39.935 18.8989C40.6605 18.5794 41.4379 19.0756 41.5378 19.1392C42.6762 19.8664 42.9765 22.0446 42.3572 23.6779C41.5615 25.7755 39.3159 26.8306 38.932 27.0103C37.4085 27.7239 35.9914 27.7311 35.3961 28.9483C35.2502 29.2462 35.2168 29.4886 35.1723 29.8052C34.9413 31.4599 35.9202 32.2399 35.9394 34.2066C35.9414 34.4505 35.9471 34.7628 35.8726 35.1558C35.5073 37.0865 33.7354 38.8587 31.7565 39.501C30.9841 39.7517 29.0959 40.1822 27.8733 40.5351C27.7176 40.5802 27.3318 40.6957 26.974 41.0221C26.974 41.0221 26.6967 41.2747 26.5117 41.635C26.057 42.5214 26.4665 43.9346 26.2792 45.1501C25.9903 47.0273 24.2881 48.4039 23.0951 48.8897C22.6992 49.0509 22.3461 49.1296 22.0917 49.1712C21.1252 49.4087 19.3452 49.5358 19.5129 48.0406C19.5385 47.8118 19.8671 47.2001 20.0455 47.082C20.1129 47.0594 20.592 46.902 20.6313 46.9837C20.6689 47.0623 20.2823 47.3198 20.2181 47.3625C19.8436 48.1009 21.1405 47.8183 21.5012 47.7136C23.1372 47.2403 24.0049 46.5743 24.5373 44.9586C25.0986 43.257 24.0006 41.7486 25.49 40.372C27.2781 38.7204 29.4187 38.7546 31.4441 37.7961C32.4752 37.308 34.0674 36.0569 33.9776 34.7744C33.9718 34.6924 33.983 34.5551 33.8554 34.6295C33.3126 35.9664 32.4015 36.9679 30.9856 37.4096C30.2713 37.6325 29.4774 37.6356 28.8208 37.8071C26.8145 38.3302 24.1553 39.4839 23.9707 41.8155C23.9044 42.6534 23.9857 43.5049 23.8003 44.3364L23.6634 44.1397C23.6286 43.949 23.2321 41.6483 24.0022 40.4604C24.0752 40.3477 24.3085 40.0139 24.6501 39.6438C25.1324 39.1206 25.5256 38.8544 25.6288 38.7862C25.862 38.6322 26.0648 38.5323 26.1143 38.5084C26.248 38.4436 26.3493 38.403 26.5424 38.3286C27.5047 37.9592 27.8032 37.8813 28.0039 37.8365C28.1092 37.8131 28.1888 37.7977 28.2021 37.7951L28.2038 37.7945C31.427 37.1748 32.3912 36.2335 32.3912 36.2335C32.7025 35.9293 33.2944 35.3518 33.3633 34.5322C33.3943 34.1609 33.2378 33.4687 32.9337 32.0826C32.9093 31.9715 32.8888 31.8801 32.875 31.8211C32.8673 31.801 32.8561 31.7734 32.8438 31.7394C32.8438 31.7394 32.8163 31.6644 32.7889 31.5763C32.7621 31.4898 32.7147 31.3182 32.6595 31.0921C31.9321 28.1128 33.5867 26.5677 36.1464 25.5162C36.3533 25.4353 36.5616 25.3551 36.7719 25.2748C36.9821 25.1945 37.1911 25.1159 37.399 25.0377C38.2902 24.6555 39.212 23.9938 39.5753 23.053C39.9287 22.1385 39.4501 21.5537 39.2422 20.7138L39.3712 20.7264C39.4219 20.8867 39.7831 21.5189 39.898 21.5711C39.9168 21.5795 40.2872 21.6309 40.3038 21.6189C40.5595 21.442 40.1251 20.6593 40.0673 20.428C40.0323 20.2872 40.0752 20.1759 40.0493 20.0591C39.9398 19.5649 39.7893 19.3964 39.2826 19.5126L39.2821 19.5128ZM39.2377 24.4595C39.9159 24.1667 40.5462 23.0541 40.3963 22.335C40.3578 22.1506 40.3276 21.9949 40.1411 22.1766C39.7695 22.5401 39.7385 23.4606 39.3262 23.9807C39.1595 24.1911 39.0288 24.0532 39.2377 24.4595ZM38.4492 25.011C38.4157 24.997 37.8896 25.2323 37.7685 25.2698C36.606 25.6315 35.2483 26.0815 34.2579 26.8168C33.2509 27.5641 32.4083 29.6128 32.7584 30.8428C32.813 31.0347 33.0038 31.6159 33.2711 31.4825C33.6247 31.3069 33.3466 30.628 33.3385 30.2898C33.2971 28.52 35.1308 26.9533 36.5941 26.2814C37.1315 26.0349 37.3294 26.0023 37.834 25.6617C37.8944 25.6205 38.7655 25.1448 38.4486 25.0112L38.4492 25.011Z" fill="#FFB923"/>
<path d="M13.3424 49.1434C13.2606 49.2314 13.0071 49.6347 12.9606 49.4477C12.8319 48.9277 12.8561 48.0273 12.9282 47.4905C13.3733 44.1662 16.2787 42.3418 18.6942 40.4049C22.5172 37.3393 25.9515 33.7139 28.0875 29.2513C29.242 26.8381 30.0524 24.1776 31.1947 21.7897C32.4467 19.1726 34.5148 16.6676 37.7312 16.9236C37.8015 16.9686 37.3482 17.6822 37.3063 17.7718C37.218 17.7057 37.0722 17.7895 36.9871 17.8314C33.8626 19.3632 33.2572 21.9723 32.033 24.8745C30.9246 27.5016 29.9376 29.7765 28.3464 32.1674C25.8949 35.8512 22.9155 38.944 19.5703 41.8358C16.9361 44.1134 14.5518 45.4654 13.3226 48.9331C13.291 49.0219 13.219 49.0751 13.3426 49.1439L13.3424 49.1434Z" fill="#FEAD33"/>
<path d="M37.3062 17.7713C36.4466 19.6037 35.7991 21.5879 35.0149 23.4527C34.8226 23.91 34.4034 25.0231 34.1596 25.3734C33.9732 25.6418 33.3644 25.9661 33.0722 26.2419C32.1724 27.0918 31.7049 28.3906 31.5985 29.602C31.5795 29.8234 31.658 30.1285 31.5837 30.3179C31.3497 30.916 30.4296 32.2323 30.0343 32.8314C28.9753 34.4392 27.7824 35.9415 26.5391 37.41C24.955 37.8703 23.5785 39.0571 23.0038 40.6159C22.9347 40.8027 22.9388 41.1107 22.8294 41.2605C22.717 41.4139 22.2424 41.8118 22.0675 41.9584C19.1086 44.4449 16.0107 46.2587 13.341 49.1427C13.2168 49.074 13.2894 49.0207 13.321 48.9319C14.5507 45.464 16.9345 44.1121 19.5687 41.8345C22.9139 38.9428 25.893 35.8494 28.3448 32.1662C29.936 29.7753 30.9236 27.5002 32.0314 24.8733C33.2556 21.971 33.8615 19.3617 36.9855 17.8301C37.0706 17.7883 37.2164 17.7045 37.3047 17.7706L37.3062 17.7713Z" fill="#F79F2B"/>
<path d="M23.6635 44.1397L23.8004 44.3364C23.9858 43.5049 23.904 42.6536 23.9708 41.8155C24.1554 39.4839 26.8145 38.3302 28.8209 37.8071C29.4777 37.6361 30.2714 37.6325 30.9857 37.4096C32.4016 36.9679 33.3127 35.9664 33.8555 34.6295C33.9824 34.5548 33.9713 34.6925 33.9776 34.7744C34.0675 36.0569 32.4753 37.308 31.4442 37.7961C29.4193 38.7543 27.2781 38.7204 25.4901 40.372C24.0005 41.748 25.0981 43.2572 24.5374 44.9586C24.2999 45.6784 23.996 46.2095 23.5878 46.6195C22.9371 47.2718 22.2368 47.4907 21.5013 47.7136C21.0834 47.8401 20.3988 48.0411 20.2081 47.7788C20.133 47.6752 20.141 47.5099 20.1815 47.3971C20.2844 47.1125 20.6458 47.0262 20.6312 46.9831C20.6239 46.9622 20.5244 46.9615 20.0453 47.0815C20.2806 46.9261 20.9927 46.8313 21.3107 46.7261C22.7489 46.2497 23.4428 45.6532 23.6643 44.1388L23.6633 44.1392L23.6635 44.1397Z" fill="#F9AA00"/>
<path d="M31.9827 32.0995C32.2176 32.8011 32.5576 33.6567 32.4381 34.4026C32.1834 35.9871 29.9033 36.3345 28.6406 36.7457L31.9829 32.1001L31.9827 32.0995Z" fill="#D61212"/>
<path d="M39.2821 19.5129C39.7888 19.3967 39.9392 19.5652 40.0488 20.0594C40.0747 20.1762 40.0311 20.2877 40.0667 20.4283C40.1245 20.6596 40.5591 21.4428 40.3032 21.6192C40.2864 21.6306 39.9162 21.5798 39.8974 21.5714C39.7826 21.5191 39.4218 20.8868 39.3706 20.7266L39.2417 20.7141C39.1201 20.2226 39.0194 19.9852 39.2821 19.5129Z" fill="#F9AA00"/>
<path d="M50.7697 30.5204C50.5748 31.0198 49.8343 30.6156 49.6553 30.2939C49.176 29.4329 50.4286 28.3384 50.7728 29.867C50.8047 30.0077 50.8188 30.3942 50.7697 30.5204Z" fill="#412E12"/>
<path d="M35.4869 49.8072C36.4503 49.2151 36.5846 51.1646 35.9466 51.3666C35.1847 51.607 34.8664 50.189 35.4869 49.8072Z" fill="#412E12"/>
<path d="M47.907 36.5818C48.3738 36.7417 48.8463 37.7501 48.2045 38.0696C47.2179 38.56 46.8433 36.2167 47.907 36.5818Z" fill="#412E12"/>
<path d="M31.6929 55.5608C31.9641 55.3985 32.6614 55.6015 32.8328 55.8998C33.4575 56.988 31.9764 56.9385 31.6397 56.3481C31.5064 56.1151 31.4135 55.7281 31.6936 55.5611L31.6929 55.5608Z" fill="#412E12"/>
<path d="M42.1244 47.0862C42.7293 46.6666 43.3206 47.9399 42.9188 48.4828C42.7364 48.7291 42.3665 48.7212 42.218 48.4453C42.0356 48.105 41.726 47.3632 42.1247 47.0867L42.1244 47.0862Z" fill="#412E12"/>
<path d="M52.3557 37.2358C52.8796 37.6679 52.6638 38.41 52.035 38.3569C51.9498 38.3495 51.5729 38.124 51.5142 38.0571C51.1653 37.66 51.5668 36.5854 52.3557 37.2358Z" fill="#412E12"/>
<path d="M43.0332 40.8108C43.2218 41.0758 43.1552 41.5175 42.9547 41.6346C42.1657 42.0952 41.2593 40.7695 42.2257 40.5464C42.3415 40.5196 42.4339 40.5311 42.4933 40.5396C42.5928 40.5534 42.8784 40.5935 43.0332 40.8108Z" fill="#412E12"/>
<path d="M41.1584 53.9951C41.378 54.4916 40.6805 55.0364 40.1939 54.738C40.0734 54.6642 39.8527 54.3772 39.8258 54.2383C39.7104 53.642 40.9328 53.4846 41.1584 53.9951Z" fill="#412E12"/>
<path d="M17.0917 49.848C17.3845 50.0232 17.3613 50.5588 17.3555 50.689C17.3113 51.707 16.2643 52.3678 15.8741 52.6142C15.8264 52.6443 15.5859 52.7942 15.2372 52.9105C14.8402 53.0428 14.5427 53.1428 14.349 53.0033C14.1 52.8238 14.1186 52.3168 14.2572 51.9837C14.3473 51.767 14.4437 51.7302 14.9844 51.1117C15.2441 50.8147 15.2287 50.815 15.3278 50.7085C15.7727 50.2296 16.6638 49.5921 17.0917 49.848Z" fill="#C11111"/>
<path d="M38.4492 25.011C38.7661 25.1446 37.8951 25.6208 37.8345 25.6615C37.3305 26.0019 37.1326 26.0345 36.5946 26.2812C35.1313 26.9531 33.2982 28.5196 33.339 30.2896C33.347 30.6273 33.625 31.3062 33.2717 31.4824C33.0038 31.6159 32.8135 31.0345 32.7589 30.8426C32.4089 29.6126 33.2516 27.5644 34.2585 26.8166C35.2488 26.0813 36.6061 25.6315 37.7691 25.2696C37.8901 25.2321 38.4155 24.9964 38.4497 25.0108L38.4492 25.011Z" fill="#F9AA00"/>
<path d="M39.2376 24.4595C39.0287 24.0531 39.1594 24.1911 39.3262 23.9807C39.7385 23.4606 39.7694 22.5401 40.1411 22.1766C40.3273 21.9943 40.3577 22.1506 40.3963 22.3349C40.5462 23.0541 39.9159 24.1667 39.2376 24.4595Z" fill="#F9AA00"/>
</svg>
