<svg width="789" height="848" viewBox="0 0 789 848" fill="none" xmlns="http://www.w3.org/2000/svg">
<path d="M788.229 479.495C788.619 494.285 787.269 517.655 776.959 543.665C767.439 567.685 747.209 592.435 733.179 605.565C729.939 608.595 723.879 611.935 721.229 614.615C717.029 618.885 712.269 628.675 707.669 634.055C700.999 641.855 692.659 648.795 684.279 654.645C685.769 659.795 687.349 665.485 687.889 670.815C690.569 697.215 686.209 730.045 675.009 754.395C673.329 758.045 663.639 772.425 663.539 773.535C663.399 775.125 665.999 782.135 666.179 785.495C667.649 812.795 645.959 825.195 622.399 829.785C607.839 832.625 591.849 833.385 577.419 834.805C559.019 836.615 517.229 838.645 502.119 827.555C487.109 816.545 489.719 791.815 497.979 777.365C498.779 775.965 504.799 768.595 504.139 768.035L493.149 766.035C493.519 786.785 476.089 804.985 456.369 808.765C447.199 810.515 435.099 811.935 426.149 810.035C424.699 822.515 414.929 834.805 403.829 840.225C385.759 849.045 329.139 849.565 309.929 843.755C295.649 839.435 287.699 830.285 287.139 815.045C261.199 815.405 256.099 791.885 263.659 771.055C270.129 753.205 288.469 743.745 306.149 740.035C300.159 732.675 295.949 724.245 292.899 715.285L263.679 700.015C255.459 728.935 248.699 759.735 237.159 787.555C226.459 813.355 216.629 827.175 186.689 829.085C168.379 830.245 120.939 830.155 105.789 820.895C97.2187 815.655 93.5487 801.965 94.1087 792.505C95.7087 765.525 118.539 747.555 143.649 743.055C154.449 697.255 145.309 649.975 144.119 603.565C114.759 567.005 109.809 518.545 122.879 474.275C124.909 467.405 130.829 456.645 131.919 451.315C133.689 442.685 131.869 428.705 133.159 418.555C133.969 412.195 135.889 405.915 137.219 399.655C111.809 385.565 86.3387 366.425 73.1287 340.035C51.1087 353.335 19.2587 350.245 11.1087 322.565C6.0687 305.455 12.9887 296.335 14.1187 280.515C16.1687 251.965 -1.3913 221.875 0.0886965 191.485C2.3587 144.705 41.9687 102.195 74.6087 72.0046C99.2787 49.1946 133.599 18.8946 169.529 23.1346C172.669 23.5046 178.119 26.2346 180.419 25.8646C182.329 25.5546 194.539 18.1346 198.169 16.5646C253.959 -7.62542 335.149 -3.99542 390.809 18.8546C393.729 20.0546 400.569 24.5446 402.779 24.7646C404.659 24.9546 413.519 20.9246 416.709 20.1046C464.559 7.87458 509.839 38.4846 545.609 67.0446C603.229 113.055 665.289 183.515 610.959 257.335C597.009 276.295 576.859 289.555 567.659 312.035C565.489 317.335 564.089 324.445 562.149 330.015C604.289 310.815 659.759 338.925 646.139 390.005C665.089 394.305 681.829 407.875 694.649 422.005C699.769 427.645 702.589 434.645 709.639 439.015C712.099 423.985 710.539 407.905 707.669 392.985C704.939 378.775 690.319 346.295 706.179 336.555C719.879 328.145 737.719 344.675 746.109 354.545C780.989 395.585 787.629 451.975 788.139 471.015C788.239 474.665 788.229 477.635 788.199 479.455L788.229 479.495ZM123.169 125.055C115.229 146.625 109.379 169.085 107.169 192.055C96.9887 223.625 75.5487 243.745 73.1787 279.565C68.8687 344.815 122.339 381.595 176.169 403.055C177.679 404.855 179.209 406.745 180.909 408.805C206.609 439.985 245.639 439.395 280.169 423.055C282.729 423.305 284.949 424.225 287.619 424.085C302.069 423.345 321.429 419.865 335.959 417.305C340.899 416.435 346.169 415.485 352.179 414.055C398.489 403.045 448.019 380.145 471.049 336.305C471.369 334.015 467.769 330.755 466.379 328.355C463.149 322.785 459.759 316.945 457.179 311.055C431.469 252.315 444.249 192.945 434.179 132.055C433.879 130.265 433.459 128.535 433.179 127.055C433.119 126.735 433.239 126.375 433.179 126.055C432.249 121.405 432.089 117.125 430.679 112.055C428.859 105.545 423.559 96.2046 422.579 91.0646C422.219 89.1646 422.529 87.8046 423.189 86.0446C425.129 83.7646 428.169 82.4446 431.189 83.0446C436.549 85.9546 440.729 99.5446 442.449 105.285C459.569 162.165 445.979 222.085 460.469 279.265C466.939 304.785 490.409 360.275 524.629 350.995C549.509 344.245 551.269 310.475 563.159 291.525C573.389 275.225 590.829 262.315 602.019 246.385C643.539 187.305 597.719 132.335 554.199 92.5346C523.879 64.8046 464.029 19.1446 420.739 33.1046C417.619 34.1146 407.839 38.8446 407.179 42.0446C400.619 39.3546 394.659 35.4146 388.149 32.5746C341.899 12.4146 280.069 9.26458 231.169 20.5346C171.499 34.2846 143.559 69.7146 123.179 125.045H123.169V125.055ZM165.169 36.0646C139.879 35.3046 116.449 53.8346 98.1587 69.5446C66.1387 97.0446 17.6687 144.615 14.1887 188.575C11.5387 222.045 31.2887 252.555 27.0587 286.445C24.9987 302.905 15.2287 324.375 37.4687 332.265C48.8587 336.305 56.8887 332.675 67.1787 328.045C56.5387 300.365 57.3087 269.055 68.1587 241.535C75.7687 222.225 88.1487 209.095 93.5087 187.885C103.569 148.025 107.029 118.595 128.009 81.3846C137.859 63.9046 150.179 49.2846 165.179 36.0646H165.169ZM630.169 359.055C629.749 358.255 629.799 356.945 629.019 355.755C617.609 338.205 590.929 334.825 572.169 340.555C576.189 346.075 596.219 350.175 593.769 358.085C591.089 366.745 577.389 358.925 572.489 356.235C565.829 352.575 560.029 348.355 555.659 342.085C550.789 350.335 543.939 357.495 535.139 361.545C532.769 362.635 523.909 364.845 523.379 365.295C522.079 366.395 523.449 369.235 519.429 369.865C513.289 370.825 512.009 366.855 507.849 364.865C504.189 363.115 500.099 362.185 496.459 360.255C490.459 357.055 484.589 351.735 479.639 347.075C477.739 352.315 474.419 356.655 471.139 361.075C469.209 363.665 465.609 365.205 466.549 369.075C468.189 375.815 482.889 396.015 488.109 401.605C506.789 421.585 539.539 424.415 554.959 399.405C556.809 396.405 557.299 389.845 561.759 389.355C567.749 388.705 572.249 394.615 576.599 397.105C597.489 409.065 630.419 405.845 634.679 378.125C636.129 368.705 633.989 366.405 630.129 359.075L630.169 359.055ZM741.169 546.055C739.999 559.705 738.319 573.825 733.189 586.565L745.579 572.965C760.339 552.655 770.839 529.145 774.169 504.055C774.519 501.395 775.009 498.725 775.169 496.055C775.229 495.065 775.119 494.055 775.169 493.055C775.499 485.845 775.509 477.255 775.169 470.055C774.829 462.855 773.449 456.265 772.169 449.055C766.729 418.405 751.849 375.945 727.699 355.025C721.949 350.045 711.199 341.615 712.269 355.405C713.149 366.815 719.819 382.675 721.899 394.825C723.889 406.415 725.029 420.825 724.159 432.535C723.789 437.575 720.079 449.235 720.239 452.575C720.299 453.745 727.989 466.315 729.349 469.375C739.839 493.035 743.359 520.545 741.179 546.045L741.169 546.055ZM148.169 406.055C138.469 443.975 146.039 484.455 168.349 516.365C185.669 541.135 215.659 568.935 242.149 583.565C250.079 587.945 253.909 591.415 262.849 588.225C294.089 577.055 344.349 538.465 369.189 515.565C395.349 491.435 455.209 432.805 458.159 397.535C458.409 394.565 459.149 377.065 454.699 378.065C413.579 416.115 355.539 431.525 300.659 436.045C294.639 436.535 287.779 435.305 281.909 436.295C277.739 436.995 272.589 440.365 268.199 441.585C239.269 449.645 206.389 448.105 182.699 428.035C178.829 424.745 174.839 418.765 171.529 416.205C170.329 415.275 149.059 405.145 148.179 406.065H148.169V406.055ZM499.159 424.065C499.019 423.945 496.899 423.915 495.639 423.115C485.349 416.575 477.749 408.465 470.169 399.055C471.819 405.725 463.059 421.425 464.659 425.995C464.799 426.385 468.979 432.655 469.339 432.865C471.069 433.875 480.849 429.195 483.949 428.345C488.479 427.095 493.019 426.695 497.649 426.035C499.009 425.835 500.799 425.545 499.159 424.075V424.065ZM674.169 420.045C670.659 414.265 643.649 400.305 638.809 401.255C637.619 401.485 633.429 406.525 631.499 407.885C612.149 421.585 584.979 419.325 566.669 405.075C562.489 412.475 557.649 419.275 550.159 423.555C591.779 427.975 632.759 412.265 674.169 420.045ZM446.169 604.055C458.169 629.685 480.239 646.035 507.169 653.055C507.219 653.065 506.989 653.865 507.679 654.035C511.039 654.845 514.749 654.975 518.089 656.025C520.909 647.615 524.579 639.635 529.159 632.055C559.879 581.285 618.489 564.015 662.159 611.055C670.489 620.025 674.119 628.595 679.939 638.775C680.359 639.515 679.719 640.615 681.549 639.955C684.449 638.905 695.149 627.985 697.679 625.065C726.749 591.435 734.399 542.435 725.169 500.055C720.349 477.915 714.199 459.915 696.169 445.055C663.849 418.415 617.279 435.215 579.709 437.095C527.599 439.705 465.549 421.175 444.449 484.835C433.059 519.195 430.669 570.945 446.169 604.055ZM451.519 446.405C452.729 445.285 459.159 440.545 459.149 439.555C459.149 439.375 456.839 437.075 456.669 437.075C455.889 437.085 449.589 448.015 448.189 449.565C449.869 450.165 450.589 447.265 451.519 446.405ZM156.489 523.565C156.029 522.955 155.569 522.345 155.109 521.735C145.159 594.615 173.859 669.915 156.979 741.505C156.129 745.125 155.079 748.875 152.609 751.655C148.369 756.445 141.299 757.105 135.179 758.955C127.669 761.225 121.039 765.975 116.119 772.045C111.169 778.155 107.879 785.645 106.999 793.475C106.779 795.415 106.689 797.405 106.809 799.355C106.919 801.025 107.789 803.055 108.569 804.535C110.389 807.985 113.739 810.635 117.519 811.595C118.769 811.915 120.059 812.045 121.349 811.955C117.219 799.065 121.329 783.925 131.409 774.885C133.409 773.095 136.499 771.515 138.609 773.185C141.159 775.205 139.319 779.215 137.639 781.995C132.979 789.715 130.839 798.925 131.609 807.905C131.789 810.005 132.209 812.265 133.759 813.705C135.259 815.095 137.459 815.375 139.509 815.545C146.649 816.145 153.819 816.305 160.969 816.025C157.369 804.215 159.899 790.715 167.529 781.005C169.539 778.445 174.109 776.425 175.439 779.395C175.819 780.245 175.709 781.225 175.579 782.155C174.109 793.275 172.639 804.395 171.159 815.515C185.549 816.605 201.979 816.975 212.049 806.635C216.299 802.265 218.779 796.515 221.079 790.875C234.069 759.045 244.419 726.145 251.989 692.605C237.599 681.015 225.759 666.275 217.559 649.725C216.089 646.755 214.499 643.495 211.479 642.135C208.259 640.695 204.349 641.875 201.089 640.535C196.619 638.685 195.509 631.705 199.189 628.565C206.509 629.515 213.969 629.375 221.249 628.155C238.419 672.115 280.179 705.505 326.839 712.585C320.529 688.185 318.079 667.565 317.099 652.575C315.499 627.875 318.899 633.715 317.179 612.475C316.379 602.645 315.109 594.675 319.599 591.545C323.139 589.075 329.579 590.095 332.519 593.525C335.359 596.845 334.459 601.885 334.239 603.255C330.529 626.055 337.659 649.345 338.179 672.445C338.179 672.445 338.879 703.445 337.099 754.935C336.979 758.435 336.759 765.885 331.729 772.075C328.389 776.175 323.369 778.425 318.829 781.145C309.499 786.735 301.329 795.485 299.599 806.225C297.869 816.965 304.509 829.305 315.239 831.135C313.899 822.305 312.999 806.305 322.669 795.045C326.489 790.595 333.319 785.305 335.809 786.955C336.829 787.635 336.859 789.295 334.659 800.385C332.849 809.535 333.059 819.235 329.609 827.895C329.149 829.055 327.989 831.815 329.149 833.085C330.359 834.415 333.439 833.405 334.699 833.035C338.559 831.915 344.689 831.255 354.479 833.635C353.989 830.515 349.739 801.555 361.309 795.895C364.889 794.145 371.259 793.995 372.769 796.575C373.709 798.185 372.249 799.955 370.179 804.655C370.179 804.655 364.939 815.755 366.369 827.535C366.579 829.295 366.989 831.185 368.319 832.355C369.949 833.785 372.389 833.665 374.549 833.465C385.569 832.425 397.549 830.965 405.369 823.125C411.239 817.245 413.629 808.825 415.789 800.795C428.739 752.505 441.029 704.045 452.669 655.435C453.959 650.055 455.209 644.265 453.169 639.115C451.629 635.245 448.439 632.315 445.649 629.225C433.559 615.835 428.109 597.735 425.229 579.925C418.779 539.985 423.799 498.265 439.539 460.995C395.289 515.025 341.129 560.925 280.569 595.705C274.609 599.125 268.349 602.525 261.499 603.115C251.879 603.945 242.739 599.155 234.509 594.105C204.469 575.655 177.889 551.595 156.529 523.545L156.489 523.565ZM137.159 476.045C135.709 474.325 135.429 476.445 135.059 477.445C125.429 503.585 126.229 538.425 136.409 564.295L141.149 574.045C141.049 560.605 139.199 546.985 140.119 533.515C140.739 524.385 145.469 509.715 145.089 501.625C144.939 498.395 140.269 488.905 138.899 484.815C138.229 482.815 137.439 476.395 137.149 476.055H137.159V476.045ZM565.169 763.055C543.889 763.325 517.459 765.535 507.389 787.775C502.569 798.415 502.109 815.665 515.689 820.035C518.709 821.005 516.169 817.715 516.169 817.545V801.545C516.169 800.875 519.089 792.315 519.669 791.045C520.819 788.575 525.409 781.995 527.869 781.245C542.019 776.985 530.679 792.575 529.219 797.595C526.909 805.585 527.699 813.115 529.619 821.085C529.909 821.495 537.029 823.045 537.659 823.045H557.159C553.909 814.685 556.829 784.485 567.709 783.015C578.589 781.545 570.709 792.005 569.439 796.835C567.029 806.055 566.619 812.725 569.199 822.005C583.449 822.755 597.309 819.505 611.159 817.055C627.979 814.065 652.929 812.515 653.239 789.545C653.309 784.205 650.599 779.565 650.159 775.055C649.329 766.635 655.589 762.425 659.329 755.725C666.189 743.435 670.599 729.885 673.159 716.055C673.469 714.395 673.909 712.695 674.159 711.055C674.259 710.415 674.069 709.695 674.159 709.055C676.579 691.355 676.629 678.655 673.159 661.055C673.069 660.595 672.619 660.195 672.159 660.055C672.379 642.635 655.599 620.505 642.069 610.645C616.029 591.665 586.009 591.585 561.629 613.035C522.729 647.255 510.109 711.335 552.679 748.035C557.089 751.835 568.409 755.595 565.159 763.055H565.169ZM514.169 668.055C504.709 668.005 495.839 663.775 487.199 660.525L465.169 648.065C460.959 673.115 454.899 697.825 449.159 722.545C459.879 738.615 478.629 747.745 496.949 752.775C502.589 754.325 514.189 757.385 519.629 757.105C525.069 756.825 531.429 752.105 537.159 751.565C515.149 730.425 510.429 697.285 514.169 668.065V668.055ZM323.169 737.055C324.189 737.555 324.749 738.405 326.159 738.055V725.055H316.169C315.309 724.725 310.149 721.185 311.179 724.535C312.399 728.485 319.369 735.195 323.169 737.055ZM431.169 794.055C431.119 795.055 431.169 796.065 431.169 797.055C435.799 796.825 440.559 797.365 445.179 797.055C454.749 796.405 463.029 794.115 470.079 787.455C474.869 782.925 484.149 767.615 479.169 761.565C478.229 760.425 461.309 752.005 457.459 749.275C454.819 747.405 446.629 739.475 445.669 739.065C443.859 738.285 444.369 739.795 444.159 740.515C440.739 751.915 431.679 783.645 431.189 794.055H431.169ZM281.169 800.555C280.919 795.605 281.169 790.525 281.169 785.555C281.169 781.395 287.709 768.915 292.119 767.505C305.509 763.235 295.959 776.915 294.139 781.515C293.709 782.605 291.379 788.535 293.159 789.045C297.069 781.205 303.519 774.845 310.869 770.255C320.209 764.415 325.839 766.065 325.189 751.585C310.599 749.805 288.119 756.325 279.169 768.555C273.179 776.745 267.879 799.075 280.689 803.035C283.719 803.975 281.179 800.715 281.169 800.545V800.555Z" fill="#452605"/>
<path d="M407.169 42.0546C421.279 48.8546 425.239 55.7746 426.169 60.9446C427.669 69.3146 422.179 78.3946 426.289 81.9246C427.769 83.1946 429.829 83.1946 431.169 83.0546C430.599 83.0546 425.709 82.9846 423.649 86.3546C422.979 87.4546 422.859 88.5046 422.759 89.4046C422.759 89.4046 422.279 93.5446 425.199 97.6146C425.259 97.7046 425.329 97.7946 425.329 97.7946C425.409 97.8946 425.459 97.9746 425.499 98.0246C429.629 103.475 431.529 113.415 431.529 113.415C432.369 117.775 431.879 117.615 433.169 126.055C433.659 129.275 434.099 131.675 434.169 132.055C435.299 138.225 439.259 165.825 440.149 172.775C443.709 200.635 439.159 219.205 441.609 247.825C442.879 262.605 446.389 284.515 457.179 311.055C454.039 320.625 449.709 331.095 443.199 341.575C422.939 374.175 386.959 400.155 350.689 412.065L352.169 414.055C346.159 415.485 340.889 416.435 335.949 417.305C321.419 419.865 302.069 423.345 287.609 424.085C284.939 424.225 282.729 423.305 280.159 423.055C334.839 397.175 415.199 312.105 343.479 260.235C316.069 240.415 296.059 231.795 284.129 196.585C279.459 182.795 274.929 146.165 266.169 137.545C258.389 129.885 243.459 131.955 236.179 139.555C211.679 165.155 224.759 215.095 178.169 230.045C180.909 226.985 187.229 223.345 191.149 218.525C214.119 190.285 201.489 137.655 158.729 150.105C117.099 162.235 120.339 248.595 178.169 230.045C174.849 233.755 150.769 243.105 143.859 247.235C84.1488 283.005 108.349 343.875 151.149 381.555C160.369 389.665 167.979 393.305 176.159 403.045C122.329 381.585 68.8587 344.805 73.1687 279.555C75.5387 243.735 96.9788 223.615 107.159 192.045C111.199 179.535 112.339 165.945 115.649 153.035C117.699 145.065 120.779 137.405 123.179 129.565C123.579 128.245 125.079 125.935 123.149 125.045C143.529 69.7146 171.469 34.2746 231.139 20.5346C280.039 9.27458 341.869 12.4146 388.119 32.5746C394.629 35.4146 400.589 39.3546 407.149 42.0446H407.169V42.0546ZM194.919 114.805C197.339 112.365 196.259 107.345 193.529 105.185C185.709 99.0146 167.239 101.845 159.819 108.205C156.859 110.745 151.409 118.695 156.159 121.565C161.339 124.695 169.419 116.225 174.909 115.295C179.609 114.495 193.059 116.695 194.929 114.805H194.919ZM326.239 107.095C325.909 107.585 325.639 108.115 325.439 108.665C324.919 110.095 324.909 111.675 325.259 113.145C325.439 113.895 325.719 114.615 326.069 115.295C326.249 115.635 326.439 115.965 326.659 116.285C326.749 116.415 326.839 116.615 326.969 116.695C327.109 116.785 327.339 116.795 327.499 116.835C329.239 117.225 331.029 117.185 332.789 117.015C334.549 116.845 336.369 116.515 338.159 116.315C338.499 116.275 338.839 116.245 339.179 116.215C345.779 115.705 352.429 117.755 358.039 121.275C359.999 122.505 361.869 123.925 364.029 124.745C366.189 125.565 368.779 125.695 370.699 124.385C371.749 123.665 372.499 122.595 373.089 121.465C373.489 120.705 373.829 119.875 373.789 119.015C373.749 118.135 373.299 117.325 372.819 116.585C370.859 113.545 368.169 111.035 365.199 108.965C356.869 103.155 346.299 100.805 336.229 102.125C334.029 102.415 331.819 102.885 329.859 103.905C328.419 104.655 327.109 105.735 326.219 107.075L326.239 107.095ZM336.919 151.305C290.869 157.575 294.189 244.045 345.649 240.035C400.549 235.755 395.899 143.275 336.919 151.305Z" fill="#D88D41"/>
<path d="M696.169 445.055C714.199 459.915 720.349 477.915 725.169 500.055C724.319 507.785 725.689 515.785 725.209 523.595C722.869 561.625 700.319 600.155 662.169 611.055C618.499 564.015 559.889 581.285 529.169 632.055C520.329 630.545 512.209 631.155 503.149 629.575C493.059 627.815 483.989 623.585 474.169 621.065C478.309 629.075 485.619 634.585 491.639 641.085L507.169 653.055C480.239 646.035 458.169 629.685 446.169 604.055C454.579 608.565 461.779 615.365 471.159 618.045C457.919 587.605 454.119 549.575 458.289 516.675C469.289 429.845 538.249 453.155 600.699 450.085C632.409 448.525 664.739 436.515 696.159 445.045H696.169V445.055ZM587.879 477.195C581.929 478.815 585.709 492.455 593.579 492.035C603.369 491.515 596.089 474.955 587.879 477.195ZM667.879 478.215C662.459 479.795 665.239 490.055 670.419 492.285C682.849 497.635 678.999 474.975 667.879 478.215ZM518.879 490.215C511.199 492.475 520.289 509.315 527.579 503.975C533.089 499.935 525.809 488.175 518.879 490.215ZM621.319 542.905C622.039 543.355 626.479 543.245 627.649 543.025C634.119 541.765 636.459 528.375 626.719 530.045C621.929 530.865 618.069 540.855 621.319 542.905ZM530.389 561.305C530.099 561.475 525.899 565.825 525.709 566.105C518.169 577.425 536.959 579.105 538.229 566.575C538.779 561.195 534.479 558.945 530.389 561.305ZM683.879 562.225C678.719 563.755 681.259 574.995 686.109 576.625C698.189 580.665 693.259 559.445 683.879 562.225Z" fill="#FEAD33"/>
<path d="M431.059 83.3746C430.099 83.0546 429.209 83.1846 428.609 83.2746C427.289 83.4746 426.289 83.9946 425.699 84.3846C425.779 83.5546 425.799 82.3246 425.479 80.8946C425.159 79.4446 424.599 78.3446 424.169 77.6246C424.169 77.6246 421.869 71.9346 419.679 67.0346C413.489 53.1646 405.899 48.1446 407.159 42.0546C407.819 38.8446 417.589 34.1246 420.719 33.1146C464.009 19.1546 523.859 64.8146 554.179 92.5446C597.699 132.345 643.509 187.315 601.999 246.395C590.809 262.325 573.369 275.235 563.139 291.535C551.249 310.485 549.489 344.255 524.609 351.005C490.399 360.285 466.919 304.805 460.449 279.275C453.949 253.635 451.889 224.495 451.599 165.075C451.499 144.335 443.819 124.295 441.419 103.695C441.419 103.695 440.429 95.1546 433.499 85.4546C433.119 84.9246 432.389 83.8346 431.059 83.3946V83.3746Z" fill="#A8602F"/>
<path d="M431.819 482.275C427.559 498.395 425.359 512.345 424.159 523.055C423.359 530.145 422.249 539.985 422.519 553.085C422.789 566.055 424.299 577.505 426.159 587.055C427.389 592.945 429.489 600.045 432.699 607.895C435.549 614.855 439.039 621.545 443.159 627.055L430.849 701.245C423.519 730.825 417.469 760.745 409.159 790.055C395.599 769.825 358.279 759.565 335.159 764.055C335.789 749.965 336.439 738.565 336.929 730.615C337.409 722.785 337.749 718.095 337.939 711.115C338.239 700.305 337.999 691.465 337.739 685.595C337.649 683.615 337.479 680.425 337.219 676.515C334.579 637.235 332.329 634.025 332.119 621.585C332.009 614.915 333.699 606.175 333.199 600.525C333.089 599.325 332.929 598.655 332.669 598.145C332.409 597.625 332.139 597.155 331.159 596.045C329.719 594.405 328.999 593.575 328.159 593.045C328.159 593.045 326.759 592.045 324.829 591.835C324.219 591.765 323.539 591.805 322.739 591.995C322.739 591.995 322.469 592.115 322.219 592.295C318.759 594.815 318.149 601.655 318.149 601.655C317.379 610.175 317.639 617.475 317.639 617.475C317.769 621.135 317.859 626.515 317.599 633.165C317.519 635.375 317.599 637.985 318.039 640.885C318.319 642.795 318.719 644.515 319.149 646.045C317.829 646.175 315.869 646.315 313.509 646.345C293.929 646.555 279.729 638.085 264.999 629.555C253.659 622.995 238.259 614.215 216.469 602.205C214.769 602.055 206.589 611.045 205.159 613.045C201.509 608.435 199.469 593.075 192.719 594.015C183.349 595.325 193.879 617.655 196.339 622.415C197.079 623.835 196.769 625.565 199.159 625.045C199.229 625.505 199.289 626.205 199.159 627.045C198.949 628.425 198.349 629.375 198.189 629.645C197.049 631.595 197.009 635.865 198.069 637.875C200.289 642.045 208.299 638.405 214.199 642.495C216.679 644.215 219.479 647.775 220.149 656.045C218.349 656.865 219.669 659.335 220.019 660.665C223.329 673.325 227.279 686.715 229.009 699.695C232.189 723.635 226.449 750.105 217.149 772.055C205.089 754.665 179.559 745.885 159.149 745.055C157.439 735.405 161.219 724.575 162.139 714.545C166.569 666.185 157.219 617.725 155.159 569.545C154.599 556.425 155.589 543.175 155.149 530.055C157.419 529.925 157.739 531.555 158.769 532.935C179.679 560.815 209.159 589.955 237.829 609.875C241.449 612.395 249.499 619.095 253.519 618.995C261.089 618.815 283.309 606.465 290.809 602.225C334.979 577.245 376.219 543.155 411.649 507.065C418.369 498.805 425.079 490.535 431.799 482.275H431.819Z" fill="#D88D41"/>
<path d="M280.169 423.055C245.639 439.395 206.609 439.995 180.909 408.805C179.209 406.745 177.679 404.845 176.169 403.055C167.989 393.315 160.369 389.685 151.159 381.565C108.359 343.885 84.1588 283.015 143.869 247.245C150.769 243.105 174.849 233.765 178.179 230.055C224.769 215.105 211.689 165.165 236.189 139.565C243.469 131.955 258.399 129.885 266.179 137.555C274.939 146.175 279.469 182.805 284.139 196.595C296.069 231.805 316.079 240.425 343.489 260.245C415.219 312.105 334.859 397.175 280.169 423.065V423.055ZM208.159 313.055C254.099 310.895 302.169 250.055 230.509 237.205C213.609 234.175 193.849 234.165 177.159 238.535C124.029 252.455 145.679 298.285 186.349 311.365C188.519 312.065 194.999 312.305 195.949 313.265C197.099 314.445 198.239 321.845 197.249 323.575C193.929 329.365 174.959 337.015 168.599 336.115C166.809 335.865 167.319 334.355 166.419 334.105C155.649 331.105 151.839 330.405 145.339 320.365C142.479 315.955 141.109 306.635 134.719 308.075C126.059 310.025 135.199 326.605 138.749 330.965C147.349 341.545 161.669 347.235 175.169 347.045C177.679 369.915 184.239 397.825 205.859 409.855C244.549 431.385 274.519 401.185 291.339 368.725C295.229 361.215 299.499 346.145 303.289 340.675C308.199 333.575 317.679 327.325 323.979 317.365C324.889 315.915 325.959 312.225 326.189 312.055C327.109 311.375 333.899 317.665 336.689 313.065C343.349 302.095 311.389 280.895 308.299 300.365C308.729 303.385 316.639 304.165 316.059 306.415C314.279 313.265 299.529 327.635 293.509 331.885C266.839 350.755 216.909 350.735 208.169 313.055H208.159Z" fill="#FDC380"/>
<path d="M148.349 406.115C149.229 405.195 170.499 415.335 171.699 416.255C175.009 418.815 178.999 424.795 182.869 428.085C206.549 448.165 239.439 449.705 268.369 441.635C272.759 440.415 277.909 437.045 282.079 436.345C287.949 435.355 294.819 436.595 300.829 436.095C355.709 431.585 413.749 416.165 454.869 378.115C459.319 377.115 458.579 394.615 458.329 397.585C455.379 432.855 395.519 491.485 369.359 515.615C344.529 538.515 294.269 577.105 263.019 588.275C254.089 591.475 250.249 587.995 242.319 583.615C215.839 568.985 185.839 541.175 168.519 516.415C146.209 484.505 138.639 444.015 148.339 406.105H148.349V406.115ZM200.349 485.115V512.615C200.349 514.255 208.199 517.645 209.939 515.215C211.549 510.615 212.139 502.935 212.389 497.655C212.609 492.935 212.999 467.475 211.849 465.105C210.699 462.735 204.319 462.295 202.549 463.325C201.229 464.095 192.829 482.575 191.849 482.105C186.629 475.755 187.019 459.715 177.589 458.305C168.159 456.895 171.909 468.365 171.389 474.645C170.869 480.925 167.429 501.255 169.829 506.115C171.159 508.805 177.659 509.855 180.199 507.955L181.349 481.105L186.489 493.455C188.389 496.535 191.349 498.835 194.389 495.645L200.339 485.095V485.115H200.349ZM335.109 494.665C336.069 499.225 335.559 503.915 335.349 508.535C335.119 513.615 335.589 516.025 341.569 515.585C343.609 515.435 345.669 514.475 346.739 512.725C347.799 510.985 347.729 508.795 347.609 506.755C347.369 502.285 347.119 497.765 347.919 493.365C350.159 480.975 360.299 470.895 361.529 458.365C358.029 456.925 353.849 458.315 351.089 460.915C348.329 463.515 346.749 467.105 345.509 470.685C344.269 474.265 343.279 477.965 341.419 481.265C339.189 478.795 338.179 475.495 337.049 472.365C335.919 469.235 334.509 465.995 331.819 464.045C329.129 462.095 324.789 462.055 322.889 464.785C321.259 467.125 322.019 470.355 323.219 472.945C326.549 480.115 332.779 485.885 334.839 493.525C334.939 493.905 335.029 494.285 335.109 494.665ZM297.349 518.615C297.349 519.325 299.019 519.955 299.849 520.115C303.069 520.715 319.149 519.035 322.609 518.065C322.849 517.995 326.119 514.715 326.199 514.475C326.709 512.945 326.639 511.145 326.159 510.415C325.019 508.675 319.149 508.935 297.349 518.615ZM231.059 467.325C218.339 470.165 218.239 495.185 219.799 505.165C222.859 524.765 250.219 527.275 254.919 510.185C256.629 503.955 257.169 488.205 256.109 481.855C254.109 469.875 242.209 464.845 231.059 467.325ZM275.349 511.115L276.159 471.805C274.989 467.885 266.809 466.775 264.839 470.105C263.439 472.475 264.519 500.155 264.389 505.655C264.329 508.405 261.229 522.115 265.849 522.115H285.849C286.289 522.115 291.679 520.515 291.919 520.185C292.969 518.715 292.649 511.115 290.849 511.115H275.349Z" fill="#F48F3B"/>
<path d="M672.169 660.055C671.909 680.455 668.139 705.775 662.189 725.575C658.789 736.865 648.129 757.665 647.219 767.675C646.919 770.975 647.679 772.895 650.179 775.055C650.619 779.565 653.329 784.205 653.259 789.545C652.949 812.505 627.999 814.065 611.179 817.055C620.649 807.265 623.589 788.795 615.169 777.565C606.289 765.725 578.949 762.885 565.179 763.055C568.429 755.585 557.109 751.835 552.699 748.035C510.129 711.335 522.759 647.245 561.649 613.035C586.029 591.585 616.049 591.665 642.089 610.645C655.619 620.505 672.399 642.635 672.179 660.055H672.169Z" fill="#D88D41"/>
<path d="M165.169 36.0647C150.169 49.2847 137.849 63.9047 127.999 81.3847C107.019 118.595 103.549 148.025 93.4988 187.885C88.1488 209.095 75.7588 222.235 68.1488 241.535C57.2988 269.055 56.5288 300.365 67.1688 328.045C56.8788 332.675 48.8488 336.305 37.4588 332.265C15.2188 324.375 24.9888 302.905 27.0488 286.445C31.2788 252.555 11.5288 222.045 14.1788 188.575C17.6588 144.615 66.1288 97.0447 98.1488 69.5447C116.439 53.8347 139.869 35.3147 165.159 36.0647H165.169Z" fill="#A8602F"/>
<path d="M696.169 445.055C664.759 436.525 632.419 448.535 600.709 450.095C538.259 453.165 469.299 429.855 458.299 516.685C454.129 549.585 457.919 587.615 471.169 618.055C461.779 615.375 454.579 608.565 446.179 604.065C430.679 570.965 433.079 519.205 444.459 484.845C465.559 421.185 527.599 439.715 579.719 437.105C617.279 435.225 663.849 418.415 696.179 445.065H696.169V445.055Z" fill="#FDC380"/>
<path d="M318.169 646.055H319.169C321.119 660.595 322.149 671.665 322.729 679.275C324.089 697.075 323.259 699.245 325.669 704.635C326.449 706.375 328.829 711.275 327.189 712.835C326.269 713.705 324.459 713.185 323.739 712.975C303.839 707.255 310.169 711.105 299.079 706.075C291.209 702.505 287.269 700.715 281.429 697.215C268.029 689.175 236.639 670.335 222.909 635.005C221.799 632.135 221.029 629.755 220.579 628.285C217.979 628.775 215.159 629.185 212.129 629.455C206.989 629.925 202.299 629.905 198.199 629.655C198.369 628.485 198.659 626.895 199.169 625.055C200.319 620.925 201.869 618.095 202.249 617.405C202.989 616.045 203.929 614.615 205.169 613.055C210.769 606.055 213.629 602.545 216.479 602.215C220.199 601.775 223.299 604.255 224.369 605.095C236.149 614.285 251.189 618.505 263.419 627.095C273.609 634.245 290.269 642.505 318.169 646.055Z" fill="#FDC380"/>
<path d="M772.169 449.055C770.439 455.135 770.999 462.185 770.049 468.435C768.329 479.755 763.029 494.075 758.029 504.415C754.969 510.755 744.929 523.645 743.629 528.015C742.439 531.995 743.319 538.215 743.169 542.605C743.109 544.525 744.189 546.615 741.169 546.055C743.359 520.545 739.829 493.045 729.339 469.385C727.979 466.325 720.289 453.755 720.229 452.585C720.069 449.235 723.779 437.575 724.149 432.545C725.019 420.835 723.879 406.425 721.889 394.835C719.799 382.685 713.139 366.825 712.259 355.415C711.199 341.625 721.939 350.045 727.689 355.035C751.849 375.955 766.719 418.405 772.159 449.065L772.169 449.055Z" fill="#D88D41"/>
<path d="M514.169 668.055C510.429 697.285 515.149 730.415 537.159 751.555C531.429 752.095 525.169 756.815 519.629 757.095C514.089 757.375 502.589 754.315 496.949 752.765C478.629 747.735 459.879 738.605 449.159 722.535C454.899 697.815 460.959 673.105 465.169 648.055L487.199 660.515C495.849 663.775 504.719 667.995 514.169 668.045V668.055Z" fill="#BB5D12"/>
<path d="M409.169 790.055C411.229 793.125 414.059 799.475 414.169 803.055C414.549 814.935 405.279 826.025 394.389 829.775C389.609 831.425 371.089 836.005 367.669 832.045C365.519 829.565 365.949 819.265 366.419 815.805C366.989 811.615 372.519 799.825 372.009 797.745C371.229 794.495 367.019 794.645 364.409 795.795C355.889 799.565 351.839 825.225 355.159 833.045H328.159C324.179 823.445 324.849 816.885 326.239 812.625C328.909 804.475 336.259 798.655 333.969 792.935C333.739 792.365 333.359 791.445 332.459 791.045C329.039 789.525 322.009 797.435 318.869 802.485C312.719 812.385 313.699 823.935 315.139 831.035C312.659 830.425 306.719 828.605 302.519 823.105C295.269 813.625 299.509 801.515 300.319 799.355C304.109 789.305 313.239 783.775 315.819 782.215C321.379 778.845 325.289 778.415 329.669 773.585C332.709 770.225 334.289 766.625 335.139 764.045C358.259 759.555 395.579 769.815 409.139 790.045H409.169V790.055Z" fill="#FDC380"/>
<path d="M159.169 745.055C179.579 745.885 205.109 754.665 217.169 772.055C217.599 772.675 220.059 776.745 220.169 777.055C221.319 780.245 221.049 783.845 222.169 787.055C220.009 792.175 219.029 797.305 215.969 802.355C206.299 818.295 188.379 814.915 172.179 816.045C170.839 808.195 170.809 801.965 172.869 794.255C174.019 789.975 183.219 774.795 171.139 778.465C161.839 781.285 155.859 807.825 161.169 816.055H142.669C141.859 816.055 134.089 814.565 133.659 814.065C129.379 809.075 132.189 793.705 134.489 787.875C135.619 785.015 142.669 775.885 139.229 773.495C131.579 768.175 120.169 788.605 120.169 794.555V810.555C120.169 810.765 121.659 811.685 121.169 812.045C114.749 812.335 108.579 807.825 107.399 801.325C103.959 782.385 116.929 765.885 133.909 759.295C145.239 754.905 152.199 758.205 156.169 744.055C156.649 745.365 158.069 745.015 159.169 745.055Z" fill="#FDC380"/>
<path d="M611.169 817.055C597.319 819.515 583.459 822.755 569.209 822.005C566.629 812.725 567.039 806.055 569.449 796.835C570.709 792.005 578.049 781.625 567.719 783.015C556.839 784.485 553.919 814.685 557.169 823.045H537.669C537.039 823.045 529.919 821.495 529.629 821.085C527.709 813.115 526.919 805.585 529.229 797.595C530.679 792.575 542.019 776.995 527.879 781.245C525.419 781.985 520.829 788.565 519.679 791.045C519.089 792.315 516.179 800.865 516.179 801.545V817.545C516.179 817.715 518.719 821.005 515.699 820.035C502.119 815.655 502.579 798.415 507.399 787.775C517.469 765.535 543.899 763.315 565.179 763.055C578.959 762.885 606.289 765.715 615.169 777.565C623.589 788.795 620.649 807.275 611.179 817.055H611.169Z" fill="#FDC380"/>
<path d="M630.169 359.055C630.369 359.925 630.599 361.205 630.689 362.775C630.689 362.775 630.919 366.825 629.689 370.905C627.999 376.545 618.859 387.125 605.549 388.985C603.429 389.285 598.369 389.755 583.389 384.335C575.859 381.605 565.289 377.195 553.179 370.055C551.859 379.535 548.249 389.795 539.869 395.255C514.549 411.765 486.819 377.315 471.169 361.055C474.439 356.645 477.769 352.305 479.659 347.055C484.609 351.715 490.479 357.035 496.479 360.235C500.109 362.165 504.209 363.095 507.869 364.845C512.029 366.835 513.309 370.805 519.449 369.845C523.469 369.215 522.099 366.375 523.399 365.275C523.929 364.825 532.779 362.625 535.159 361.525C543.959 357.475 550.809 350.315 555.679 342.065C560.049 348.345 565.849 352.565 572.509 356.215C577.409 358.905 591.109 366.725 593.789 358.065C596.239 350.165 576.199 346.055 572.189 340.535C590.949 334.805 617.629 338.185 629.039 355.735C629.809 356.925 629.769 358.245 630.189 359.035L630.169 359.055Z" fill="#DD2828"/>
<path d="M431.819 482.275C425.099 490.535 418.389 498.805 411.669 507.065C376.239 543.155 334.999 577.245 290.829 602.225C283.329 606.465 261.099 618.815 253.539 618.995C249.519 619.095 241.469 612.395 237.849 609.875C209.179 589.955 179.699 560.815 158.789 532.935C157.759 531.555 157.439 529.925 155.169 530.055C154.839 529.025 154.469 527.415 154.639 525.535C154.689 525.015 155.009 524.055 155.669 522.145C155.729 521.955 155.849 521.625 156.079 521.585C156.479 521.525 156.949 522.515 157.179 523.055C172.029 544.245 186.889 558.265 197.499 566.985C204.329 572.595 210.319 576.775 214.919 579.965C233.859 593.155 243.329 599.745 251.699 600.995C256.009 601.635 263.769 601.935 297.419 583.165C311.829 575.125 322.499 569.175 335.489 559.875C380.889 527.365 431.209 470.685 439.689 461.085C438.089 464.885 436.499 468.885 434.979 473.095C433.839 476.235 432.799 479.305 431.839 482.295L431.819 482.275Z" fill="#BB5D12"/>
<path d="M458.299 382.445C461.179 390.125 458.089 401.625 457.529 403.615C456.599 406.965 455.039 411.585 452.349 416.835C451.589 413.405 449.979 408.985 446.159 406.725C438.869 402.415 427.949 408.645 424.159 410.725C397.469 425.315 356.119 436.535 326.359 442.025C316.029 443.925 290.139 448.455 256.469 450.445C234.849 451.715 223.809 452.295 212.449 449.605C184.889 443.065 167.399 426.385 154.589 414.175C148.089 407.975 147.849 406.525 148.169 406.065C149.439 404.215 161.609 408.345 171.519 416.205C177.819 421.205 176.789 422.625 182.689 428.035C197.869 441.955 217.259 444.055 223.819 444.775C227.919 445.215 231.059 445.245 233.969 445.265C239.249 445.305 250.159 445.305 263.119 442.035C273.569 439.395 273.409 437.645 281.889 436.305C290.029 435.015 295.419 435.795 300.639 436.055C304.529 436.245 310.809 436.285 335.809 430.755C370.729 423.035 388.209 419.205 406.909 409.855C419.109 403.755 429.649 396.775 432.079 395.155C441.229 389.045 448.769 383.115 454.669 378.075C454.729 378.025 454.909 377.835 455.179 377.805C456.479 377.665 457.869 381.365 458.279 382.455H458.299V382.445Z" fill="#D87C3D"/>
<path d="M471.169 361.055C486.809 377.305 514.539 411.755 539.869 395.255C548.249 389.795 551.869 379.535 553.179 370.055C564.299 372.275 572.639 381.015 583.389 384.335C600.909 389.755 625.959 380.075 629.759 366.085C630.709 362.595 630.209 359.255 629.399 356.585C631.289 359.085 634.229 363.685 635.259 370.035C636.849 379.845 633.339 390.495 626.529 396.795C614.379 408.035 590.479 406.595 576.649 397.075C571.179 393.315 566.799 388.785 561.809 389.325C557.339 389.805 556.859 396.375 555.009 399.375C539.589 424.385 506.839 421.555 488.159 401.575C482.939 395.995 468.239 375.785 466.599 369.045C465.659 365.175 469.259 363.635 471.189 361.045H471.169V361.055Z" fill="#C11111"/>
<path d="M725.169 500.055C734.399 542.445 726.749 591.445 697.679 625.065C695.149 627.985 684.459 638.905 681.549 639.955C679.719 640.615 680.359 639.515 679.939 638.775C674.119 628.595 670.479 620.015 662.159 611.055C700.309 600.155 722.859 561.625 725.199 523.595C725.679 515.785 724.309 507.785 725.159 500.055H725.169Z" fill="#E28E2E"/>
<path d="M352.169 414.055L350.689 412.065C386.959 400.165 422.929 374.175 443.199 341.575C449.379 331.635 452.989 321.895 457.179 311.055C459.759 316.945 463.149 322.785 466.379 328.355C467.769 330.755 471.369 334.015 471.049 336.305C448.019 380.145 398.499 403.035 352.179 414.055H352.169Z" fill="#BB5D12"/>
<path d="M445.169 797.055C441.409 793.945 433.759 798.745 431.169 794.055C431.669 783.645 440.719 751.915 444.139 740.515C444.359 739.795 443.849 738.285 445.649 739.065C446.609 739.475 454.799 747.405 457.439 749.275C461.289 752.005 478.209 760.415 479.149 761.565C484.129 767.605 474.849 782.915 470.059 787.455C463.009 794.125 454.729 796.405 445.159 797.055H445.169Z" fill="#BB5D12"/>
<path d="M414.039 806.915C414.119 804.435 413.929 800.635 412.389 796.365C411.439 793.725 410.229 791.625 409.159 790.055C417.459 760.745 423.519 730.825 430.849 701.245L443.159 627.055C445.519 628.795 448.829 631.705 451.539 636.165C451.539 636.165 452.419 637.615 453.129 639.145C459.539 652.955 442.119 704.175 442.119 704.175C433.099 730.705 437.929 726.745 421.099 783.715C418.229 793.445 415.749 801.465 414.039 806.915Z" fill="#BB5D12"/>
<path d="M225.169 779.055C223.569 778.415 221.249 774.425 220.169 777.055C220.059 776.745 217.599 772.675 217.169 772.055C225.979 744.245 228.289 724.485 228.959 713.335C229.339 707.105 229.519 703.995 229.019 699.695C227.549 687.075 221.009 668.335 219.639 662.335C219.449 661.505 219.149 659.985 219.269 658.055C219.369 656.515 219.709 655.265 219.989 654.435C223.189 660.085 227.319 666.465 232.639 673.075C239.299 681.345 246.049 687.785 251.929 692.685C246.249 718.045 238.959 743.145 230.179 767.575C228.769 771.505 226.569 775.435 225.159 779.055H225.169Z" fill="#BB5D12"/>
<path d="M674.169 420.045C632.759 412.265 591.779 427.975 550.159 423.555C557.639 419.275 562.489 412.465 566.669 405.075C584.979 419.325 612.149 421.585 631.499 407.885C633.419 406.525 637.619 401.485 638.809 401.255C643.659 400.305 670.659 414.275 674.169 420.045Z" fill="#BB5D12"/>
<path d="M137.159 476.045C137.449 476.385 138.239 482.805 138.909 484.805C140.269 488.905 144.949 498.385 145.099 501.615C145.479 509.705 140.759 524.375 140.129 533.505C139.209 546.975 141.059 560.595 141.159 574.035L136.419 564.285C126.229 538.415 125.429 503.575 135.069 477.435C135.439 476.435 135.719 474.315 137.169 476.035H137.159V476.045Z" fill="#FEAD33"/>
<path d="M281.169 800.555C281.169 800.725 283.719 803.975 280.689 803.045C267.879 799.085 273.179 776.745 279.169 768.565C288.119 756.335 310.599 749.815 325.189 751.595C325.839 766.075 320.209 764.425 310.869 770.265C303.519 774.855 297.059 781.215 293.159 789.055C291.379 788.545 293.699 782.615 294.139 781.525C295.959 776.925 305.509 763.235 292.119 767.515C287.709 768.925 281.169 781.405 281.169 785.565C281.169 790.535 280.919 795.615 281.169 800.565V800.555Z" fill="#FDC380"/>
<path d="M529.169 632.055C524.589 639.635 520.919 647.615 518.099 656.025C514.759 654.975 511.039 654.845 507.689 654.035C507.689 654.035 507.529 653.955 507.359 653.855C505.209 652.615 497.389 646.015 491.649 641.075C485.629 634.585 478.319 629.075 474.179 621.055C483.999 623.575 493.069 627.805 503.159 629.565C512.219 631.145 520.339 630.535 529.179 632.045H529.169V632.055Z" fill="#E28E2E"/>
<path d="M671.759 654.835C674.339 662.595 675.519 669.275 676.109 674.185C677.959 689.725 675.659 702.835 674.159 711.045C673.999 711.925 673.599 713.695 673.159 716.045C670.599 729.875 666.189 743.425 659.329 755.715C655.589 762.415 649.329 766.625 650.159 775.045C649.489 774.405 648.499 773.335 647.649 771.815C647.649 771.815 645.919 768.735 645.809 764.685C645.589 756.245 659.329 729.665 665.379 709.845C668.059 701.065 669.139 693.885 669.939 688.645C672.019 674.895 672.119 663.205 671.769 654.835H671.759Z" fill="#BB5D12"/>
<path d="M499.159 424.065C500.799 425.535 499.009 425.835 497.649 426.025C493.019 426.695 488.479 427.095 483.949 428.335C480.859 429.185 471.079 433.865 469.339 432.855C468.979 432.645 464.799 426.375 464.659 425.985C463.049 421.415 471.809 405.715 470.169 399.045C477.739 408.455 485.349 416.575 495.639 423.105C496.899 423.905 499.029 423.935 499.159 424.055V424.065Z" fill="#BB5D12"/>
<path d="M155.169 530.055C156.299 557.965 155.179 569.545 155.179 569.545C157.239 617.725 166.589 666.185 162.159 714.545C161.239 724.575 157.459 735.415 159.169 745.055C158.069 745.015 156.649 745.365 156.169 744.055C174.249 679.705 146.709 593.825 154.169 527.055C154.289 526.375 154.459 525.525 154.639 525.535C154.989 525.545 155.119 528.895 155.169 530.055Z" fill="#D88D41"/>
<path d="M107.169 192.055C109.379 169.085 115.229 146.625 123.169 125.055C125.089 125.945 123.599 128.255 123.199 129.575C120.789 137.425 117.709 145.075 115.669 153.045C112.359 165.955 111.209 179.545 107.179 192.055H107.169Z" fill="#FEAD33"/>
<path d="M316.169 725.055C318.989 726.145 324.829 726.745 325.159 727.065C325.539 727.435 326.079 736.685 323.169 737.055C319.379 735.195 312.409 728.495 311.179 724.535C310.139 721.175 315.309 724.725 316.169 725.055Z" fill="#BB5D12"/>
<path d="M225.169 779.055C224.109 781.775 223.419 784.085 222.169 787.055C221.049 783.845 221.319 780.245 220.169 777.055C221.249 774.425 223.569 778.415 225.169 779.055Z" fill="#E28E2E"/>
<path d="M316.169 725.055H326.179V738.055C324.749 738.415 324.199 737.565 323.179 737.055C326.099 736.685 325.549 727.425 325.169 727.065C324.829 726.745 318.999 726.145 316.179 725.055H316.169Z" fill="#E28E2E"/>
<path d="M355.169 833.055C355.199 833.115 356.339 832.935 356.169 834.045C351.479 833.295 330.299 835.505 328.169 833.055H355.169Z" fill="#E28E2E"/>
<path d="M451.519 446.405C450.589 447.265 449.869 450.165 448.189 449.565C449.589 448.015 455.889 437.085 456.669 437.075C456.849 437.075 459.149 439.385 459.149 439.555C459.159 440.545 452.729 445.285 451.519 446.405Z" fill="#BB5D12"/>
<path d="M775.169 493.055C773.499 486.255 773.499 476.855 775.169 470.055C775.509 477.255 775.499 485.845 775.169 493.055Z" fill="#E28E2E"/>
<path d="M431.169 794.055C433.759 798.745 441.409 793.945 445.169 797.055C440.549 797.365 435.789 796.835 431.159 797.055C431.169 796.065 431.119 795.055 431.159 794.055H431.169Z" fill="#E28E2E"/>
<path d="M775.169 496.055C775.009 498.725 774.519 501.395 774.169 504.055C772.559 502.135 771.999 494.865 775.169 496.055Z" fill="#E28E2E"/>
<path d="M674.169 711.055C673.919 712.695 673.479 714.395 673.169 716.055C673.499 714.385 673.839 712.725 674.169 711.055Z" fill="#E28E2E"/>
<path d="M775.169 470.055C775.329 473.725 775.419 477.545 775.419 481.505C775.419 485.465 775.329 489.355 775.169 493.055C775.119 494.055 775.229 495.065 775.169 496.055C775.059 497.325 774.919 498.645 774.749 499.985C774.579 501.385 774.379 502.745 774.169 504.055C770.839 529.145 760.339 552.655 745.579 572.965L733.189 586.565C738.319 573.815 739.999 559.695 741.169 546.055C741.399 542.505 741.579 538.855 741.669 535.085C741.729 532.985 741.759 530.915 741.759 528.875C743.319 526.935 745.439 524.145 747.719 520.625C751.599 514.635 754.479 508.785 758.489 498.505C764.389 483.375 767.349 475.805 769.149 465.565C770.829 456.055 771.019 447.985 770.859 442.365C772.079 447.615 773.169 453.325 774.009 459.445C774.509 463.115 774.889 466.655 775.159 470.045H775.169V470.055Z" fill="#BB5D12"/>
<path d="M336.919 151.305C395.909 143.275 400.549 235.755 345.649 240.035C294.189 244.045 290.869 157.575 336.919 151.305ZM370.159 179.055C358.009 150.135 320.339 158.335 313.649 187.035C308.939 207.275 316.789 231.495 341.159 230.045L332.759 223.955C311.099 198.825 340.449 155.005 370.149 179.055H370.159ZM351.899 182.225C345.879 183.465 345.409 193.225 350.869 194.835C363.159 198.465 363.199 179.885 351.899 182.225Z" fill="#452605"/>
<path d="M178.169 230.055C120.339 248.605 117.089 162.235 158.729 150.115C201.489 137.665 214.119 190.285 191.149 218.535C187.229 223.355 180.909 226.995 178.169 230.055ZM190.159 171.055C183.449 154.245 161.039 155.315 149.629 167.015C132.529 184.545 135.959 226.365 166.159 224.045L158.329 216.395C143.589 195.395 163.659 157.345 190.149 171.065H190.159V171.055ZM182.929 180.285C176.349 173.745 166.889 184.995 173.569 190.145C180.129 195.195 188.039 185.375 182.929 180.285Z" fill="#452605"/>
<path d="M371.579 125.365C370.889 125.535 370.669 125.365 368.579 125.245C366.629 125.135 366.269 125.345 365.419 125.185C362.749 124.655 360.879 123.325 360.499 123.055C356.459 120.235 346.529 116.125 339.059 116.715C337.029 116.875 334.959 116.695 332.949 117.035C332.949 117.035 330.309 117.535 327.799 116.835C327.409 116.725 327.099 116.585 326.779 116.325C326.499 116.105 326.259 115.835 326.039 115.555C325.609 114.975 325.319 114.285 325.149 113.585C325.089 113.325 325.059 113.115 325.029 112.925C324.909 111.995 324.999 108.825 324.999 108.825C325.049 107.095 324.909 107.305 324.999 106.895C325.439 104.865 327.889 103.775 328.759 103.375C341.579 97.6146 359.399 104.595 359.399 104.595C361.319 105.345 375.029 110.845 375.689 117.335C375.999 120.335 374.659 122.615 374.659 122.615C374.269 123.275 373.289 124.935 371.559 125.365H371.579Z" fill="#452605"/>
<path d="M194.919 114.805C193.049 116.695 179.599 114.495 174.899 115.295C169.409 116.225 161.329 124.695 156.149 121.565C151.409 118.705 156.849 110.745 159.809 108.205C167.229 101.845 185.699 99.0146 193.519 105.185C196.259 107.345 197.329 112.365 194.909 114.805H194.919Z" fill="#452605"/>
<path d="M667.879 478.215C678.999 474.975 682.849 497.635 670.419 492.285C665.239 490.055 662.459 479.795 667.879 478.215Z" fill="#452605"/>
<path d="M530.389 561.305C534.479 558.945 538.779 561.195 538.229 566.575C536.959 579.105 518.169 577.425 525.709 566.105C525.899 565.825 530.099 561.475 530.389 561.305Z" fill="#452605"/>
<path d="M587.879 477.195C596.089 474.965 603.369 491.515 593.579 492.035C585.709 492.455 581.929 478.815 587.879 477.195Z" fill="#452605"/>
<path d="M518.879 490.215C525.809 488.175 533.089 499.935 527.579 503.975C520.289 509.315 511.199 492.485 518.879 490.215Z" fill="#452605"/>
<path d="M683.879 562.225C693.269 559.435 698.189 580.665 686.109 576.625C681.259 575.005 678.709 563.755 683.879 562.225Z" fill="#452605"/>
<path d="M621.319 542.905C618.059 540.855 621.929 530.865 626.719 530.045C636.459 528.375 634.119 541.755 627.649 543.025C626.479 543.255 622.039 543.365 621.319 542.905Z" fill="#452605"/>
<path d="M205.169 613.055C203.699 615.325 202.599 617.315 201.829 618.845C200.409 621.625 199.699 623.015 199.169 625.055C198.429 627.905 198.649 629.605 198.199 629.655C197.579 629.735 196.839 626.525 195.449 622.525C193.679 617.395 193.029 617.245 191.599 613.305C190.639 610.645 186.199 598.395 190.629 594.875C190.899 594.665 191.689 594.165 192.719 594.015C199.469 593.075 201.499 608.435 205.159 613.045L205.169 613.055Z" fill="#452605"/>
<path d="M210.289 313.735C209.159 317.665 259.219 348.075 293.499 331.885C304.879 326.505 314.009 314.235 316.049 306.415C316.639 304.165 308.719 303.385 308.289 300.365C311.379 280.895 343.339 302.095 336.679 313.065C333.889 317.665 327.099 311.385 326.179 312.055C325.949 312.225 324.879 315.915 323.969 317.365C317.669 327.325 308.189 333.575 303.279 340.675C299.489 346.145 295.229 361.215 291.329 368.725C274.509 401.185 244.539 431.385 205.849 409.855C184.229 397.825 177.669 369.915 175.159 347.045C161.649 347.235 147.339 341.545 138.739 330.965C135.199 326.605 126.049 310.025 134.709 308.075C141.099 306.635 142.469 315.955 145.329 320.365C146.299 321.865 148.889 326.225 153.109 329.145C158.109 332.605 163.439 332.775 168.249 332.875C171.469 332.935 191.209 333.325 195.769 323.065C196.799 320.745 197.379 317.145 195.669 314.805C193.359 311.645 187.839 312.155 186.259 312.205C171.019 312.695 140.749 283.005 146.569 261.645C150.079 248.765 165.239 241.645 177.139 238.525C193.829 234.155 213.589 234.165 230.489 237.195C245.829 239.945 261.479 245.675 266.079 259.225C270.849 273.295 260.159 287.805 258.169 290.425C237.739 308.035 223.579 312.455 214.189 313.015C212.129 313.135 210.469 313.065 210.269 313.725H210.289V313.735ZM233.159 356.055C214.649 353.845 186.819 374.635 203.189 393.525C210.819 402.325 225.659 404.135 236.659 403.035C260.119 400.685 277.189 370.775 285.159 351.045C280.349 352.845 275.449 354.775 270.369 355.745C263.519 357.055 250.919 355.975 246.419 357.795C241.549 359.775 233.589 371.785 232.149 377.035C222.149 376.195 234.039 356.845 233.159 356.045V356.055Z" fill="#452605"/>
<path d="M200.069 485.485C199.839 486.065 197.359 492.215 195.009 494.875C194.179 495.815 193.399 496.275 193.069 496.445C192.609 496.695 191.399 497.345 189.959 497.205C188.529 497.055 187.559 496.195 187.049 495.735C184.999 493.905 182.799 488.645 181.359 481.495C181.489 487.385 181.629 493.265 181.759 499.155C181.829 502.035 181.849 505.085 180.359 507.555C178.909 509.965 175.569 511.305 172.979 509.855C170.039 508.215 168.729 503.625 168.269 500.535C167.739 497.025 168.019 493.455 168.289 489.925C168.899 482.015 168.779 478.565 170.069 466.935C170.609 462.105 170.959 459.815 172.869 458.515C175.339 456.845 179.179 457.645 181.599 459.295C184.659 461.385 185.619 464.935 186.539 468.335C186.539 468.335 188.369 475.085 190.159 479.865C190.279 480.195 190.599 481.005 191.199 481.115C191.719 481.215 192.189 480.805 192.539 480.415C194.699 477.985 195.729 474.785 196.739 471.695C197.749 468.605 198.849 465.415 201.099 463.065C203.349 460.715 207.089 459.475 209.939 461.045C211.879 462.115 213.029 464.255 213.439 466.425C213.849 468.595 213.629 470.835 213.429 473.035C212.379 484.495 211.999 496.015 212.319 507.515C212.369 509.245 212.429 510.985 212.019 512.665C211.619 514.345 210.679 515.975 209.179 516.815C207.079 517.995 204.289 517.335 202.499 515.725C200.709 514.115 199.769 511.745 199.299 509.385C197.729 501.545 200.659 493.475 200.069 485.505V485.485Z" fill="#452605"/>
<path d="M230.869 467.225C233.619 466.285 236.159 465.965 237.699 465.915C241.349 465.805 246.179 467.025 249.749 469.755C255.779 474.355 256.369 481.965 257.229 492.955C257.939 501.975 256.509 507.095 255.439 509.975C254.469 512.575 253.399 515.375 250.679 517.845C245.859 522.215 239.699 522.085 238.409 522.055C230.829 521.845 223.809 517.025 220.649 510.695C219.039 507.475 218.989 503.795 218.869 496.445C218.709 486.025 220.599 480.315 221.109 478.665C222.389 474.525 224.539 470.325 228.339 468.235C228.769 467.995 229.729 467.605 230.849 467.225H230.869ZM236.819 476.955C235.449 477.375 234.279 478.385 233.489 479.595C232.539 481.035 232.049 482.735 231.669 484.425C230.289 490.585 230.139 497.025 231.229 503.255C231.719 506.035 232.569 509.205 235.449 510.325C237.969 511.305 241.239 510.285 242.649 507.955C243.339 506.805 243.609 505.465 243.839 504.145C244.819 498.545 245.179 492.835 244.919 487.155C244.809 484.775 244.569 482.325 243.429 480.235C242.289 478.145 240.019 476.505 237.659 476.785C237.379 476.815 237.099 476.875 236.829 476.965L236.819 476.955Z" fill="#452605"/>
<path d="M335.169 494.555C334.579 492.375 333.769 491.275 331.059 487.325C327.119 481.585 323.209 475.745 321.619 469.075C321.389 468.095 321.209 466.935 321.719 465.765C322.949 462.965 328.639 461.615 332.189 463.545C335.529 465.355 337.269 470.555 339.919 478.255C340.219 479.135 340.809 480.885 341.369 480.835C342.079 480.765 342.229 477.925 342.549 475.825C343.599 468.745 347.629 462.085 352.699 458.625C354.209 457.605 356.539 456.065 359.079 456.745C360.599 457.155 362.049 458.325 362.679 459.825C363.809 462.535 361.859 465.525 359.419 469.575C350.269 484.755 349.099 489.265 348.679 491.565C348.249 493.915 348.209 495.665 348.129 499.065C347.869 510.215 350.259 513.875 347.799 516.795C345.369 519.675 339.639 520.165 336.999 517.925C334.599 515.895 334.829 511.695 335.269 503.465C335.499 499.155 335.969 497.495 335.179 494.565L335.169 494.555Z" fill="#452605"/>
<path d="M289.159 510.055C289.579 509.985 290.649 509.805 291.549 510.385C292.729 511.145 292.909 512.775 293.069 514.365C293.299 516.645 293.539 519.085 292.059 520.765C290.899 522.085 289.189 522.335 287.619 522.515C278.809 523.545 271.979 522.985 270.139 522.825C263.289 522.235 262.119 521.905 261.279 520.835C259.199 518.175 260.389 513.555 260.849 510.575C262.619 499.085 260.419 487.315 261.549 475.735C261.849 472.685 262.639 469.265 265.299 467.735C266.729 466.915 268.449 466.815 270.099 466.825C272.659 466.845 275.589 467.305 276.969 469.465C278.209 471.425 277.869 473.795 277.719 474.655C276.819 479.945 276.169 492.575 275.599 510.775C282.199 510.685 286.669 510.455 289.179 510.055H289.159Z" fill="#452605"/>
<path d="M305.439 468.265C306.549 469.095 307.419 470.305 307.929 471.595C308.809 473.785 308.869 476.205 308.919 478.565C309.129 488.595 309.339 498.625 309.549 508.655C314.989 508.435 319.149 508.245 321.649 508.125C326.369 507.905 327.879 507.815 329.049 508.965C331.349 511.215 330.829 516.705 328.049 518.895C327.419 519.385 326.779 519.635 324.729 520.035C320.339 520.885 317.489 520.925 314.269 521.125C311.259 521.315 308.289 521.965 305.279 522.065C296.819 522.335 294.329 517.375 295.429 509.695C296.769 500.375 296.949 490.885 295.969 481.515C295.649 478.465 295.219 475.315 296.139 472.385C297.049 469.455 299.779 466.835 302.829 467.175C303.789 467.285 304.669 467.675 305.439 468.245V468.265Z" fill="#452605"/>
<path d="M370.159 179.055C340.459 155.015 311.109 198.825 332.769 223.955L341.169 230.045C316.799 231.495 308.939 207.285 313.659 187.035C320.339 158.335 358.009 150.135 370.169 179.055H370.159Z" fill="#FEFEFE"/>
<path d="M351.899 182.225C363.199 179.885 363.159 198.465 350.869 194.835C345.409 193.225 345.879 183.465 351.899 182.225Z" fill="#FEFEFE"/>
<path d="M190.159 171.055C163.659 157.335 143.599 195.385 158.339 216.385L166.169 224.035C135.969 226.355 132.539 184.545 149.639 167.005C161.049 155.305 183.459 154.225 190.169 171.045H190.159V171.055Z" fill="#FEFEFE"/>
<path d="M182.929 180.285C188.039 185.375 180.129 195.185 173.569 190.145C166.879 184.995 176.349 173.755 182.929 180.285Z" fill="#FEFEFE"/>
<path d="M233.159 356.055C234.039 356.855 222.149 376.205 232.149 377.045C233.589 371.795 241.549 359.775 246.419 357.805C250.919 355.975 263.519 357.055 270.369 355.755C275.449 354.785 280.349 352.855 285.159 351.055C277.189 370.785 260.119 400.695 236.659 403.045C225.669 404.145 210.819 402.335 203.189 393.535C186.819 374.635 214.659 353.845 233.159 356.065V356.055Z" fill="#E28966"/>
<path d="M236.629 476.345C238.799 475.705 240.739 476.535 241.209 476.745C246.819 479.255 247.099 488.675 247.229 493.165C247.379 498.195 247.589 505.175 242.839 509.165C242.109 509.775 238.729 512.445 235.539 511.405C231.899 510.225 230.839 504.965 230.179 501.705C228.239 492.125 229.949 478.325 236.639 476.345H236.629Z" fill="#F48F3B"/>
</svg>
