<svg width="32" height="33" viewBox="0 0 32 33" fill="none" xmlns="http://www.w3.org/2000/svg">
<path d="M16.213 7.8237C16.3327 7.6707 16.5643 7.6707 16.684 7.8237L17.5226 8.89524C17.5571 8.93924 17.6031 8.97272 17.6556 8.99187L18.9339 9.45832C19.1164 9.52492 19.1879 9.74514 19.0794 9.9063L18.3195 11.035C18.2883 11.0813 18.2707 11.1355 18.2687 11.1913L18.2201 12.5512C18.2131 12.7453 18.0258 12.8814 17.839 12.828L16.5307 12.4541C16.477 12.4387 16.42 12.4387 16.3663 12.4541L15.058 12.828C14.8712 12.8814 14.6839 12.7453 14.6769 12.5512L14.6283 11.1913C14.6263 11.1355 14.6087 11.0813 14.5775 11.035L13.8176 9.9063C13.7091 9.74514 13.7806 9.52492 13.9631 9.45832L15.2414 8.99187C15.2939 8.97272 15.3399 8.93924 15.3744 8.89524L16.213 7.8237Z" fill="black"/>
<path d="M25.1392 0.139648C26.1698 0.139648 27.0161 0.970716 27.0161 2.0127V3.46289H27.6772C30.0647 3.46296 32.0005 5.39862 32.0005 7.78613V9.95703C32.0004 11.519 31.1592 12.9518 29.8149 13.7158L29.5396 13.8594L26.4468 15.335L26.3521 15.374C26.2802 15.3998 26.2067 15.4152 26.1333 15.4238C24.582 19.045 21.1389 21.6604 17.0464 22.0303V25.0625H19.9243L20.2729 25.0762C21.084 25.1419 21.8633 25.4357 22.5181 25.9268L24.2905 27.2559C26.3361 28.7905 25.2501 32.0465 22.6929 32.0469H9.40088C6.84325 32.0467 5.75805 28.7905 7.8042 27.2559L9.57666 25.9268C10.3249 25.3658 11.2353 25.0625 12.1704 25.0625H15.0464V22.0303C10.9544 21.6601 7.51157 19.0447 5.96045 15.4238C5.88713 15.4152 5.81353 15.3997 5.7417 15.374L5.64697 15.335L2.5542 13.8594L2.27881 13.7158C0.934607 12.9518 0.0933661 11.519 0.0932617 9.95703V7.78613C0.0932617 5.39866 2.02906 3.46302 4.4165 3.46289H5.07764V2.01562C5.07787 0.979735 5.91775 0.140009 6.95361 0.139648H25.1392ZM11.9829 27.0703C11.5471 27.1056 11.1287 27.2636 10.7769 27.5273L9.00439 28.8564C8.49586 29.2378 8.76528 30.0467 9.40088 30.0469H22.6929C23.328 30.0465 23.5981 29.238 23.0903 28.8564L21.3179 27.5273C20.9662 27.2636 20.5474 27.1057 20.1118 27.0703L19.9243 27.0625H12.1704L11.9829 27.0703ZM7.07764 11.1084C7.07769 16.0617 11.0932 20.0778 16.0464 20.0781C20.9998 20.0781 25.0159 16.0627 25.0161 11.1094V2.13965H7.07764V11.1084ZM4.4165 5.46289C3.13363 5.46302 2.09326 6.50323 2.09326 7.78613V9.95703C2.09337 10.7964 2.54572 11.566 3.26807 11.9766L3.41553 12.0537L5.229 12.9189C5.13114 12.3298 5.07764 11.7253 5.07764 11.1084V5.46289H4.4165ZM27.0161 11.1094C27.0161 11.7256 26.9624 12.3294 26.8647 12.918L28.6782 12.0537L28.8257 11.9766C29.5481 11.566 30.0004 10.7964 30.0005 9.95703V7.78613C30.0005 6.50319 28.9602 5.46296 27.6772 5.46289H27.0161V11.1094Z" fill="black"/>
</svg>
