<svg width="268" height="198" viewBox="0 0 268 198" fill="none" xmlns="http://www.w3.org/2000/svg">
<path d="M203.951 5.48527L207.484 9.01834C209.575 11.7003 212.283 15.2269 213.587 18.3328C215.183 22.1421 216.201 26.7319 216.156 30.8592C216.108 35.07 215.17 39.3225 213.6 43.2282C216.917 48.2933 218.777 53.8499 219.044 59.93C219.137 62.053 218.501 65.3227 218.742 66.9704C218.8 67.3623 221.449 73.9724 221.674 74.3225C221.806 74.5248 221.848 74.7689 222.14 74.8203C233.06 74.7336 249.428 86.9195 250.755 97.917C251.092 100.705 250.562 104.482 249.239 106.981C246.958 111.288 241.726 114.375 236.886 114.702C231.259 115.081 227.064 112.589 222.162 110.553C220.367 112.733 217.296 115.775 212.626 117.58C212.456 117.648 211.714 117.93 210.699 118.223C204.417 120.028 192.231 120.786 187.686 114.577C186.395 112.811 186.218 111.747 185.001 110.983C183.581 110.09 178.744 115.268 177.447 116.289C169.931 122.202 160.79 125.995 151.601 128.504L144.576 129.188L142.286 134.928C138.743 139.948 134.324 142.768 128.796 145.206C126.095 145.742 123.484 146.792 120.776 147.303C118.688 147.698 114.963 147.647 113.379 148.418C112.971 148.617 112.862 148.98 112.737 149.06C112.737 149.06 112.698 149.098 112.415 149.381C111.06 150.736 108.6 151.951 108.6 151.951C105.677 153.396 102.192 154.334 101.495 154.52C97.9973 155.31 88.2332 156.839 80.6178 151.308C79.8212 150.73 78.9701 149.741 78.2089 149.073C75.3471 151.372 71.9778 153.129 68.7338 154.841C58.1988 158.268 53.0855 160.003 50.426 160.944C50.243 161.008 49.9121 161.127 49.4625 161.265C47.7537 161.792 42.9841 163.26 38.6802 161.853C35.0764 160.674 33.1139 157.905 31.3603 155.435C28.582 151.52 27.6505 147.586 27.294 145.206C26.8347 145.479 26.1442 145.842 25.2641 146.153C23.6196 146.731 22.261 146.783 21.4002 146.812C17.3982 146.934 11.7934 145.366 11.2378 145.209C7.03342 143.593 1.49933 140.674 0.317357 135.894C-1.67723 127.826 6.10518 117.156 13.1649 113.726C10.4926 109.509 8.96055 105.388 8.3535 100.4C8.20576 99.1793 8.51731 97.7757 8.32781 96.5712C8.15115 95.4374 7.12014 94.567 7.03984 93.3336C6.87925 90.8348 7.76252 88.0533 7.23898 85.1337C6.44885 80.743 2.8419 75.7293 1.69847 71.0817C-2.21682 55.1732 8.68433 41.285 19.5887 31.19C21.6122 29.6708 24.4611 27.5959 27.9653 25.2737C29.128 24.5029 36.1042 19.9034 41.4231 17.2119C57.6367 9.01513 79.2078 10.3159 87.1508 11.3213C88.5897 11.5043 92.6816 12.6478 93.6099 12.5546C94.2619 12.4872 96.719 10.6885 97.7371 10.2517C104.639 7.29998 116.148 5.51739 123.975 6.45526C127.572 6.88565 126.435 7.34816 130.078 6.13407C131.423 5.6844 132.772 5.18977 134.179 4.93603C140.982 3.70588 154.771 3.61274 160.199 6.10837C164.339 8.00981 165.54 8.17041 170.075 8.71C172.051 8.94447 173.461 9.27851 175.446 10.0815C180.019 11.9315 182.615 13.9647 184.42 18.76C184.805 19.7846 185.338 20.7931 185.001 21.8723C188.467 22.0201 191.685 23.6613 194.813 25.0617C194.913 25.0617 195.571 23.8765 195.603 23.6132C195.953 20.8574 194.63 16.5534 193.673 13.8426C193.211 12.5289 192.966 10.8652 191.746 9.98834C191.078 8.74212 188.46 5.56556 188.357 4.70478C188.335 4.5217 188.399 2.1706 188.447 2.04534C188.72 1.34514 190.117 0.45545 190.837 0.246678C195.279 -1.0445 200.553 3.0346 203.951 5.49169V5.48527ZM205.236 33.7499C206.993 35.7091 208.306 38.33 210.693 39.8525C212.98 32.6514 212.241 24.6249 208.615 18.0052C206.839 14.758 204.715 12.4486 202.024 9.98191C201.912 9.87913 201.815 9.76029 201.703 9.66072C201.516 9.49692 201.33 9.25281 201.06 9.01834C199.091 7.31604 195.982 5.20904 193.355 5.32146C198.552 11.5879 200.434 19.7364 199.169 27.7565C201.375 29.568 203.338 31.63 205.239 33.7467L205.236 33.7499ZM170.869 17.6904C162.01 6.52271 145.787 7.16509 132.968 9.02156C132.744 10.0879 133.53 9.48728 133.932 9.66072C135.104 10.1682 140.699 13.1585 140.95 14.0706C141.082 14.546 140.793 14.7805 140.677 15.1209C137.407 14.6295 134.279 12.9722 131.041 12.0696C120.644 9.17251 109.987 10.0783 99.8217 13.5439C99.5005 13.6531 99.4202 14.2666 98.9288 14.1638L106.313 17.3693C107.822 18.1626 112.528 21.8241 113.617 22.1068C115.123 22.4986 116.334 21.8563 117.664 21.8884C125.735 22.0779 129.599 28.7682 135.795 30.4416C143.95 32.645 153.589 32.1279 149.998 20.8991C152.844 24.262 153.023 27.0435 157.485 28.9867C162.425 31.1386 175.208 31.5465 179.069 27.3293C185.094 20.7482 177.389 12.5611 170.229 12.7056C171.37 14.5396 174.093 16.8425 170.869 17.6872V17.6904ZM68.7306 15.4421C67.9822 15.4646 67.2274 15.41 66.4823 15.4421C36.162 16.7943 19.9163 39.8107 18.6123 68.5828C18.3521 74.2968 19.3382 78.6681 16.8554 84.1701C16.2804 85.442 15.182 86.7685 14.5974 88.0147C12.2977 92.9161 11.8448 98.9095 13.4893 104.09C15.3811 110.061 20.1219 114.677 25.4793 117.635C27.5927 118.801 29.8956 119.539 31.9641 120.789C33.0304 120.901 32.0123 119.796 31.8806 119.266C31.675 118.428 31.5433 117.811 31.4759 116.941C31.2511 113.992 31.8292 111.381 32.6 108.58C28.1419 105.555 24.535 103.541 23.5907 97.689C23.4173 96.6226 23.398 93.2308 25.3894 94.5991C25.6303 94.7629 27.1238 98.9287 27.8175 99.8827C29.507 102.205 33.2906 103.204 36.056 102.735C36.692 102.626 39.0527 101.665 39.1009 101.049C39.1138 100.904 38.1341 98.4437 38.0442 98.3249C37.7905 97.9877 34.736 96.735 33.7178 95.9063C28.8004 91.9075 27.3743 85.1819 33.1011 81.1477C38.3301 77.4637 52.896 79.4101 55.3948 86.1133C58.2373 93.748 46.4979 98.7521 40.4692 98.312C44.757 108.577 60.1548 109.807 69.2734 106.075C69.7648 105.873 72.3022 104.646 72.4467 104.421C72.9092 103.702 71.6052 102.642 71.7915 101.473C72.1159 99.4298 79.3748 100.804 79.6446 103.952C79.8341 106.172 77.4284 105.266 76.1276 105.866C75.5398 106.136 75.286 107.048 74.8075 107.437C71.5121 110.087 68.6117 110.488 65.1333 112.216C61.4428 114.054 57.1871 119.854 54.9227 123.365C54.2803 123.519 53.8242 124.887 52.9955 125.131C52.9827 125.453 53.4516 125.224 53.6379 125.292C54.5565 125.62 54.64 125.565 55.5651 125.613C55.883 125.629 56.2074 125.603 56.5286 125.613C58.3273 125.668 60.627 125.844 62.31 125.292H63.916C65.5926 125.626 71.2423 124.447 73.5516 124.007C75.6779 123.602 77.6243 123.031 79.6542 122.401C83.6048 121.698 87.5876 120.217 91.217 118.547C96.8153 115.971 106.21 110.321 109.139 104.832C109.31 104.514 109.859 103.686 109.714 102.693C109.563 101.668 108.77 101.016 108.503 100.772C107.533 99.8923 106.512 98.0487 106.316 93.8154L105.105 84.9602C106.4 71.8429 106.416 58.4782 103.104 45.6371C105.285 44.3234 106.535 47.7023 107.235 49.3757C108.552 52.5234 109.493 57.02 110.17 60.4118V63.6237C110.17 71.9007 109.306 80.9165 110.17 88.9976C111.169 98.3442 117.24 109.062 127.662 109.888C136.466 110.585 135.592 104.161 139.196 98.5947C141.011 95.7875 143.548 94.0113 145.665 91.5735C151.401 84.9699 156.088 76.0569 152.888 67.1599C152.14 62.5059 150.004 57.945 147.688 53.8916C141.319 42.7592 125.726 24.4772 111.455 26.369C109.875 24.641 107.517 23.5072 105.353 22.5147C97.1012 18.1208 87.7289 15.8372 78.3727 15.4485C77.8395 15.4261 77.2999 15.4646 76.7667 15.4485C74.8974 14.88 72.4917 15.1017 70.5003 15.1209C69.9575 15.1274 69.071 14.9154 68.737 15.4485L68.7306 15.4421ZM183.395 28.6109C182.993 29.1922 182.48 30.0723 182.11 30.538C181.837 30.8785 180.938 31.2029 180.825 31.8195C183.935 31.6172 187.015 31.4534 190.14 31.5016C192.78 31.5433 195.244 31.5401 197.845 32.1407C197.665 31.6493 196.718 31.2735 196.246 31.0134C194.29 29.9342 186.713 26.5135 184.837 26.6741C183.941 26.7512 183.822 27.9878 183.395 28.6109ZM23.443 34.7135C13.682 42.0205 4.6502 54.8841 5.44353 67.6482C5.65873 71.1138 7.00451 74.4124 8.34065 77.5986C8.73893 78.5493 9.2175 79.9625 9.95302 80.6435C10.059 80.9133 9.92412 81.4978 10.2003 81.8286L11.5558 84.1765C13.454 80.5792 14.1574 76.4776 14.4465 72.4531C15.2109 61.8282 15.2944 54.8713 19.2675 44.6735C19.4763 44.1371 19.685 43.5975 19.9099 43.0676C21.413 39.5506 23.1796 36.4093 25.3637 33.2681C24.5254 33.2135 23.8669 34.4019 23.443 34.7167V34.7135ZM177.935 35.3558C176.759 35.4618 175.558 35.7605 174.402 35.9982C172.732 35.2145 165.457 35.7477 162.987 35.6899C161.153 35.6481 159.402 35.2852 157.379 35.3558C156.11 34.4661 154.167 35.3012 152.882 35.3558C148.572 35.5453 144.194 35.2755 140.035 36.6438C139.794 36.9553 143.266 40.1287 143.568 40.4949C154.379 53.5929 164.198 71.9778 153.846 88.352C152.567 90.3755 145.691 97.5894 145.488 98.8067C145.138 100.923 147.467 105.818 146.767 108.372C158.044 113.125 172.433 110.283 183.562 106.024C200.412 99.5743 212.742 83.7783 214.55 65.7082C214.849 62.734 215.071 55.8284 213.59 53.3456C213.542 53.0501 213.661 52.6358 213.59 52.382C212.023 46.6007 205.991 39.5056 200.537 37.01C194.197 34.1096 184.808 34.7295 177.938 35.359L177.935 35.3558ZM192.388 107.302C192.045 107.533 190.288 108.24 190.198 108.33C190.021 108.507 190.188 108.812 190.14 108.908C188.232 109.981 188.785 110.578 190.484 111.937C195.883 116.254 204.343 115.977 210.375 113.726C211.412 113.34 212.62 112.936 213.587 112.441C217.557 110.405 220.64 105.979 222.085 101.829C222.394 100.943 223.283 96.4909 223.759 96.3689C226.058 95.7811 226.232 99.9437 226.03 101.601C225.904 102.642 224.507 106.204 224.546 106.454C224.668 107.203 227.844 108.622 228.683 108.908C228.779 108.94 228.907 108.876 229.004 108.908C230.073 109.329 231.837 110.273 232.858 110.514C235.813 111.205 238.039 110.427 240.891 109.868C241.492 109.393 240.804 109.31 240.403 109.239C238.463 108.889 232.73 107.501 233.182 104.733C233.786 104.546 234.348 104.983 234.788 105.054C234.894 105.07 235.007 105.035 235.11 105.054C239.545 106.897 245.728 108.423 246.351 101.842C243.846 102.153 239.873 100.785 238.016 99.0926C237.236 98.3795 236.484 97.2682 238.074 97.4159C239.805 97.5733 244.53 99.8698 246.049 98.8099C247.26 97.962 245.359 94.2908 244.8 93.2758C240.962 86.2932 231.185 79.3619 223.226 78.3983C222.843 78.7517 226.087 82.6959 224.279 84.1926C223.65 84.7161 222.863 84.851 222.153 84.4624C220.544 83.5759 218.671 77.4573 218.087 75.5076C217.948 75.0483 217.971 73.9499 217.447 73.9049C215.745 81.8543 211.319 89.6207 206.193 95.8967C202.001 101.029 197.778 103.666 192.391 107.309L192.388 107.302ZM36.5346 82.9753C30.9459 83.7975 35.934 86.7332 39.6244 86.3927C40.9767 86.2675 43.9187 85.3136 42.0591 83.7076C40.906 82.7119 37.9928 82.7633 36.5346 82.9753ZM104.061 116.617C103.644 116.951 102.85 117.079 102.78 117.577C104.196 117.606 107.835 117.506 108.882 118.383C109.213 118.659 109.316 118.781 108.886 119.032C107.884 119.617 104.948 119.806 103.605 120.175C98.3538 121.621 94.6473 123.821 90.2502 126.895C86.0202 129.856 80.849 133.765 79.651 139.1C79.1339 141.4 79.1018 142.607 80.2356 144.778C80.3994 145.093 81.7484 147.338 82.2205 146.805C81.9957 145.655 82.0824 144.733 82.2205 143.593C82.6156 140.346 84.5138 135.971 87.9987 135.242C88.2107 136.855 86.9259 138.056 86.3382 139.521C85.4099 141.83 85.1497 143.111 85.4324 145.52C86.1005 151.202 88.2492 149.77 93.1377 150.659C92.733 149.535 92.2384 148.719 92.1774 147.448C92.0071 143.995 93.8861 139.498 96.992 137.812C96.7993 141.525 94.5638 143.837 95.7104 147.769C96.1697 149.343 97.0434 150.178 98.7585 150.348C100.284 150.502 104.813 149.217 106.278 148.54C107.945 147.766 108.924 145.867 110.684 144.917C112.467 143.956 113.321 144.229 114.982 143.914C122.003 142.588 128.928 141.673 134.574 136.848C135.384 136.155 136.261 135.538 136.823 134.6C136.925 134.491 137.044 134.391 137.144 134.279C137.976 133.334 138.576 132.573 139.071 131.388C139.109 131.298 139.036 131.16 139.071 131.067C141.416 127.717 141.657 123.162 141.64 119.183C142.247 114.359 142.691 109.284 142.28 104.411C141.541 104.257 141.766 104.485 141.557 104.819C141.082 105.584 140.902 106.676 140.414 107.521C135.178 116.536 125.497 116.613 117.445 111.102C116.703 110.594 113.193 107.231 112.907 107.302C110.578 110.928 107.405 113.931 104.061 116.617ZM37.5753 108.908C33.1364 113.353 35.9179 122.533 42.3738 123.863C49.1381 125.257 52.3756 118.666 56.2042 114.689C56.5672 114.314 59.4739 112.191 59.0917 111.799C58.7191 111.924 58.4525 112.136 58.0125 112.097C54.9837 111.831 51.9324 111.153 48.9678 110.504C47.9914 110.517 47.0054 111.253 46.2474 111.799C44.9851 112.705 44.6093 113.559 43.6714 114.522C43.3663 114.837 43.2507 115.13 42.7175 115.007C42.1137 114.577 42.7175 111.474 43.0355 110.832C43.1479 110.601 44.635 109.21 44.635 109.065C42.0623 107.867 39.8204 106.653 37.5753 108.905V108.908ZM168.62 117.58C171.273 116.17 173.991 114.336 176.329 112.444C166.664 115.261 156.184 116.218 146.461 113.084C146.49 114.147 146.413 115.232 146.461 116.295C145.899 117.86 146.359 119.629 146.14 121.113C145.989 121.145 145.832 121.29 145.819 121.434C145.723 122.613 145.848 123.795 145.498 124.964C152.31 124.486 159.033 122.244 165.09 119.186C165.315 119.083 165.521 118.961 165.733 118.865C166.684 118.537 167.74 118.049 168.624 117.58H168.62ZM14.4497 118.865C9.27531 120.917 4.1395 127.935 4.49281 133.64C4.64698 136.113 5.72618 137.529 7.54732 139.097C8.43059 139.174 7.80748 138.904 7.785 138.541C7.72076 137.571 7.5955 136.53 7.7047 135.567C7.94559 133.444 9.63505 129.464 11.2217 128.003C11.7356 127.531 13.894 126.182 13.7591 127.64C13.6917 128.401 11.7292 131.382 11.3245 132.602C10.7945 134.198 10.801 135.037 10.9166 136.53C11.2892 141.335 12.6028 141.75 17.3404 141.669C17.4656 141.544 17.2536 138.779 17.3404 138.136C17.456 137.263 18.2525 134.998 18.6829 134.179C19.1679 133.254 21.6058 130.322 21.4998 132.798C21.4355 134.34 20.2118 136.373 20.2311 138.139C20.2439 139.402 20.5779 140.279 21.1625 140.847C22.4858 142.135 24.5735 141.708 24.8626 141.644C25.4151 141.525 26.2823 141.339 26.7127 140.632C27.0788 140.034 26.9439 139.363 26.6613 138.245C25.8615 135.111 24.9782 132.83 24.9782 132.83C24.6699 132.034 24.262 130.999 23.7674 129.789C23.6549 129.57 23.5714 129.371 23.4462 129.146C22.9291 127.444 21.9976 125.594 21.8627 123.795C21.8017 122.995 22.2256 122.103 22.1164 121.656C21.9366 120.914 19.9837 120.095 19.2707 119.832C16.9838 118.152 17.6102 117.616 14.4529 118.868L14.4497 118.865ZM37.2541 156.123C40.3118 158.985 45.0686 157.71 48.8201 156.929C55.7289 155.49 64.4684 152.619 70.3365 148.735C71.011 148.289 71.7787 147.99 72.4178 147.441C75.8385 144.496 74.2871 140.825 75.7421 136.954C77.1329 133.248 80.454 129.962 82.8629 126.895C78.2153 128.022 73.6351 129.487 68.8526 130.065C61.34 130.971 52.6744 129.952 45.1296 129.137C41.2689 128.719 39.2711 127.222 35.9629 126.098C33.0433 125.106 29.886 124.45 26.9792 123.362C26.7544 126.718 28.9867 129.557 29.7896 132.593C31.9095 140.629 30.4192 149.725 37.2573 156.12L37.2541 156.123Z" fill="#442809"/>
<path d="M112.412 149.378C112.528 149.301 112.615 149.134 112.733 149.057L112.412 149.378Z" fill="#7CAF53"/>
<path d="M13.4861 104.09L13.8427 96.2563C14.4722 90.6965 16.6402 88.1013 18.9142 83.5982C23.1475 75.2281 21.3874 62.9811 24.1785 53.278C33.5283 20.8058 60.8165 14.9409 91.2717 20.3626C94.0885 20.8636 96.8443 22.2287 99.5648 21.5446C99.7607 21.3326 98.6686 20.0575 99.7286 20.2566C101.424 20.8219 103.178 22.0006 104.746 22.6816C105.153 22.8582 105.317 22.4985 105.346 22.5113C107.511 23.5038 109.868 24.6376 111.449 26.3656C110.273 26.5198 110.264 27.114 109.843 27.3292C104.032 30.3002 100.894 38.5258 102.468 44.834C102.642 45.5245 103.085 45.5888 103.098 45.6369C106.406 58.4781 106.393 71.8427 105.099 84.9601L106.31 93.8153C106.262 93.8217 106.143 94.0979 105.995 94.1397L104.707 87.0703C104.106 93.3174 101.871 99.632 97.9492 104.565C92.8326 110.999 88.5865 113.279 81.5782 116.941C89.1486 108.934 87.6197 99.3526 79.4808 92.5401C77.1265 90.568 74.3032 89.1548 71.8429 87.3305C59.9557 78.5427 53.3585 72.3052 37.6524 78.3725C24.8145 83.3316 17.4882 90.3111 21.927 105.128C23.3177 109.769 26.5874 115.489 31.4727 116.941C31.5402 117.811 31.6719 118.431 31.8774 119.266C32.0091 119.799 33.0273 120.901 31.9609 120.789C29.8957 119.542 27.5895 118.804 25.4761 117.635C20.1187 114.676 15.3812 110.061 13.4861 104.09ZM42.3931 45.9549C43.5591 46.1412 43.0002 44.9528 42.7304 44.4935C41.3428 42.152 34.903 42.3672 32.7767 43.5781C32.5455 43.7098 32.4716 44.2012 32.2115 44.365C31.6783 44.7055 30.628 44.3201 30.8303 45.3125C29.6034 46.138 28.6077 47.2589 29.385 48.8488C30.1944 50.4965 32.5551 48.6497 33.6375 48.2803C36.615 47.2654 37.6845 47.5062 40.6105 47.2204C41.2144 47.1626 41.7283 46.6358 42.072 46.5973C42.0944 46.5973 42.1715 46.9634 42.3867 46.9217C42.406 46.7097 42.3803 46.4913 42.3931 46.2761C42.3996 46.1701 42.3964 46.0609 42.3931 45.9549ZM75.0613 47.3071C73.3333 47.6925 72.601 50.0629 74.0559 51.0682C74.6533 51.4826 78.286 51.6239 79.5997 51.9483C80.4283 52.1539 81.4529 52.4943 82.2141 52.8669C83.9325 53.7052 86.0844 56.7886 87.6711 56.0756C90.1764 54.9482 87.3275 51.6689 86.078 50.6089C83.5985 48.5051 78.2667 46.5909 75.0613 47.3071ZM27.4129 73.7827C31.2768 77.7558 40.7165 75.652 42.6437 70.4584C42.9777 69.5559 43.498 67.8889 42.1619 67.5195C40.4467 67.0442 38.9885 69.8803 37.6877 70.6383C35.8088 71.7367 32.5102 72.029 30.7115 70.6415C29.3304 69.5784 29.7672 66.633 27.3583 67.3589C24.5639 68.2037 25.9129 72.241 27.4097 73.7795L27.4129 73.7827ZM68.5925 76.6027C71.9136 81.5876 77.6276 83.7653 83.3511 81.2953C85.6348 80.3093 89.412 76.8147 87.1861 74.2324C85.2719 72.0097 82.9368 76.0696 80.8427 76.8629C77.5633 78.1059 74.1812 76.9721 71.9457 74.3737C70.934 73.1949 69.5657 69.4113 67.7574 71.8106C66.948 72.8802 67.4137 74.6981 67.9116 75.8512C68.1621 76.4261 68.4576 76.41 68.5893 76.606L68.5925 76.6027Z" fill="#D88D41"/>
<path d="M109.843 27.326L110.051 28.8837C116.401 28.8805 121.418 30.6695 126.516 34.2604C133.428 39.1297 138.984 45.7558 143.834 52.5939C146.288 56.0563 151.559 63.4661 152.882 67.1534C156.081 76.0503 151.395 84.9633 145.658 91.5669C143.542 94.0048 141.004 95.7809 139.19 98.5881C135.586 104.158 136.46 110.578 127.656 109.881C117.23 109.056 111.163 98.3408 110.164 88.991C110.761 88.657 110.453 87.8379 110.395 87.3208C109.403 78.3468 111.953 69.3567 110.164 60.4052C109.486 57.0134 108.545 52.5168 107.228 49.3692C106.528 47.6958 105.279 44.3169 103.098 45.6305C103.085 45.5823 102.642 45.5181 102.468 44.8275C100.894 38.5226 104.032 30.297 109.843 27.3228V27.326Z" fill="#A8602F"/>
<path d="M81.5781 116.938C79.9946 117.766 79.0375 118.457 77.4026 119.186C71.8782 121.653 65.9266 122.847 59.8946 123.358C58.4654 123.48 56.1014 123.079 54.9194 123.358C57.1838 119.848 61.4396 114.047 65.13 112.21C68.6053 110.482 71.5088 110.077 74.8042 107.43C75.286 107.042 75.5365 106.133 76.1243 105.86C77.4251 105.259 79.8308 106.165 79.6413 103.946C79.3715 100.798 72.1127 99.4232 71.7883 101.466C71.602 102.635 72.906 103.698 72.4435 104.414C72.299 104.639 69.7616 105.869 69.2701 106.069C60.1548 109.801 44.757 108.567 40.4659 98.3054C46.4946 98.7455 58.2341 93.7413 55.3916 86.1067C52.8959 79.4035 38.33 77.4571 33.0979 81.1411C27.3711 85.1752 28.7971 91.9009 33.7145 95.8997C34.7327 96.7284 37.7904 97.981 38.041 98.3183C38.1277 98.4339 39.1073 100.894 39.0977 101.042C39.0463 101.659 36.6855 102.619 36.0528 102.728C33.2874 103.197 29.5038 102.198 27.8143 99.8761C27.1205 98.9221 25.627 94.7595 25.3861 94.5925C23.3947 93.2242 23.414 96.616 23.5875 97.6823C24.5317 103.534 28.1387 105.548 32.5968 108.574C31.8259 111.375 31.2478 113.989 31.4726 116.934C26.5874 115.483 23.3177 109.762 21.9269 105.121C17.4849 90.3046 24.8144 83.3252 37.6523 78.366C53.3585 72.2988 59.9557 78.5363 71.8429 87.324C74.3064 89.1451 77.1264 90.5616 79.4807 92.5337C87.6197 99.3461 89.1485 108.927 81.5781 116.934V116.938Z" fill="#FDC586"/>
<path d="M133.932 9.66073C134.526 9.15646 134.86 9.46159 135.422 9.59328C141.004 10.9102 146.111 12.5386 151.344 14.8929C156.364 17.1509 164.197 23.0415 169.722 18.9495C170.512 18.3649 169.683 17.9988 170.869 17.6904C174.093 16.8489 171.366 14.5428 170.229 12.7088C177.389 12.5643 185.091 20.7482 179.069 27.3325C175.208 31.5497 162.425 31.1386 157.485 28.9899C153.023 27.0467 152.843 24.2652 149.998 20.9023C153.589 32.1279 143.95 32.6482 135.795 30.4449C129.596 28.7683 125.735 22.0811 117.664 21.8916C116.334 21.8595 115.123 22.5019 113.617 22.11C112.525 21.8274 107.822 18.1626 106.313 17.3725C106.204 15.6894 109.512 14.986 110.813 14.6456C116.344 13.197 119.363 13.8426 124.608 15.6188C128.931 17.0834 133.302 20.1957 137.96 19.6304C140.018 19.3799 143.124 16.6755 140.041 16.0845C140.507 15.4967 140.429 15.8565 140.68 15.1242C140.796 14.7837 141.085 14.5492 140.953 14.0739C140.703 13.1617 135.107 10.1714 133.935 9.66394L133.932 9.66073Z" fill="#C11111"/>
<path d="M37.254 156.123C30.4159 149.725 31.9094 140.632 29.7864 132.596C28.9866 129.56 26.7543 126.721 26.976 123.365C29.8859 124.454 33.04 125.109 35.9596 126.101C39.2646 127.225 41.2657 128.722 45.1263 129.14C52.6711 129.956 61.3367 130.977 68.8494 130.068C73.6319 129.49 78.212 128.025 82.8596 126.898C80.4475 129.962 77.1296 133.251 75.7389 136.957C74.2871 140.828 75.8352 144.499 72.4146 147.444C71.7786 147.994 71.011 148.289 70.3332 148.739C70.4424 147.672 70.1052 148.289 69.4949 148.379C60.431 149.715 51.3221 156.235 41.256 156.454C39.7368 156.486 38.5998 155.725 37.254 156.126V156.123ZM37.8964 137.815V131.231C37.8964 130.518 35.4586 129.31 34.2348 131.102C33.358 132.384 32.2435 139.286 32.449 140.837C32.7381 143.002 35.0057 142.386 35.0057 141.83V136.851C36.3354 137.892 35.0988 142.71 37.4724 142.906C38.0313 142.951 38.5131 142.183 38.8118 141.782L40.4627 138.139C40.4787 139.498 38.7026 143.362 40.1447 144.085C40.5526 144.29 41.0472 144.374 41.4487 144.097C41.8502 143.821 43.8705 136.055 43.9701 135.05C44.2366 132.345 43.3084 131.388 40.6233 132.352L37.8964 137.815ZM48.0909 133.045C44.7795 133.636 42.4059 143.616 46.5942 145.976C51.5565 148.777 53.1272 138.666 51.942 135.49C51.457 134.192 49.4592 132.798 48.0909 133.042V133.045ZM70.6544 146.481C70.9692 146.156 70.8761 141.801 71.0527 140.937C71.3193 139.639 75.8191 133.614 72.7293 133.302C71.1459 133.142 71.0527 136.611 69.8547 137.491C68.9425 136.318 68.9361 133.624 66.9768 133.942C65.0176 134.259 67.8633 138.891 68.0721 140.24C68.2648 141.499 67.6128 146.115 68.6181 146.439C68.92 146.535 70.587 146.555 70.6576 146.481H70.6544ZM55.8894 145.193C55.7416 145.035 56.1592 141.396 56.2266 140.889C56.5446 138.525 59.0242 132.833 54.277 134.834L53.3777 146.577C53.7246 147.753 57.3861 147.669 58.2373 147.46C58.7544 147.332 58.7833 145.874 58.3786 145.585C58.0221 145.328 55.9729 145.283 55.8862 145.19L55.8894 145.193ZM63.2671 144.881C62.6183 144.242 64.4073 137.105 63.8645 135.448C63.5722 134.555 61.8025 135.014 61.0188 134.921C61.5038 136.707 60.0745 146.661 60.9995 147.309C61.4716 147.64 65.5026 147.451 65.8013 147.094C65.994 146.863 65.904 145.276 65.5379 145.019C65.0111 144.65 63.4084 145.019 63.2671 144.881Z" fill="#F48F3B"/>
<path d="M218.083 75.5042C218.671 77.4538 220.54 83.5725 222.15 84.4589C222.859 84.8508 223.646 84.7127 224.276 84.1891C226.081 82.6892 222.84 78.745 223.222 78.3949C231.181 79.3585 240.958 86.2897 244.797 93.2724C245.355 94.2905 247.257 97.9617 246.046 98.8064C244.53 99.8664 239.802 97.5699 238.071 97.4125C236.484 97.2679 237.236 98.3793 238.013 99.0891C239.866 100.782 243.843 102.15 246.348 101.838C245.725 108.42 239.542 106.891 235.106 105.05C237.637 105.535 240.393 106.319 242.988 106.027C243.47 105.972 243.978 105.959 244.1 105.375C241.649 105.188 238.707 104.495 236.397 103.599C232.678 102.16 229.746 99.2433 226.116 97.663C226.608 99.4328 226.73 101.071 226.354 102.879C226.145 103.884 224.941 106.069 225.175 106.772C225.496 107.726 228.676 107.581 228.686 108.905C227.847 108.616 224.671 107.196 224.549 106.451C224.507 106.2 225.907 102.638 226.033 101.598C226.232 99.9402 226.062 95.7776 223.762 96.3654C223.287 96.4874 222.397 100.939 222.089 101.826C220.643 105.975 217.56 110.405 213.59 112.438C212.533 111.831 211.027 112.386 210.044 111.561C205.233 107.53 211.823 99.9338 213.85 96.1534C215.495 93.0861 220.023 84.2694 219.67 81.1507C219.525 79.8884 218.591 78.154 218.128 76.9046C217.977 76.4935 217.415 75.8061 218.087 75.501L218.083 75.5042Z" fill="#D9943E"/>
<path d="M104.061 116.617C103.882 117.59 104.553 117.237 105.169 117.259C110.145 117.442 112.823 114.786 117.712 115.329C119.501 115.528 121.534 116.662 123.33 117.098C127.656 118.155 132.034 118.447 136.177 116.617C136.045 123.657 133.865 130.72 127.511 134.446C123.024 137.08 116.851 138.3 111.767 139.097C110.283 130.665 98.4599 125.771 90.761 127.248L90.2471 126.891C94.6409 123.814 98.3507 121.618 103.602 120.172C104.945 119.803 107.88 119.613 108.882 119.029C109.313 118.778 109.21 118.656 108.879 118.38C107.832 117.503 104.193 117.606 102.777 117.574C102.847 117.076 103.644 116.947 104.058 116.613L104.061 116.617Z" fill="#D88D41"/>
<path d="M111.77 139.1C111.805 139.299 111.741 139.537 111.77 139.743C108.532 141.625 104.302 146.751 100.612 147.374C98.9833 147.65 97.2553 147.095 95.7104 147.772C94.5637 143.841 96.7992 141.528 96.9919 137.815C93.886 139.502 92.0071 143.998 92.1773 147.451C91.7886 147.146 91.3358 147.204 90.8925 147.13C89.1164 146.831 87.353 146.372 85.7535 145.524H85.4323C85.1497 143.115 85.4066 141.834 86.3381 139.524C86.9259 138.063 88.2138 136.862 87.9986 135.246C84.5105 135.975 82.6155 140.35 82.2204 143.597C80.3029 143.019 79.4004 140.973 79.6509 139.1C80.849 133.765 86.0201 129.856 90.2502 126.895L90.7641 127.252C98.463 125.774 110.286 130.669 111.77 139.1Z" fill="#FDC586"/>
<path d="M66.4823 15.442C66.8163 15.9751 67.6996 15.7632 68.2456 15.7696C71.0271 15.7985 73.8247 15.8049 76.6062 15.7696C77.149 15.7632 78.0355 15.9751 78.3695 15.442C87.7257 15.8306 97.098 18.1143 105.349 22.5081C105.32 22.4953 105.157 22.855 104.749 22.6784C103.185 21.9974 101.431 20.8219 99.7318 20.2534C98.6751 20.0542 99.7639 21.3294 99.568 21.5413C96.8475 22.2255 94.0949 20.8604 91.2749 20.3594C60.8197 14.9377 33.5315 20.8026 24.1817 53.2748C21.3874 62.9779 23.1475 75.2216 18.9174 83.595C16.6402 88.0981 14.4722 90.6933 13.8459 96.2531L13.4894 104.087C11.8481 98.9061 12.301 92.9127 14.5975 88.0114C15.182 86.7652 16.2805 85.4387 16.8554 84.1667C19.3414 78.6648 18.3554 74.2934 18.6123 68.5794C19.9163 39.8074 36.1621 16.791 66.4823 15.4355V15.442Z" fill="#D88D41"/>
<path d="M104.061 116.617C107.405 113.932 110.578 110.928 112.907 107.302C113.196 107.232 116.703 110.594 117.445 111.102C125.501 116.617 135.178 116.536 140.413 107.521C140.902 106.679 141.082 105.584 141.557 104.819C141.766 104.485 141.541 104.257 142.28 104.412C142.353 104.675 142.456 105.076 142.559 105.565C143.346 109.319 142.716 111.982 142.328 114.86C141.47 121.216 142.761 121.492 141.592 125.681C140.873 128.253 139.81 130.203 139.071 131.391L137.144 134.282C137.044 134.394 136.925 134.494 136.823 134.603C136.161 135.307 135.046 135.885 134.574 136.852C128.928 141.676 122.003 142.591 114.982 143.918C114.538 143.198 112.303 143.815 112.091 143.6C111.982 143.491 112.165 141.091 112.107 140.52C112.065 140.096 111.783 139.823 111.773 139.742C111.744 139.537 111.808 139.299 111.773 139.1C116.857 138.303 123.031 137.08 127.518 134.449C133.871 130.72 136.052 123.657 136.183 116.62C132.04 118.451 127.662 118.158 123.336 117.102C121.544 116.665 119.51 115.528 117.718 115.332C112.83 114.789 110.151 117.442 105.176 117.262C104.559 117.24 103.888 117.593 104.068 116.62L104.061 116.617Z" fill="#BC752E"/>
<path d="M218.083 75.5044C217.412 75.8095 217.971 76.4969 218.125 76.908C218.584 78.1574 219.522 79.8918 219.667 81.1541C220.02 84.2728 215.491 93.0895 213.847 96.1568C211.82 99.9372 205.229 107.53 210.041 111.564C211.024 112.39 212.53 111.834 213.587 112.441C212.62 112.936 211.412 113.34 210.375 113.726C204.706 115.007 197.865 115.354 192.488 112.82C191.293 112.255 191.046 111.423 190.339 110.944C190.053 110.748 189.533 110.864 189.498 110.832C189.308 110.639 189.983 109.22 190.14 108.908C190.831 108.519 192.462 108.063 192.388 107.302C197.775 103.66 201.998 101.023 206.19 95.8902C211.316 89.6142 215.742 81.8511 217.444 73.8984C217.968 73.9434 217.945 75.0451 218.083 75.5012V75.5044Z" fill="#D88D41"/>
<path d="M81.5781 116.938C88.5864 113.276 92.8325 110.996 97.9491 104.563C101.871 99.6291 104.106 93.3177 104.707 87.0674L105.995 94.1367C106.069 94.1143 106.133 94.0372 106.188 93.9601C106.268 93.8477 106.29 93.8156 106.31 93.8123C106.473 93.7738 106.949 96.4268 107.993 98.7137C108.918 100.747 109.618 101.222 109.711 102.69C109.75 103.291 109.599 103.965 109.136 104.829C106.207 110.318 96.8121 115.968 91.2137 118.544C91.0082 117.879 90.2662 118.563 89.9322 118.708C86.6818 120.121 82.9463 121.374 79.6509 122.398C77.621 123.028 75.6746 123.599 73.5484 124.004C72.6812 123.018 70.7412 124.759 70.0185 123.686C72.0966 122.53 75.0997 121.518 76.9819 120.208C77.4701 119.87 77.984 119.886 77.4058 119.186C79.0407 118.457 79.9978 117.767 81.5813 116.938H81.5781Z" fill="#BC752E"/>
<path d="M19.5888 43.0643C19.486 43.0899 19.3479 43.0257 19.2676 43.0643C19.3704 42.8266 19.4828 42.6435 19.5888 42.4219V43.0643Z" fill="#A16024"/>
<path d="M19.2676 44.6703C15.2945 54.868 15.211 61.825 14.4465 72.4499C14.1575 76.4744 13.4541 80.576 11.5558 84.1733L10.2004 81.8254C9.92419 81.4946 10.0591 80.9132 9.95309 80.6402C8.35036 76.5258 4.63421 68.3291 6.07634 64.0862C8.06129 58.2437 11.6458 52.488 15.4133 47.4839C16.2259 46.4047 17.9764 44.1853 18.9496 43.3823C18.8757 43.7324 18.8436 44.5065 19.2708 44.6671L19.2676 44.6703Z" fill="#A8602F"/>
<path d="M18.9464 43.3856C19.0556 43.2957 19.1551 43.1191 19.2675 43.0645C19.168 43.2957 18.9496 43.3632 18.9464 43.3856Z" fill="#A16024"/>
<path d="M14.4497 118.865C15.8084 120.898 18.5931 122.186 20.077 123.997C20.941 125.048 21.0919 126.403 22.1583 127.216C22.1775 127.302 22.412 127.546 22.4795 127.858C22.6497 128.645 23.0158 129.541 23.0865 130.302C23.2021 131.529 22.6593 137.674 21.6315 138.098C21.4035 138.191 21.1176 138.123 20.8735 138.139C20.6615 138.152 20.4431 138.13 20.2311 138.139C20.2119 136.373 21.4324 134.34 21.4998 132.798C21.6058 130.322 19.168 133.254 18.683 134.179C18.2526 135.001 17.4561 137.266 17.3404 138.136L10.9167 136.53C10.801 135.04 10.7946 134.198 11.3246 132.602C11.7293 131.385 13.6917 128.401 13.7592 127.64C13.8909 126.178 11.7325 127.53 11.2218 128.003C9.63512 129.464 7.94567 133.444 7.70478 135.567L4.49289 133.639C4.13958 127.935 9.27539 120.917 14.4497 118.865Z" fill="#FDC586"/>
<path d="M170.869 17.6904C169.683 17.9988 170.512 18.3649 169.722 18.9495C164.198 23.0414 156.364 17.1508 151.344 14.8929C146.115 12.5386 141.008 10.9101 135.422 9.59327C134.857 9.46158 134.526 9.15645 133.932 9.66072C133.527 9.48727 132.744 10.0879 132.968 9.02155C145.787 7.16829 162.013 6.5227 170.869 17.6904Z" fill="#DD2828"/>
<path d="M140.677 15.121C140.426 15.8534 140.503 15.4936 140.038 16.0814C143.121 16.6724 140.015 19.3768 137.956 19.6273C133.299 20.1926 128.928 17.0803 124.605 15.6157C119.36 13.8395 116.34 13.1907 110.81 14.6425C109.509 14.9829 106.204 15.6896 106.31 17.3694L98.9255 14.1639C99.4202 14.2667 99.4973 13.6564 99.8184 13.544C109.987 10.0784 120.644 9.17263 131.038 12.0698C134.276 12.9723 137.404 14.6296 140.674 15.121H140.677Z" fill="#DD2828"/>
<path d="M37.5752 108.908C37.5656 109.223 37.0099 110.093 37.4178 110.196C38.33 110.424 37.3407 108.715 38.86 109.229C38.7475 110.787 38.982 109.856 39.8267 110.013C40.9027 110.212 41.9562 110.643 43.0354 110.835C42.7206 111.475 42.1136 114.58 42.7174 115.011C43.2538 115.133 43.3662 114.841 43.6714 114.526C44.6092 113.562 44.985 112.708 46.2473 111.802C46.5235 112.155 46.2152 112.387 46.7708 112.701C48.0427 113.424 53.1593 115.004 54.5115 114.93C55.0639 114.902 55.7705 113.867 56.2074 114.693C52.3788 118.669 49.1412 125.26 42.377 123.866C35.9211 122.536 33.1396 113.357 37.5784 108.911L37.5752 108.908Z" fill="#E28966"/>
<path d="M145.954 118.402C146.105 116.594 146.275 114.821 146.462 113.084C156.184 116.218 166.664 115.261 176.329 112.444C173.994 114.336 171.273 116.17 168.62 117.58L168.434 117.269C167.448 117.246 166.603 118.463 165.73 118.865C165.73 118.865 165.418 119.026 165.087 119.186C159.964 121.669 154.071 123.252 154.071 123.252C151.797 123.863 148.903 124.511 145.495 124.967C145.614 122.828 145.765 120.641 145.954 118.406V118.402Z" fill="#D88D41"/>
<path d="M111.449 26.3626C125.716 24.4741 141.313 42.7529 147.682 53.8853C150.001 57.9387 152.134 62.4996 152.882 67.1536C151.556 63.4664 146.288 56.0566 143.834 52.5941C138.987 45.756 133.428 39.1299 126.516 34.2607C121.418 30.6698 116.401 28.8808 110.052 28.884L109.843 27.3262C110.264 27.111 110.273 26.5168 111.449 26.3626Z" fill="#BC752E"/>
<path d="M201.06 9.01854C198.443 9.17593 201.227 10.4253 201.68 10.8204C204.407 13.1876 205.3 16.2035 205.573 19.7623L205.236 33.7501C203.334 31.6302 201.375 29.5714 199.165 27.7599C200.434 19.7398 198.549 11.5913 193.352 5.32487C195.982 5.20924 199.092 7.31624 201.057 9.02175L201.06 9.01854Z" fill="#DD8E32"/>
<path d="M201.06 9.01855C201.33 9.25302 201.516 9.49713 201.703 9.66093L202.024 9.98212C204.715 12.4456 206.838 14.7582 208.615 18.0054C212.241 24.6283 212.98 32.6516 210.693 39.8527C208.306 38.3302 206.993 35.7093 205.236 33.7501L205.573 19.7623C205.3 16.2035 204.407 13.1876 201.68 10.8204C201.227 10.4254 198.443 9.17594 201.06 9.01855Z" fill="#A16024"/>
<path d="M228.683 108.908C228.676 107.585 225.497 107.729 225.172 106.775C224.934 106.072 226.139 103.891 226.351 102.883C226.73 101.074 226.605 99.4363 226.113 97.6665C229.743 99.2468 232.675 102.16 236.394 103.602C238.707 104.498 241.646 105.192 244.097 105.378C244.068 105.468 244.016 105.6 243.923 105.738C243.281 106.702 241.582 106.711 239.915 106.515C235.82 106.03 233.324 104.476 233.176 104.736C232.948 105.144 238.932 108.979 240.397 109.242C240.798 109.313 241.485 109.396 240.885 109.872C238.036 110.427 235.81 111.208 232.852 110.517C232.855 110.334 232.935 110.023 232.813 109.92C232.476 109.647 229.678 109.139 228.997 108.911C228.211 108.645 234.984 105.648 228.676 108.911L228.683 108.908Z" fill="#BC752E"/>
<path d="M23.443 34.7135C23.8862 34.2831 24.3262 33.8528 24.7695 33.4224C23.1571 34.6686 21.1111 36.3773 18.9014 38.5742C17.79 39.6791 14.9604 42.573 12.5001 46.0162C9.68323 49.954 5.79364 55.3885 4.97782 62.6281C3.97571 71.5121 8.1062 78.6297 10.0654 81.5557C10.0976 80.5761 10.1682 79.1693 10.3224 77.4863C10.3417 77.2614 10.6725 73.7862 11.4273 69.948C13.7848 57.9708 20.9762 38.9982 22.6689 37.2606C22.791 37.1353 23.504 36.4672 23.5554 35.5133C23.5746 35.1728 23.504 34.8934 23.443 34.7135Z" fill="#BC752E"/>
<path d="M19.9099 43.0644C19.6851 43.5944 19.4763 44.134 19.2675 44.6704C18.8404 44.5098 18.8725 43.7357 18.9463 43.3856C18.9496 43.3631 19.168 43.2957 19.2675 43.0644C19.3478 43.0259 19.4859 43.0901 19.5887 43.0644H19.9099Z" fill="#BC752E"/>
<path d="M111.77 139.742C111.779 139.819 112.062 140.092 112.104 140.519C112.162 141.091 111.979 143.49 112.088 143.6C112.3 143.815 114.535 143.201 114.978 143.918C113.318 144.232 112.464 143.959 110.681 144.92C108.921 145.87 107.938 147.769 106.274 148.543C104.81 149.224 100.281 150.505 98.7552 150.351C97.0401 150.181 96.1665 149.343 95.7072 147.772C97.2521 147.094 98.9833 147.65 100.608 147.374C104.299 146.751 108.526 141.621 111.767 139.742H111.77Z" fill="#D9943E"/>
<path d="M70.3366 148.736C64.4685 152.619 55.7289 155.487 48.8202 156.929C45.0687 157.71 40.3119 158.985 37.2542 156.123C38.5999 155.722 39.7402 156.483 41.2562 156.451C51.3222 156.232 60.4344 149.712 69.4951 148.376C70.1086 148.286 70.4426 147.669 70.3334 148.736H70.3366Z" fill="#BC752E"/>
<path d="M84.3276 115.775C81.7902 117.028 79.5772 118.377 77.6501 119.732C77.3514 119.944 77.2293 120.031 76.982 120.205C75.0998 121.515 72.0967 122.527 70.0186 123.683C70.7413 124.756 72.6845 123.015 73.5485 124.001C69.9897 124.974 67.1022 125.405 65.0755 125.613C64.6805 125.655 65.053 125.613 62.0756 125.848C59.1785 126.079 57.7171 126.127 56.0051 125.999C55.0737 125.928 52.8671 125.761 52.7933 125.183C52.7547 124.884 53.3104 124.682 54.4474 123.616C54.8328 123.253 55.1411 122.928 55.3596 122.684C56.9976 122.787 59.0243 122.832 61.3369 122.694C61.3369 122.694 64.5937 122.498 67.9823 121.83C75.2893 120.388 82.4583 116.749 84.3244 115.775H84.3276Z" fill="#BC752E"/>
<path d="M23.4429 129.143C23.5682 129.368 23.6517 129.567 23.7641 129.785C24.6923 131.594 27.2972 139.113 26.2918 140.664C26.2019 140.805 23.9953 141.345 23.6035 141.345C21.3841 141.361 20.6068 140.291 20.8734 138.136C21.1143 138.12 21.4033 138.188 21.6314 138.094C22.6624 137.671 23.202 131.526 23.0864 130.299C23.0157 129.541 22.6496 128.645 22.4793 127.855C22.7459 128.26 23.2245 128.745 23.4429 129.14V129.143Z" fill="#D9943E"/>
<path d="M46.2474 111.799C47.0054 111.253 47.9915 110.517 48.9679 110.504C51.9325 111.153 54.9837 111.831 58.0126 112.097C58.4526 112.136 58.7192 111.924 59.0918 111.799C59.474 112.191 56.5672 114.314 56.2043 114.689C55.7707 113.864 55.0608 114.895 54.5084 114.927C53.1562 115.001 48.0396 113.421 46.7677 112.698C46.2153 112.383 46.5204 112.152 46.2442 111.799H46.2474Z" fill="#E28966"/>
<path d="M183.395 28.6112C183.826 27.9881 183.941 26.7515 184.837 26.6744C186.713 26.5138 194.29 29.9345 196.246 31.0137C196.718 31.2738 197.666 31.6496 197.845 32.141C195.244 31.5404 192.777 31.5436 190.14 31.5019C189.98 31.2995 189.748 31.2064 189.498 31.1807C187.725 29.8221 185.505 29.2214 183.395 28.6112Z" fill="#DD8E32"/>
<path d="M36.5346 82.9755C37.9928 82.7603 40.9028 82.7089 42.059 83.7078C43.9187 85.3138 40.9766 86.2709 39.6244 86.393C35.934 86.7334 30.9491 83.7978 36.5346 82.9755Z" fill="#442809"/>
<path d="M17.3405 138.136C17.257 138.782 17.4657 141.547 17.3405 141.669C12.5997 141.75 11.2893 141.335 10.9167 136.53L17.3405 138.136Z" fill="#D9943E"/>
<path d="M19.2676 119.828C19.3672 119.902 19.5053 120.214 19.7815 120.423C20.1669 120.712 21.4485 120.997 21.5288 121.328C21.7375 122.186 21.4003 123.728 21.5352 124.788C21.6091 125.356 21.9913 126.413 22.1583 127.216C21.092 126.403 20.941 125.048 20.077 123.997C18.5931 122.186 15.8084 120.898 14.4498 118.865C17.6071 117.612 16.9807 118.149 19.2676 119.828Z" fill="#D9943E"/>
<path d="M43.0354 110.835C41.9562 110.643 40.9027 110.212 39.8267 110.013C38.982 109.856 38.7475 110.787 38.86 109.229C37.3407 108.715 38.3332 110.424 37.4178 110.196C37.0099 110.093 37.5656 109.226 37.5752 108.908C39.8203 106.657 42.0622 107.871 44.6349 109.069C44.6349 109.213 43.1478 110.604 43.0354 110.835Z" fill="#E28966"/>
<path d="M110.164 88.9945C109.3 80.9134 110.164 71.8976 110.164 63.6206L110.479 63.46L110.164 63.2994C110.164 62.339 110.164 61.369 110.164 60.4087C111.95 69.3602 109.403 78.3535 110.395 87.3243C110.453 87.8414 110.761 88.6605 110.164 88.9945Z" fill="#BC752E"/>
<path d="M189.498 31.1804C187.127 30.9395 184.208 31.8002 182.11 30.538C182.48 30.0722 182.994 29.1922 183.395 28.6108C185.505 29.2211 187.725 29.8217 189.498 31.1804Z" fill="#D9943E"/>
<path d="M192.388 107.302C192.462 108.063 190.83 108.52 190.14 108.908C189.983 109.223 189.308 110.639 189.498 110.832C189.533 110.867 190.05 110.752 190.339 110.945C191.046 111.423 191.29 112.255 192.488 112.82C197.865 115.354 204.706 115.008 210.375 113.726C204.34 115.981 195.883 116.254 190.484 111.937C190.101 111.632 188.945 111.012 188.942 110.103C188.942 109.679 189.183 109.149 189.546 108.78C189.783 108.539 190.018 108.42 190.201 108.33C190.741 108.063 191.479 107.71 192.391 107.302H192.388Z" fill="#D9943E"/>
<path d="M7.70481 135.567C7.5956 136.534 7.72087 137.571 7.78511 138.541C7.8108 138.904 8.43391 139.174 7.54743 139.097C5.72629 137.529 4.64388 136.113 4.49292 133.64L7.70481 135.567Z" fill="#D9943E"/>
<path d="M82.2204 143.596C82.0823 144.733 81.9924 145.658 82.2204 146.808C81.7515 147.342 80.4025 145.096 80.2355 144.782C79.1017 142.61 79.1338 141.403 79.6509 139.103C79.4004 140.976 80.3029 143.022 82.2204 143.6V143.596Z" fill="#D9943E"/>
<path d="M146.458 116.295C146.462 116.369 146.821 116.954 146.802 117.741C146.78 118.753 145.912 124.38 146.137 124.643C152.404 123.978 158.098 121.788 163.799 119.331C164.265 119.128 164.901 119.27 165.087 119.186C159.03 122.244 152.31 124.489 145.495 124.964C145.842 123.792 145.716 122.61 145.816 121.434C146.031 119.722 146.243 118.007 146.458 116.295Z" fill="#D9943E"/>
<path d="M23.1892 129.965C22.8455 128.436 22.4986 126.911 22.155 125.382C23.9215 129.034 24.6313 130.511 24.6763 130.62C24.6763 130.627 24.702 130.685 24.7373 130.759C24.8594 131.012 24.9075 130.987 25.5178 132.76C26.3818 135.262 26.6644 135.615 27.0338 137.186C27.1398 137.632 27.2233 138.059 27.2586 138.596C27.3229 139.559 27.3743 140.368 26.931 140.982C26.3754 141.753 25.3251 141.833 24.6024 141.885C23.9311 141.936 22.2963 142.058 21.1593 140.841C20.1893 139.803 20.215 138.467 20.2278 138.133C20.4398 138.123 20.6582 138.146 20.8702 138.133C21.4226 139.659 21.8723 140.041 22.2096 140.034C22.7877 140.022 23.1217 138.872 23.6677 138.949C24.0885 139.01 24.2363 139.742 24.3262 139.726C24.4932 139.697 24.2555 137.23 23.1828 129.965H23.1892Z" fill="#D9943E"/>
<path d="M140.712 125.186C139.402 124.117 141.425 119.649 141.637 119.183C141.923 122.006 142.064 125.135 141.239 125.36C141.004 125.424 140.773 125.234 140.712 125.183V125.186Z" fill="#D9943E"/>
<path d="M189.498 31.1805C189.748 31.2062 189.979 31.2993 190.14 31.5017C187.015 31.4535 183.935 31.6173 180.826 31.8196C180.938 31.2029 181.837 30.8785 182.11 30.5381C184.208 31.8004 187.127 30.9396 189.498 31.1805Z" fill="#DD8E32"/>
<path d="M85.7536 145.523C86.078 146.118 86.2322 148.392 86.4667 148.665C86.5309 148.742 88.1336 149.606 88.23 149.631C89.2771 149.933 90.9762 149.551 92.1774 150.017C91.9012 148.716 92.0682 147.91 90.8926 147.129C91.3359 147.203 91.7888 147.145 92.1774 147.451C92.2384 148.719 92.7363 149.535 93.1378 150.662C88.2493 149.773 86.1005 151.205 85.4324 145.523H85.7536Z" fill="#F1B64A"/>
<path d="M68.7306 15.4421C71.3354 15.365 74.1555 15.365 76.7603 15.4421C77.2935 15.4582 77.8331 15.4196 78.3663 15.4421C78.0322 15.9753 77.149 15.7633 76.6029 15.7697C73.8214 15.805 71.0239 15.7986 68.2424 15.7697C67.6996 15.7633 66.8131 15.9753 66.4791 15.4421C67.2242 15.41 67.979 15.4646 68.7274 15.4421H68.7306Z" fill="#F3C573"/>
<path d="M76.7604 15.4422C74.1556 15.3651 71.3356 15.3651 68.7307 15.4422C69.0647 14.909 69.948 15.121 70.494 15.1146C72.4854 15.0921 74.8911 14.8705 76.7604 15.4422Z" fill="#442809"/>
<path d="M23.443 129.143C23.2246 128.748 22.7461 128.263 22.4795 127.858C22.412 127.547 22.1775 127.303 22.1583 127.216C21.9913 126.413 21.6058 125.356 21.5352 124.788C21.4003 123.728 21.7375 122.186 21.5287 121.329C21.4484 120.998 20.1669 120.712 19.7815 120.423C19.5053 120.214 19.3671 119.902 19.2676 119.829C19.9806 120.092 21.9334 120.911 22.1133 121.653C22.2225 122.099 21.7985 122.992 21.8596 123.792C21.9945 125.591 22.9259 127.441 23.443 129.143Z" fill="#D9943E"/>
<path d="M19.9099 43.0645H19.5887V42.4221C20.4174 40.7166 21.4838 38.6417 22.5694 37.1996L23.443 34.7136C23.8638 34.3988 24.5254 33.2104 25.3637 33.265C23.1796 36.4062 21.4131 39.5475 19.9099 43.0645Z" fill="#D9943E"/>
<path d="M91.2139 118.544C87.5845 120.214 83.6017 121.695 79.6511 122.398C82.9465 121.377 86.6819 120.121 89.9324 118.708C90.2664 118.563 91.0084 117.879 91.2139 118.544Z" fill="#D9943E"/>
<path d="M168.62 117.58C167.737 118.049 166.68 118.537 165.73 118.865C166.607 118.463 167.451 117.246 168.434 117.268L168.62 117.58Z" fill="#D9943E"/>
<path d="M227.648 108.484C227.623 108.281 227.594 108.076 227.568 107.874C229.123 108.233 230.944 108.847 232.82 109.92C233.282 110.183 233.712 110.456 234.114 110.729C233.388 110.742 232.421 110.681 231.332 110.385C229.595 109.913 228.355 109.065 227.645 108.484H227.648Z" fill="#D9943E"/>
<path d="M137.144 134.282L139.071 131.391C138.576 132.576 137.976 133.338 137.144 134.282Z" fill="#D9943E"/>
<path d="M110.164 63.6205V63.2993L110.479 63.4599L110.164 63.6205Z" fill="#A16024"/>
<path d="M134.574 136.851C135.046 135.885 136.161 135.306 136.823 134.603C136.261 135.541 135.384 136.158 134.574 136.851Z" fill="#D9943E"/>
<path d="M266.583 150.342C269.114 158.175 268.06 164.516 263.371 171.219C262.931 171.418 261.765 172.661 260.548 173.997C258.855 175.857 257.577 177.174 257.435 177.328C254.024 181.134 231.169 193.06 206.839 196.911C205.053 197.193 201.035 197.784 195.918 197.232C193.554 196.975 190.487 196.519 186.877 194.987C185.046 194.209 183.251 193.178 181.298 191.765C178.468 189.713 176.538 189.88 173.425 188.412C171.807 187.648 169.95 186.385 168.611 185.197C166.838 183.62 166.892 181.995 165.071 181.025C163.754 180.325 163.404 180.842 161.869 180.212C159.518 179.249 158.268 177.193 157.372 175.715C156.01 173.474 155.59 171.466 155.281 169.937C154.957 168.328 154.437 165.64 155.092 162.267C155.622 159.547 156.82 156.977 158.657 154.517C161.066 152.253 163.68 151.684 165.717 150.174C166.748 149.41 168.071 147.326 169.472 146.221C178.108 139.402 193.837 139.556 204.587 136.852C217.287 133.659 233.889 123.882 246.47 126.927C248.478 127.412 250.964 129.031 252.364 129.384C253.446 129.657 254.834 129.374 256.058 129.545C264.367 130.707 268.443 137.192 267.203 145.341C266.824 147.827 265.565 147.197 266.58 150.338L266.583 150.342ZM243.779 130.107C236.031 128.748 228.358 133.235 221.221 135.654C212.289 138.679 204.019 141.139 194.704 142.861C186.816 144.319 177.254 144.277 171.193 150.184C173.297 150.438 175.497 150.393 177.617 150.345C181.757 150.245 189.995 149.645 193.583 147.843C194.881 147.191 196.021 145.826 197.209 145.206C199.461 144.03 202.095 143.719 204.597 143.6C207.899 143.442 211.689 143.969 214.894 143.137C217.464 142.469 220.457 140.038 222.262 138.14C226.332 136.733 227.192 135.467 232.219 135.249C233.716 135.185 237.782 135.705 238.652 135.432C239.802 135.072 242.735 132.93 244.097 132.191C244.723 131.851 246.265 131.475 246.351 131.391C247.132 130.633 244.058 130.158 243.782 130.11L243.779 130.107ZM257.59 133.961C252.428 132.31 247.273 134.533 243.136 137.658C243.881 138.072 245.327 139.357 245.706 140.063C248.147 144.647 243.824 147.351 239.924 148.093C236.844 148.681 233.735 148.18 230.658 147.804C227.057 154.427 218.417 157.52 211.181 157.083C208.994 156.952 205.557 155.773 203.54 156.197C202.088 156.502 198.68 159.438 196.763 160.353C196.471 160.491 196.291 160.921 196.239 160.941C195.436 161.259 191.238 161.933 190.297 161.933C186.157 161.933 182.146 159.656 182.428 155.159C182.464 154.597 182.682 154.103 182.749 153.557C176.901 154.186 169.385 152.811 164.117 155.638C162.431 156.54 161.93 157.135 160.912 158.696C158.782 161.962 158.577 164.519 159.306 168.331C160.947 176.894 168.611 178.474 176.297 177.935C176.66 176.371 176.917 174.431 177.569 172.969C177.81 172.43 178.16 172.356 178.256 172.189C181.082 167.3 184.667 164.557 190.143 163.038C191.194 162.746 195.982 162.078 196.204 161.866C196.326 161.747 196.243 161.448 196.243 161.272H196.564C196.818 161.757 197.669 161.622 198.17 161.593C198.777 161.561 199.082 161.275 199.133 161.272C199.557 161.236 199.997 161.317 200.418 161.272C210.924 160.163 229.791 156.499 238.318 150.351C241.37 149.034 243.971 146.744 246.981 145.363C252.229 142.954 256.083 143.073 261.444 144.891C261.746 144.994 262.138 145.456 262.581 145.466C263.782 145.28 263.413 140.221 263.153 139.167C262.452 136.347 260.214 134.809 257.593 133.967L257.59 133.961ZM186.607 153.553C184.638 154.963 185.682 158.124 188.126 158.619C195.475 160.106 198.542 153.341 204.214 152.985C206.896 152.815 210.619 153.923 213.426 153.904C216.423 153.884 221.642 152.51 224.019 150.656C225.387 149.59 228.988 144.894 229.874 144.628C231.474 144.149 233.372 145.074 234.955 145.196C236.703 145.331 238.954 145.366 240.57 144.718C244.845 143.002 241.803 139.893 238.643 139.1C229.187 136.723 226.964 139.35 220.12 144.184C213.857 148.607 208.393 145.344 201.626 146.889C198.073 147.701 196.307 150.464 193.352 151.784C191.454 152.635 187.805 152.693 186.607 153.55V153.553ZM182.753 172.182C176.875 180.109 181.256 189.408 190.211 192.186C205.554 196.946 239.777 186.302 252.28 176.348C259.504 170.599 266.284 163.189 263.371 153.232C263.268 152.882 263.114 152.75 263.05 152.59C263.011 152.497 263.088 152.359 263.05 152.269C262.568 151.157 262.443 151.18 261.765 150.342C254.994 141.952 244.585 151.421 237.798 154.8C228.368 159.492 216.648 161.969 206.305 163.777C197.73 165.28 188.418 164.538 182.753 172.182ZM176.65 181.818H171.19C171.277 182.769 172.748 183.617 173.525 184.14C174.839 185.023 176.31 185.711 177.771 186.318L176.65 181.818Z" fill="#3E2808"/>
<path d="M182.432 174.43C183.427 173.753 184.423 174.768 185.13 174.761C185.325 174.761 186.989 172.458 187.783 171.912C193.423 168.029 202.875 167.605 209.476 166.304C218.809 164.467 228.574 162.036 237.249 158.104C242.571 155.692 253.366 147.791 258.961 150.412C259.69 150.752 260.378 151.97 261.28 151.95L261.765 150.341C262.443 151.179 262.568 151.157 263.05 152.268C261.98 151.488 261.996 153.755 261.621 154.533C252.502 173.441 208.939 186.183 189.89 180.623C187.172 179.829 182.563 177.713 182.432 174.43Z" fill="#FEAD33"/>
<path d="M263.05 152.269C263.088 152.358 263.011 152.497 263.05 152.59V153.553L263.371 153.232C266.284 163.192 259.504 170.602 252.28 176.348C239.773 186.298 205.551 196.946 190.211 192.186C181.259 189.408 176.875 180.109 182.753 172.182C182.692 172.95 182.399 173.644 182.431 174.431C182.563 177.713 187.172 179.83 189.889 180.623C208.939 186.183 252.499 173.441 261.621 154.533C261.996 153.756 261.98 151.488 263.05 152.269ZM250.241 170.535C250.764 171.366 254.018 170.104 252.955 168.623C252.104 167.438 249.255 168.961 250.241 170.535ZM241.119 175.118C239.915 175.446 239.343 177.459 240.791 177.903C243.181 178.635 243.412 174.495 241.119 175.118ZM220.377 183.697C220.576 184.018 222.188 184.147 222.67 184.005C225.378 183.205 221.192 179.017 220.396 181.718C220.28 182.11 220.203 183.417 220.377 183.697ZM206.196 185.036C205.22 184.619 203.045 183.835 202.323 184.927C200.713 187.355 206.225 188.036 206.196 185.036Z" fill="#FEAD33"/>
<path d="M182.431 155.159C182.149 159.656 186.16 161.933 190.301 161.933C191.242 161.933 195.44 161.259 196.243 160.941V161.262C196.243 161.442 196.326 161.741 196.204 161.856C195.982 162.071 191.19 162.739 190.143 163.029C184.67 164.548 181.082 167.294 178.256 172.179L178.42 170.58C174.28 171.177 167.625 172.003 163.706 170.506C162.219 169.941 160.966 168.399 159.306 168.322C158.577 164.509 158.782 161.953 160.912 158.686C162.595 158.718 161.985 162.139 162.543 162.515C163.195 162.955 165.213 161.407 166.06 161.105C168.084 160.379 170.246 160.555 172.07 159.084C173.339 158.468 181.433 157.742 181.786 157.398C182.081 157.112 181.147 154.877 182.431 155.153V155.159Z" fill="#D61212"/>
<path d="M182.753 172.183C188.422 164.538 197.73 165.28 206.306 163.777C216.645 161.966 228.368 159.489 237.798 154.8C244.585 151.424 254.995 141.952 261.765 150.342L261.28 151.951C260.381 151.973 259.694 150.756 258.961 150.412C253.366 147.791 242.571 155.693 237.249 158.105C228.574 162.036 218.809 164.471 209.476 166.305C202.875 167.602 193.423 168.03 187.783 171.913C186.989 172.459 185.322 174.758 185.13 174.762C184.42 174.768 183.427 173.753 182.432 174.431C182.399 173.644 182.692 172.95 182.753 172.183Z" fill="#F3C573"/>
<path d="M243.779 130.107L232.216 135.246C227.189 135.464 226.328 136.73 222.259 138.136C221.989 138.23 221.421 138.12 220.968 138.275C215.54 140.121 210.115 142.113 204.594 143.597C202.092 143.716 199.458 144.027 197.206 145.203C196.699 144.788 196.268 145.048 195.742 145.158C189.597 146.414 183.463 148.119 177.614 150.342C175.497 150.393 173.294 150.435 171.19 150.181C177.254 144.274 186.816 144.316 194.701 142.858C204.015 141.136 212.286 138.679 221.218 135.65C228.355 133.232 236.028 128.745 243.775 130.104L243.779 130.107Z" fill="#F3C573"/>
<path d="M186.607 153.553C186.931 154.507 187.5 155.047 188.406 155.448C194.858 158.313 198.793 150.698 204.256 149.844C209.768 148.983 216.831 151.52 221.925 148.241C224.225 146.76 227.555 141.265 230.436 141.339C231.75 141.371 237.592 142.732 238.28 141.631C239.054 140.394 236.655 139.479 238.643 139.103C241.803 139.896 244.845 143.005 240.57 144.721C238.954 145.369 236.703 145.334 234.955 145.199C233.372 145.077 231.477 144.152 229.874 144.631C228.991 144.894 225.387 149.593 224.019 150.659C221.642 152.513 216.423 153.887 213.426 153.907C210.616 153.926 206.896 152.818 204.214 152.988C198.545 153.345 195.478 160.112 188.126 158.622C185.682 158.127 184.638 154.967 186.607 153.557V153.553Z" fill="#FFB923"/>
<path d="M238.64 139.1C236.648 139.479 239.051 140.391 238.277 141.628C237.589 142.726 231.747 141.367 230.433 141.335C227.555 141.261 224.221 146.757 221.922 148.238C216.831 151.517 209.765 148.98 204.253 149.84C198.79 150.695 194.855 158.31 188.402 155.445C187.497 155.044 186.928 154.504 186.604 153.55C187.802 152.693 191.45 152.631 193.349 151.784C196.304 150.46 198.07 147.698 201.622 146.889C208.387 145.344 213.853 148.604 220.117 144.184C226.961 139.35 229.184 136.72 238.64 139.1Z" fill="#F9AA00"/>
<path d="M239.924 148.093L240.566 148.575C239.956 149.343 239.092 149.786 238.318 150.342C229.791 156.489 210.924 160.154 200.418 161.262C200.209 161.285 200.042 161.31 199.933 161.33C199.596 161.387 199.509 161.429 199.172 161.481C199.005 161.506 198.873 161.522 198.719 161.538C198.5 161.561 198.314 161.577 198.17 161.587C198.003 161.632 197.81 161.67 197.588 161.693C197.383 161.715 197.196 161.722 197.029 161.718L195.94 161.956C196.04 161.619 196.14 161.281 196.239 160.944C196.287 160.925 196.47 160.495 196.763 160.356C198.677 159.441 202.085 156.505 203.54 156.2C205.557 155.776 208.99 156.955 211.181 157.087C218.417 157.524 227.057 154.431 230.658 147.808C233.735 148.183 236.844 148.684 239.924 148.097V148.093Z" fill="#D61212"/>
<path d="M160.912 158.692C161.93 157.131 162.434 156.54 164.117 155.635C169.385 152.808 176.904 154.183 182.749 153.553C182.682 154.102 182.463 154.597 182.428 155.156C181.143 154.88 182.078 157.115 181.782 157.401C181.429 157.745 173.335 158.471 172.067 159.087C170.242 160.558 168.081 160.382 166.057 161.108C165.209 161.409 163.192 162.958 162.54 162.518C161.981 162.142 162.591 158.721 160.908 158.689L160.912 158.692Z" fill="#D61212"/>
<path d="M178.256 172.183C178.16 172.35 177.81 172.427 177.569 172.963C176.917 174.425 176.66 176.365 176.297 177.929C168.611 178.468 160.947 176.891 159.306 168.325C160.966 168.399 162.222 169.941 163.706 170.509C167.625 172.003 174.277 171.181 178.42 170.583L178.256 172.183Z" fill="#D61212"/>
<path d="M257.59 135.567C257.901 135.541 258.229 135.544 258.537 135.58C258.996 137.741 259.144 139.482 257.731 141.329C257.336 141.843 256.109 142.385 256.305 142.787C256.722 143.638 260.827 143.587 261.441 144.878C256.08 143.06 252.223 142.941 246.978 145.35C243.968 146.731 241.366 149.021 238.315 150.338C239.089 149.779 239.953 149.339 240.563 148.572L239.921 148.09C243.82 147.348 248.144 144.643 245.702 140.06C245.513 139.212 246.146 139.447 246.637 139.244C249.47 138.078 254.683 135.808 257.586 135.563L257.59 135.567Z" fill="#D61212"/>
<path d="M261.444 144.882C260.83 143.59 256.726 143.639 256.308 142.791C256.112 142.389 257.339 141.846 257.734 141.332C259.147 139.486 259 137.745 258.54 135.583C258.229 135.548 257.904 135.545 257.593 135.57C257.214 135.053 257.214 134.481 257.593 133.964C260.217 134.803 262.452 136.341 263.153 139.164C263.416 140.218 263.782 145.277 262.581 145.463C262.141 145.45 261.746 144.991 261.444 144.888V144.882Z" fill="#D61212"/>
<path d="M257.59 133.961C257.211 134.478 257.211 135.05 257.59 135.567C254.689 135.814 249.473 138.082 246.64 139.248C246.149 139.45 245.516 139.212 245.706 140.063C245.327 139.354 243.885 138.072 243.136 137.658C247.27 134.532 252.425 132.313 257.59 133.961Z" fill="#D61212"/>
<path d="M197.206 145.202C196.018 145.822 194.878 147.187 193.58 147.839C189.996 149.641 181.754 150.242 177.614 150.341C183.463 148.119 189.597 146.413 195.742 145.158C196.268 145.052 196.699 144.788 197.206 145.202Z" fill="#FEAD33"/>
<path d="M222.259 138.136C222.525 138.628 218.935 141.689 214.891 143.134C210.947 144.544 207.202 144.194 204.594 143.596C206.251 143.025 216.15 139.604 220.968 138.274C221.546 138.114 222.163 137.956 222.259 138.136Z" fill="#FEAD33"/>
<path d="M243.778 130.106C244.055 130.155 247.128 130.63 246.348 131.388C246.261 131.471 244.72 131.847 244.093 132.188C242.731 132.926 239.799 135.069 238.649 135.429C237.779 135.702 233.712 135.181 232.216 135.245L243.778 130.106Z" fill="#FEAD33"/>
<path d="M176.65 181.818L177.771 186.318C176.31 185.711 174.842 185.023 173.525 184.14C172.748 183.617 171.277 182.772 171.19 181.818H176.65Z" fill="#FEAD33"/>
<path d="M263.371 153.232L263.053 153.553V152.59C263.114 152.75 263.268 152.882 263.371 153.232Z" fill="#F1B64A"/>
<path d="M206.196 185.036C206.222 188.036 200.714 187.352 202.323 184.927C203.045 183.838 205.22 184.622 206.196 185.036Z" fill="black"/>
<path d="M220.377 183.697C220.203 183.418 220.28 182.111 220.396 181.719C221.192 179.018 225.378 183.206 222.67 184.006C222.188 184.147 220.576 184.018 220.377 183.697Z" fill="black"/>
<path d="M209.806 173.984C209.633 173.705 209.71 172.398 209.826 172.006C210.622 169.305 214.807 173.493 212.1 174.293C211.618 174.434 210.005 174.306 209.806 173.984Z" fill="black"/>
<path d="M241.119 175.118C243.416 174.495 243.184 178.635 240.791 177.903C239.343 177.459 239.915 175.445 241.119 175.118Z" fill="black"/>
<path d="M227.87 169.398C230.167 168.775 229.935 172.915 227.542 172.182C226.094 171.739 226.666 169.725 227.87 169.398Z" fill="black"/>
<path d="M250.241 170.535C249.255 168.961 252.104 167.442 252.955 168.624C254.018 170.101 250.764 171.366 250.241 170.535Z" fill="black"/>
<path d="M241.36 162.983C240.374 161.409 243.223 159.89 244.074 161.072C245.137 162.55 241.883 163.815 241.36 162.983Z" fill="black"/>
<path d="M68.5924 76.6032C68.4607 76.4073 68.1652 76.4234 67.9147 75.8484C67.4137 74.6954 66.9512 72.8806 67.7605 71.8079C69.5688 69.4118 70.9371 73.1954 71.9488 74.371C74.1811 76.9662 77.5632 78.1 80.8458 76.8602C82.9399 76.0668 85.275 72.0102 87.1893 74.2296C89.4151 76.812 85.6379 80.3065 83.3543 81.2926C77.6307 83.7625 71.9167 81.5849 68.5956 76.6L68.5924 76.6032Z" fill="#3E2808"/>
<path d="M27.4129 73.7828C25.9162 72.2443 24.5672 68.2038 27.3615 67.3623C29.7705 66.6364 29.3304 69.5817 30.7147 70.6448C32.5134 72.0291 35.812 71.7369 37.691 70.6416C38.9918 69.8836 40.45 67.0475 42.1651 67.5229C43.5013 67.8922 42.9809 69.5592 42.6469 70.4617C40.7198 75.6554 31.2768 77.7591 27.4161 73.786L27.4129 73.7828Z" fill="#3E2808"/>
<path d="M75.0611 47.3071C78.2666 46.5908 83.5983 48.5019 86.0779 50.6089C87.3241 51.6688 90.1731 54.9482 87.671 56.0755C86.0843 56.7918 83.9324 53.7052 82.214 52.8669C81.4528 52.4943 80.4282 52.1538 79.5995 51.9483C78.2859 51.6239 74.6532 51.4825 74.0558 51.0682C72.6041 50.0629 73.3364 47.6957 75.0611 47.3071Z" fill="#3E2808"/>
<path d="M30.8302 45.3125C33.1717 43.7355 39.7015 41.9657 41.9787 44.1145C42.3994 44.5128 42.3673 45.3993 42.393 45.9549C42.3962 46.0609 42.3995 46.1701 42.393 46.2761L42.0718 46.5973C41.7282 46.639 41.2111 47.1626 40.6104 47.2204C37.6844 47.5062 36.6181 47.2654 33.6374 48.2803C32.555 48.6497 30.1943 50.4965 29.3849 48.8488C28.6044 47.2621 29.6033 46.1412 30.8302 45.3125Z" fill="#3E2808"/>
<path d="M30.8303 45.3124C30.628 44.3232 31.6783 44.7054 32.2115 44.3649C32.4716 44.2011 32.5423 43.7097 32.7768 43.578C34.9062 42.3671 41.3429 42.1519 42.7304 44.4934C43.0034 44.9527 43.5591 46.1411 42.3931 45.9548C42.3675 45.3991 42.3996 44.5127 41.9788 44.1144C39.7016 41.9656 33.1718 43.7354 30.8303 45.3124Z" fill="#F1B64A"/>
<path d="M42.3932 46.2764C42.3804 46.4916 42.4093 46.71 42.3868 46.922C42.1684 46.9637 42.0945 46.5943 42.072 46.5976L42.3932 46.2764Z" fill="#F1B64A"/>
<path d="M37.8964 137.815L40.6233 132.352C43.3084 131.388 44.2367 132.345 43.9701 135.05C43.8705 136.055 41.8567 143.818 41.4488 144.097C41.0409 144.377 40.5526 144.287 40.1447 144.085C38.7058 143.362 40.4788 139.498 40.4627 138.139L38.8118 141.782C38.5099 142.183 38.0313 142.951 37.4724 142.906C35.0989 142.71 36.3354 137.895 35.0057 136.851V141.83C35.0057 142.385 32.7381 143.002 32.4491 140.837C32.2435 139.283 33.3548 132.384 34.2349 131.102C35.4618 129.313 37.8964 130.521 37.8964 131.231V137.815Z" fill="#3E2808"/>
<path d="M48.091 133.046C49.4625 132.802 51.4603 134.192 51.9421 135.493C53.1273 138.67 51.5566 148.781 46.5943 145.98C42.406 143.616 44.7763 133.637 48.091 133.049V133.046ZM48.9775 135.252C47.484 136.267 45.8716 143.812 47.6992 144.239C49.4239 144.644 50.8051 136.325 48.9775 135.252Z" fill="#3E2808"/>
<path d="M70.6544 146.481C70.5837 146.555 68.9167 146.538 68.6148 146.439C67.6095 146.115 68.2615 141.499 68.0688 140.24C67.8632 138.891 64.934 134.272 66.9735 133.941C69.0131 133.611 68.9392 136.318 69.8514 137.491C71.0526 136.611 71.1426 133.142 72.726 133.302C75.8159 133.614 71.3128 139.643 71.0494 140.937C70.8728 141.801 70.9627 146.156 70.6511 146.481H70.6544Z" fill="#3E2808"/>
<path d="M55.8895 145.193C55.9762 145.283 58.0254 145.327 58.382 145.588C58.7834 145.877 58.7577 147.338 58.2406 147.463C57.3895 147.672 53.7279 147.756 53.381 146.58L54.2804 134.837C59.0275 132.836 56.548 138.525 56.23 140.892C56.1625 141.396 55.7418 145.038 55.8927 145.196L55.8895 145.193Z" fill="#3E2808"/>
<path d="M63.267 144.881C63.4083 145.019 65.0111 144.65 65.5378 145.019C65.904 145.276 65.9939 146.863 65.8012 147.094C65.5025 147.451 61.4716 147.64 60.9994 147.309C60.0712 146.661 61.5037 136.707 61.0187 134.921C61.8056 135.014 63.5754 134.558 63.8644 135.448C64.4072 137.105 62.615 144.239 63.267 144.881Z" fill="#3E2808"/>
<path d="M90.8926 147.129C92.065 147.91 91.9012 148.716 92.1774 150.017C90.9761 149.551 89.277 149.933 88.23 149.631C88.1336 149.603 86.5341 148.739 86.4666 148.665C86.2322 148.392 86.078 146.118 85.7536 145.523C87.3531 146.371 89.1164 146.831 90.8926 147.129Z" fill="#D9943E"/>
<path d="M48.9774 135.252C50.805 136.325 49.4238 144.644 47.6991 144.239C45.8715 143.812 47.4839 136.267 48.9774 135.252Z" fill="#F48F3B"/>
<path d="M157.379 35.3559C157.009 35.3687 156.29 35.1953 156.097 35.5133C156.537 36.6599 157.632 36.9425 158.352 37.7552C158.699 38.147 158.937 39.0977 159.033 39.1587C159.73 39.602 173.666 39.3515 175.536 39.223C176.351 39.1652 177.113 38.8761 177.932 38.8857C176.904 37.9928 175.609 36.5668 174.399 35.9982C175.555 35.7606 176.756 35.4619 177.932 35.3559L181.953 38.5613C187.304 38.3429 192.186 37.8098 197.466 39.1074C203.668 40.6298 210.102 45.6403 212.71 51.502C212.922 51.9838 212.758 52.5523 213.584 52.3789C213.654 52.6326 213.535 53.047 213.584 53.3424C213.433 53.0887 213.285 52.6294 212.944 52.7033C212.899 68.3355 202.432 83.2901 188.534 89.958C188.415 88.6732 188.801 87.0512 188.293 85.8596C188.097 85.4003 188.21 85.3746 187.567 85.4613C187.558 86.881 186.703 90.5425 185.781 91.5446C184.77 92.6463 176.38 94.9235 174.469 95.3282C167.991 96.6997 160.819 97.3871 154.527 95.052C153.907 92.9643 154.642 90.7417 154.488 88.8274C154.414 87.9184 154.167 88.7567 153.842 88.3488C164.194 71.9746 154.376 53.5898 143.564 40.4917C143.385 39.5185 144.056 39.875 144.673 39.8493C148.797 39.6855 152.921 39.451 157.051 39.5249C157.764 38.905 153.001 36.0143 152.879 35.3527C154.164 35.2981 156.107 34.463 157.376 35.3527L157.379 35.3559ZM174.951 45.3673C172.667 46.0482 175.401 49.5139 176.994 48.3833C178.002 47.667 177.016 44.7506 174.951 45.3673ZM198.054 46.9604C196.48 47.4904 198.398 51.168 200.09 50.304C201.597 49.5364 200.46 46.1478 198.054 46.9604ZM159.213 52.7418C157.353 53.2654 159.036 56.8434 160.815 56.0019C162.595 55.1604 160.713 52.3211 159.213 52.7418ZM181.307 65.6568C178.995 65.6504 180.048 70.192 182.534 69.3569C184.317 68.7595 182.708 65.66 181.307 65.6568ZM198.077 70.4072C195.876 71.0239 198.362 75.0034 200.116 73.7572C201.243 72.9574 199.74 69.9415 198.077 70.4072ZM167.541 84.5299C166.436 84.9025 166.992 87.7739 168.469 88.0276C171.723 88.5865 170.185 83.6434 167.541 84.5299Z" fill="#FEAD33"/>
<path d="M213.587 53.3423C215.068 55.8283 214.846 62.7307 214.547 65.7049C212.742 83.775 200.412 99.5742 183.559 106.02C172.43 110.279 158.04 113.122 146.764 108.368C147.464 105.818 145.138 100.923 145.485 98.8034C145.684 97.5861 152.561 90.3722 153.843 88.3487C154.167 88.7566 154.414 87.9183 154.488 88.8272C154.642 90.7415 153.91 92.9642 154.527 95.0519C160.822 97.3869 167.994 96.7028 174.469 95.3281C176.38 94.9234 184.77 92.6462 185.782 91.5445C186.703 90.5424 187.558 86.8809 187.567 85.4612C188.21 85.3713 188.097 85.4002 188.293 85.8595C188.801 87.0511 188.415 88.6731 188.534 89.9578C202.432 83.29 212.9 68.3354 212.945 52.7031C213.285 52.6325 213.433 53.0886 213.584 53.3423H213.587Z" fill="#DD8E32"/>
<path d="M213.587 52.3787C212.761 52.5521 212.928 51.9804 212.713 51.5018C210.108 45.6401 203.672 40.6296 197.47 39.1071C192.189 37.8095 187.307 38.3427 181.956 38.5611L177.935 35.3556C184.805 34.7261 194.19 34.1094 200.534 37.0066C205.988 39.499 212.019 46.5973 213.587 52.3787Z" fill="#FDC586"/>
<path d="M157.379 35.3561C159.399 35.2855 161.153 35.6484 162.987 35.6902C165.456 35.748 172.731 35.2148 174.402 35.9985C175.612 36.567 176.907 37.9931 177.935 38.886C177.116 38.8764 176.354 39.1654 175.539 39.2232C173.669 39.3517 159.73 39.6022 159.036 39.159C158.94 39.098 158.699 38.1473 158.355 37.7554C157.635 36.946 156.54 36.6601 156.1 35.5135C156.293 35.1955 157.012 35.369 157.382 35.3561H157.379Z" fill="#FDC586"/>
<path d="M152.882 35.356C153.007 36.0208 157.77 38.9115 157.054 39.5282C152.924 39.4543 148.8 39.6888 144.676 39.8526C144.059 39.8783 143.388 39.5218 143.568 40.495C143.266 40.1288 139.794 36.9555 140.034 36.6439C144.194 35.2757 148.572 35.5422 152.882 35.356Z" fill="#FDC586"/>
<path d="M167.541 84.5301C170.184 83.6436 171.726 88.5867 168.469 88.0278C166.992 87.7741 166.433 84.8994 167.541 84.5301Z" fill="#3E2808"/>
<path d="M181.307 65.6567C182.708 65.66 184.32 68.7594 182.534 69.3568C180.045 70.1887 178.995 65.6503 181.307 65.6567Z" fill="#3E2808"/>
<path d="M198.054 46.9605C200.46 46.1511 201.597 49.5365 200.09 50.3041C198.398 51.1681 196.48 47.4905 198.054 46.9605Z" fill="#3E2808"/>
<path d="M198.077 70.4075C199.744 69.9418 201.247 72.9545 200.116 73.7575C198.362 75.0037 195.873 71.0242 198.077 70.4075Z" fill="#3E2808"/>
<path d="M174.951 45.3672C177.016 44.7505 177.999 47.6701 176.994 48.3831C175.401 49.5137 172.667 46.0481 174.951 45.3672Z" fill="#3E2808"/>
<path d="M159.213 52.7419C160.713 52.3212 162.585 55.1637 160.815 56.002C159.046 56.8403 157.35 53.2655 159.213 52.7419Z" fill="#3E2808"/>
</svg>
