<svg width="208" height="223" viewBox="0 0 208 223" fill="none" xmlns="http://www.w3.org/2000/svg">
<path d="M158.791 149.261C158.713 149.122 158.635 148.983 158.559 148.847Z" fill="#412E12"/>
<path d="M121.007 180.758C120.268 184.237 120.339 187.538 121.424 190.937C121.882 192.373 123.172 194.285 123.386 195.552C124.006 199.205 122.172 205.168 121.129 208.77C119.929 212.9 118.573 219.39 114.18 221.07C110.181 222.601 98.6293 222.694 94.6795 221.065C90.9637 219.532 90.5589 216.133 91.8049 212.6C93.3823 208.121 97.7418 205.79 102.204 205.086L103.43 200.165C100.865 198.339 97.9222 196.966 95.5377 194.879C93.3848 192.995 90.7125 190.023 89.1155 187.655C87.8184 185.734 86.7944 183.625 85.6607 181.608C84.2246 181.813 82.0327 180.765 80.8453 180.809C80.6186 180.816 80.582 180.811 80.4186 180.994C79.9603 181.509 78.4413 184.22 78.056 184.98C75.6008 189.825 77.961 189.23 78.3413 193.058C78.707 196.735 73.7844 205.278 71.7997 208.692C70.3173 211.244 67.7329 216.05 65.0972 217.34C63.0443 218.344 57.9778 218.666 55.5567 218.769C51.2679 218.954 39.9841 219.244 39.3307 213.278C38.6724 207.263 43.5219 202.903 49.0248 201.77C50.0318 201.562 53.6354 201.545 53.9645 201.345C54.4619 201.043 56.5441 196.203 57.1317 195.379C56.8343 195.37 56.5709 195.245 56.3222 195.092C53.4647 193.334 49.8123 189.786 48.2617 186.819C44.7215 180.046 45.5529 171.656 49.3271 165.173C31.826 157.093 31.1604 133.347 37.8678 117.675C26.8668 115.817 18.8452 109.166 14.4199 99.0815C13.4325 96.831 12.8888 94.2149 11.5917 92.1644C7.83688 86.225 -1.02829 84.9352 0.0981378 76.4065C0.30782 74.8217 1.52447 72.7639 2.75818 71.757C3.21656 71.3815 4.32348 70.9255 4.40151 70.8426C4.51366 70.7256 4.88913 69.47 5.15245 69.0335C7.91977 64.4473 14.3322 64.5644 18.6136 66.8831C27.8762 71.8984 27.5104 83.0067 35.2077 88.79C37.897 90.8112 41.1495 92.1985 44.4508 92.83C44.8068 90.1968 45.8308 87.7416 46.7768 85.2863L51.0314 76.5163C45.5529 73.0906 41.0642 67.9802 39.0966 61.7507C35.6539 62.487 31.6041 62.114 29.3781 59.0492C26.4889 55.0702 29.9779 52.4052 31.1579 48.9772C32.989 43.6595 29.9023 37.2008 30.3021 31.5589C31.0165 21.4162 41.7079 14.2723 49.3979 8.98395C54.4888 5.48275 60.7475 0.842917 67.2477 1.48903C68.3424 1.59875 69.581 2.25461 70.6294 2.20341C72.3288 2.12052 75.6325 0.85267 77.7683 0.550337C89.1351 -1.07104 100.877 0.901434 110.935 6.31904C111.825 6.79692 113.241 8.09402 114.124 8.25982C115.494 8.5207 117.771 7.61858 119.651 7.84045C127.641 8.78402 138.006 20.08 143.082 26.0852C150.435 34.7822 157.14 43.7107 149.789 54.9604C146.305 60.2927 142.073 62.2042 137.369 65.9346C134.109 68.5191 134.417 69.3481 132.673 72.6908C129.17 79.4079 121.185 78.0109 116.989 72.8614C115.733 74.2024 114.582 75.6434 113.212 76.8771C111.842 78.1108 110.179 79.0251 109.05 80.2905C109.725 82.6044 109.73 84.8353 109.14 87.1588C108.948 87.922 108.145 89.4532 108.124 90.0139C108.08 91.1745 108.862 95.3413 109.094 96.8213C109.13 97.0602 109.247 97.9014 109.457 97.9599C113.212 98.1696 116.204 97.0334 118.944 94.5416C123.116 90.7478 126.349 85.7984 131.488 82.9603C139 78.813 148.865 80.7001 150.972 89.8116C151.086 90.3041 150.925 90.9039 151.047 91.4427C151.174 92.0108 151.776 92.4887 151.918 93.2543C152.842 98.3354 149.129 103.041 144.047 103.548C141.314 103.821 138.403 102.8 136.372 105.379C134.96 107.171 133.729 109.397 132.22 111.216C130.635 113.128 128.833 114.808 127.144 116.617C128.782 118.911 128.482 123.344 129.684 125.455C130.413 126.735 132.966 127.567 134.253 128.442C137.533 130.675 138.796 134.069 137.464 137.89C136.818 139.745 134.097 142.754 131.983 142.769C132.503 143.437 132.627 144.583 133.085 145.197C133.388 145.604 134.409 146.275 134.917 146.779C135.39 147.25 135.87 148.51 136.604 148.254C137.289 148.015 139.515 146.265 140.161 145.694C145.486 141.001 148.268 133.93 149.268 127.023C149.621 124.577 149.033 119.352 152.215 118.753C155.773 118.082 157.528 123.502 158.252 126.148C159.93 132.282 159.674 139.365 157.833 145.441C158.142 145.697 159.152 144.163 160.351 144.938C161.446 145.643 160.242 151.246 159.852 152.455C156.855 161.762 147.797 168.403 138.366 170.083C137.111 173.789 134.239 177.586 130.689 179.343C129.977 179.697 127.141 180.762 126.5 180.762H121.014L121.007 180.758ZM112.473 11.7147C112.332 11.0735 112.183 11.0418 111.72 10.6395C103.033 3.08115 80.8185 1.02822 70.6148 5.82653C58.8311 11.3685 56.0028 21.7672 52.1188 32.8975C50.261 38.2249 48.3641 39.5951 45.1896 43.7571C38.4895 52.5393 40.9106 63.7963 48.5884 71.0304C49.4905 71.8813 53.1672 74.9168 54.1328 75.2338C54.3254 75.2972 54.4887 75.3094 54.6862 75.2874L54.1986 71.635C54.696 72.4055 55.9809 73.3735 56.3271 74.2585C57.0634 76.1457 56.6148 79.0983 57.3804 81.2439C58.6239 84.7304 63.0028 87.2491 66.5309 87.6904C76.403 88.9265 80.6624 81.9509 88.3329 77.7231C88.4451 79.6688 86.4165 81.2731 85.1633 82.5946C85.0316 82.7336 83.4127 83.8819 84.5538 83.8161L96.3789 81.8632C96.4569 81.8485 96.5446 81.8778 96.6227 81.8632C99.8264 81.278 103.269 79.7883 106.132 78.2083C109.701 76.2383 112.717 73.5222 115.036 70.1673C113.6 67.2561 113.088 66.0882 112.975 65.7079C112.944 65.5957 112.863 65.269 112.715 64.8131C112.663 64.6595 112.619 64.5302 112.571 64.3279C112.52 64.1133 112.527 64.0743 112.471 63.8402C112.42 63.6257 112.393 63.594 112.334 63.3526C112.271 63.0893 112.232 62.8893 112.227 62.865C112.115 62.3018 112.005 62.2115 111.9 61.6288C111.844 61.3216 111.783 60.9144 111.739 60.4292C111.734 60.2659 111.739 60.105 111.739 59.9416C111.717 57.757 111.698 55.548 111.739 53.3659C111.744 53.1221 111.734 52.8782 111.739 52.6344C111.754 52.0688 111.715 51.4958 111.739 50.9301C111.742 50.8497 111.734 50.7668 111.739 50.6863L112.958 43.623C114.17 38.6369 115.426 33.863 115.15 28.6453C115.024 26.2267 114.638 23.5496 114.421 21.2138C116.538 19.8801 117.072 21.9818 117.471 23.6471C121.026 38.476 109.406 54.3606 117.793 68.6312C120.017 72.4153 126.032 77.0088 129.499 71.9593C131.503 69.0408 131.286 66.866 134.543 64.0914C141.426 58.23 151.262 54.2924 149.711 42.833C148.795 36.0549 135.714 21.9184 130.384 17.3225C126.163 13.6799 122.77 10.5736 116.735 11.2246C115.099 11.4026 114.007 12.7802 112.471 11.7123H112.473V11.7147ZM67.1209 4.65377C61.574 3.71751 56.2735 8.03307 51.9287 11.0296C46.3428 14.8819 36.3951 21.6356 34.2008 28.1504C31.7455 35.4405 36.7145 42.6501 34.1447 50.0183C33.2718 52.5198 29.5414 56.26 32.9012 58.2056C34.7347 59.2662 36.6584 58.9444 38.5968 58.4836C37.6703 53.3464 38.7992 48.5676 41.4178 44.135C43.5682 40.4948 46.8743 37.6568 48.5567 33.7289C49.9123 30.5642 50.5413 26.8557 51.8189 23.591C54.1766 17.5663 58.6873 10.0641 64.1195 6.40681L67.1209 4.65865V4.65377ZM14.9466 68.4703C10.8309 67.3756 5.58158 69.6333 7.75398 74.5584C8.03681 75.2021 10.8505 78.8106 8.24406 78.6716C6.01314 78.5521 4.68677 74.3243 4.34055 74.3195C-0.138358 80.254 7.2249 83.3456 10.8041 86.6127C16.0316 91.3793 15.9828 96.3044 19.2914 102.002C23.39 109.061 30.5264 113.435 38.5943 114.505C39.0747 110.955 39.8476 107.171 41.2324 103.865C42.415 101.042 44.4679 99.2034 43.6828 95.7826C37.9653 94.7342 32.733 91.5841 29.2269 86.9614C25.7208 82.3386 24.6066 76.2944 20.4324 71.8764C19.2475 70.6232 18.2771 69.3481 16.6655 70.5549C13.9762 72.5689 17.3018 75.68 16.5289 77.238C15.8463 78.6131 14.1761 76.9722 13.6787 76.1895C11.9403 73.4588 12.5157 70.4891 14.9441 68.4727L14.9466 68.4703ZM106.378 85.3985C106.534 84.2428 106.263 82.814 106.378 81.6242C100.833 84.1428 94.3284 86.0812 88.211 86.4932C86.063 86.6371 82.8153 86.1373 80.9038 86.5005C80.4308 86.5908 79.3141 87.7635 78.6558 88.1512C71.3072 92.496 60.333 91.3232 55.564 83.7942L53.1087 78.9447C48.9956 86.2421 45.5943 94.2929 46.9548 102.868C47.7643 107.969 50.9729 113.584 54.2084 117.543C54.9325 118.431 57.0537 121.137 58.1631 121.037C69.954 117.141 80.6429 110.573 90.5102 103.158C95.3451 99.5252 105.539 91.6061 106.38 85.3985H106.378ZM135.392 84.3013C124.393 87.7245 121.638 103.597 107.06 100.549C105.734 100.271 103.259 99.7398 103.696 97.9428C104.088 97.2065 106.034 97.5576 106.134 97.4577C106.427 97.1651 105.763 94.1027 105.89 93.4371C105.383 92.9349 105.4 93.6663 105.164 93.9174C98.2733 101.325 89.335 108.086 80.7746 113.53C76.6687 116.141 71.6534 118.806 67.2086 120.803C65.4141 121.608 59.1505 124.329 57.5462 124.195C56.5734 124.114 56.0248 123.268 55.1739 123.029C52.5943 120.084 49.5563 116.963 47.6155 113.53C46.0795 110.814 45.1067 107.454 44.0802 104.516C42.176 108.956 41.6201 113.801 40.7936 118.528C41.9517 118.238 42.9318 117.319 44.1997 117.429L43.9461 125.111L44.4435 131.312C44.3484 142.827 51.1314 159.511 59.6747 167.367C61.3692 168.925 66.2675 172.582 68.3375 173.207C71.8143 175.216 76.1274 176.908 80.0407 177.834C80.6551 177.981 84.4611 178.717 84.6732 178.563L83.9418 175.642C84.0271 174.326 83.6492 172.773 85.5461 173.675C87.4918 178.068 89.1107 182.637 91.8341 186.634C94.3479 190.322 97.3249 192.809 101.031 195.228C103.22 196.657 107.265 197.591 106.312 200.79C105.702 201.938 105.117 206.624 104.542 207.302C103.913 208.041 101.243 208.182 100.148 208.514C97.0274 209.457 94.4503 211.812 94.1772 215.211C94.0163 217.206 94.3552 218.013 96.3789 218.51C96.0741 216.562 96.8567 212.227 99.0511 211.549C101.935 210.659 99.2364 214.882 99.0828 215.974C98.9292 217.067 99.1072 218.171 99.3047 219.242H105.4C104.576 217.515 105.563 212.317 107.526 211.732C110.532 210.837 107.97 215.682 107.865 216.708C107.819 217.157 107.787 218.756 108.116 218.961C108.645 219.29 112.715 218.498 113.448 218.147C115.643 217.101 116.447 213.761 117.167 211.632C118.259 208.397 121.309 198.749 120.39 195.857C119.754 193.855 118.452 191.754 117.832 189.523C117.63 187.338 117.403 184.895 117.588 182.703C117.588 182.681 117.796 182.559 117.818 182.328C117.893 181.555 117.986 180.792 118.076 180.024C112.627 178.87 107.141 176.118 102.538 173.014C101.102 172.044 99.7313 170.534 98.0807 170.037C98.0417 169.986 98.1173 169.852 98.0807 169.793C97.8808 169.474 97.7467 169.471 97.5931 169.306C96.1082 167.709 94.1333 166.397 92.5924 164.68C83.264 154.301 81.8132 136.741 91.2538 125.948C92.5095 124.514 94.5673 122.912 96.3715 122.29L93.6067 120.55L92.9581 119.613C93.0483 119.467 92.8703 119.009 93.3068 118.626C94.6746 117.424 97.5321 119.284 99.0584 119.73C99.8605 119.964 100.904 120.179 101.735 120.345C102.021 120.401 102.408 120.298 102.711 120.345C102.742 120.35 102.911 120.552 103.198 120.589C106.924 121.076 110.74 120.927 114.414 120.101C120.236 118.792 124.232 115.615 128.192 111.336C130.972 108.334 134.331 102.517 137.82 100.859L139.527 100.615C139.851 100.618 140.178 100.615 140.502 100.615C142.033 100.618 143.409 100.739 144.891 100.371C145.113 100.315 145.227 100.193 145.379 100.127C145.813 99.9422 146.388 99.9982 146.598 99.396C148.375 98.3598 148.851 96.8335 149.275 94.8878C148.419 95.2974 147.922 96.1167 147.071 96.5799C146.047 97.1358 143.335 97.9112 143.428 96.1313C143.489 94.9683 145.605 94.3953 146.476 93.5493C149.726 90.387 147.3 86.8687 144.281 84.789C145.418 87.5928 141.856 93.8443 138.559 92.4497C136.336 91.5085 139.347 89.953 140.017 89.1679C141.558 88.5608 142.012 85.1644 140.988 84.177C140.112 83.3334 136.572 83.9258 135.385 84.294L135.392 84.3013ZM130.289 140.318C133.975 140.364 136.194 135.422 134.278 132.545C132.742 130.241 129.209 129.883 127.483 127.398C125.817 125.002 126.554 121.108 124.788 118.653C122.923 119.923 121.004 121.125 118.854 121.851C118.527 125.853 118.854 129.442 121.614 132.531C124.374 135.62 129.104 136.168 130.289 140.316V140.318ZM44.936 158.836C46.6183 160.387 49.4149 162.654 51.7604 162.369C48.2202 156.483 45.9942 151.326 44.5922 147.545C44.1997 146.487 41.4031 138.863 41.6811 135.854C41.82 134.345 41.4129 132.823 41.5226 131.312C41.5275 131.256 41.5494 131.017 41.425 130.78C41.3617 130.661 41.2861 130.587 41.2788 130.58C41.1154 130.412 41.0715 127.927 41.2788 121.081C40.9155 121.305 40.3986 121.276 40.0719 121.457C39.4575 121.795 38.0214 126.918 37.7849 127.94C35.4174 138.173 36.8754 151.407 44.9384 158.836H44.936ZM151.971 128.144C150.579 137.224 146.066 145.863 138.057 150.719C138.335 152.165 139.127 153.445 139.476 154.879C139.99 157 140.098 159.338 140.024 161.516C139.964 163.373 139.79 165.068 139.293 166.872C147.132 165.087 153.903 159.906 156.789 152.324C157.131 151.429 157.706 149.864 157.816 148.961C157.925 148.059 157.109 148.974 156.845 149.093C156.338 149.32 153.398 150.717 153.188 150.551C154.671 146.462 156.099 141.771 156.358 137.4C156.453 135.79 156.463 133.645 156.358 132.041C156.202 129.607 155.602 126.974 154.651 124.733C154.71 124.087 153.234 120.767 152.571 121.803C152.408 123.914 152.291 126.05 151.969 128.144H151.971ZM116.372 122.788C114.614 123.078 112.871 123.497 111.1 123.729C110.718 123.78 108.818 123.524 109.062 124.121C109.182 124.419 112.549 127.174 113.119 127.742C115.248 129.854 117.179 132.219 119.424 134.228C118.769 133.035 117.925 131.928 117.384 130.665C116.352 128.254 115.789 125.38 116.372 122.785V122.788ZM93.2117 161.028C99.368 169.093 118.081 181.026 128.385 177.047C134.444 174.706 136.462 168.633 137.099 162.735C137.108 162.654 137.091 162.571 137.099 162.491C137.101 162.452 137.313 162.286 137.342 161.759C138.057 148.571 127.322 145.29 119.054 137.77C115.265 134.325 112.166 130.024 108.084 126.928C103.211 123.232 99.963 122.52 95.033 126.677C85.2803 134.903 85.8557 151.39 93.2117 161.028ZM120.151 134.727L120.036 134.842L120.887 135.693L121.002 135.578L120.151 134.727ZM122.087 136.473C122.063 136.449 121.919 136.307 121.704 136.139C121.526 136 121.368 135.895 121.243 135.82C121.28 135.898 121.348 136.025 121.455 136.161C121.824 136.622 122.25 136.627 122.64 136.988C122.833 137.163 122.913 137.541 123.182 137.78C124.389 138.855 125.861 140.057 127.336 140.696C123.742 137.856 122.311 136.697 122.084 136.476L122.087 136.473ZM53.9572 165.414C53.7597 165.19 53.3574 164.032 52.9844 164.441C52.9576 164.471 53.0478 164.844 52.8942 165.073C50.0757 169.274 48.4275 174.143 49.0809 179.3C49.6002 183.393 51.4215 187.509 54.5741 190.254C55.6591 191.198 60.2355 193.721 60.494 194.577C60.5842 194.875 60.5768 195.174 60.5378 195.479C60.4671 195.994 58.1216 200.107 57.6584 200.899C57.2512 201.597 55.7444 204.31 55.2738 204.605C54.1767 205.298 52.7966 204.459 51.6361 204.391C48.2251 204.191 43.8632 206.461 42.6246 209.752C41.9712 211.493 41.6591 214.575 44.2046 214.619C43.6145 212.841 45.2384 207.002 47.6936 207.592C49.4198 208.007 47.3888 210.562 47.1547 211.354C46.9597 212.017 46.6744 214.926 46.9938 215.367C48.8176 216.106 50.8242 215.767 52.7381 215.838C51.8311 213.909 53.1185 208.209 55.5445 208.07C56.8294 207.997 56.4905 209.07 56.3978 209.75C55.1568 211.513 55.0739 213.495 55.1763 215.597C55.4347 215.855 61.4814 215.26 62.364 215.102C62.7907 215.024 63.2149 215.075 63.4685 214.621C63.5465 214.602 63.6392 214.643 63.7123 214.621C64.4048 214.409 65.0362 213.763 65.419 213.161C65.5019 213.083 65.5897 213.005 65.6628 212.917C65.7945 212.763 65.9286 212.666 65.9067 212.429C65.9798 212.344 66.0847 212.276 66.1505 212.186C66.4357 211.791 66.7332 211.444 66.8819 210.966C68.7008 208.609 74.5305 198.047 75.0644 195.391C75.7374 192.054 73.7112 190.678 73.9428 187.692C74.0501 186.297 74.7718 184.898 75.4155 183.683C75.6861 183.174 77.7513 180.224 77.6099 180.033C76.7467 179.834 75.8812 179.609 75.0473 179.304C70.6806 177.705 66.2675 175.857 62.4957 173.211C59.4602 171.083 56.4003 168.199 53.9621 165.417H53.9572V165.414Z" fill="#442809"/>
<path d="M112.473 11.7148C112.815 13.246 112.732 15.1697 113.073 16.8374C113.334 18.1028 114.326 20.1704 114.424 21.2139C114.641 23.5497 115.026 26.2268 115.153 28.6454C115.428 33.8631 114.173 38.637 112.961 43.6231C112.315 46.2782 111.881 47.8728 111.742 50.6864C111.737 50.7669 111.744 50.8498 111.742 50.9303C111.34 51.2375 111.34 52.3273 111.742 52.6345C111.737 52.8784 111.747 53.1222 111.742 53.366C111.003 53.2294 111.274 53.739 111.254 54.2071C111.181 56.0845 111.154 58.1497 111.742 59.9417C111.735 60.0929 111.732 60.2562 111.742 60.4293C111.764 60.8365 111.837 61.1901 111.92 61.4802C111.942 61.6167 111.964 61.7533 111.986 61.8922C112.108 62.2945 112.208 62.6383 112.283 62.9041C112.403 63.3259 112.466 63.5429 112.527 63.8086C112.622 64.2134 112.681 64.5596 112.717 64.8132C113.283 66.5906 114.28 68.4582 115.038 70.1674C112.717 73.5223 109.701 76.2384 106.134 78.2084L96.6252 81.8633C96.5472 81.8779 96.4594 81.8486 96.3814 81.8633C93.3922 82.407 88.9621 83.1774 86.007 83.0799C85.5389 83.0653 85.0293 83.331 85.1659 82.5947C86.4191 81.2732 88.4476 79.6689 88.3355 77.7233C92.7656 75.2802 98.6221 64.2304 96.9373 59.0225C95.6451 55.0239 87.1432 50.4109 83.3787 48.4531C81.9182 47.6924 80.4285 46.9682 78.8266 46.5464C76.7542 43.7596 70.7002 42.1894 67.3672 41.9164C67.6647 41.7189 68.7277 40.4778 68.8301 40.4583C68.8472 40.4559 68.9155 40.8509 69.0715 40.7022C69.1739 40.6046 70.3077 38.4273 70.3686 38.2201C71.2708 35.2212 70.9611 31.5103 68.5863 29.255C60.6647 21.7283 50.0124 35.3065 57.3708 41.4336C57.856 41.8383 58.3631 42.2284 58.8337 42.6527C56.7734 43.3573 55.7591 45.7199 54.445 46.7927C52.9211 48.0386 52.1214 48.2507 50.5439 49.9599C48.3398 52.3468 47.4743 53.8487 47.8887 57.3621C48.174 59.793 49.4394 60.9121 50.3001 62.8699C51.5728 65.7616 52.4603 68.941 54.2012 71.6376L54.6888 75.29C54.4913 75.3143 54.3279 75.2997 54.1353 75.2363C53.1698 74.9169 49.4931 71.8839 48.5909 71.0329C40.9131 63.7989 38.4921 52.5394 45.1921 43.7596C48.3666 39.6001 50.2635 38.2274 52.1214 32.9C56.0054 21.7722 58.8337 11.3735 70.6173 5.82907C80.8186 1.03077 103.035 3.08126 111.722 10.642C112.186 11.0443 112.332 11.0784 112.476 11.7172H112.473V11.7148ZM65.3582 16.8935C63.9977 17.0934 62.3081 18.0199 61.5156 19.1439C60.5965 20.4483 61.1329 21.9015 62.803 21.4065C63.5174 21.1944 64.2635 20.0411 65.5947 19.812C67.1551 19.5438 69.6323 20.7506 70.3052 19.6462C71.8145 17.169 66.9454 16.6618 65.3558 16.8935H65.3582ZM96.3107 21.0237C95.2672 21.2553 94.6552 22.5134 95.5061 23.1864C96.0035 23.5789 98.2759 23.7179 99.3901 24.4201C100.504 25.1223 101.809 27.6799 103.03 27.5068C104.842 27.2459 103.584 24.5103 102.925 23.5692C101.648 21.7454 98.4855 20.5385 96.3131 21.0237H96.3107ZM90.0422 46.7903C91.844 48.28 93.5141 49.1211 95.8938 49.226C104.808 49.6234 107.307 37.6252 100.509 33.0439C91.7343 27.1289 82.4961 40.5534 90.0422 46.7903Z" fill="#D88D41"/>
<path d="M135.392 84.3015C136.374 84.772 137.559 84.0308 138.683 84.0381C140.449 84.0479 141.285 84.4087 141.226 86.3349C141.192 87.4613 140.729 88.3488 140.024 89.1729C139.354 89.958 136.343 91.5136 138.566 92.4547C141.863 93.8493 145.423 87.5979 144.289 84.794C147.307 86.8737 149.733 90.3944 146.483 93.5543C145.615 94.4003 143.496 94.9733 143.435 96.1363C143.343 97.9162 146.054 97.1408 147.078 96.5849C147.929 96.1217 148.429 95.3025 149.282 94.8929C148.858 96.8385 148.382 98.3648 146.605 99.401C146.198 99.64 145.691 99.7253 145.386 100.132C145.235 100.198 145.12 100.32 144.898 100.376L141.846 100.371L140.51 100.62C140.185 100.62 139.859 100.623 139.534 100.62C139.503 100.62 139.322 100.371 138.961 100.379C138.437 100.393 138.196 100.686 137.828 100.861C134.339 102.519 130.979 108.337 128.199 111.338C124.237 115.617 120.244 118.794 114.421 120.103L103.206 120.591C103.111 120.611 102.957 120.63 102.774 120.603C102.567 120.572 102.472 120.501 102.23 120.43C102.006 120.367 101.843 120.367 101.743 120.347C100.911 120.182 99.8678 119.967 99.0657 119.733C97.5394 119.287 94.6819 117.429 93.3141 118.628C92.8776 119.011 93.058 119.47 92.9654 119.616C91.9267 121.271 91.5244 122.688 91.1222 124.719C91.049 125.092 90.8101 125.714 91.2587 125.948C81.8157 136.742 83.2688 154.299 92.5972 164.68C94.1381 166.394 96.1131 167.709 97.5979 169.306C97.5394 169.823 97.5686 169.852 98.0855 169.793C98.1221 169.852 98.0465 169.986 98.0855 170.037C100.355 173.012 103.442 175.803 106.539 178.034C109.757 180.355 113.473 182.469 117.347 183.435C117.225 185.59 117.262 187.455 117.835 189.525C118.454 191.756 119.756 193.858 120.392 195.86C121.311 198.751 118.261 208.399 117.169 211.635C116.45 213.763 115.645 217.106 113.451 218.149C112.717 218.498 108.645 219.293 108.119 218.964C107.789 218.759 107.821 217.16 107.867 216.711C107.972 215.684 110.532 210.837 107.529 211.735C105.566 212.32 104.581 217.515 105.402 219.244H99.3071C99.1096 218.174 98.9316 217.074 99.0852 215.977C99.2388 214.885 101.938 210.662 99.0535 211.552C96.8567 212.23 96.0765 216.565 96.3813 218.513C94.3576 218.015 94.0187 217.208 94.1796 215.214C94.4527 211.815 97.0298 209.46 100.151 208.516C101.245 208.185 103.918 208.043 104.544 207.304C105.12 206.627 105.705 201.94 106.314 200.792C107.268 197.593 103.223 196.659 101.033 195.231C97.3273 192.812 94.3503 190.325 91.8365 186.636C89.1131 182.64 87.4942 178.068 85.5485 173.677C83.6516 172.775 84.0295 174.328 83.9442 175.645C83.9442 175.677 83.6833 175.681 83.6906 176.24C83.6955 176.825 83.9954 177.525 84.188 178.078C83.5199 178.561 80.8648 177.137 80.0431 177.837C76.1299 176.91 71.8167 175.218 68.3399 173.209C74.7962 175.155 81.8474 174.114 84.3757 167.187C86.6701 160.904 83.2079 150.571 82.2765 143.817C81.0159 134.686 81.0379 125.653 80.7721 116.456C75.7958 118.904 71.0853 121.995 65.9871 124.214C62.6492 125.667 59.1919 127.574 56.1735 124.587C55.681 124.1 55.4274 123.324 55.1714 123.029C56.0247 123.268 56.5709 124.112 57.5437 124.195C59.148 124.329 65.4117 121.61 67.2062 120.803C71.6509 118.806 76.6663 116.141 80.7721 113.53L80.8916 116.207C89.2521 111.133 96.6397 104.665 103.691 97.9406C103.254 99.7375 105.727 100.269 107.056 100.547C121.633 103.597 124.388 87.7222 135.387 84.299H135.392V84.3015Z" fill="#D88D41"/>
<path d="M55.1764 123.031C55.4324 123.324 55.6859 124.099 56.1784 124.589C59.1944 127.576 62.6518 125.669 65.9921 124.216C71.0878 121.998 75.8008 118.906 80.7771 116.458C81.0429 125.655 81.0234 134.688 82.2814 143.819C83.2128 150.57 86.6726 160.906 84.3807 167.189C81.8523 174.116 74.8011 175.157 68.3449 173.211C66.2749 172.587 61.3766 168.93 59.6821 167.372C51.1387 159.516 44.3533 142.832 44.4509 131.316C44.4996 125.379 45.4944 119.067 47.6205 113.535C49.5613 116.968 52.5992 120.088 55.1788 123.034L55.1764 123.031Z" fill="#FDC380"/>
<path d="M114.424 21.2137C114.326 20.1726 113.334 18.1026 113.073 16.8372C112.729 15.1695 112.812 13.2458 112.473 11.7146C114.009 12.7826 115.101 11.4026 116.737 11.227C122.772 10.5736 126.166 13.6822 130.386 17.3249C135.714 21.9232 148.794 36.0597 149.714 42.8354C151.264 54.2923 141.429 58.23 134.546 64.0938C131.286 66.8684 131.503 69.0432 129.501 71.9617C126.037 77.0111 120.022 72.4176 117.796 68.6336C109.408 54.363 121.029 38.4784 117.474 23.6495C117.074 21.9842 116.54 19.8825 114.424 21.2162V21.2137Z" fill="#A8602F"/>
<path d="M108.084 126.928C112.166 130.024 115.262 134.325 119.054 137.77C127.322 145.289 138.057 148.571 137.342 161.759L137.099 162.491C137.091 162.571 137.108 162.654 137.099 162.734L133.81 167.852C123.798 178.166 109.684 172.416 99.5728 165.514L93.2116 160.543C91.5342 153.15 89.5715 147.537 91.5732 139.786C93.0142 134.208 97.4979 125.689 104.278 126.467C105.571 126.615 106.731 127.447 108.084 126.928ZM103.874 137.687C102.184 137.931 102.85 141.649 104.986 141.008C106.373 140.591 105.434 137.463 103.874 137.687ZM117.476 150.407C115.045 150.297 116.438 154.342 118.639 153.674C120.161 153.211 118.561 150.458 117.476 150.407ZM102.406 153.287C100.807 153.667 100.611 156.081 103.315 155.654C105.412 155.322 105.207 152.618 102.406 153.287ZM128.98 156.693C127.275 157.212 129.336 160.033 130.52 159.714C132.581 159.16 130.857 156.12 128.98 156.693ZM120.934 165.46C119.668 165.841 120.097 169.378 122.053 168.784C123.433 168.364 123.106 164.809 120.934 165.46Z" fill="#FEAC35"/>
<path d="M106.378 85.3986C105.539 91.6062 95.3452 99.5254 90.5079 103.158C80.643 110.573 69.9517 117.139 58.1607 121.037C57.0513 121.137 54.9301 118.431 54.206 117.543C50.9706 113.584 47.7619 107.969 46.9525 102.868C45.5895 94.2931 48.9932 86.2423 53.1064 78.9448L55.5616 83.7943C60.3307 91.3234 71.3073 92.4986 78.6535 88.1513C79.3118 87.7612 80.4285 86.5909 80.9015 86.5007C82.813 86.1374 86.0606 86.6372 88.2087 86.4934C94.326 86.0813 100.831 84.143 106.375 81.6244C106.261 82.8166 106.531 84.2454 106.375 85.3986H106.378ZM53.4697 96.2363C53.321 95.2074 53.2917 92.1134 52.8601 91.3648C52.5261 90.787 51.2509 90.7504 50.7853 91.2429C50.2708 91.7866 48.1325 100.323 48.3398 101.191C48.4202 101.527 49.8612 101.727 50.0392 101.578C50.2562 101.393 50.8974 97.0287 51.6435 96.4825C51.7995 99.5985 53.1722 99.7643 55.174 97.6992C55.174 98.694 53.3331 103.027 54.1012 103.573C54.4888 103.848 55.6982 103.992 55.8688 103.383C56.1833 101.298 59.019 95.4536 58.602 93.7201C58.4947 93.2764 57.0904 93.2349 56.6466 93.4397C56.2565 93.6201 53.8135 96.6337 53.4746 96.2363H53.4697ZM61.4473 94.5881C58.897 95.1147 57.5341 101.005 57.873 103.163C58.3777 106.374 63.5027 106.423 64.9339 103.183C66.5114 99.6107 67.4379 93.3471 61.4473 94.5857V94.5881ZM79.3289 95.7633C78.773 96.4045 81.1575 100.825 81.255 101.99C81.3696 103.353 79.5288 107.476 82.6326 106.006C83.7492 105.477 83.4396 102.714 83.8346 101.605C84.1906 100.608 87.921 96.0022 87.8259 95.4171C85.868 93.33 83.8419 97.3018 83.2129 98.9134C82.457 98.3746 82.4936 96.5947 81.9182 96.0534C81.8524 95.99 81.5598 95.9998 81.3696 95.8901C81.2648 95.8291 81.2648 95.5512 81.1063 95.5219C81.0185 95.5048 79.3898 95.6975 79.3289 95.7633ZM68.8374 104.268C68.5449 103.931 70.2443 98.1112 70.3003 97.0799C70.4174 94.9441 68.2693 95.0952 67.7256 96.4752C67.2429 97.7041 66.292 102.549 66.175 103.941C66.1262 104.531 66.0336 105.609 66.5578 105.996C67.138 106.425 71.1561 106.889 71.6559 106.489C72.0948 106.14 72.1924 104.955 71.7608 104.619C71.6438 104.528 69.2958 104.58 68.8374 104.265V104.268ZM75.657 104.272L77.1345 97.0799C77.2613 95.4488 75.1181 95.3122 74.5549 96.719C74.1331 97.7723 73.331 102.892 73.253 104.185C73.1969 105.092 72.9019 106.481 74.0795 106.706C74.828 106.847 78.1561 106.613 78.5974 106.121C78.9266 105.752 79.2289 104.404 78.6657 104.268C78.1366 104.138 75.8277 104.429 75.6594 104.277V104.272H75.657Z" fill="#F48F3B"/>
<path d="M53.9573 165.414C56.3954 168.196 59.4553 171.08 62.4908 173.209C63.2052 175.03 65.2704 176.552 66.765 177.832C69.325 180.021 72.3191 182.374 75.4131 183.683C74.7719 184.895 74.0477 186.297 73.9405 187.692C73.7088 190.678 75.735 192.054 75.062 195.391C74.5281 198.047 68.696 208.609 66.8795 210.966C66.6211 211.3 66.0969 211.495 66.1481 212.185C66.0823 212.276 65.9774 212.344 65.9043 212.429C65.7726 212.583 65.6385 212.676 65.6605 212.917C65.5873 213.002 65.4995 213.083 65.4166 213.161C64.8754 213.665 64.1659 214.019 63.7099 214.621C63.6368 214.643 63.5441 214.602 63.4661 214.621C61.1279 215.192 58.1217 214.98 55.6981 215.318C54.9374 213.475 56.1467 211.564 56.3954 209.75C56.4881 209.069 56.827 207.997 55.5421 208.07C53.1161 208.209 51.8287 213.909 52.7357 215.838C50.8218 215.77 48.8152 216.108 46.9914 215.367C46.6745 214.926 46.9597 212.017 47.1523 211.354C47.384 210.562 49.415 208.006 47.6912 207.592C45.236 207.002 43.6121 212.841 44.2022 214.619C41.6567 214.575 41.9688 211.491 42.6222 209.752C43.8584 206.461 48.2227 204.191 51.6337 204.391C52.7967 204.459 54.1743 205.298 55.2714 204.605C55.742 204.308 57.2464 201.597 57.656 200.899C58.1192 200.107 60.4672 195.994 60.5354 195.479C60.5769 195.174 60.5818 194.877 60.4916 194.577C60.2355 193.721 55.6591 191.2 54.5717 190.254C51.4191 187.509 49.5978 183.393 49.0785 179.299L49.6368 173.645C49.9099 171.841 51.5435 166.563 52.8625 165.414C53.2819 165.048 53.5403 165.141 53.9548 165.414H53.9573Z" fill="#D88D41"/>
<path d="M14.9466 68.4702C12.5157 70.4866 11.9428 73.4563 13.6812 76.187C14.1786 76.9697 15.8487 78.613 16.5314 77.2354C17.3043 75.6774 13.9787 72.5663 16.668 70.5524C18.2796 69.3455 19.25 70.6207 20.4349 71.8739C24.609 76.2919 25.6404 82.2263 29.2294 86.9588C32.8183 91.6913 37.9677 94.7317 43.6852 95.7801C44.4728 99.2009 42.4174 101.039 41.2349 103.863C39.85 107.169 39.0747 110.955 38.5968 114.503C30.5313 113.432 23.3924 109.058 19.2938 102C15.9828 96.2994 16.034 91.3768 10.8066 86.6102C7.22493 83.3455 -0.135894 80.2514 4.34302 74.3169C4.6868 74.3243 6.01316 78.552 8.24652 78.6691C10.8529 78.808 8.03927 75.1996 7.75645 74.5559C5.58404 69.6332 10.8334 67.373 14.949 68.4678L14.9466 68.4702Z" fill="#D88D41"/>
<path d="M88.3353 77.7256C80.6648 81.9534 76.4054 88.929 66.5332 87.6929C63.0028 87.2516 58.6263 84.7329 57.3828 81.2464C56.6172 79.1008 57.0658 76.1481 56.3295 74.261C55.9833 73.376 54.6984 72.4056 54.201 71.6375C52.4601 68.9409 51.5726 65.7591 50.2999 62.8699C52.465 64.8326 54.8374 66.4491 57.8144 66.81C58.1606 68.7995 58.8091 70.7525 59.0456 72.764C59.1748 73.8733 58.9798 75.0071 59.1017 76.1165C59.7624 82.0875 64.9874 86.2202 70.9683 84.6135C79.141 82.4167 81.2403 73.0151 85.5436 67.0221C86.3116 65.9542 87.7745 64.8741 88.701 63.8427C89.1618 63.3307 89.8226 61.7727 90.3029 62.2896C90.7394 62.7602 91.3538 64.1158 92.3607 63.1137C94.4088 61.0803 89.1399 56.9988 86.87 58.1155C85.2876 58.8933 87.3576 59.9563 87.3771 60.0855C87.5234 61.073 83.9734 64.1841 83.0469 64.7692C77.7903 68.0925 68.1619 67.6292 65.2922 61.4021C64.0853 58.7835 64.9777 59.4516 66.7258 59.181C69.6833 58.7226 73.543 57.5718 75.9007 55.6822C78.4071 53.6707 81.1208 49.638 78.824 46.5439C80.4259 46.9657 81.9156 47.6899 83.3761 48.4506C87.1382 50.4084 95.6401 55.0239 96.9347 59.02C98.6195 64.228 92.7655 75.2802 88.3329 77.7208V77.7256H88.3353Z" fill="#FDC586"/>
<path d="M67.1209 4.65371L64.1195 6.40187C58.6873 10.0591 54.1742 17.5614 51.8189 23.5861C50.5413 26.8532 49.9123 30.5592 48.5567 33.724C46.8743 37.6518 43.5682 40.4899 41.4177 44.13C38.7992 48.5626 37.6678 53.3439 38.5968 58.4786C36.6584 58.9395 34.7347 59.2613 32.9012 58.2007C29.539 56.255 33.2718 52.5173 34.1447 50.0133C36.7145 42.6452 31.7431 35.4355 34.2008 28.1454C36.3951 21.6307 46.3428 14.8769 51.9287 11.0246C56.2735 8.02813 61.574 3.71257 67.1209 4.64883V4.65371Z" fill="#A8602F"/>
<path d="M151.971 128.144C152.759 128.281 152.379 127.747 152.449 127.293C152.583 126.433 152.776 122.254 152.947 122.054C153.298 121.647 153.381 122.202 153.49 122.371C153.778 122.802 154.458 124.282 154.651 124.736C155.602 126.976 156.202 129.612 156.358 132.043C155.951 133.613 155.951 135.832 156.358 137.402C156.099 141.774 154.671 146.465 153.188 150.553C153.398 150.719 156.338 149.322 156.845 149.095C155.894 150.422 155.485 151.782 154.4 153.106C151.218 156.993 144.815 160.201 140.022 161.518C140.095 159.341 139.988 157.002 139.473 154.881C139.125 153.448 138.335 152.17 138.054 150.722C146.064 145.865 150.577 137.226 151.969 128.147H151.971V128.144Z" fill="#DD8E32"/>
<path d="M130.289 140.318C129.104 136.171 124.257 135.491 121.614 132.533C118.971 129.576 118.527 125.853 118.854 121.854C121.004 121.128 122.923 119.926 124.788 118.655C126.556 121.111 125.817 125.004 127.483 127.401C129.209 129.885 132.742 130.244 134.278 132.548C136.194 135.425 133.975 140.365 130.289 140.321V140.318Z" fill="#C11111"/>
<path d="M137.099 162.734C136.462 168.632 134.443 174.706 128.385 177.046C118.081 181.026 99.368 169.096 93.2117 161.028L93.3921 160.911C93.4018 160.759 93.2336 160.64 93.2117 160.542L99.5728 165.514C109.684 172.419 123.798 178.168 133.81 167.852L137.099 162.734Z" fill="#DD8E32"/>
<path d="M108.085 126.928C106.731 127.445 105.571 126.613 104.279 126.467C97.4981 125.689 93.0143 134.208 91.5733 139.787C89.5716 147.537 91.5319 153.15 93.2118 160.543C93.2337 160.64 93.4019 160.76 93.3922 160.911L93.2118 161.028C85.8582 151.39 85.2804 134.903 95.0331 126.677C99.9606 122.519 103.211 123.229 108.085 126.928Z" fill="#FDC586"/>
<path d="M41.2787 130.58C41.347 130.653 41.486 130.819 41.5226 131.068C41.5372 131.163 41.5323 131.246 41.5226 131.312L41.0349 130.47L41.0398 128.791C43.2683 149.242 44.385 157.405 44.7897 157.883C44.8238 157.922 45.27 158.409 45.1359 158.687C45.1067 158.748 45.0433 158.799 44.9336 158.834C36.8705 151.407 35.4125 138.17 37.78 127.937C38.0165 126.913 39.4526 121.793 40.067 121.454C40.3937 121.274 40.9106 121.303 41.2739 121.079C41.4031 124.224 41.1081 127.44 41.2739 130.578H41.2787V130.58Z" fill="#FEAC35"/>
<path d="M44.9361 158.836C45.0458 158.802 45.1092 158.751 45.1385 158.69C45.2701 158.421 44.8508 157.953 44.7923 157.885C44.0925 157.054 38.2239 144.565 40.033 132.579C40.3646 130.38 41.0302 127.715 41.2277 127.744C41.3155 127.757 41.2569 128.305 41.3935 129.87C41.3935 129.87 41.4179 130.195 41.5203 131.311C42.7345 144.397 48.5812 156.49 48.5812 156.49C49.2687 157.914 50.3172 159.965 51.7606 162.369C51.3436 162.4 50.7438 162.41 50.0441 162.276C48.8786 162.054 48.0863 161.564 47.506 161.201C46.3673 160.486 45.531 159.621 44.9337 158.836H44.9361Z" fill="#E28E2E"/>
<path d="M156.848 149.093C157.111 148.976 157.923 148.106 157.818 148.961C157.708 149.864 157.13 151.429 156.792 152.324C153.902 159.906 147.134 165.087 139.295 166.872C139.79 165.068 139.963 163.373 140.027 161.516C144.82 160.199 151.223 156.99 154.405 153.104C155.49 151.777 155.899 150.419 156.85 149.093H156.848Z" fill="#B56019"/>
<path d="M80.7771 113.53C89.3375 108.086 98.2758 101.325 105.166 93.9176C105.4 93.664 105.386 92.9325 105.893 93.4372C105.766 94.1029 106.429 97.1652 106.136 97.4578C106.034 97.5602 104.088 97.2091 103.698 97.943C96.6471 104.667 89.2619 111.136 80.899 116.21L80.7795 113.533H80.7771V113.53Z" fill="#B56019"/>
<path d="M98.0881 170.042C99.7388 170.537 101.109 172.049 102.545 173.019C107.148 176.125 112.632 178.878 118.084 180.029C117.993 180.797 117.901 181.56 117.825 182.333C117.803 182.564 117.596 182.686 117.596 182.708C117.316 182.906 117.369 183.15 117.352 183.44C113.478 182.474 109.762 180.36 106.544 178.039C103.447 175.808 100.361 173.017 98.0906 170.042H98.0881Z" fill="#B56019"/>
<path d="M62.4908 173.207C66.2627 175.852 70.6758 177.703 75.0425 179.3C75.8764 179.604 76.7419 179.831 77.605 180.029C77.7464 180.219 75.6813 183.169 75.4107 183.678C72.3142 182.367 69.3202 180.016 66.7625 177.827C65.2679 176.549 63.2028 175.025 62.4884 173.204H62.4908V173.207Z" fill="#B56019"/>
<path d="M116.372 122.788C116.155 124.19 115.882 127.291 117.384 130.668C118.213 132.535 119.312 133.872 120.151 134.727C120.461 135.149 120.768 135.571 121.078 135.993C120.561 135.476 119.763 134.691 118.766 133.757C115.324 130.539 113.6 128.929 112.537 128.166C112.537 128.166 109.925 126.296 109.06 124.121C109.048 124.092 109.026 124.031 109.048 123.968C109.177 123.57 110.754 123.773 111.101 123.729C112.873 123.497 114.614 123.078 116.372 122.788Z" fill="#B56019"/>
<path d="M92.9679 119.621L93.6165 120.557L96.3813 122.298C94.5771 122.919 92.5169 124.521 91.2636 125.955C90.8126 125.721 91.0515 125.099 91.1271 124.726C91.5294 122.693 91.9317 121.279 92.9704 119.623H92.9679V119.621Z" fill="#B56019"/>
<path d="M96.3813 81.8657L84.5562 83.8187C83.4152 83.8821 85.0341 82.7361 85.1658 82.5972C85.0292 83.3335 85.5388 83.0677 86.0069 83.0824C88.962 83.1799 93.3921 82.4094 96.3813 81.8657Z" fill="#D88D41"/>
<path d="M56.3956 209.745C56.1469 211.556 54.9375 213.47 55.6982 215.313C58.1218 214.974 61.1305 215.187 63.4662 214.616C63.2151 215.07 62.7884 215.021 62.3617 215.096C61.4791 215.255 55.4325 215.85 55.174 215.591C55.0692 213.49 55.1545 211.505 56.3956 209.745Z" fill="#FEAC35"/>
<path d="M122.123 136.285C123.011 136.873 124.347 137.658 125.049 138.134C126.01 138.785 126.866 139.555 127.341 140.691C126.605 140.372 125.866 139.911 125.164 139.397C124.959 139.248 123.979 138.555 123.186 137.775C123.094 137.685 122.911 137.502 122.64 137.271C122.182 136.878 122.048 136.844 121.672 136.539C121.119 136.088 120.575 135.483 120.656 135.376C120.668 135.359 120.702 135.347 120.802 135.376C120.926 135.464 121.102 135.591 121.314 135.737C121.314 135.737 121.716 136.015 122.126 136.288H122.123V136.285Z" fill="#B56019"/>
<path d="M114.424 120.108C110.749 120.935 106.934 121.084 103.208 120.596L114.424 120.108Z" fill="#D88D41"/>
<path d="M49.0809 179.297C48.4275 174.14 50.0757 169.271 52.8942 165.07C53.0478 164.841 52.9551 164.47 52.9844 164.439C53.3574 164.032 53.7597 165.187 53.9572 165.412C53.5427 165.138 53.2843 165.048 52.8649 165.412C51.5483 166.557 49.9148 171.839 49.6393 173.643L49.0809 179.297Z" fill="#FEAC35"/>
<path d="M140.024 89.1724C140.729 88.3483 141.192 87.4584 141.227 86.3344C141.285 84.4107 140.446 84.0474 138.683 84.0377C137.562 84.0328 136.375 84.774 135.392 84.301C136.582 83.9304 140.122 83.3379 140.995 84.1839C142.019 85.1714 141.565 88.5678 140.024 89.1749V89.1724Z" fill="#D88D41"/>
<path d="M111.742 53.3658C111.7 55.5479 111.72 57.7594 111.742 59.9415C111.154 58.1495 111.181 56.0819 111.254 54.207C111.274 53.7388 111.003 53.2293 111.742 53.3658Z" fill="#D88D41"/>
<path d="M154.653 124.736C154.461 124.282 153.781 122.805 153.493 122.371C153.381 122.205 153.3 121.647 152.949 122.054C152.776 122.254 152.586 126.435 152.452 127.294C152.381 127.747 152.761 128.281 151.974 128.144C152.296 126.053 152.413 123.917 152.576 121.803C153.239 120.767 154.714 124.087 154.656 124.733H154.653V124.736Z" fill="#FEAC35"/>
<path d="M83.9466 175.642L84.678 178.563C84.4659 178.717 80.6599 177.98 80.0455 177.834C80.8672 177.134 83.5224 178.558 84.1904 178.075C83.9954 177.522 83.6979 176.822 83.693 176.237C83.6881 175.652 83.9442 175.674 83.9466 175.642Z" fill="#FEAC35"/>
<path d="M111.742 50.6859C111.881 47.8723 112.315 46.2777 112.961 43.6226L111.742 50.6859Z" fill="#D88D41"/>
<path d="M117.837 189.528C117.264 187.46 117.228 185.595 117.35 183.437C117.367 183.149 117.313 182.903 117.593 182.706C117.408 184.897 117.635 187.343 117.837 189.525V189.528Z" fill="#FEAC35"/>
<path d="M156.36 137.402C155.953 135.832 155.953 133.613 156.36 132.043C156.465 133.647 156.455 135.793 156.36 137.402Z" fill="#FEAC35"/>
<path d="M144.901 100.378C143.418 100.747 142.043 100.625 140.512 100.622L141.848 100.374L144.901 100.378Z" fill="#FEAC35"/>
<path d="M106.134 78.2109C103.272 79.7909 99.8289 81.2781 96.6251 81.8657L106.134 78.2109Z" fill="#D88D41"/>
<path d="M139.537 100.62L137.83 100.864C138.201 100.688 138.44 100.393 138.964 100.381C139.322 100.371 139.505 100.62 139.537 100.623V100.62Z" fill="#FEAC35"/>
<path d="M111.742 52.6369C111.339 52.3297 111.339 51.2398 111.742 50.9326C111.717 51.4983 111.756 52.0712 111.742 52.6369Z" fill="#D88D41"/>
<path d="M111.72 61.1095C111.727 60.8827 111.734 60.656 111.742 60.4316Z" fill="#FEAC35"/>
<path d="M112.23 62.8674L111.986 61.8921C112.025 62.0993 112.159 62.5285 112.23 62.8674Z" fill="#FEAC35"/>
<path d="M137.099 162.491L137.343 161.759C137.313 162.283 137.101 162.452 137.099 162.491Z" fill="#DD8E32"/>
<path d="M98.088 169.798C97.5687 169.857 97.5419 169.827 97.6004 169.311C97.754 169.474 97.8881 169.479 98.088 169.798Z" fill="#B56019"/>
<path d="M145.388 100.135C145.693 99.7276 146.2 99.6423 146.608 99.4033C146.398 100.006 145.822 99.9495 145.388 100.135Z" fill="#FEAC35"/>
<path d="M66.1481 212.181C66.0969 211.491 66.6212 211.298 66.8796 210.961C66.7309 211.439 66.4334 211.786 66.1481 212.181Z" fill="#FEAC35"/>
<path d="M65.6605 212.912C65.6385 212.671 65.7726 212.58 65.9043 212.424C65.9262 212.658 65.7921 212.756 65.6605 212.912Z" fill="#FEAC35"/>
<path d="M63.7098 214.616C64.1658 214.014 64.8753 213.66 65.4166 213.156C65.0338 213.758 64.4023 214.404 63.7098 214.616Z" fill="#FEAC35"/>
<path d="M120.141 134.71L120.027 134.824L120.877 135.673L120.991 135.559L120.141 134.71Z" fill="#B56019"/>
<path d="M47.618 113.53C45.4919 119.062 44.4972 125.375 44.4484 131.312L43.951 125.111L44.2046 117.429C42.9343 117.319 41.9566 118.238 40.7985 118.528C41.625 113.803 42.1809 108.956 44.0851 104.516C45.1116 107.457 46.0844 110.814 47.6204 113.53H47.618Z" fill="#DD8E32"/>
<path d="M68.5862 29.2522C70.9683 32.7315 71.217 36.8886 68.8301 40.458C68.7276 40.4775 67.6646 41.7186 67.3672 41.9161C70.7001 42.1891 76.7541 43.7593 78.8265 46.5461C81.1257 49.6377 78.4096 53.6729 75.9032 55.6844C73.5455 57.5764 69.6858 58.7248 66.7284 59.1831C64.9802 59.4538 64.0878 58.7857 65.2947 61.4043C68.1644 67.6314 77.7928 68.0946 83.0495 64.7714C83.976 64.1863 87.5259 61.0752 87.3796 60.0877C87.3601 59.9585 85.2901 58.8954 86.8725 58.1177C89.1448 56.9985 94.4137 61.0825 92.3632 63.1159C91.3563 64.118 90.7418 62.7624 90.3054 62.2918C89.8251 61.7749 89.1644 63.3329 88.7035 63.8449C87.777 64.8763 86.3142 65.9564 85.5461 67.0243C81.2403 73.0149 79.1411 82.4189 70.9708 84.6156C64.9899 86.2224 59.7625 82.0897 59.1042 76.1186C58.9823 75.0093 59.1774 73.8755 59.0481 72.7662C58.8116 70.7522 58.1631 68.7993 57.8169 66.8122C54.8399 66.4513 52.4675 64.8324 50.3024 62.8721C49.4393 60.9142 48.1764 59.7951 47.8911 57.3643C47.479 53.8509 48.3422 52.349 50.5463 49.962C49.4247 53.5388 49.5173 57.769 52.1286 60.6826C54.0718 62.8526 57.7559 64.5179 60.6378 63.8181C61.3839 63.6377 63.1394 62.8697 63.2247 62.0163C63.2393 61.8627 62.7078 59.0978 62.6249 58.9662C62.542 58.8345 60.4062 58.0787 59.8942 57.7983C56.1175 55.7356 53.2989 51.1738 54.4498 46.7973C55.7639 45.7245 56.7782 43.3619 58.8385 42.6573C59.4285 42.4549 60.6159 42.4573 61.2766 42.411C58.9531 40.0289 58.6995 36.7545 60.4964 33.9628C61.8569 31.8489 65.0095 30.2421 67.0088 32.4218C65.5337 28.2087 60.9353 28.8182 58.4947 31.961C56.293 34.7966 55.9565 38.1613 57.3756 41.4406C50.0172 35.3111 60.6695 21.7354 68.5911 29.262L68.5862 29.2522ZM64.2585 35.767C65.3142 36.8325 66.938 34.7576 65.8043 33.8579C64.4901 32.8144 63.3539 34.8576 64.2585 35.767ZM70.0467 69.2016C59.3188 68.397 59.2797 84.9863 70.5855 82.0385C75.8593 80.6634 78.1926 73.7487 80.7697 69.56C80.8283 69.1552 80.7917 69.1699 80.4089 69.1967C79.5604 69.2552 78.5778 69.6307 77.722 69.6843C76.3908 69.7672 74.845 69.5307 73.5747 69.6843C71.6729 69.9111 69.5493 72.7369 68.7789 74.3924C68.5399 74.9093 68.5667 76.3795 67.7304 76.0211C66.5187 75.5018 68.0962 71.6787 68.6204 70.8254C68.9934 70.2207 69.6054 69.7453 70.0418 69.204H70.0467V69.2016Z" fill="#442809"/>
<path d="M95.8936 49.2258C92.1437 47.2874 90.5638 43.2474 92.7728 39.4097C94.0162 37.2471 96.2594 35.4477 98.8926 35.8793C99.2656 35.9402 100.933 36.9423 99.8093 35.4477C98.1465 33.2363 94.0236 33.5971 91.9877 35.2136C88.7815 37.7591 87.7892 43.3644 90.042 46.79C82.4984 40.5532 91.7366 27.1311 100.509 33.0437C107.307 37.625 104.808 49.6232 95.8936 49.2258ZM100.524 36.8033C100.699 36.462 100.37 36.1523 100.285 36.3181C100.109 36.6595 100.438 36.9691 100.524 36.8033ZM98.0173 38.3077C97.0518 38.5929 97.0518 40.8629 98.0173 41.1481C100.304 41.8235 100.304 37.6347 98.0173 38.3077Z" fill="#442809"/>
<path d="M50.5437 49.9572C52.1212 48.2481 52.9209 48.0359 54.4448 46.79C53.294 51.169 56.1149 55.7284 59.8892 57.791C60.4012 58.0714 62.5395 58.8346 62.62 58.9589C62.7004 59.0833 63.2368 61.853 63.2197 62.0091C63.1344 62.8624 61.3789 63.6304 60.6329 63.8109C57.7509 64.5106 54.0669 62.8454 52.1236 60.6754C49.5124 57.7618 49.4197 53.5316 50.5413 49.9548H50.5437V49.9572Z" fill="#FDC586"/>
<path d="M90.0422 46.7898C87.7893 43.3641 88.7816 37.7612 91.9878 35.2134C94.0237 33.5969 98.1491 33.236 99.8095 35.4474C100.931 36.942 99.2657 35.9399 98.8927 35.879C96.2595 35.445 94.0164 37.2468 92.7729 39.4094C90.5639 43.2471 92.1439 47.2847 95.8938 49.2255C93.5141 49.1207 91.844 48.2795 90.0422 46.7898Z" fill="#FEFEFE"/>
<path d="M96.3105 21.0235C98.4829 20.5407 101.645 21.7452 102.923 23.5689C103.581 24.51 104.842 27.2457 103.028 27.5065C101.806 27.6821 100.555 25.1586 99.3875 24.4198C98.2196 23.6811 96.0009 23.5787 95.5035 23.1861C94.6526 22.5132 95.2645 21.2551 96.3081 21.0235H96.3105Z" fill="#442809"/>
<path d="M65.3582 16.8932C66.9479 16.6616 71.8169 17.1688 70.3077 19.6459C69.6347 20.7504 67.1575 19.5435 65.5971 19.8117C64.2659 20.0409 63.5198 21.1942 62.8054 21.4063C61.1353 21.8988 60.5989 20.4481 61.5181 19.1437C62.308 18.0197 64.0001 17.0932 65.3606 16.8932H65.3582Z" fill="#442809"/>
<path d="M68.5863 29.2524C70.9611 31.5077 71.2707 35.2186 70.3686 38.2176C70.3052 38.4248 69.1715 40.6021 69.0715 40.6996C68.9155 40.8484 68.8472 40.4534 68.8301 40.4558C71.2171 36.8863 70.9684 32.7293 68.5863 29.25V29.2524Z" fill="#FEAC35"/>
<path d="M117.476 150.407C118.561 150.456 120.161 153.211 118.639 153.674C116.435 154.342 115.046 150.297 117.476 150.407Z" fill="#442809"/>
<path d="M120.934 165.46C123.108 164.809 123.435 168.362 122.053 168.784C120.095 169.378 119.668 165.841 120.934 165.46Z" fill="#442809"/>
<path d="M103.874 137.688C105.437 137.461 106.373 140.589 104.986 141.008C102.85 141.652 102.182 137.934 103.874 137.688Z" fill="#442809"/>
<path d="M128.98 156.693C130.857 156.12 132.581 159.16 130.521 159.714C129.336 160.033 127.275 157.212 128.98 156.693Z" fill="#442809"/>
<path d="M102.406 153.287C105.207 152.619 105.415 155.325 103.315 155.654C100.612 156.081 100.807 153.667 102.406 153.287Z" fill="#442809"/>
<path d="M53.4697 96.2364C53.8086 96.6338 56.254 93.6202 56.6417 93.4398C57.0879 93.235 58.4923 93.2765 58.5971 93.7202C59.0141 95.4537 56.1785 101.298 55.864 103.383C55.6933 103.992 54.484 103.848 54.0963 103.573C53.3307 103.027 55.1691 98.694 55.1691 97.6993C53.1673 99.7644 51.7922 99.5986 51.6386 96.4826C50.895 97.0288 50.2537 101.393 50.0343 101.578C49.8587 101.73 48.4154 101.527 48.3349 101.191C48.1277 100.323 50.2659 91.7867 50.7804 91.243C51.246 90.7505 52.5236 90.7871 52.8552 91.3649C53.2868 92.1134 53.316 95.205 53.4648 96.2364H53.4697Z" fill="#442809"/>
<path d="M61.4474 94.5879C67.4379 93.3469 66.5114 99.613 64.934 103.185C63.5028 106.425 58.3802 106.376 57.873 103.165C57.5341 101.008 58.897 95.117 61.4474 94.5903V94.5879ZM60.5745 103.265C61.9984 103.568 62.3666 103.004 62.8518 101.834C63.3369 100.664 64.7779 95.4876 62.0033 96.8432C61.1475 97.2626 59.7407 102.746 60.577 103.265H60.5745Z" fill="#442809"/>
<path d="M79.3289 95.763C79.7068 95.3364 80.5552 95.3339 81.1063 95.5217C81.5403 95.6704 81.8109 95.9459 81.9182 96.0556C82.2327 96.3799 82.34 96.692 82.5521 97.2503C82.6935 97.6258 82.9154 98.1963 83.2128 98.9156C84.0369 96.3506 85.495 94.7244 86.7701 94.8317C86.8164 94.8365 87.5625 94.9072 87.8259 95.4193C88.3696 96.4774 86.4995 98.7498 85.2804 99.9006C84.644 100.5 84.154 100.825 83.8346 101.607C83.62 102.134 83.7005 102.336 83.5444 103.66C83.2738 105.952 82.9276 106.228 82.7862 106.32C82.3058 106.632 81.533 106.571 81.1282 106.196C80.5894 105.696 80.7625 104.689 80.9697 103.487C81.1282 102.57 81.2745 102.505 81.255 101.993C81.2209 101.117 80.7625 100.661 80.27 99.8323C79.68 98.84 78.6047 96.5798 79.3289 95.7655V95.763Z" fill="#442809"/>
<path d="M68.8373 104.268C69.2982 104.582 71.6461 104.531 71.7607 104.621C72.1947 104.958 72.0947 106.143 71.6558 106.491C71.156 106.889 67.1355 106.425 66.5577 105.999C66.0335 105.611 66.1237 104.533 66.1749 103.943C66.2919 102.551 67.2428 97.7065 67.7255 96.4777C68.2668 95.0977 70.4148 94.9465 70.3002 97.0823C70.2442 98.1137 68.5448 103.934 68.8373 104.27V104.268Z" fill="#442809"/>
<path d="M75.6569 104.272C75.8252 104.423 78.1341 104.133 78.6632 104.263C79.2264 104.399 78.9265 105.75 78.5949 106.116C78.1536 106.608 74.8255 106.842 74.077 106.701C72.8969 106.479 73.1944 105.089 73.2505 104.18C73.3309 102.887 74.1306 97.7673 74.5524 96.714C75.1156 95.3072 77.2588 95.4437 77.132 97.0748L75.6545 104.267V104.272H75.6569Z" fill="#442809"/>
<path d="M70.0467 69.2017C69.6102 69.743 68.9958 70.216 68.6252 70.8231C68.101 71.6765 66.5211 75.4971 67.7353 76.0188C68.574 76.3772 68.5448 74.907 68.7837 74.3901C69.5517 72.7346 71.6753 69.9088 73.5796 69.682C74.8498 69.5309 76.3956 69.7649 77.7269 69.682C78.5802 69.6284 79.5653 69.2554 80.4137 69.1944C80.7941 69.1676 80.8307 69.153 80.7746 69.5577C78.1974 73.7489 75.8641 80.6611 70.5904 82.0362C59.2846 84.9864 59.3236 68.3947 70.0515 69.1993H70.0467V69.2017Z" fill="#E28966"/>
<path d="M64.2585 35.7671C63.3563 34.8577 64.4925 32.8145 65.8042 33.858C66.938 34.7601 65.3142 36.8326 64.2585 35.7671Z" fill="#FEFEFE"/>
<path d="M57.3707 41.4308C55.9493 38.1515 56.2881 34.7892 58.4898 31.9512C60.9304 28.8084 65.5288 28.1989 67.0039 32.412C65.0046 30.2299 61.8545 31.839 60.4916 33.9529C58.6946 36.7446 58.9482 40.0191 61.2718 42.4012C60.611 42.4475 59.4236 42.4451 58.8336 42.6474C58.363 42.2232 57.8559 41.8355 57.3707 41.4284V41.4308Z" fill="#FEFEFE"/>
<path d="M98.0173 38.3078C100.304 37.6325 100.304 41.8237 98.0173 41.1483C97.0518 40.863 97.0518 38.5931 98.0173 38.3078Z" fill="#FEFEFE"/>
<path d="M100.524 36.8034C100.439 36.9692 100.109 36.662 100.285 36.3182C100.37 36.1525 100.699 36.4597 100.524 36.8034Z" fill="#FEFEFE"/>
<path d="M60.5745 103.265C59.7406 102.748 61.1474 97.2624 62.0008 96.8431C64.7754 95.485 63.3369 100.659 62.8493 101.834C62.3616 103.009 61.9959 103.568 60.572 103.265H60.5745Z" fill="#F48F3B"/>
<path d="M66.8796 210.962C66.5846 212.1 65.936 213.785 64.4073 214.687C63.4271 215.265 62.5665 215.236 60.4696 215.382C59.153 215.475 57.2683 215.64 54.9618 215.97C54.679 214.685 54.7619 213.697 54.8936 213.027C55.0301 212.327 55.3617 211.232 55.8371 210.101C56.2711 209.065 56.5808 208.582 56.3784 208.348C56.1078 208.033 55.1301 208.409 54.7205 208.631C52.4895 209.843 52.6431 214.351 52.7382 215.831C51.7849 216.079 50.2025 216.335 48.3959 215.867C47.8668 215.731 47.3962 215.55 46.9915 215.36C46.5185 213.431 46.8062 212.156 47.1524 211.347C47.6985 210.079 48.7177 209.216 48.3715 208.28C48.3617 208.255 48.1569 207.714 47.6888 207.585C47.0061 207.397 46.2722 208.172 45.9138 208.553C44.307 210.255 44.1876 213.275 44.2022 214.609C43.6097 214.816 42.888 214.948 42.3833 214.602C41.1399 213.746 41.6251 210.264 43.244 208.002C44.9215 205.661 47.5498 204.995 48.8811 204.661C50.4781 204.259 51.8556 204.235 55.269 204.596C64.99 205.629 66.0604 206.573 66.509 207.326C66.8601 207.916 67.2843 209.023 66.8771 210.954V210.962H66.8796Z" fill="#FDC380"/>
<path d="M106.658 85.8788C106.478 86.6639 106 88.1877 104.571 89.8164C104.929 89.2629 105.778 87.7708 105.476 85.9446C105.459 85.8422 105.298 84.9133 104.959 84.4671C103.515 82.5702 96.1789 85.9665 91.2586 87.8415C84.6537 90.3577 76.7053 93.3859 68.0815 92.0644C68.0815 92.0644 58.6994 90.6259 53.8547 83.8039C53.4476 83.2309 52.3431 81.6754 52.6796 79.8955C52.6966 79.8102 52.9575 78.4936 53.4769 78.4521C54.1937 78.396 54.3131 80.8342 56.1613 83.6479C56.705 84.4744 58.0972 86.5395 60.606 87.8196C61.3838 88.2145 62.0787 88.4388 63.1198 88.7753C63.8342 89.0045 65.4117 89.5092 67.2817 89.775C68.5057 89.9481 72.4019 90.4601 76.2956 88.9801C77.8244 88.3998 78.59 88.1073 79.2921 87.4806C79.909 86.9296 80.3284 86.3176 81.2744 86.008C81.7644 85.8471 82.1302 85.8568 82.7543 85.8544C83.8442 85.8495 84.9341 85.7422 86.0239 85.7617C86.4847 85.7715 90.0128 85.8398 93.0946 85.4423C95.2524 85.1644 96.7494 84.7133 99.3851 83.9185C102.53 82.97 104.783 81.9972 105.217 81.7875C105.495 81.6534 105.783 81.5364 106.063 81.4047C106.617 81.1463 106.678 81.0975 106.768 81.1317C107.029 81.2292 107.063 81.8607 106.921 83.5162C106.809 84.8206 106.756 85.474 106.661 85.8812L106.658 85.8788Z" fill="#D87C3D"/>
<path d="M116.433 214.729C116.023 215.701 115.101 217.998 112.634 218.964C110.593 219.763 108.713 219.178 108.116 218.964C107.743 217.825 107.777 216.955 107.887 216.357C108.045 215.487 108.389 215.024 108.652 213.546C108.835 212.522 108.777 212.134 108.54 211.93C108.184 211.618 107.546 211.827 107.472 211.852C106.348 212.244 105.951 213.778 105.666 214.868C105.419 215.821 105.163 217.323 105.398 219.242C104.076 219.512 102.423 219.676 100.558 219.449C100.116 219.395 99.6995 219.325 99.3021 219.242C98.6316 216.791 98.99 215.321 99.4777 214.412C99.8263 213.763 100.643 212.661 100.248 211.981C100.124 211.766 99.919 211.661 99.858 211.635C99.229 211.342 98.4171 211.903 98.0757 212.137C96.3251 213.346 96.3666 218.084 96.3739 218.508C95.7107 218.437 95.0426 218.22 94.5721 217.713C93.2408 216.282 94.1893 213.28 95.4059 211.586C97.1248 209.194 100.043 208.497 101.043 208.246C102.65 207.841 103.345 208.002 107.431 208.18C114.46 208.487 115.877 208.168 116.755 209.348C117.123 209.843 117.886 211.262 116.428 214.724L116.433 214.729Z" fill="#FDC380"/>
<path d="M113.993 85.4578C113.936 85.2041 113.658 85.3689 113.611 85.3426C112.38 84.6369 110.68 82.7333 109.826 81.5724C104.322 74.0979 107.394 62.2398 117.529 61.3728C117.83 61.3471 118.777 61.4389 118.955 61.3411C119.217 61.1981 119.449 60.8237 119.699 60.621C127.602 54.2079 134.05 59.0386 141.57 62.6365C150.824 67.0645 158.482 68.6236 168.685 68.3647C174.968 68.2049 182.793 66.7154 187.403 72.304C187.835 72.8284 188.485 73.8055 188.81 74.4566C189.182 75.2019 189.394 76.005 189.56 76.815C195.348 77.1067 201.26 82.2479 201.224 88.257C201.192 93.5565 197.187 98.2329 192.257 99.8564C192.35 102.717 191.242 105.506 189.358 107.657C181.195 116.976 165.057 118.429 153.542 117.102C140.963 115.652 123.184 110.313 115.196 99.8845C112.343 96.1599 111.06 91.0132 113.259 86.6525C113.366 86.4388 114.008 85.5284 113.992 85.4599L113.994 85.4585L113.993 85.4578ZM174.805 78.8248L176.543 80.549C177.134 81.1352 178.891 81.8972 179.74 81.8991C180.829 81.9014 180.743 81.3627 181.357 80.6648C184.57 77.0244 189.677 79.7776 188.441 84.0982C187.224 88.3537 181.356 90.2676 177.393 89.2595C173.229 88.2005 172.391 85.9559 169.492 83.4313C168.416 82.494 167.597 81.7804 166.367 82.8345C164.3 84.6036 163.433 86.1703 160.681 87.2252C155.219 89.3194 150.459 86.0346 147.013 81.9621C146.142 80.9337 145.376 79.6115 144.492 78.6462C142.872 76.8795 141.967 78.0843 140.414 78.9633C135.618 81.6787 129.869 79.7925 126.854 75.3231C125.206 72.8795 125.464 69.2276 128.896 68.6838C132.25 68.1518 132.392 71.6411 134.819 72.3624C136.115 72.7474 137.339 72.1272 138.515 71.6429C133.843 69.4848 129.583 66.3669 124.738 64.5796C119.681 62.7144 113.703 62.7575 110.599 67.921C107.286 73.4352 110.171 80.435 115.143 83.8731C118.834 79.6767 124.55 79.0324 129.692 80.3623C133.601 81.3727 136.95 83.5872 140.576 85.2805C150.286 89.8145 160.104 91.9778 170.816 91.3691C177.153 91.0095 188.248 88.306 191.32 95.8992C191.487 96.3106 191.66 97.2611 191.812 97.5328C191.996 97.8606 192.789 97.4221 193.042 97.288C197.656 94.8571 200.845 89.021 198.048 84.125C193.951 76.9536 184.02 78.4723 177.145 78.7133C176.518 78.7349 175.697 78.6385 175.108 78.719C174.987 78.7358 174.892 78.6744 174.803 78.8235L174.805 78.8248ZM186.133 76.4014C186.296 76.4035 187.675 76.5994 187.695 76.4636C185.896 71.4636 180.733 70.0584 175.957 69.956C171.598 69.862 167.055 70.4512 162.65 70.356C154.504 70.1786 146.733 67.4855 139.538 63.8277C134.992 61.517 130.283 58.3949 124.992 59.9826C124.138 60.2387 122.77 60.8133 122.077 61.3594C121.828 61.5559 122.605 61.6627 122.793 61.7258C128.932 63.7753 133.756 67.1943 139.496 69.9469C139.834 70.1091 140.754 70.552 141.06 70.6166C141.359 70.6792 141.818 70.4641 142.146 70.441C144.875 70.2457 147.59 71.5062 149.356 73.5711C152.404 74.4398 155.467 75.2113 158.599 75.7096C159.767 75.8956 162.366 76.3838 163.422 76.3292C163.757 76.3122 164.161 75.9873 164.506 75.8657C166.397 75.202 168.663 75.0235 170.549 75.7972C171.161 76.0486 172.06 76.7415 172.59 76.8398C173.282 76.9673 175.236 76.8411 176.053 76.82C179.384 76.7315 182.8 76.3562 186.134 76.4035L186.133 76.4021L186.133 76.4014ZM184.861 80.5485C183.973 80.4748 183.686 80.7869 183.03 81.3029C181.911 82.1848 181.358 83.2999 179.746 83.3901C178.088 83.4832 176.469 82.5489 175.291 81.4708C174.75 80.976 174.256 80.4193 173.723 79.9157C170.408 76.7878 166.966 75.3531 162.989 78.4664C162.737 78.663 162.486 78.8711 162.245 79.0806C162.173 79.1433 162.113 79.2217 162.042 79.2851C161.659 79.6282 161.219 79.8969 160.892 80.3083C160.147 81.137 159.06 81.7486 157.979 82.0178C156.931 82.0942 156.074 81.983 155.092 81.5532C152.236 80.3048 150.138 76.1392 147.693 73.9806C147.646 73.9387 147.605 73.8866 147.557 73.8454C146.432 72.8866 144.769 72.0516 143.272 72.0299C141.351 71.7649 139.19 73.2792 137.304 73.82C134.881 74.5151 133.516 73.8792 131.824 72.0434C131.45 71.6369 130.825 70.6333 130.432 70.3857C130.134 70.1982 128.993 70.1201 128.632 70.237C126.275 70.9997 127.673 73.5849 128.686 74.8742C129.168 75.4887 129.442 75.7449 130.049 76.2265C132.414 78.1036 135.144 79.0924 138.103 78.1119C141.011 77.1486 142.7 74.7143 145.569 77.6905C147.108 79.2872 148.624 81.6044 150.482 83.2425C153.284 85.7133 156.954 87.0669 160.54 85.5012C163.472 84.2214 165.644 79.6674 169.213 81.2909C170.742 81.9867 172.083 83.9651 173.371 85.1099C176.812 88.1674 182.638 89.0293 185.929 85.195C187.266 83.6387 187.323 80.7528 184.861 80.5485ZM188.628 104.84C190.614 101.861 191.008 97.8064 188.484 94.9617C185.138 91.1923 175.966 93.05 171.368 93.2693C168.694 93.3972 165.922 93.4148 163.289 93.3069C154.319 92.9387 145.75 90.0743 137.729 86.145C135.662 85.1318 133.699 83.9103 131.538 83.0882C126.024 80.9926 119.754 81.2257 115.901 86.2667C115.74 86.429 115.683 86.5766 115.563 86.7434C113.961 88.9927 113.912 92.1149 114.764 94.6568C116.576 100.063 121.757 104.057 126.611 106.662C137.427 112.463 149.772 115.586 162.023 115.581C169.978 115.578 181.825 112.956 187.278 106.748C187.778 106.179 188.213 105.464 188.628 104.841L188.628 104.84ZM161.018 78.1351L151.779 76.2715C153.253 77.8875 155.32 81.0742 157.872 80.3806C159.072 80.0545 160.125 78.9637 161.019 78.1344L161.018 78.1351Z" fill="#412E12"/>
<path d="M188.627 104.705C188.058 105.063 187.585 105.59 187.037 105.997C185.636 107.039 183.625 108.016 182.024 108.737C177.341 110.845 172.26 112.08 167.135 112.193C167.575 110.568 165.691 110.694 165.331 111.488C165.27 111.621 165.187 112.34 165.235 112.473C159.214 112.325 153.067 112.019 147.133 110.914C142.684 110.086 138.895 108.626 134.758 106.839C134.627 106.782 134.573 106.674 134.385 106.761C134.998 106.076 133.933 104.349 133.116 104.927C132.926 105.061 132.645 105.587 132.616 105.818C131.508 105.375 130.385 104.874 129.317 104.341C124.816 102.096 120.964 99.2694 118.181 94.9803C116.685 92.6746 115.678 89.4387 116.072 86.7055L115.563 86.7416C115.682 86.5747 115.739 86.4272 115.9 86.2649C115.906 86.2588 115.953 86.3326 116.066 86.2296C116.269 86.0461 116.448 85.8403 116.645 85.6521C116.712 85.941 116.441 86.2898 116.241 86.4672C116.294 86.5355 116.318 86.5646 116.41 86.5703C116.546 86.5793 117.798 85.9094 118.104 85.7906C122.493 84.0913 127.305 84.7001 131.618 86.3213C132.272 86.5664 132.582 86.7552 133.256 86.9378C133.771 87.0776 133.786 87.3851 134.066 87.6202C136.063 89.2951 143.487 92.004 146.244 92.9866C154.615 95.9713 163.415 97.0932 172.265 96.863C176.799 96.7444 182.326 95.5435 186.46 97.9218C189.153 99.4709 190.363 101.937 188.626 104.704L188.627 104.705ZM176.136 105.257C176.359 105.246 176.929 104.962 177.119 104.819C179.179 103.265 176.687 102.128 175.72 103.431C175.359 103.918 175.254 105.303 176.136 105.257ZM165.097 105.074C164.923 103.23 161.661 105.381 163.066 106.53C163.981 107.278 165.173 105.884 165.097 105.074ZM155.444 100.63C155.455 100.586 155.372 100.479 155.39 100.398C155.482 99.9662 155.622 99.6689 155.292 99.2385C154.303 97.9403 152.928 100.2 154.154 101.071C154.529 101.338 155.346 101.024 155.444 100.63ZM145.409 103.524C144.724 103.114 143.821 104.082 143.434 104.586C143.12 104.996 143.359 105.557 143.853 105.664C144.941 105.898 146.451 104.147 145.41 103.524L145.409 103.524ZM136.822 95.4095C135.828 94.7374 133.916 96.1773 134.794 97.1575C135.53 97.978 138.364 96.4528 136.822 95.4095ZM125.613 93.6201C125.172 93.3136 124.655 93.7157 124.395 94.0732C123.738 94.979 124.668 97.2354 125.878 95.5595C126.208 95.1005 126.04 93.9164 125.613 93.6187L125.613 93.6201Z" fill="#FEAD33"/>
<path d="M174.804 78.8247C174.893 78.6757 174.989 78.7371 175.11 78.7203C175.698 78.6398 176.519 78.7361 177.146 78.7145C184.022 78.4728 193.953 76.9549 198.049 84.1263C200.845 89.023 197.657 94.8598 193.044 97.2893C192.79 97.4227 191.997 97.8619 191.814 97.5341C191.662 97.2618 191.488 96.3119 191.321 95.9005C188.249 88.3073 177.153 91.0101 170.817 91.3704C160.105 91.979 150.287 89.8151 140.578 85.2817C136.952 83.5885 133.602 81.374 129.694 80.3635C124.551 79.0337 118.835 79.678 115.144 83.8744C110.173 80.437 107.288 73.4358 110.601 67.9223C113.703 62.7581 119.682 62.7156 124.739 64.5809C129.584 66.3676 133.844 69.4861 138.517 71.6442C137.34 72.1284 136.116 72.7487 134.82 72.3636C132.393 71.6431 132.252 68.1544 128.898 68.685C125.466 69.2289 125.207 72.8808 126.856 75.3244C129.87 79.7931 135.62 81.6793 140.415 78.9645C141.967 78.085 142.874 76.8808 144.493 78.6475C145.377 79.6128 146.143 80.9349 147.014 81.9634C150.46 86.0359 155.221 89.3207 160.683 87.2265C163.434 86.1715 164.301 84.6049 166.368 82.8358C167.599 81.7823 168.418 82.4966 169.494 83.4326C172.393 85.9579 173.231 88.2025 177.394 89.2607C181.356 90.2682 187.226 88.355 188.443 84.0995C189.677 79.7782 184.571 77.0264 181.359 80.6661C180.742 81.364 180.83 81.9027 179.741 81.9004C178.892 81.8985 177.135 81.1365 176.544 80.5503L174.804 78.8247ZM124.278 67.831C124.243 67.3878 122.204 65.8074 121.79 65.7677C121.702 65.76 121.583 65.8989 121.399 65.8963C120.94 65.8901 120.354 65.3561 120.291 65.3537C120.245 65.3525 120.176 65.5096 120.045 65.5027C119.926 65.4971 119.579 65.2955 119.378 65.2597C118.826 65.1622 117.891 65.2183 117.683 65.8554C117.614 66.0641 118.203 66.9898 118.425 67.1254C118.483 67.1618 118.58 67.0602 118.71 67.1201C118.954 67.2325 119.115 67.4634 119.321 67.58C120.142 68.0444 122.277 68.9983 123.196 68.7983C123.556 68.7201 124.307 68.1826 124.279 67.8317L124.278 67.831Z" fill="#D61212"/>
<path d="M188.628 104.84L188.56 104.773C188.576 104.746 188.61 104.731 188.627 104.705C190.363 101.938 189.154 99.4715 186.46 97.9224C184.859 96.9798 183.292 96.8512 182.689 96.8082C176.306 96.3526 172.745 97.1448 172.744 97.1455C163.687 99.1629 151.401 95.7911 145.257 93.049C136.616 89.193 134.216 88.0527 134.216 88.0527C131.526 86.7745 131.186 86.5675 130.172 86.2919C125.781 85.1009 120.06 85.7112 118.664 86.2948C118.664 86.2948 117.507 86.7789 116.41 86.573C116.364 86.5644 116.322 86.5517 116.322 86.5517C116.125 86.492 115.988 86.3697 115.899 86.2676C119.752 81.2272 126.023 80.9941 131.536 83.089C133.698 83.9104 135.659 85.1319 137.727 86.1458C145.747 90.0751 154.317 92.9395 163.287 93.3077C165.919 93.4156 168.692 93.398 171.366 93.2701C175.964 93.0508 185.136 91.1931 188.482 94.9625C191.006 97.8072 190.613 101.862 188.626 104.841L188.627 104.84L188.628 104.84Z" fill="#F9AE53"/>
<path d="M188.794 104.583C188.49 105.101 187.995 105.883 187.279 106.747C183.999 110.702 179.574 112.26 175.59 113.491C171.904 114.628 167.989 115.526 162.024 115.58C157.053 115.626 139.583 115.57 123.654 105.098C121.273 103.533 116.128 99.8947 114.764 94.6559C114.423 93.3435 113.415 89.4748 115.443 86.796C115.62 86.5617 115.786 86.3824 115.902 86.2658C115.986 86.3361 116.07 86.4064 116.154 86.476C116.395 89.1067 117.169 92.6403 119.413 96.072C122.502 100.794 126.912 103.089 129.318 104.342C130.647 105.033 131.803 105.51 132.617 105.819C132.5 106.752 133.791 107.429 134.387 106.762C134.574 106.675 134.629 106.783 134.76 106.84C138.896 108.627 142.685 110.087 147.135 110.915C153.069 112.02 159.216 112.326 165.236 112.474C165.583 113.453 166.843 113.274 167.136 112.194C174.234 111.511 179.571 109.956 182.025 108.738C184.624 107.446 186.682 106.525 187.255 105.673C187.367 105.507 187.908 104.626 188.7 104.584C188.74 104.582 188.773 104.583 188.796 104.583L188.794 104.583Z" fill="#F79F2B"/>
<path d="M184.861 80.5484C185.187 80.5803 185.753 80.6887 186.225 81.1117C187.197 81.9836 186.98 83.4871 186.952 83.68C186.633 85.8819 183.568 87.8107 180.697 87.9896C177.009 88.2188 173.902 85.5646 173.372 85.1106C171.267 83.3084 170.294 81.1866 168.064 81.1191C167.518 81.1024 167.131 81.2167 166.626 81.3647C163.986 82.1409 163.48 84.1392 160.541 85.5025C160.177 85.6711 159.712 85.8916 159.071 86.0464C155.926 86.8083 152.064 85.3516 149.757 82.8177C148.857 81.8288 146.93 79.2872 145.571 77.6918C145.397 77.4889 144.962 76.9882 144.229 76.6728C144.229 76.6728 143.662 76.428 142.996 76.3948C141.357 76.314 139.514 77.8874 137.563 78.4312C134.55 79.2713 131.329 77.651 129.79 76.1901C129.28 75.7054 128.922 75.2289 128.687 74.8755C127.675 73.5862 126.276 71.001 128.634 70.2383C128.995 70.1214 130.136 70.1995 130.434 70.387C130.514 70.4729 131.075 71.085 130.979 71.1995C130.886 71.3092 130.238 70.9038 130.13 70.8364C128.768 70.7755 130.072 72.53 130.474 73.0002C132.294 75.1342 133.882 75.9844 136.668 75.687C139.603 75.3748 141.122 72.7035 144.198 74.0046C147.89 75.5672 149.291 78.8028 152.104 81.192C153.536 82.4083 156.494 83.9488 158.358 82.9437C158.477 82.8794 158.691 82.8031 158.492 82.662C156.118 82.7547 153.996 82.0669 152.373 80.2417C151.554 79.321 151.01 78.1317 150.307 77.2628C148.161 74.6067 144.625 71.3989 141.001 72.704C139.698 73.1731 138.476 73.8728 137.102 74.1589L137.304 73.8199C137.567 73.6382 140.751 71.4822 143.056 71.8318C143.275 71.8649 143.934 71.9884 144.721 72.25C145.833 72.6188 146.5 73.0282 146.672 73.1368C147.061 73.3823 147.349 73.6188 147.418 73.6769C147.606 73.8336 147.736 73.958 147.979 74.1974C149.186 75.3907 149.506 75.7859 149.709 76.0567C149.815 76.1988 149.893 76.3078 149.906 76.3261L149.908 76.3281C153.025 80.7449 155.092 81.5531 155.092 81.5531C155.759 81.8138 157.028 82.3103 158.304 81.8576C158.883 81.6521 159.815 80.9476 161.689 79.5506C161.839 79.4386 161.963 79.3458 162.042 79.285C162.067 79.2598 162.101 79.2244 162.143 79.1828C162.143 79.1828 162.237 79.0907 162.351 78.9898C162.462 78.8908 162.688 78.7032 162.99 78.467C166.967 75.3537 170.409 76.7884 173.723 79.9163C173.985 80.1718 174.247 80.4301 174.51 80.6911C174.773 80.9521 175.033 81.2124 175.291 81.4714C176.47 82.5495 178.088 83.4839 179.747 83.3907C181.359 83.3006 181.912 82.1854 183.031 81.3035L183.1 81.5056C182.894 81.6905 182.19 82.6616 182.19 82.8694C182.19 82.9033 182.364 83.494 182.393 83.5108C182.832 83.7745 183.712 82.5915 184.02 82.3478C184.207 82.1997 184.404 82.1887 184.561 82.0706C185.229 81.5708 185.379 81.2307 184.861 80.5491L184.861 80.5484ZM177.407 83.8384C178.306 84.6576 180.404 84.8485 181.381 84.1356C181.632 83.9526 181.845 83.8017 181.446 83.6451C180.648 83.3341 179.246 83.9122 178.185 83.6464C177.757 83.5389 177.875 83.2491 177.407 83.8384ZM176.044 83.0293C176.043 82.9695 175.332 82.3397 175.194 82.1834C173.862 80.6843 172.266 78.952 170.49 77.9647C168.685 76.9605 165.039 77.0863 163.431 78.4462C163.18 78.6584 162.437 79.3391 162.819 79.6498C163.322 80.0612 164.152 79.1833 164.654 78.9415C167.282 77.6786 170.878 79.3672 172.879 81.1073C173.614 81.7466 173.797 82.0215 174.65 82.5475C174.753 82.6103 176.058 83.5948 176.043 83.0286L176.044 83.0293Z" fill="#FFB923"/>
<path d="M122.792 61.7264C122.604 61.6634 121.827 61.5566 122.076 61.36C122.769 60.8139 124.137 60.2393 124.991 59.9832C130.282 58.3955 134.992 61.5177 139.537 63.8284C146.732 67.4854 154.503 70.1793 162.65 70.3567C167.055 70.4518 171.597 69.8627 175.956 69.9566C180.733 70.0597 185.896 71.4635 187.694 76.4642C187.674 76.6001 186.296 76.4041 186.133 76.4021C186.172 76.2247 185.947 76.0627 185.827 75.9634C181.408 72.3138 177.081 73.1757 171.895 73.3079C167.201 73.4272 163.117 73.4896 158.449 72.724C151.257 71.5446 144.594 69.172 137.985 66.1141C132.779 63.7063 129.132 61.0456 123.094 61.5541C122.939 61.5669 122.811 61.4948 122.791 61.7271L122.792 61.7264Z" fill="#FEAD33"/>
<path d="M186.133 76.4014C182.8 76.3547 179.383 76.7294 176.052 76.8179C175.236 76.8396 173.281 76.9659 172.59 76.8377C172.06 76.7401 171.16 76.0465 170.548 75.7951C168.662 75.0214 166.396 75.2012 164.506 75.8636C164.161 75.9852 163.756 76.3101 163.421 76.3271C162.365 76.3817 159.765 75.8941 158.598 75.7075C155.467 75.2092 152.402 74.4383 149.355 73.569C147.589 71.5041 144.874 70.2436 142.145 70.4389C141.818 70.462 141.358 70.6771 141.059 70.6145C140.753 70.5499 139.834 70.1076 139.495 69.9447C133.756 67.1915 128.932 63.7732 122.792 61.7237C122.811 61.4907 122.94 61.5635 123.095 61.5506C129.133 61.0428 132.78 63.7029 137.985 66.1107C144.595 69.1686 151.259 71.5405 158.45 72.7206C163.118 73.4862 167.202 73.4244 171.896 73.3045C177.082 73.1723 181.409 72.3111 185.827 75.9599C185.948 76.0592 186.173 76.2213 186.133 76.3986L186.133 76.4014Z" fill="#F79F2B"/>
<path d="M137.304 73.8199L137.102 74.1589C138.476 73.8728 139.698 73.1724 141.001 72.704C144.625 71.3989 148.161 74.6066 150.307 77.2627C151.01 78.1323 151.554 79.321 152.373 80.2417C153.996 82.0668 156.118 82.7547 158.492 82.662C158.691 82.8017 158.476 82.8786 158.358 82.9436C156.494 83.9488 153.536 82.4082 152.104 81.192C149.292 78.8035 147.89 75.5672 144.198 74.0045C141.122 72.7028 139.602 75.3741 136.668 75.687C135.427 75.8191 134.424 75.7235 133.532 75.389C132.111 74.8551 131.307 73.9527 130.474 73.0002C130 72.4589 129.234 71.5679 129.498 71.1037C129.603 70.9207 129.856 70.8205 130.053 70.8047C130.55 70.766 130.925 71.2499 130.98 71.1988C131.006 71.1735 130.94 71.0238 130.434 70.3863C130.827 70.6338 131.453 71.6382 131.826 72.044C133.517 73.879 134.883 74.5157 137.306 73.8206L137.305 73.8192L137.304 73.8199Z" fill="#F9AA00"/>
<path d="M161.018 78.1351C160.125 78.9637 159.072 80.0545 157.871 80.3813C155.32 81.0742 153.252 77.8882 151.778 76.2722L161.018 78.1358L161.018 78.1351Z" fill="#D61212"/>
<path d="M184.86 80.5482C185.379 81.2298 185.228 81.5699 184.561 82.0697C184.403 82.1878 184.206 82.1982 184.019 82.3469C183.711 82.5906 182.831 83.7743 182.392 83.51C182.364 83.4924 182.189 82.9024 182.189 82.8685C182.189 82.6607 182.893 81.6903 183.099 81.5048L183.03 81.3027C183.685 80.7867 183.973 80.4745 184.86 80.5482Z" fill="#F9AA00"/>
<path d="M176.136 105.257C175.254 105.304 175.359 103.918 175.72 103.431C176.687 102.127 179.179 103.265 177.119 104.819C176.929 104.962 176.359 105.245 176.136 105.257Z" fill="#412E12"/>
<path d="M136.822 95.4095C138.364 96.4534 135.53 97.978 134.794 97.1574C133.916 96.1772 135.828 94.7373 136.822 95.4095Z" fill="#412E12"/>
<path d="M165.097 105.074C165.174 105.883 163.981 107.277 163.066 106.53C161.661 105.382 164.923 103.23 165.097 105.074Z" fill="#412E12"/>
<path d="M125.613 93.62C126.041 93.9169 126.209 95.1011 125.878 95.5607C124.669 97.2367 123.738 94.9802 124.395 94.0745C124.655 93.7163 125.172 93.3142 125.613 93.6213L125.613 93.62Z" fill="#412E12"/>
<path d="M145.409 103.524C146.449 104.147 144.94 105.898 143.852 105.664C143.359 105.557 143.12 104.997 143.433 104.587C143.82 104.082 144.723 103.114 145.409 103.525L145.409 103.524Z" fill="#412E12"/>
<path d="M167.135 112.194C166.842 113.273 165.582 113.453 165.235 112.474C165.188 112.341 165.27 111.622 165.331 111.489C165.69 110.695 167.575 110.569 167.135 112.194Z" fill="#412E12"/>
<path d="M155.444 100.629C155.174 101.092 154.466 101.292 154.154 101.071C152.928 100.199 154.302 97.9393 155.293 99.2381C155.411 99.3938 155.457 99.5403 155.484 99.6352C155.531 99.7939 155.665 100.25 155.444 100.629Z" fill="#412E12"/>
<path d="M134.385 106.763C133.789 107.429 132.499 106.752 132.616 105.819C132.645 105.588 132.926 105.062 133.116 104.928C133.933 104.35 134.998 106.078 134.385 106.763Z" fill="#412E12"/>
<path d="M124.278 67.8308C124.214 68.3892 123.395 68.7178 123.195 68.7974C121.638 69.4217 119.936 68.299 119.301 67.8806C119.223 67.8293 118.835 67.5702 118.424 67.1258C117.956 66.6199 117.604 66.2411 117.682 65.8558C117.783 65.3605 118.556 65.0442 119.15 65.0261C119.536 65.0144 119.657 65.134 120.952 65.5259C121.574 65.7141 121.563 65.6911 121.79 65.7675C122.811 66.1103 124.372 67.015 124.278 67.8308Z" fill="#C11111"/>
<path d="M176.044 83.0293C176.059 83.5955 174.753 82.6117 174.651 82.5483C173.798 82.0229 173.615 81.748 172.88 81.108C170.878 79.368 167.283 77.68 164.655 78.9422C164.153 79.1833 163.323 80.0613 162.819 79.6506C162.437 79.3391 163.18 78.6591 163.431 78.4469C165.04 77.087 168.685 76.9619 170.491 77.9654C172.266 78.9528 173.862 80.6844 175.195 82.1841C175.333 82.3404 176.043 82.9689 176.045 83.03L176.044 83.0293Z" fill="#F9AA00"/>
<path d="M177.407 83.8381C177.875 83.2489 177.757 83.5386 178.185 83.6462C179.246 83.912 180.648 83.3338 181.446 83.6449C181.846 83.8007 181.632 83.9524 181.381 84.1354C180.404 84.8483 178.306 84.6573 177.407 83.8381Z" fill="#F9AA00"/>
</svg>
